%TF.GenerationSoftware,Altium Limited,Altium Designer,25.8.1 (18)*%
G04 Layer_Color=128*
%FSLAX45Y45*%
%MOMM*%
%TF.SameCoordinates,3C732834-BD61-4246-A9FA-FFAE46B4E806*%
%TF.FilePolarity,Positive*%
%TF.FileFunction,Drillmap*%
%TF.Part,Single*%
G01*
G75*
%TA.AperFunction,NonConductor*%
%ADD107C,0.12700*%
D107*
X4250000Y610000D02*
X4330000D01*
X4290000Y570000D02*
Y650000D01*
X3770000Y890000D02*
X3850000D01*
X3810000Y850000D02*
Y930000D01*
X3770000Y310000D02*
X3850000D01*
X3810000Y270000D02*
Y350000D01*
X1681901Y1175268D02*
X1750901D01*
X1716401Y1140768D02*
Y1209768D01*
X1427901Y1429268D02*
X1496901D01*
X1462401Y1394768D02*
Y1463768D01*
X1681901Y1683268D02*
X1750901D01*
X1716401Y1648768D02*
Y1717768D01*
X350000Y700000D02*
X1050000D01*
X700000Y350000D02*
Y1050000D01*
X4450000Y700000D02*
X5150000D01*
X4800000Y350000D02*
Y1050000D01*
X4042635Y2291761D02*
X4072635D01*
X4057635Y2276761D02*
Y2306761D01*
X4484920Y2202026D02*
X4514920D01*
X4499920Y2187026D02*
Y2217026D01*
X102355Y4607333D02*
X132355D01*
X117355Y4592333D02*
Y4622333D01*
X102355Y4502333D02*
X132355D01*
X117355Y4487333D02*
Y4517333D01*
X102355Y4397333D02*
X132355D01*
X117355Y4382333D02*
Y4412333D01*
X102355Y4292333D02*
X132355D01*
X117355Y4277333D02*
Y4307333D01*
X102355Y4187333D02*
X132355D01*
X117355Y4172333D02*
Y4202333D01*
X1960000Y4809263D02*
X1990000D01*
X1975000Y4794263D02*
Y4824263D01*
X2654121Y1439298D02*
X2684121D01*
X2669121Y1424298D02*
Y1454298D01*
X2182500Y1847748D02*
X2212500D01*
X2197500Y1832748D02*
Y1862748D01*
X4495000Y3587240D02*
X4525000D01*
X4510000Y3572240D02*
Y3602240D01*
X4625540Y4348895D02*
X4655540D01*
X4640540Y4333895D02*
Y4363895D01*
X4254491Y4348895D02*
X4284491D01*
X4269491Y4333895D02*
Y4363895D01*
X4042635Y4710000D02*
X4072635D01*
X4057635Y4695000D02*
Y4725000D01*
X5041120Y4590000D02*
X5071120D01*
X5056120Y4575000D02*
Y4605000D01*
X5041120Y4110000D02*
X5071120D01*
X5056120Y4095000D02*
Y4125000D01*
X5232554Y4350000D02*
X5262554D01*
X5247554Y4335000D02*
Y4365000D01*
X4484920Y1982026D02*
X4514920D01*
X4499920Y1967026D02*
Y1997026D01*
X5379580Y3249618D02*
X5409580D01*
X5394580Y3234618D02*
Y3264618D01*
X1061361Y1859500D02*
X1091361D01*
X1076361Y1844500D02*
Y1874500D01*
X1146204Y1859500D02*
X1176204D01*
X1161204Y1844500D02*
Y1874500D01*
X3199450Y2184700D02*
X3229449D01*
X3214450Y2169700D02*
Y2199700D01*
X3093639Y2184700D02*
X3123639D01*
X3108639Y2169700D02*
Y2199700D01*
X2987828Y2184700D02*
X3017828D01*
X3002828Y2169700D02*
Y2199700D01*
X3205328Y1773700D02*
X3235328D01*
X3220328Y1758700D02*
Y1788700D01*
X4154353Y2838306D02*
X4184353D01*
X4169353Y2823306D02*
Y2853306D01*
X535000Y3004500D02*
X565000D01*
X550000Y2989500D02*
Y3019500D01*
X2542298Y1096528D02*
X2572298D01*
X2557298Y1081528D02*
Y1111528D01*
X5052240Y1672607D02*
X5082240D01*
X5067240Y1657607D02*
Y1687607D01*
X4935000Y2563500D02*
X4965000D01*
X4950000Y2548500D02*
Y2578500D01*
X4233516Y2400133D02*
X4263516D01*
X4248516Y2385133D02*
Y2415133D01*
X4484920Y1494298D02*
X4514920D01*
X4499920Y1479298D02*
Y1509298D01*
X4354800Y3290320D02*
X4384800D01*
X4369800Y3275320D02*
Y3305320D01*
X5367645Y3579500D02*
X5397645D01*
X5382645Y3564500D02*
Y3594500D01*
X102355Y3355796D02*
X132355D01*
X117355Y3340796D02*
Y3370796D01*
X102355Y3666565D02*
X132355D01*
X117355Y3651565D02*
Y3681565D01*
X102355Y3560754D02*
X132355D01*
X117355Y3545754D02*
Y3575754D01*
X102355Y3454944D02*
X132355D01*
X117355Y3439944D02*
Y3469944D01*
X102355Y4082333D02*
X132355D01*
X117355Y4067333D02*
Y4097333D01*
X102355Y3771565D02*
X132355D01*
X117355Y3756565D02*
Y3786565D01*
X102355Y3877375D02*
X132355D01*
X117355Y3862375D02*
Y3892375D01*
X102355Y3983186D02*
X132355D01*
X117355Y3968186D02*
Y3998186D01*
X502695Y4809263D02*
X532695D01*
X517695Y4794263D02*
Y4824263D01*
X396885Y4809263D02*
X426885D01*
X411885Y4794263D02*
Y4824263D01*
X291074Y4809263D02*
X321074D01*
X306074Y4794263D02*
Y4824263D01*
X607695Y4809263D02*
X637695D01*
X622695Y4794263D02*
Y4824263D01*
X918463Y4809263D02*
X948463D01*
X933463Y4794263D02*
Y4824263D01*
X812653Y4809263D02*
X842653D01*
X827653Y4794263D02*
Y4824263D01*
X706842Y4809263D02*
X736842D01*
X721842Y4794263D02*
Y4824263D01*
X1023464Y4809263D02*
X1053463D01*
X1038464Y4794263D02*
Y4824263D01*
X1334232Y4809263D02*
X1364232D01*
X1349232Y4794263D02*
Y4824263D01*
X1228421Y4809263D02*
X1258421D01*
X1243421Y4794263D02*
Y4824263D01*
X1122611Y4809263D02*
X1152611D01*
X1137611Y4794263D02*
Y4824263D01*
X1855000Y4809263D02*
X1885000D01*
X1870000Y4794263D02*
Y4824263D01*
X1538379Y4809263D02*
X1568379D01*
X1553379Y4794263D02*
Y4824263D01*
X1644189Y4809263D02*
X1674189D01*
X1659189Y4794263D02*
Y4824263D01*
X1750000Y4809263D02*
X1780000D01*
X1765000Y4794263D02*
Y4824263D01*
X1439232Y4809263D02*
X1469232D01*
X1454232Y4794263D02*
Y4824263D01*
X3099518Y1773700D02*
X3129517D01*
X3114518Y1758700D02*
Y1788700D01*
X2993707Y1773700D02*
X3023707D01*
X3008707Y1758700D02*
Y1788700D01*
X2882018Y1773700D02*
X2912018D01*
X2897018Y1758700D02*
Y1788700D01*
X2882018Y2079838D02*
X2912018D01*
X2897018Y2064838D02*
Y2094838D01*
X2882018Y1978825D02*
X2912018D01*
X2897018Y1963825D02*
Y1993825D01*
X2882018Y1877812D02*
X2912018D01*
X2897018Y1862812D02*
Y1892812D01*
X2882018Y2184700D02*
X2912018D01*
X2897018Y2169700D02*
Y2199700D01*
X1920908Y1773700D02*
X1950908D01*
X1935908Y1758700D02*
Y1788700D01*
X2345566Y2184700D02*
X2375566D01*
X2360566Y2169700D02*
Y2199700D01*
X2345613Y2079209D02*
X2375613D01*
X2360613Y2064209D02*
Y2094209D01*
X2344713Y1765900D02*
X2374713D01*
X2359713Y1750900D02*
Y1780900D01*
X2345613Y1868399D02*
X2375613D01*
X2360613Y1853399D02*
Y1883399D01*
X2345613Y1974209D02*
X2375613D01*
X2360613Y1959209D02*
Y1989209D01*
X2656335Y2184700D02*
X2686334D01*
X2671335Y2169700D02*
Y2199700D01*
X2550524Y2184700D02*
X2580524D01*
X2565524Y2169700D02*
Y2199700D01*
X2444713Y2184700D02*
X2474713D01*
X2459713Y2169700D02*
Y2199700D01*
X2761335Y2184700D02*
X2791335D01*
X2776335Y2169700D02*
Y2199700D01*
X2456403Y1765900D02*
X2486402D01*
X2471402Y1750900D02*
Y1780900D01*
X2562213Y1765900D02*
X2592213D01*
X2577213Y1750900D02*
Y1780900D01*
X2668024Y1765900D02*
X2698024D01*
X2683024Y1750900D02*
Y1780900D01*
X2761335Y1877812D02*
X2791335D01*
X2776335Y1862812D02*
Y1892812D01*
X2761335Y1978825D02*
X2791335D01*
X2776335Y1963825D02*
Y1993825D01*
X2761335Y2079838D02*
X2791335D01*
X2776335Y2064838D02*
Y2094838D01*
X4678834Y3898683D02*
X4708834D01*
X4693834Y3883683D02*
Y3913683D01*
X4547635Y4929882D02*
X4577635D01*
X4562635Y4914882D02*
Y4944882D01*
X991991Y2134310D02*
X1021991D01*
X1006991Y2119310D02*
Y2149310D01*
X1076833Y2134500D02*
X1106833D01*
X1091833Y2119500D02*
Y2149500D01*
X1161676Y2134500D02*
X1191676D01*
X1176676Y2119500D02*
Y2149500D01*
X1246518Y2134500D02*
X1276518D01*
X1261518Y2119500D02*
Y2149500D01*
X2782018Y1765633D02*
X2812018D01*
X2797018Y1750633D02*
Y1780633D01*
X926961Y1160022D02*
X956961D01*
X941961Y1145022D02*
Y1175022D01*
X2442500Y1434298D02*
X2472500D01*
X2457500Y1419298D02*
Y1449298D01*
X959461Y1677500D02*
X989461D01*
X974461Y1662500D02*
Y1692500D01*
X4868887Y3815533D02*
X4898887D01*
X4883887Y3800533D02*
Y3830533D01*
%TF.MD5,dd1853623f1b47f970ed8191276502ff*%
M02*
