%TF.GenerationSoftware,Altium Limited,Altium Designer,25.8.1 (18)*%
G04 Layer_Color=32896*
%FSLAX45Y45*%
%MOMM*%
%TF.SameCoordinates,31CB80A2-479A-446C-ADBC-C5F5D25BA048*%
%TF.FilePolarity,Positive*%
%TF.FileFunction,Legend,Bot*%
%TF.Part,Single*%
G01*
G75*
%TA.AperFunction,NonConductor*%
%ADD17C,0.25400*%
%ADD18C,0.20000*%
%ADD19C,0.15240*%
%ADD20R,4.50000X0.80000*%
D17*
X449216Y3020101D02*
X423824Y3045493D01*
Y3096277D01*
X449216Y3121668D01*
X474608D01*
X500000Y3096277D01*
Y3045493D01*
X525391Y3020101D01*
X550783D01*
X576175Y3045493D01*
Y3096277D01*
X550783Y3121668D01*
X423824Y2969318D02*
X576175D01*
X525391Y2918534D01*
X576175Y2867750D01*
X423824D01*
X776175Y3121668D02*
X623824D01*
Y3045493D01*
X649216Y3020101D01*
X700000D01*
X725391Y3045493D01*
Y3121668D01*
Y3070885D02*
X776175Y3020101D01*
X623824Y2867750D02*
Y2969318D01*
X776175D01*
Y2867750D01*
X700000Y2969318D02*
Y2918534D01*
X623824Y2816967D02*
X776175D01*
Y2740792D01*
X750783Y2715400D01*
X649216D01*
X623824Y2740792D01*
Y2816967D01*
X849216Y3020101D02*
X823825Y3045493D01*
Y3096277D01*
X849216Y3121669D01*
X950783D01*
X976175Y3096277D01*
Y3045493D01*
X950783Y3020101D01*
X900000D01*
Y3070885D01*
X976175Y2969318D02*
X823825D01*
Y2893143D01*
X849216Y2867751D01*
X900000D01*
X925392Y2893143D01*
Y2969318D01*
Y2918534D02*
X976175Y2867751D01*
Y2816967D02*
X823825D01*
X976175Y2715400D01*
X823825D01*
X1049217Y3020101D02*
X1023825Y3045493D01*
Y3096277D01*
X1049217Y3121669D01*
X1150784D01*
X1176175Y3096277D01*
Y3045493D01*
X1150784Y3020101D01*
X1100000D01*
Y3070885D01*
X1176175Y2969318D02*
X1023825D01*
X1176175Y2867751D01*
X1023825D01*
Y2816967D02*
X1176175D01*
Y2740792D01*
X1150784Y2715400D01*
X1049217D01*
X1023825Y2740792D01*
Y2816967D01*
X749217Y2298526D02*
X723825Y2323918D01*
Y2374701D01*
X749217Y2400093D01*
X850784D01*
X876176Y2374701D01*
Y2323918D01*
X850784Y2298526D01*
X800001D01*
Y2349310D01*
X876176Y2247743D02*
X723825D01*
X876176Y2146175D01*
X723825D01*
Y2095392D02*
X876176D01*
Y2019216D01*
X850784Y1993825D01*
X749217D01*
X723825Y2019216D01*
Y2095392D01*
X626175D02*
X524608D01*
X473825Y2044608D01*
X524608Y1993825D01*
X626175D01*
X550000D01*
Y2095392D01*
X973825D02*
X1126175D01*
Y2019216D01*
X1100783Y1993825D01*
X1075392D01*
X1050000Y2019216D01*
Y2095392D01*
Y2019216D01*
X1024608Y1993825D01*
X999216D01*
X973825Y2019216D01*
Y2095392D01*
X246176Y295038D02*
X93826D01*
Y218862D01*
X119217Y193470D01*
X170001D01*
X195393Y218862D01*
Y295038D01*
X246176Y142687D02*
Y91903D01*
Y117295D01*
X93826D01*
X119217Y142687D01*
D18*
X26001Y26471D02*
Y926471D01*
X1574001D01*
X26001Y26471D02*
X1574001D01*
Y926471D01*
D19*
X1247713Y548903D02*
X1180001D01*
Y599687D01*
X1213857Y582759D01*
X1230785D01*
X1247713Y599687D01*
Y633543D01*
X1230785Y650471D01*
X1196929D01*
X1180001Y633543D01*
X427713Y402471D02*
X360001D01*
X427713Y334759D01*
Y317831D01*
X410785Y300903D01*
X376929D01*
X360001Y317831D01*
X1247713Y294903D02*
X1213857Y311831D01*
X1180001Y345687D01*
Y379543D01*
X1196929Y396471D01*
X1230785D01*
X1247713Y379543D01*
Y362615D01*
X1230785Y345687D01*
X1180001D01*
X390001Y656471D02*
X423857D01*
X406929D01*
Y554903D01*
X390001Y571831D01*
D20*
X800010Y886464D02*
D03*
%TF.MD5,b19e3732ce78a5aec72e8a77fecb4c1a*%
M02*
