%TF.GenerationSoftware,Altium Limited,Altium Designer,25.1.2 (22)*%
G04 Layer_Color=8388736*
%FSLAX45Y45*%
%MOMM*%
%TF.SameCoordinates,D34C3C7F-A8EF-4FA2-9E31-3267E9B326CF*%
%TF.FilePolarity,Negative*%
%TF.FileFunction,Soldermask,Top*%
%TF.Part,Single*%
G01*
G75*
%TA.AperFunction,ComponentPad*%
%ADD27C,1.02000*%
%TA.AperFunction,SMDPad,CuDef*%
%ADD54R,1.60000X1.10000*%
%TA.AperFunction,ComponentPad*%
G04:AMPARAMS|DCode=55|XSize=1.8mm|YSize=2.6mm|CornerRadius=0mm|HoleSize=0mm|Usage=FLASHONLY|Rotation=242.304|XOffset=0mm|YOffset=0mm|HoleType=Round|Shape=Round|*
%AMOVALD55*
21,1,0.80000,1.80000,0.00000,0.00000,332.304*
1,1,1.80000,-0.35417,0.18591*
1,1,1.80000,0.35417,-0.18591*
%
%ADD55OVALD55*%

G04:AMPARAMS|DCode=56|XSize=1.8mm|YSize=2.6mm|CornerRadius=0mm|HoleSize=0mm|Usage=FLASHONLY|Rotation=214.612|XOffset=0mm|YOffset=0mm|HoleType=Round|Shape=Round|*
%AMOVALD56*
21,1,0.80000,1.80000,0.00000,0.00000,304.612*
1,1,1.80000,-0.22721,0.32921*
1,1,1.80000,0.22721,-0.32921*
%
%ADD56OVALD56*%

G04:AMPARAMS|DCode=57|XSize=1.8mm|YSize=2.6mm|CornerRadius=0mm|HoleSize=0mm|Usage=FLASHONLY|Rotation=186.920|XOffset=0mm|YOffset=0mm|HoleType=Round|Shape=Round|*
%AMOVALD57*
21,1,0.80000,1.80000,0.00000,0.00000,276.92*
1,1,1.80000,-0.04819,0.39709*
1,1,1.80000,0.04819,-0.39709*
%
%ADD57OVALD57*%

G04:AMPARAMS|DCode=58|XSize=1.8mm|YSize=2.6mm|CornerRadius=0mm|HoleSize=0mm|Usage=FLASHONLY|Rotation=159.228|XOffset=0mm|YOffset=0mm|HoleType=Round|Shape=Round|*
%AMOVALD58*
21,1,0.80000,1.80000,0.00000,0.00000,249.228*
1,1,1.80000,0.14186,0.37400*
1,1,1.80000,-0.14186,-0.37400*
%
%ADD58OVALD58*%

G04:AMPARAMS|DCode=59|XSize=1.8mm|YSize=2.6mm|CornerRadius=0mm|HoleSize=0mm|Usage=FLASHONLY|Rotation=131.536|XOffset=0mm|YOffset=0mm|HoleType=Round|Shape=Round|*
%AMOVALD59*
21,1,0.80000,1.80000,0.00000,0.00000,221.536*
1,1,1.80000,0.29942,0.26523*
1,1,1.80000,-0.29942,-0.26523*
%
%ADD59OVALD59*%

G04:AMPARAMS|DCode=60|XSize=1.8mm|YSize=2.6mm|CornerRadius=0mm|HoleSize=0mm|Usage=FLASHONLY|Rotation=103.844|XOffset=0mm|YOffset=0mm|HoleType=Round|Shape=Round|*
%AMOVALD60*
21,1,0.80000,1.80000,0.00000,0.00000,193.844*
1,1,1.80000,0.38838,0.09571*
1,1,1.80000,-0.38838,-0.09571*
%
%ADD60OVALD60*%

G04:AMPARAMS|DCode=61|XSize=1.8mm|YSize=2.6mm|CornerRadius=0mm|HoleSize=0mm|Usage=FLASHONLY|Rotation=76.152|XOffset=0mm|YOffset=0mm|HoleType=Round|Shape=Round|*
%AMOVALD61*
21,1,0.80000,1.80000,0.00000,0.00000,166.152*
1,1,1.80000,0.38837,-0.09574*
1,1,1.80000,-0.38837,0.09574*
%
%ADD61OVALD61*%

G04:AMPARAMS|DCode=62|XSize=1.8mm|YSize=2.6mm|CornerRadius=0mm|HoleSize=0mm|Usage=FLASHONLY|Rotation=48.460|XOffset=0mm|YOffset=0mm|HoleType=Round|Shape=Round|*
%AMOVALD62*
21,1,0.80000,1.80000,0.00000,0.00000,138.46*
1,1,1.80000,0.29940,-0.26526*
1,1,1.80000,-0.29940,0.26526*
%
%ADD62OVALD62*%

G04:AMPARAMS|DCode=63|XSize=1.8mm|YSize=2.6mm|CornerRadius=0mm|HoleSize=0mm|Usage=FLASHONLY|Rotation=20.768|XOffset=0mm|YOffset=0mm|HoleType=Round|Shape=Round|*
%AMOVALD63*
21,1,0.80000,1.80000,0.00000,0.00000,110.768*
1,1,1.80000,0.14183,-0.37401*
1,1,1.80000,-0.14183,0.37401*
%
%ADD63OVALD63*%

G04:AMPARAMS|DCode=64|XSize=1.8mm|YSize=2.6mm|CornerRadius=0mm|HoleSize=0mm|Usage=FLASHONLY|Rotation=353.076|XOffset=0mm|YOffset=0mm|HoleType=Round|Shape=Round|*
%AMOVALD64*
21,1,0.80000,1.80000,0.00000,0.00000,83.076*
1,1,1.80000,-0.04822,-0.39708*
1,1,1.80000,0.04822,0.39708*
%
%ADD64OVALD64*%

G04:AMPARAMS|DCode=65|XSize=1.8mm|YSize=2.6mm|CornerRadius=0mm|HoleSize=0mm|Usage=FLASHONLY|Rotation=325.384|XOffset=0mm|YOffset=0mm|HoleType=Round|Shape=Round|*
%AMOVALD65*
21,1,0.80000,1.80000,0.00000,0.00000,55.384*
1,1,1.80000,-0.22723,-0.32919*
1,1,1.80000,0.22723,0.32919*
%
%ADD65OVALD65*%

G04:AMPARAMS|DCode=66|XSize=1.8mm|YSize=2.6mm|CornerRadius=0mm|HoleSize=0mm|Usage=FLASHONLY|Rotation=297.692|XOffset=0mm|YOffset=0mm|HoleType=Round|Shape=Round|*
%AMOVALD66*
21,1,0.80000,1.80000,0.00000,0.00000,27.692*
1,1,1.80000,-0.35418,-0.18589*
1,1,1.80000,0.35418,0.18589*
%
%ADD66OVALD66*%

%ADD67O,2.60000X1.80000*%
%TA.AperFunction,ViaPad*%
%ADD68C,4.20000*%
%TA.AperFunction,WasherPad*%
%ADD69C,8.20000*%
D27*
X706500Y11680500D02*
D03*
Y11045500D02*
D03*
D54*
X2750956Y7894586D02*
D03*
Y7699586D02*
D03*
X2749273Y4117367D02*
D03*
Y3922367D02*
D03*
X2749824Y10397055D02*
D03*
Y10202055D02*
D03*
X2750207Y14177357D02*
D03*
Y13982356D02*
D03*
X2750113Y16677158D02*
D03*
Y16482158D02*
D03*
X2750000Y1617500D02*
D03*
Y1422500D02*
D03*
D55*
X2218745Y16858868D02*
D03*
Y14358868D02*
D03*
Y10578869D02*
D03*
Y8078869D02*
D03*
Y4298869D02*
D03*
Y1798869D02*
D03*
D56*
X2409191Y17073811D02*
D03*
Y14573811D02*
D03*
Y10793811D02*
D03*
Y8293811D02*
D03*
Y4513811D02*
D03*
Y2013811D02*
D03*
D57*
X2677711Y17175629D02*
D03*
Y14675629D02*
D03*
Y10895629D02*
D03*
Y8395629D02*
D03*
Y4615629D02*
D03*
Y2115629D02*
D03*
D58*
X2962791Y17141000D02*
D03*
Y14640999D02*
D03*
Y10860999D02*
D03*
Y8360999D02*
D03*
Y4580999D02*
D03*
Y2080999D02*
D03*
D59*
X3199124Y16977853D02*
D03*
Y14477853D02*
D03*
Y10697854D02*
D03*
Y8197854D02*
D03*
Y4417854D02*
D03*
Y1917854D02*
D03*
D60*
X3332570Y16723567D02*
D03*
Y14223567D02*
D03*
Y10443567D02*
D03*
Y7943567D02*
D03*
Y4163567D02*
D03*
Y1663567D02*
D03*
D61*
X3332560Y16436392D02*
D03*
Y13936391D02*
D03*
Y10156391D02*
D03*
Y7656391D02*
D03*
Y3876392D02*
D03*
Y1376391D02*
D03*
D62*
X3199095Y16182114D02*
D03*
Y13682114D02*
D03*
Y9902114D02*
D03*
Y7402114D02*
D03*
Y3622114D02*
D03*
Y1122114D02*
D03*
D63*
X2962750Y16018987D02*
D03*
Y13518987D02*
D03*
Y9738986D02*
D03*
Y7238986D02*
D03*
Y3458986D02*
D03*
Y958986D02*
D03*
D64*
X2677668Y15984377D02*
D03*
Y13484377D02*
D03*
Y9704376D02*
D03*
Y7204376D02*
D03*
Y3424376D02*
D03*
Y924376D02*
D03*
D65*
X2409156Y16086214D02*
D03*
Y13586214D02*
D03*
Y9806214D02*
D03*
Y7306214D02*
D03*
Y3526214D02*
D03*
Y1026214D02*
D03*
D66*
X2218725Y16301170D02*
D03*
Y13801170D02*
D03*
Y10021169D02*
D03*
Y7521169D02*
D03*
Y3741170D02*
D03*
Y1241169D02*
D03*
D67*
X2150000Y16580000D02*
D03*
Y14080000D02*
D03*
Y10300000D02*
D03*
Y7800000D02*
D03*
Y4020000D02*
D03*
Y1520000D02*
D03*
X2750000Y12020000D02*
D03*
Y12360000D02*
D03*
Y5740000D02*
D03*
Y6080000D02*
D03*
D68*
X1500000Y9050000D02*
D03*
X4000000D02*
D03*
X4800000Y17400000D02*
D03*
X700000D02*
D03*
X4800000Y700000D02*
D03*
X700000D02*
D03*
X4700001Y16500000D02*
D03*
Y14100000D02*
D03*
D69*
X4700000Y15330000D02*
D03*
%TF.MD5,53f10b1e7d535a79ed83593df06ed387*%
M02*
