M48
;Layer_Color=9474304
;FILE_FORMAT=4:4
METRIC,TZ
;TYPE=PLATED
T01F00S00C0.3000
T02F00S00C1.4000
T03F00S00C2.5000
;TYPE=NON_PLATED
T04F00S00C1.0200
T05F00S00C8.0000
%
T01
X66009Y36149
X36009Y66149
X96009Y36149
X126009
X156009
X186009
X192000Y49000
X216009Y36149
X246009
X276009
X306009
X336009
X366009
X396009
X426009
X456009
X426009Y66149
X396009
X336000Y68000
X307000
X276000
X141000Y61000
X486009Y36149
X516009Y66149
Y96149
X456009
X426009
Y126149
X396009
Y156149
X382000Y167000
X392000Y194000
X403000Y222000
X426009Y216149
X456009
Y186149
X426009
Y156149
X372000Y135000
X362000Y109000
X352000Y82000
X396009Y96149
X275000Y112000
X246000Y126000
X239000Y79000
X212000Y99000
X195000Y86000
X132000Y74000
X96009Y96149
Y126149
Y156149
Y186149
Y216149
X95000Y248000
X111000Y245000
X122000Y272000
Y302000
Y332000
X132000Y327000
X141000Y317000
X162000Y306000
X155000Y294000
X171000Y294000
X170000Y269000
X154000Y269000
X210000Y268000
Y294000
X240000
Y268000
X272000
X284000Y282000
X302000Y268000
X332000
Y237000
X302000
X303000Y319000
X333000
X352000Y332000
X342000Y346000
X362000Y359000
X353000Y374000
X372000Y386000
X362000Y402000
X382000Y417037
X378000Y431000
Y458000
X392484Y444010
X348000Y431000
Y458000
X311000Y402000
X277399Y423352
X271000Y430000
X275000Y363000
X246000Y376000
X234000Y328000
X212000Y349000
X170123Y339065
X95000Y338000
Y368000
Y398000
X96009Y426149
X122000Y426000
Y456000
X96009Y456149
X123000Y382000
X95000Y308000
Y278000
X221000Y232000
Y212000
X191000Y178000
X271000Y180000
X277472Y173365
X311000Y152000
X413000Y252000
X426009Y246149
X449000Y243000
X459000Y295000
X456000Y358000
X433000Y359000
X423000Y332000
X444000Y386000
X455000Y417000
X467000Y444000
X214000Y458000
X192242Y428909
X273000Y319000
X123500Y132000
X36009Y96149
Y426149
X66009
Y456149
X36009
Y486149
X66009
Y516149
Y546149
Y576149
Y606149
X36009
Y576149
Y546149
Y516149
X45000Y635000
X19000Y644000
X12000Y653000
X32000Y662000
X45000Y697000
X31000Y739000
X45000Y769000
X34000Y809000
X45000Y842000
X78000Y811000
X88000Y816504
X108000Y801000
X123000Y761000
X87966Y743004
X98250Y729250
X111000Y689000
X122000Y668000
X141000Y685000
X170000Y717000
X211000Y726000
X242405Y703405
X242000Y667000
X217000
X267000
X280000Y683000
X293000Y699000
X322000Y683000
X307000Y668000
X291000Y652000
X340000Y651000
X352000Y724000
X377000
X402000
X423000Y710000
X433000Y737000
X444000Y764000
X455000Y795000
X467000Y822000
X429000Y837000
X370000
X345000
X336000Y863000
X311000
X286000
X251705Y866439
X219800Y829209
X191500Y807000
X271000Y808000
X277567Y801074
X311000Y796000
X370000Y779000
X395000
X388000Y750000
X363000
X275000Y741000
X233000Y604000
X214000Y604000
Y574000
X233000Y574000
Y527000
X211000
X188500Y545000
X122000Y546000
X96009Y546149
Y576149
X122000Y576000
Y606000
X96009Y606149
X87966Y670390
X149500Y626000
X122000Y516000
X96009Y516149
Y486149
X111000Y497000
X122000Y486000
X168000Y486565
X233000Y499000
X249512Y488565
X304000Y487000
X334000
X364000
X394000
X403000Y472000
X413000Y501000
X407000Y558000
X377000
X347000
X317000
X320000Y571000
X317000Y528000
X347000
X377000
Y588000
X407000
X408966Y628309
X444000Y626000
X455000Y657000
X467000Y730000
X509966Y730159
X509966Y657618
X513000Y635000
X530000Y530000
X489000Y501000
X478000Y472000
X518000Y795000
X509000Y809000
X530000Y832000
X478000Y850000
X489000Y866000
X509000Y896000
X509966Y916052
X478000Y916000
X480000Y986000
X510966Y989412
X491000Y1061000
X505000Y1086000
X500000Y1114000
Y1125000
X470000Y1125000
X530000Y1069000
X509000Y1206000
Y1220000
X513520Y1250334
X425730Y1250270
Y1234270
Y1218270
X426000Y1179000
Y1165000
Y1151000
Y1138000
X414000Y1108000
X405000Y1100000
X426000Y1086000
X456000Y1082000
X455870Y1056097
X438000Y1056000
X395000Y1072000
X385000Y1045000
X376000Y1014000
X367000Y987000
X358000Y960000
X367000Y943000
X388000Y942000
Y966000
X414000Y942000
X429000Y884000
X323705Y891439
X299706
X275706
X251705
X251975Y916909
X275975
X299975
X323975
X345000Y932000
X341000Y973000
X343000Y999000
X348000Y1030000
X312000
Y1045000
X277454Y1051321
X271000Y1058000
X248384Y1099475
X290000Y1113000
X316000
Y1089000
X342000
Y1113000
Y1152000
X330000Y1163000
X316000Y1152000
X274379Y1151500
X232904Y1149096
X224000Y1149000
X237000Y1165000
X202000Y1171000
X209000Y1178000
X216000Y1186000
X222000Y1200000
X237000Y1217000
X237000Y1227000
X237000Y1237000
X237000Y1247000
Y1257000
X199500Y1251000
X206000Y1244000
X188000Y1233000
X199000Y1222000
Y1211000
X155500Y1239000
X154000Y1249000
X123096Y1223904
X135000Y1193500
X117000Y1186000
X149000Y1181000
X149129Y1172831
X149000Y1165000
X148677Y1156481
X142000Y1149981
X127000Y1143000
X120000Y1133000
X85490Y1077510
X90995Y1069010
X124000Y1010000
X147000Y987000
X161000Y968000
X108000Y949000
X98087Y957549
X87966Y960949
X87966Y889500
X178000Y867000
X246000Y959000
X286000Y954000
X291000Y995000
X275484Y990838
X249894Y1001894
X191500Y1052500
X320000Y1199000
X335000Y1197000
X346977Y1181026
X468000Y983000
X98637Y1258334
X55000Y1222000
X26000Y1229000
X19250Y1235750
X11738Y1242439
X33383Y1189242
X42636Y1189183
X50000Y1162000
Y1149000
Y1111000
X52000Y1078000
X60000Y1063000
Y1047000
Y1031000
X52000Y987000
X43211Y946258
X45000Y916000
X30000Y1277000
Y1303000
Y1329000
Y1355000
Y1381000
Y1407000
X22000Y1474000
X51000Y1475000
X36009Y1510149
Y1536149
Y1562149
Y1596149
X66009
Y1626149
Y1656149
X36009
Y1626149
X62009Y1536149
X69000Y1344000
X70811Y1325971
X71000Y1314000
X69926Y1301000
X97000Y1313000
X115000
X132000
X148383Y1311971
X152000Y1327000
X162990Y1343010
X180622Y1354622
X203000Y1337000
X188000Y1315500
X189000Y1295000
X204000Y1266000
X237000Y1267000
X264000Y1275000
X281000Y1308000
X291000Y1300000
X334000
X332000Y1318000
X319000
X345000Y1310000
X358000Y1338000
X340000Y1351000
X344000Y1377000
X346000Y1408000
Y1437000
X340000Y1464000
X328000Y1491000
X302000
X304270Y1539270
X330270
Y1565270
X304270
X261000Y1539000
Y1513000
X235000
Y1539000
X187500Y1553500
X177000Y1574000
X209000Y1583000
Y1608000
X246000Y1632000
X275000Y1618000
X311000Y1658000
X352479Y1657614
X369479
X356850Y1629149
X437000Y1621000
Y1591000
X461000Y1607000
X437000Y1651000
X414000Y1504000
X405000Y1478000
X436000Y1475000
Y1445000
Y1415000
Y1385000
Y1355000
X460000Y1371000
X458000Y1326000
Y1312000
X429000Y1311000
X424000Y1276000
Y1266000
X445000Y1275000
X459000
X367000Y1365000
X376000Y1392000
X385000Y1423000
X395000Y1450000
X460000Y1461000
X312000Y1408000
X289000
X277493Y1429351
X271000Y1436000
X275000Y1368000
X246000Y1382000
X237075Y1305925
X224355Y1317250
X209000Y1458000
Y1468000
X187000Y1480000
X141000Y1475000
Y1498000
Y1538000
Y1564000
X106000Y1587000
X96009Y1596149
Y1626149
Y1656149
X124086Y1638287
X88009Y1536149
X88000Y1475000
X93000Y1443000
X116000Y1430000
X124457Y1388384
X82000Y1381000
Y1355000
Y1407000
X166000Y1522000
X490000Y1461000
X510000Y1475000
Y1445000
Y1415000
Y1385000
Y1355000
X490000Y1371000
X505250Y1311000
X489000Y1266000
X491000Y1607000
X511000Y1621000
Y1591000
Y1651000
Y1681000
X437000Y1681000
X426009Y1746149
Y1776149
X456009
X396009
X366009
X336009
X306009
X276009
X246009
X216009
Y1746149
X268000Y1741000
X271500Y1686298
X277483Y1679331
X354007Y1693984
X371007
X191500Y1685258
X126009Y1716149
Y1746149
X156009
Y1776149
X186009
X126009
X96009Y1686149
X66009
X36009
T02
X240916Y102621
X267767Y92438
X296275Y95899
X319909Y112211
X333256Y137639
X333257Y166357
X319912Y191785
X296279Y208100
X267771Y211563
X240919Y201381
X221875Y179887
X215000Y152000
X221873Y124117
X240916Y352621
X267767Y342438
X296275Y345899
X319909Y362211
X333256Y387639
X333257Y416357
X319912Y441785
X296279Y458100
X267771Y461563
X240919Y451381
X221875Y429887
X215000Y402000
X221873Y374117
X275000Y574000
Y608000
X267767Y720438
X296275Y723899
X319909Y740211
X333256Y765639
X333257Y794357
X319912Y819785
X296279Y836100
X267771Y839563
X240919Y829381
X221875Y807887
X215000Y780000
X221873Y752117
X240916Y730621
Y980621
X267767Y970438
X296275Y973899
X319909Y990211
X333256Y1015639
X333257Y1044357
X319912Y1069785
X296279Y1086100
X267771Y1089563
X240919Y1079381
X221875Y1057887
X215000Y1030000
X221873Y1002117
X275000Y1202000
Y1236000
X267767Y1348438
X296275Y1351899
X319909Y1368211
X333256Y1393639
X333257Y1422357
X319912Y1447785
X296279Y1464100
X267771Y1467563
X240919Y1457381
X221875Y1435887
X215000Y1408000
X221873Y1380117
X240916Y1358621
Y1608621
X267767Y1598438
X296275Y1601899
X319909Y1618211
X333256Y1643639
X221873Y1630117
X215000Y1658000
X221875Y1685887
X240919Y1707381
X267771Y1717563
X296279Y1714100
X319912Y1697785
X333257Y1672357
T03
X70000Y70000
X480000
X400000Y905000
X150000
X470000Y1410000
Y1650000
X480000Y1740000
X70000
T04
X70650Y1104550
Y1168050
T05
X470000Y1533000
M30
