%TF.GenerationSoftware,Altium Limited,Altium Designer,25.8.1 (18)*%
G04 Layer_Color=255*
%FSLAX45Y45*%
%MOMM*%
%TF.SameCoordinates,4E011409-0669-43A8-897D-BDB1029E6539*%
%TF.FilePolarity,Positive*%
%TF.FileFunction,Pads,Top*%
%TF.Part,Single*%
G01*
G75*
%TA.AperFunction,SMDPad,CuDef*%
%ADD10R,2.79000X0.74000*%
%TA.AperFunction,ComponentPad*%
G04:AMPARAMS|DCode=13|XSize=4mm|YSize=1.8mm|CornerRadius=0.45mm|HoleSize=0mm|Usage=FLASHONLY|Rotation=90.000|XOffset=0mm|YOffset=0mm|HoleType=Round|Shape=RoundedRectangle|*
%AMROUNDEDRECTD13*
21,1,4.00000,0.90000,0,0,90.0*
21,1,3.10000,1.80000,0,0,90.0*
1,1,0.90000,0.45000,1.55000*
1,1,0.90000,0.45000,-1.55000*
1,1,0.90000,-0.45000,-1.55000*
1,1,0.90000,-0.45000,1.55000*
%
%ADD13ROUNDEDRECTD13*%
G04:AMPARAMS|DCode=14|XSize=4mm|YSize=1.8mm|CornerRadius=0.45mm|HoleSize=0mm|Usage=FLASHONLY|Rotation=180.000|XOffset=0mm|YOffset=0mm|HoleType=Round|Shape=RoundedRectangle|*
%AMROUNDEDRECTD14*
21,1,4.00000,0.90000,0,0,180.0*
21,1,3.10000,1.80000,0,0,180.0*
1,1,0.90000,-1.55000,0.45000*
1,1,0.90000,1.55000,0.45000*
1,1,0.90000,1.55000,-0.45000*
1,1,0.90000,-1.55000,-0.45000*
%
%ADD14ROUNDEDRECTD14*%
%ADD15C,1.19000*%
%TA.AperFunction,WasherPad*%
%ADD16C,7.00000*%
D10*
X753500Y1293500D02*
D03*
X346500D02*
D03*
X753500Y1420500D02*
D03*
X346500D02*
D03*
X753500Y1547500D02*
D03*
X346500D02*
D03*
X753500Y1674500D02*
D03*
X346500D02*
D03*
X753500Y1801500D02*
D03*
X346500D02*
D03*
X753500Y1928500D02*
D03*
X346500D02*
D03*
X753500Y2055500D02*
D03*
X346500D02*
D03*
X753500Y2182500D02*
D03*
X346500D02*
D03*
X753500Y2309500D02*
D03*
X346500D02*
D03*
X753500Y2436500D02*
D03*
X346500D02*
D03*
X753500Y2563500D02*
D03*
X346500D02*
D03*
X753500Y2690500D02*
D03*
X346500D02*
D03*
X753500Y2817500D02*
D03*
X346500D02*
D03*
X753500Y2944500D02*
D03*
X346500D02*
D03*
X753500Y3071500D02*
D03*
X346500D02*
D03*
X753500Y3198500D02*
D03*
X346500D02*
D03*
X753500Y3325500D02*
D03*
X346500D02*
D03*
X753500Y3452500D02*
D03*
X346500D02*
D03*
X753500Y3579500D02*
D03*
X346500D02*
D03*
X753500Y3706500D02*
D03*
X346500D02*
D03*
X5153500Y1293500D02*
D03*
X4746500D02*
D03*
X5153500Y1420500D02*
D03*
X4746500D02*
D03*
X5153500Y1547500D02*
D03*
X4746500D02*
D03*
X5153500Y1674500D02*
D03*
X4746500D02*
D03*
X5153500Y1801500D02*
D03*
X4746500D02*
D03*
X5153500Y1928500D02*
D03*
X4746500D02*
D03*
X5153500Y2055500D02*
D03*
X4746500D02*
D03*
X5153500Y2182500D02*
D03*
X4746500D02*
D03*
X5153500Y2309500D02*
D03*
X4746500D02*
D03*
X5153500Y2436500D02*
D03*
X4746500D02*
D03*
X5153500Y2563500D02*
D03*
X4746500D02*
D03*
X5153500Y2690500D02*
D03*
X4746500D02*
D03*
X5153500Y2817500D02*
D03*
X4746500D02*
D03*
X5153500Y2944500D02*
D03*
X4746500D02*
D03*
X5153500Y3071500D02*
D03*
X4746500D02*
D03*
X5153500Y3198500D02*
D03*
X4746500D02*
D03*
X5153500Y3325500D02*
D03*
X4746500D02*
D03*
X5153500Y3452500D02*
D03*
X4746500D02*
D03*
X5153500Y3579500D02*
D03*
X4746500D02*
D03*
X5153500Y3706500D02*
D03*
X4746500D02*
D03*
D13*
X4290000Y610000D02*
D03*
D14*
X3810000Y890000D02*
D03*
Y310000D02*
D03*
D15*
X1716401Y1175268D02*
D03*
X1462401Y1429268D02*
D03*
X1716401Y1683268D02*
D03*
D16*
X700000Y700000D02*
D03*
X4800000D02*
D03*
%TF.MD5,349e1aa89abec19b22eb6f014d5c5ff3*%
M02*
