M48
;Layer_Color=9474304
;FILE_FORMAT=4:4
METRIC,TZ
;TYPE=PLATED
T01F00S00C0.3000
T02F00S00C0.6900
;TYPE=NON_PLATED
T04F00S00C7.0000
%
T01
X506724Y167261
X495000Y256350
X539458Y324962
X538265Y357950
X488389Y381553
X505612Y411000
X524755Y435000
X505612Y459000
X464054Y434889
X426949
X469383Y389868
X451000Y358724
X436980Y329032
X416935Y283831
X424852Y240013
X405764Y229176
X449992Y220203
Y198203
Y149430
X322033Y177370
X311452
X300871
X289702
Y187781
Y197882
Y207984
Y218470
X300283
X310864
X321445
X277633
Y207984
Y197882
Y187781
X279702Y176563
X268302Y176590
X257721
X247140
X235971
X236061Y186840
Y197421
Y207921
X236057Y218470
X245971
X256552
X267134
X266912Y143930
X245750Y143430
X255730Y109653
X219750Y184775
X193591Y177370
X116120Y185950
X107636
X97446Y167750
X100699Y213431
X109183Y213450
X117668
X126152
X94196Y116002
X55000Y300450
X11736Y335580
Y345494
Y356075
Y366656
Y377156
Y387738
Y398319
Y408233
Y418733
Y429233
Y439733
Y450233
Y460733
X30607Y480926
X41189
X51769
X62270
X72184
X82765
X93346
X103846
X113761
X124342
X134923
X145423
X155338
X165919
X176500
X187000
X197500
X405764Y471000
X456264Y492988
T02
X171640Y117527
X146240Y142927
X171640Y168327
T04
X480000Y70000
X70000
M30
