%TF.GenerationSoftware,Altium Limited,Altium Designer,25.8.1 (18)*%
G04 Layer_Color=16711935*
%FSLAX45Y45*%
%MOMM*%
%TF.SameCoordinates,A90300BB-9424-4608-9D80-60F7589C5BEE*%
%TF.FilePolarity,Negative*%
%TF.FileFunction,Soldermask,Bot*%
%TF.Part,Single*%
G01*
G75*
%TA.AperFunction,ComponentPad*%
%ADD27C,1.02000*%
G04:AMPARAMS|DCode=55|XSize=1.8mm|YSize=2.6mm|CornerRadius=0mm|HoleSize=0mm|Usage=FLASHONLY|Rotation=242.304|XOffset=0mm|YOffset=0mm|HoleType=Round|Shape=Round|*
%AMOVALD55*
21,1,0.80000,1.80000,0.00000,0.00000,332.304*
1,1,1.80000,-0.35417,0.18591*
1,1,1.80000,0.35417,-0.18591*
%
%ADD55OVALD55*%

G04:AMPARAMS|DCode=56|XSize=1.8mm|YSize=2.6mm|CornerRadius=0mm|HoleSize=0mm|Usage=FLASHONLY|Rotation=214.612|XOffset=0mm|YOffset=0mm|HoleType=Round|Shape=Round|*
%AMOVALD56*
21,1,0.80000,1.80000,0.00000,0.00000,304.612*
1,1,1.80000,-0.22721,0.32921*
1,1,1.80000,0.22721,-0.32921*
%
%ADD56OVALD56*%

G04:AMPARAMS|DCode=57|XSize=1.8mm|YSize=2.6mm|CornerRadius=0mm|HoleSize=0mm|Usage=FLASHONLY|Rotation=186.920|XOffset=0mm|YOffset=0mm|HoleType=Round|Shape=Round|*
%AMOVALD57*
21,1,0.80000,1.80000,0.00000,0.00000,276.92*
1,1,1.80000,-0.04819,0.39709*
1,1,1.80000,0.04819,-0.39709*
%
%ADD57OVALD57*%

G04:AMPARAMS|DCode=58|XSize=1.8mm|YSize=2.6mm|CornerRadius=0mm|HoleSize=0mm|Usage=FLASHONLY|Rotation=159.228|XOffset=0mm|YOffset=0mm|HoleType=Round|Shape=Round|*
%AMOVALD58*
21,1,0.80000,1.80000,0.00000,0.00000,249.228*
1,1,1.80000,0.14186,0.37400*
1,1,1.80000,-0.14186,-0.37400*
%
%ADD58OVALD58*%

G04:AMPARAMS|DCode=59|XSize=1.8mm|YSize=2.6mm|CornerRadius=0mm|HoleSize=0mm|Usage=FLASHONLY|Rotation=131.536|XOffset=0mm|YOffset=0mm|HoleType=Round|Shape=Round|*
%AMOVALD59*
21,1,0.80000,1.80000,0.00000,0.00000,221.536*
1,1,1.80000,0.29942,0.26523*
1,1,1.80000,-0.29942,-0.26523*
%
%ADD59OVALD59*%

G04:AMPARAMS|DCode=60|XSize=1.8mm|YSize=2.6mm|CornerRadius=0mm|HoleSize=0mm|Usage=FLASHONLY|Rotation=103.844|XOffset=0mm|YOffset=0mm|HoleType=Round|Shape=Round|*
%AMOVALD60*
21,1,0.80000,1.80000,0.00000,0.00000,193.844*
1,1,1.80000,0.38838,0.09571*
1,1,1.80000,-0.38838,-0.09571*
%
%ADD60OVALD60*%

G04:AMPARAMS|DCode=61|XSize=1.8mm|YSize=2.6mm|CornerRadius=0mm|HoleSize=0mm|Usage=FLASHONLY|Rotation=76.152|XOffset=0mm|YOffset=0mm|HoleType=Round|Shape=Round|*
%AMOVALD61*
21,1,0.80000,1.80000,0.00000,0.00000,166.152*
1,1,1.80000,0.38837,-0.09574*
1,1,1.80000,-0.38837,0.09574*
%
%ADD61OVALD61*%

G04:AMPARAMS|DCode=62|XSize=1.8mm|YSize=2.6mm|CornerRadius=0mm|HoleSize=0mm|Usage=FLASHONLY|Rotation=48.460|XOffset=0mm|YOffset=0mm|HoleType=Round|Shape=Round|*
%AMOVALD62*
21,1,0.80000,1.80000,0.00000,0.00000,138.46*
1,1,1.80000,0.29940,-0.26526*
1,1,1.80000,-0.29940,0.26526*
%
%ADD62OVALD62*%

G04:AMPARAMS|DCode=63|XSize=1.8mm|YSize=2.6mm|CornerRadius=0mm|HoleSize=0mm|Usage=FLASHONLY|Rotation=20.768|XOffset=0mm|YOffset=0mm|HoleType=Round|Shape=Round|*
%AMOVALD63*
21,1,0.80000,1.80000,0.00000,0.00000,110.768*
1,1,1.80000,0.14183,-0.37401*
1,1,1.80000,-0.14183,0.37401*
%
%ADD63OVALD63*%

G04:AMPARAMS|DCode=64|XSize=1.8mm|YSize=2.6mm|CornerRadius=0mm|HoleSize=0mm|Usage=FLASHONLY|Rotation=353.076|XOffset=0mm|YOffset=0mm|HoleType=Round|Shape=Round|*
%AMOVALD64*
21,1,0.80000,1.80000,0.00000,0.00000,83.076*
1,1,1.80000,-0.04822,-0.39708*
1,1,1.80000,0.04822,0.39708*
%
%ADD64OVALD64*%

G04:AMPARAMS|DCode=65|XSize=1.8mm|YSize=2.6mm|CornerRadius=0mm|HoleSize=0mm|Usage=FLASHONLY|Rotation=325.384|XOffset=0mm|YOffset=0mm|HoleType=Round|Shape=Round|*
%AMOVALD65*
21,1,0.80000,1.80000,0.00000,0.00000,55.384*
1,1,1.80000,-0.22723,-0.32919*
1,1,1.80000,0.22723,0.32919*
%
%ADD65OVALD65*%

G04:AMPARAMS|DCode=66|XSize=1.8mm|YSize=2.6mm|CornerRadius=0mm|HoleSize=0mm|Usage=FLASHONLY|Rotation=297.692|XOffset=0mm|YOffset=0mm|HoleType=Round|Shape=Round|*
%AMOVALD66*
21,1,0.80000,1.80000,0.00000,0.00000,27.692*
1,1,1.80000,-0.35418,-0.18589*
1,1,1.80000,0.35418,0.18589*
%
%ADD66OVALD66*%

%ADD67O,2.60000X1.80000*%
%TA.AperFunction,ViaPad*%
%ADD68C,4.20000*%
%TA.AperFunction,WasherPad*%
%ADD69C,8.20000*%
%TA.AperFunction,SMDPad,CuDef*%
%ADD70R,1.87640X0.93660*%
%ADD71R,1.10000X1.20000*%
%ADD72R,1.35000X2.90000*%
%ADD73R,1.10000X1.00000*%
%ADD74R,1.00000X1.10000*%
%ADD75R,0.90000X1.10000*%
%ADD76O,0.75000X1.60000*%
%ADD77O,1.60000X0.75000*%
G04:AMPARAMS|DCode=78|XSize=0.65mm|YSize=1.6mm|CornerRadius=0.1495mm|HoleSize=0mm|Usage=FLASHONLY|Rotation=270.000|XOffset=0mm|YOffset=0mm|HoleType=Round|Shape=RoundedRectangle|*
%AMROUNDEDRECTD78*
21,1,0.65000,1.30100,0,0,270.0*
21,1,0.35100,1.60000,0,0,270.0*
1,1,0.29900,-0.65050,-0.17550*
1,1,0.29900,-0.65050,0.17550*
1,1,0.29900,0.65050,0.17550*
1,1,0.29900,0.65050,-0.17550*
%
%ADD78ROUNDEDRECTD78*%
%ADD79R,2.99000X0.94000*%
%ADD80R,1.80000X3.00000*%
%ADD81R,1.15000X1.00000*%
%ADD82R,2.90000X1.35000*%
%ADD83R,2.00000X1.20000*%
%ADD84R,1.00000X1.15000*%
%ADD85R,1.10000X0.90000*%
%ADD86R,1.47000X5.28000*%
D27*
X706500Y11680500D02*
D03*
Y11045500D02*
D03*
D55*
X2218745Y16858868D02*
D03*
Y14358868D02*
D03*
Y10578869D02*
D03*
Y8078869D02*
D03*
Y4298869D02*
D03*
Y1798869D02*
D03*
D56*
X2409191Y17073811D02*
D03*
Y14573811D02*
D03*
Y10793811D02*
D03*
Y8293811D02*
D03*
Y4513811D02*
D03*
Y2013811D02*
D03*
D57*
X2677711Y17175629D02*
D03*
Y14675629D02*
D03*
Y10895629D02*
D03*
Y8395629D02*
D03*
Y4615629D02*
D03*
Y2115629D02*
D03*
D58*
X2962791Y17141000D02*
D03*
Y14640999D02*
D03*
Y10860999D02*
D03*
Y8360999D02*
D03*
Y4580999D02*
D03*
Y2080999D02*
D03*
D59*
X3199124Y16977853D02*
D03*
Y14477853D02*
D03*
Y10697854D02*
D03*
Y8197854D02*
D03*
Y4417854D02*
D03*
Y1917854D02*
D03*
D60*
X3332570Y16723567D02*
D03*
Y14223567D02*
D03*
Y10443567D02*
D03*
Y7943567D02*
D03*
Y4163567D02*
D03*
Y1663567D02*
D03*
D61*
X3332560Y16436392D02*
D03*
Y13936391D02*
D03*
Y10156391D02*
D03*
Y7656391D02*
D03*
Y3876392D02*
D03*
Y1376391D02*
D03*
D62*
X3199095Y16182114D02*
D03*
Y13682114D02*
D03*
Y9902114D02*
D03*
Y7402114D02*
D03*
Y3622114D02*
D03*
Y1122114D02*
D03*
D63*
X2962750Y16018987D02*
D03*
Y13518987D02*
D03*
Y9738986D02*
D03*
Y7238986D02*
D03*
Y3458986D02*
D03*
Y958986D02*
D03*
D64*
X2677668Y15984377D02*
D03*
Y13484377D02*
D03*
Y9704376D02*
D03*
Y7204376D02*
D03*
Y3424376D02*
D03*
Y924376D02*
D03*
D65*
X2409156Y16086214D02*
D03*
Y13586214D02*
D03*
Y9806214D02*
D03*
Y7306214D02*
D03*
Y3526214D02*
D03*
Y1026214D02*
D03*
D66*
X2218725Y16301170D02*
D03*
Y13801170D02*
D03*
Y10021169D02*
D03*
Y7521169D02*
D03*
Y3741170D02*
D03*
Y1241169D02*
D03*
D67*
X2150000Y16580000D02*
D03*
Y14080000D02*
D03*
Y10300000D02*
D03*
Y7800000D02*
D03*
Y4020000D02*
D03*
Y1520000D02*
D03*
X2750000Y12020000D02*
D03*
Y12360000D02*
D03*
Y5740000D02*
D03*
Y6080000D02*
D03*
D68*
X1500000Y9050000D02*
D03*
X4000000D02*
D03*
X4800000Y17400000D02*
D03*
X700000D02*
D03*
X4800000Y700000D02*
D03*
X700000D02*
D03*
X4700001Y16500000D02*
D03*
Y14100000D02*
D03*
D69*
X4700000Y15330000D02*
D03*
D70*
X365850Y3706500D02*
D03*
X734150D02*
D03*
X365850Y3579500D02*
D03*
X734150D02*
D03*
X365850Y3452500D02*
D03*
X734150D02*
D03*
X365850Y3325500D02*
D03*
X734150D02*
D03*
X365850Y3198500D02*
D03*
X734150D02*
D03*
X365850Y3071500D02*
D03*
X734150D02*
D03*
X365850Y2944500D02*
D03*
X734150D02*
D03*
X365850Y2817500D02*
D03*
X734150D02*
D03*
X365850Y2690500D02*
D03*
X734150D02*
D03*
X365850Y2563500D02*
D03*
X734150D02*
D03*
X365850Y2436500D02*
D03*
X734150D02*
D03*
X365850Y2309500D02*
D03*
X734150D02*
D03*
X365850Y2182500D02*
D03*
X734150D02*
D03*
X365850Y2055500D02*
D03*
X734150D02*
D03*
X365850Y1928500D02*
D03*
X734150D02*
D03*
X365850Y1801500D02*
D03*
X734150D02*
D03*
X365850Y1674500D02*
D03*
X734150D02*
D03*
X365850Y1547500D02*
D03*
X734150D02*
D03*
X365850Y1420500D02*
D03*
X734150D02*
D03*
Y1293500D02*
D03*
X365850D02*
D03*
X4765850Y3706500D02*
D03*
X5134150D02*
D03*
X4765850Y3579500D02*
D03*
X5134150D02*
D03*
X4765850Y3452500D02*
D03*
X5134150D02*
D03*
X4765850Y3325500D02*
D03*
X5134150D02*
D03*
X4765850Y3198500D02*
D03*
X5134150D02*
D03*
X4765850Y3071500D02*
D03*
X5134150D02*
D03*
X4765850Y2944500D02*
D03*
X5134150D02*
D03*
X4765850Y2817500D02*
D03*
X5134150D02*
D03*
X4765850Y2690500D02*
D03*
X5134150D02*
D03*
X4765850Y2563500D02*
D03*
X5134150D02*
D03*
X4765850Y2436500D02*
D03*
X5134150D02*
D03*
X4765850Y2309500D02*
D03*
X5134150D02*
D03*
X4765850Y2182500D02*
D03*
X5134150D02*
D03*
X4765850Y2055500D02*
D03*
X5134150D02*
D03*
X4765850Y1928500D02*
D03*
X5134150D02*
D03*
X4765850Y1801500D02*
D03*
X5134150D02*
D03*
X4765850Y1674500D02*
D03*
X5134150D02*
D03*
X4765850Y1547500D02*
D03*
X5134150D02*
D03*
X4765850Y1420500D02*
D03*
X5134150D02*
D03*
Y1293500D02*
D03*
X4765850D02*
D03*
D71*
X1750000Y13270000D02*
D03*
X1615000D02*
D03*
X815000Y13260001D02*
D03*
X950000D02*
D03*
X815000Y13010001D02*
D03*
X950000D02*
D03*
D72*
X2612500Y11730000D02*
D03*
X2887500D02*
D03*
Y5450000D02*
D03*
X2612500D02*
D03*
X1593728Y4520652D02*
D03*
X1868728D02*
D03*
X1592500Y8300000D02*
D03*
X1867500D02*
D03*
X1594173Y10800430D02*
D03*
X1869173D02*
D03*
X1593867Y14581226D02*
D03*
X1868866D02*
D03*
X1594289Y17080545D02*
D03*
X1869289D02*
D03*
X1593728Y2020331D02*
D03*
X1868728D02*
D03*
D73*
X1555869Y16287497D02*
D03*
X1355869Y16382497D02*
D03*
Y16192497D02*
D03*
X1555446Y13788177D02*
D03*
X1355446Y13883177D02*
D03*
Y13693176D02*
D03*
X1555752Y10007382D02*
D03*
X1355752Y10102382D02*
D03*
Y9912382D02*
D03*
X1555307Y3727604D02*
D03*
X1355307Y3822604D02*
D03*
Y3632604D02*
D03*
Y1132283D02*
D03*
Y1322283D02*
D03*
X1555307Y1227283D02*
D03*
X420000Y14530000D02*
D03*
X220000Y14625000D02*
D03*
Y14435001D02*
D03*
X3889658Y6483087D02*
D03*
X4089658Y6388087D02*
D03*
Y6578087D02*
D03*
X5109659Y10189116D02*
D03*
Y9999116D02*
D03*
X4909659Y10094116D02*
D03*
X5099659Y9455516D02*
D03*
Y9265516D02*
D03*
X4899659Y9360516D02*
D03*
X5099658Y7596594D02*
D03*
Y7406594D02*
D03*
X4899658Y7501594D02*
D03*
X5099659Y6871177D02*
D03*
Y6681177D02*
D03*
X4899659Y6776177D02*
D03*
X879658Y9904487D02*
D03*
Y9714488D02*
D03*
X679658Y9809487D02*
D03*
X879660Y9188790D02*
D03*
Y8998790D02*
D03*
X679660Y9093790D02*
D03*
X879657Y8455808D02*
D03*
Y8265808D02*
D03*
X679657Y8360808D02*
D03*
X879660Y7725044D02*
D03*
Y7535044D02*
D03*
X679660Y7630044D02*
D03*
X879657Y6998904D02*
D03*
Y6808904D02*
D03*
X679657Y6903904D02*
D03*
X1354080Y7411952D02*
D03*
Y7601952D02*
D03*
X1554080Y7506952D02*
D03*
X3200000Y12285000D02*
D03*
Y12095000D02*
D03*
X3000000Y12190000D02*
D03*
X3200000Y6005000D02*
D03*
Y5815000D02*
D03*
X3000000Y5910000D02*
D03*
D74*
X1788772Y8059669D02*
D03*
X1693773Y7859669D02*
D03*
X1883772D02*
D03*
X1885000Y4080321D02*
D03*
X1695000D02*
D03*
X1790000Y4280321D02*
D03*
X1885445Y10360099D02*
D03*
X1695445D02*
D03*
X1790445Y10560099D02*
D03*
X1885139Y14140894D02*
D03*
X1695139D02*
D03*
X1790139Y14340894D02*
D03*
X1885561Y16640213D02*
D03*
X1695562D02*
D03*
X1790561Y16840213D02*
D03*
X1885000Y1580000D02*
D03*
X1695000D02*
D03*
X1790000Y1780000D02*
D03*
X2585956Y7897086D02*
D03*
X2775956D02*
D03*
X2680957Y7697086D02*
D03*
X2585113Y16679659D02*
D03*
X2775113D02*
D03*
X2680113Y16479659D02*
D03*
X2585207Y14179857D02*
D03*
X2775207D02*
D03*
X2680207Y13979857D02*
D03*
X2584824Y10399556D02*
D03*
X2774824D02*
D03*
X2679824Y10199555D02*
D03*
X2584273Y4119868D02*
D03*
X2774273D02*
D03*
X2679273Y3919867D02*
D03*
X2585000Y1620000D02*
D03*
X2775000D02*
D03*
X2680000Y1420000D02*
D03*
D75*
X2755113Y16299658D02*
D03*
X2615113D02*
D03*
X2755207Y13799857D02*
D03*
X2615207D02*
D03*
X2754824Y10019555D02*
D03*
X2614824D02*
D03*
X2755956Y7517086D02*
D03*
X2615956D02*
D03*
X2754273Y3739867D02*
D03*
X2614273D02*
D03*
X2755000Y1240000D02*
D03*
X2615000D02*
D03*
X3889658Y6763087D02*
D03*
X4029658D02*
D03*
X4450000Y10980000D02*
D03*
X4590000D02*
D03*
X4310000Y12870000D02*
D03*
X4450000D02*
D03*
X4730000D02*
D03*
X4590000D02*
D03*
X4450000Y11160000D02*
D03*
X4590000D02*
D03*
X4940000Y10980000D02*
D03*
X4800000D02*
D03*
X550000Y14439999D02*
D03*
X690000D02*
D03*
X810000Y14610001D02*
D03*
X950000D02*
D03*
X5049659Y10374116D02*
D03*
X4909659D02*
D03*
X5039659Y9640516D02*
D03*
X4899659D02*
D03*
X5039658Y7781594D02*
D03*
X4899658D02*
D03*
X5109659Y7056177D02*
D03*
X4969659D02*
D03*
X819658Y10089487D02*
D03*
X679658D02*
D03*
X819660Y9373790D02*
D03*
X679660D02*
D03*
X819657Y8640808D02*
D03*
X679657D02*
D03*
X819660Y7910044D02*
D03*
X679660D02*
D03*
X819657Y7183904D02*
D03*
X679657D02*
D03*
X1360000Y3430321D02*
D03*
X1500000D02*
D03*
X1358772Y7209669D02*
D03*
X1498772D02*
D03*
X1360445Y9710099D02*
D03*
X1500445D02*
D03*
X1360139Y13490894D02*
D03*
X1500139D02*
D03*
X1360561Y15990213D02*
D03*
X1500561D02*
D03*
X1360000Y930000D02*
D03*
X1500000D02*
D03*
D76*
X1510000Y12810001D02*
D03*
X1590000D02*
D03*
X1670000D02*
D03*
X1750000D02*
D03*
X1830000D02*
D03*
X1910000D02*
D03*
X1990000D02*
D03*
X2070000D02*
D03*
Y11970000D02*
D03*
X1990000D02*
D03*
X1910000D02*
D03*
X1830000D02*
D03*
X1750000D02*
D03*
X1670000D02*
D03*
X1590000D02*
D03*
X1510000D02*
D03*
D77*
X2210000Y12670000D02*
D03*
Y12590000D02*
D03*
Y12510000D02*
D03*
Y12430000D02*
D03*
Y12350000D02*
D03*
Y12270000D02*
D03*
Y12190000D02*
D03*
Y12110000D02*
D03*
X1370000D02*
D03*
Y12190000D02*
D03*
Y12270000D02*
D03*
Y12350000D02*
D03*
Y12430000D02*
D03*
Y12510000D02*
D03*
Y12590000D02*
D03*
Y12670000D02*
D03*
D78*
X395000Y12032500D02*
D03*
Y12097500D02*
D03*
Y12162500D02*
D03*
Y12227500D02*
D03*
Y12292500D02*
D03*
Y12357500D02*
D03*
Y12422500D02*
D03*
Y12487500D02*
D03*
X985000Y12032500D02*
D03*
Y12097500D02*
D03*
Y12162500D02*
D03*
Y12227500D02*
D03*
Y12292500D02*
D03*
Y12357500D02*
D03*
Y12422500D02*
D03*
Y12487500D02*
D03*
D79*
X910000Y11744000D02*
D03*
Y11617000D02*
D03*
Y11490000D02*
D03*
Y11363000D02*
D03*
Y11236000D02*
D03*
Y11109000D02*
D03*
Y10982000D02*
D03*
X503000Y11744000D02*
D03*
Y11617000D02*
D03*
Y11490000D02*
D03*
Y11363000D02*
D03*
Y11236000D02*
D03*
Y11109000D02*
D03*
Y10982000D02*
D03*
D80*
X680000Y14900000D02*
D03*
Y15730000D02*
D03*
D81*
X1170000Y11967500D02*
D03*
Y12132500D02*
D03*
D82*
X3659658Y6683087D02*
D03*
Y6408087D02*
D03*
X4679659Y10019116D02*
D03*
Y10294116D02*
D03*
X4669659Y9285516D02*
D03*
Y9560516D02*
D03*
X4669658Y7426594D02*
D03*
Y7701594D02*
D03*
X4669659Y6701177D02*
D03*
Y6976177D02*
D03*
X449658Y9734488D02*
D03*
Y10009487D02*
D03*
X449660Y9018790D02*
D03*
Y9293790D02*
D03*
X449657Y8285808D02*
D03*
Y8560808D02*
D03*
X449660Y7555044D02*
D03*
Y7830044D02*
D03*
X449657Y6828904D02*
D03*
Y7103904D02*
D03*
X1801228Y3908152D02*
D03*
Y3633152D02*
D03*
X1445307Y3983410D02*
D03*
Y4258410D02*
D03*
X1800000Y7687500D02*
D03*
Y7412500D02*
D03*
X1444080Y7762758D02*
D03*
Y8037758D02*
D03*
X1801673Y10187930D02*
D03*
Y9912930D02*
D03*
X1445753Y10263188D02*
D03*
Y10538188D02*
D03*
X1801366Y13968726D02*
D03*
Y13693726D02*
D03*
X1445446Y14043983D02*
D03*
Y14318983D02*
D03*
X1801789Y16468045D02*
D03*
Y16193045D02*
D03*
X1445869Y16543301D02*
D03*
Y16818301D02*
D03*
X1445307Y1483089D02*
D03*
Y1758089D02*
D03*
X1801228Y1407831D02*
D03*
Y1132831D02*
D03*
D83*
X1150000Y13260001D02*
D03*
Y13010001D02*
D03*
D84*
X1585000Y13120000D02*
D03*
X1750000D02*
D03*
X4887500Y13239999D02*
D03*
X5052500D02*
D03*
X4125000D02*
D03*
X4290000D02*
D03*
D85*
X1207510Y11106698D02*
D03*
Y11246698D02*
D03*
X4730000Y13120000D02*
D03*
Y13260001D02*
D03*
X4450000Y13120000D02*
D03*
Y13260001D02*
D03*
X1090000Y14480000D02*
D03*
Y14620000D02*
D03*
X3350000Y12230000D02*
D03*
Y12090000D02*
D03*
X3350000Y6000000D02*
D03*
Y5860000D02*
D03*
X2600956Y8177086D02*
D03*
Y8037086D02*
D03*
X2600113Y16959657D02*
D03*
Y16819658D02*
D03*
X2600207Y14459857D02*
D03*
Y14319856D02*
D03*
X2599824Y10679555D02*
D03*
Y10539555D02*
D03*
X2599272Y4399867D02*
D03*
Y4259867D02*
D03*
X2600000Y1900000D02*
D03*
Y1760000D02*
D03*
D86*
X4446000Y12293000D02*
D03*
Y11607000D02*
D03*
X4700000Y12293000D02*
D03*
Y11607000D02*
D03*
X4954000Y12293000D02*
D03*
Y11607000D02*
D03*
%TF.MD5,89198ae58622a8768c18b3fe0598a9df*%
M02*
