%TF.GenerationSoftware,Altium Limited,Altium Designer,25.8.1 (18)*%
G04 Layer_Color=32896*
%FSLAX45Y45*%
%MOMM*%
%TF.SameCoordinates,A90300BB-9424-4608-9D80-60F7589C5BEE*%
%TF.FilePolarity,Positive*%
%TF.FileFunction,Legend,Bot*%
%TF.Part,Single*%
G01*
G75*
%TA.AperFunction,NonConductor*%
%ADD48C,0.20000*%
%ADD49C,0.25400*%
%ADD50C,0.25000*%
%ADD51C,0.60000*%
%ADD52C,0.10000*%
%ADD53C,0.15000*%
D48*
X378500Y1221500D02*
X721500D01*
X378500Y3778500D02*
X721500D01*
X4778500Y1221500D02*
X5121500D01*
X4778500Y3778500D02*
X5121500D01*
X2710000Y11605000D02*
X2790000D01*
X2710000Y11855000D02*
X2790000D01*
X1520868Y16367497D02*
Y16433498D01*
X1439368D02*
X1520868D01*
Y16141496D02*
Y16207497D01*
X1439368Y16141496D02*
X1520868D01*
X1520446Y13868176D02*
Y13934177D01*
X1438946D02*
X1520446D01*
Y13642177D02*
Y13708177D01*
X1438946Y13642177D02*
X1520446D01*
X1520752Y10087382D02*
Y10153382D01*
X1439252D02*
X1520752D01*
Y9861382D02*
Y9927382D01*
X1439252Y9861382D02*
X1520752D01*
X1520307Y3807604D02*
Y3873604D01*
X1438807D02*
X1520307D01*
Y3581604D02*
Y3647604D01*
X1438807Y3581604D02*
X1520307D01*
X1438807Y1081283D02*
X1520307D01*
Y1147283D01*
X1438807Y1373283D02*
X1520307D01*
Y1307283D02*
Y1373283D01*
X1642772Y8024668D02*
X1708773D01*
X1642772Y7943169D02*
Y8024668D01*
X1868772D02*
X1934772D01*
Y7943169D02*
Y8024668D01*
X1480000Y12700000D02*
X2100000D01*
X1480000Y12080000D02*
X2100000D01*
X1480000D02*
Y12700000D01*
X2100000Y12080000D02*
Y12700000D01*
X505000Y12005000D02*
Y12515000D01*
X875000Y12005000D02*
Y12515000D01*
X505000Y12005000D02*
X875000D01*
X505000Y12515000D02*
X875000D01*
X680000Y10912150D02*
X733000D01*
X680000Y11813850D02*
X733000D01*
X385000Y14610001D02*
Y14675999D01*
X303500D02*
X385000D01*
Y14384000D02*
Y14450000D01*
X303500Y14384000D02*
X385000D01*
X1175000Y15035300D02*
Y15810001D01*
X959700Y14820000D02*
X1175000Y15035300D01*
X800000Y14820000D02*
X959700D01*
X800000Y15810001D02*
X1175000D01*
X185000Y14820000D02*
X560000D01*
X185000Y15810001D02*
X560000D01*
X185000Y14820000D02*
Y15810001D01*
X1207500Y12045000D02*
Y12055000D01*
X1132500Y12045000D02*
Y12055000D01*
X3924658Y6337087D02*
Y6403087D01*
Y6337087D02*
X4006158D01*
X3924658Y6563087D02*
Y6629087D01*
X4006158D01*
X3534658Y6505587D02*
Y6585587D01*
X3784658Y6505587D02*
Y6585587D01*
X1662500Y13082500D02*
X1672500D01*
X1662500Y13157500D02*
X1672500D01*
X2710000Y5575000D02*
X2790000D01*
X2710000Y5325000D02*
X2790000D01*
X4965000Y13202499D02*
X4975000D01*
X4965000Y13277499D02*
X4975000D01*
X4202500Y13202499D02*
X4212500D01*
X4202500Y13277499D02*
X4212500D01*
X4944659Y10240116D02*
X5026159D01*
X4944659Y10174116D02*
Y10240116D01*
Y9948116D02*
X5026159D01*
X4944659D02*
Y10014116D01*
X4804659Y10116616D02*
Y10196616D01*
X4554659Y10116616D02*
Y10196616D01*
X4934659Y9506516D02*
X5016159D01*
X4934659Y9440516D02*
Y9506516D01*
Y9214516D02*
X5016159D01*
X4934659D02*
Y9280516D01*
X4794659Y9383016D02*
Y9463016D01*
X4544659Y9383016D02*
Y9463016D01*
X4934658Y7647594D02*
X5016158D01*
X4934658Y7581594D02*
Y7647594D01*
Y7355594D02*
X5016158D01*
X4934658D02*
Y7421594D01*
X4794658Y7524094D02*
Y7604094D01*
X4544658Y7524094D02*
Y7604094D01*
X4934659Y6922177D02*
X5016159D01*
X4934659Y6856177D02*
Y6922177D01*
Y6630177D02*
X5016159D01*
X4934659D02*
Y6696177D01*
X4794659Y6798677D02*
Y6878677D01*
X4544659Y6798677D02*
Y6878677D01*
X714658Y9955487D02*
X796158D01*
X714658Y9889487D02*
Y9955487D01*
Y9663487D02*
X796158D01*
X714658D02*
Y9729488D01*
X574658Y9831987D02*
Y9911988D01*
X324658Y9831987D02*
Y9911988D01*
X714660Y9239790D02*
X796160D01*
X714660Y9173790D02*
Y9239790D01*
Y8947790D02*
X796160D01*
X714660D02*
Y9013790D01*
X574660Y9116290D02*
Y9196290D01*
X324660Y9116290D02*
Y9196290D01*
X714657Y8506808D02*
X796157D01*
X714657Y8440808D02*
Y8506808D01*
Y8214808D02*
X796157D01*
X714657D02*
Y8280808D01*
X574657Y8383308D02*
Y8463308D01*
X324657Y8383308D02*
Y8463308D01*
X714660Y7776044D02*
X796160D01*
X714660Y7710044D02*
Y7776044D01*
Y7484044D02*
X796160D01*
X714660D02*
Y7550044D01*
X574660Y7652544D02*
Y7732544D01*
X324660Y7652544D02*
Y7732544D01*
X574657Y6926404D02*
Y7006404D01*
X324657Y6926404D02*
Y7006404D01*
X714657Y7049904D02*
X796157D01*
X714657Y6983904D02*
Y7049904D01*
Y6757904D02*
X796157D01*
X714657D02*
Y6823904D01*
X1437580Y7360952D02*
X1519080D01*
Y7426952D01*
X1437580Y7652952D02*
X1519080D01*
Y7586952D02*
Y7652952D01*
X1676228Y3730652D02*
Y3810652D01*
X1926228Y3730652D02*
Y3810652D01*
X1936000Y4163821D02*
Y4245321D01*
X1870000D02*
X1936000D01*
X1644000Y4163821D02*
Y4245321D01*
X1710000D01*
X1691228Y4395652D02*
X1771228D01*
X1691228Y4645652D02*
X1771228D01*
X1570308Y4080910D02*
Y4160910D01*
X1320307Y4080910D02*
Y4160910D01*
X1675000Y7510000D02*
Y7590000D01*
X1925000Y7510000D02*
Y7590000D01*
X1690000Y8175000D02*
X1770000D01*
X1690000Y8425000D02*
X1770000D01*
X1569080Y7860258D02*
Y7940258D01*
X1319080Y7860258D02*
Y7940258D01*
X1676673Y10010430D02*
Y10090430D01*
X1926673Y10010430D02*
Y10090430D01*
X1936445Y10443599D02*
Y10525099D01*
X1870445D02*
X1936445D01*
X1644445Y10443599D02*
Y10525099D01*
X1710445D01*
X1691673Y10675430D02*
X1771673D01*
X1691673Y10925430D02*
X1771673D01*
X1570753Y10360688D02*
Y10440688D01*
X1320753Y10360688D02*
Y10440688D01*
X1676366Y13791225D02*
Y13871225D01*
X1926366Y13791225D02*
Y13871225D01*
X1936139Y14224393D02*
Y14305893D01*
X1870139D02*
X1936139D01*
X1644139Y14224393D02*
Y14305893D01*
X1710139D01*
X1691366Y14456226D02*
X1771367D01*
X1691366Y14706226D02*
X1771367D01*
X1570446Y14141483D02*
Y14221483D01*
X1320446Y14141483D02*
Y14221483D01*
X1676789Y16290546D02*
Y16370544D01*
X1926789Y16290546D02*
Y16370544D01*
X1936561Y16723714D02*
Y16805212D01*
X1870561D02*
X1936561D01*
X1644561Y16723714D02*
Y16805212D01*
X1710561D01*
X1691789Y16955545D02*
X1771789D01*
X1691789Y17205545D02*
X1771789D01*
X1570869Y16640802D02*
Y16720802D01*
X1320869Y16640802D02*
Y16720802D01*
X1570308Y1580589D02*
Y1660589D01*
X1320307Y1580589D02*
Y1660589D01*
X1691228Y1895331D02*
X1771228D01*
X1691228Y2145331D02*
X1771228D01*
X1936000Y1663500D02*
Y1745000D01*
X1870000D02*
X1936000D01*
X1644000Y1663500D02*
Y1745000D01*
X1710000D01*
X1676228Y1230331D02*
Y1310331D01*
X1926228Y1230331D02*
Y1310331D01*
X3035000Y12336000D02*
X3116500D01*
X3035000Y12270000D02*
Y12336000D01*
Y12044000D02*
X3116500D01*
X3035000D02*
Y12110000D01*
X3035000Y6056000D02*
X3116500D01*
X3035000Y5990000D02*
Y6056000D01*
Y5764000D02*
X3116500D01*
X3035000D02*
Y5830000D01*
X2534957Y7732086D02*
Y7813586D01*
Y7732086D02*
X2600956D01*
X2826956D02*
Y7813586D01*
X2760956Y7732086D02*
X2826956D01*
X2534113Y16514659D02*
Y16596159D01*
Y16514659D02*
X2600113D01*
X2826113D02*
Y16596159D01*
X2760113Y16514659D02*
X2826113D01*
X2534207Y14014857D02*
Y14096358D01*
Y14014857D02*
X2600207D01*
X2826207D02*
Y14096358D01*
X2760207Y14014857D02*
X2826207D01*
X2533824Y10234556D02*
Y10316056D01*
Y10234556D02*
X2599824D01*
X2825824D02*
Y10316056D01*
X2759824Y10234556D02*
X2825824D01*
X2533273Y3954868D02*
Y4036368D01*
Y3954868D02*
X2599273D01*
X2825273D02*
Y4036368D01*
X2759273Y3954868D02*
X2825273D01*
X2534000Y1455000D02*
Y1536500D01*
Y1455000D02*
X2600000D01*
X2826000D02*
Y1536500D01*
X2760000Y1455000D02*
X2826000D01*
D49*
X1061100Y13096899D02*
Y13173100D01*
X1238900Y13096899D02*
Y13173100D01*
X2873816Y16865871D02*
X3026183D01*
X2873816Y16833946D02*
X3026183D01*
X2873816D02*
X3026183Y16732367D01*
X2873816D02*
X3026183D01*
X2960883Y16690285D02*
Y16559685D01*
X2902838Y16514700D02*
X2895583Y16500188D01*
X2873816Y16478423D01*
X3026183D01*
X2873816Y16330408D02*
X2975394Y16402963D01*
Y16294130D01*
X2873816Y16330408D02*
X3026183D01*
X2873816Y14365871D02*
X3026183D01*
X2873816Y14333945D02*
X3026183D01*
X2873816D02*
X3026183Y14232367D01*
X2873816D02*
X3026183D01*
X2960883Y14190285D02*
Y14059685D01*
X2902838Y14014700D02*
X2895583Y14000188D01*
X2873816Y13978423D01*
X3026183D01*
X2873816Y13830408D02*
X2975394Y13902963D01*
Y13794130D01*
X2873816Y13830408D02*
X3026183D01*
X2873816Y10585870D02*
X3026183D01*
X2873816Y10553945D02*
X3026183D01*
X2873816D02*
X3026183Y10452367D01*
X2873816D02*
X3026183D01*
X2960883Y10410285D02*
Y10279684D01*
X2902838Y10234700D02*
X2895583Y10220188D01*
X2873816Y10198422D01*
X3026183D01*
X2873816Y10050408D02*
X2975394Y10122963D01*
Y10014130D01*
X2873816Y10050408D02*
X3026183D01*
X2873816Y8085870D02*
X3026183D01*
X2873816Y8053945D02*
X3026183D01*
X2873816D02*
X3026183Y7952367D01*
X2873816D02*
X3026183D01*
X2960883Y7910285D02*
Y7779684D01*
X2902838Y7734700D02*
X2895583Y7720188D01*
X2873816Y7698421D01*
X3026183D01*
X2873816Y7550408D02*
X2975394Y7622963D01*
Y7514129D01*
X2873816Y7550408D02*
X3026183D01*
X2873816Y4305870D02*
X3026183D01*
X2873816Y4273945D02*
X3026183D01*
X2873816D02*
X3026183Y4172367D01*
X2873816D02*
X3026183D01*
X2960883Y4130285D02*
Y3999684D01*
X2902838Y3954700D02*
X2895583Y3940188D01*
X2873816Y3918422D01*
X3026183D01*
X2873816Y3770408D02*
X2975394Y3842964D01*
Y3734130D01*
X2873816Y3770408D02*
X3026183D01*
X2873816Y1805870D02*
X3026183D01*
X2873816Y1773945D02*
X3026183D01*
X2873816D02*
X3026183Y1672367D01*
X2873816D02*
X3026183D01*
X2960883Y1630285D02*
Y1499684D01*
X2902838Y1454700D02*
X2895583Y1440188D01*
X2873816Y1418422D01*
X3026183D01*
X2873816Y1270408D02*
X2975394Y1342964D01*
Y1234130D01*
X2873816Y1270408D02*
X3026183D01*
X2435216Y12416374D02*
X2587583D01*
X2435216Y12384449D02*
X2587583D01*
X2435216D02*
X2587583Y12282871D01*
X2435216D02*
X2587583D01*
X2522283Y12240789D02*
Y12110188D01*
X2435216Y12050692D02*
Y11970881D01*
X2493261Y12014415D01*
Y11992648D01*
X2500516Y11978137D01*
X2507772Y11970881D01*
X2529539Y11963626D01*
X2544050D01*
X2565817Y11970881D01*
X2580328Y11985392D01*
X2587583Y12007159D01*
Y12028926D01*
X2580328Y12050692D01*
X2573072Y12057948D01*
X2558561Y12065204D01*
X2435216Y6136374D02*
X2587583D01*
X2435216Y6104450D02*
X2587583D01*
X2435216D02*
X2587583Y6002871D01*
X2435216D02*
X2587583D01*
X2522283Y5960789D02*
Y5830188D01*
X2435216Y5770693D02*
Y5690881D01*
X2493261Y5734415D01*
Y5712648D01*
X2500516Y5698137D01*
X2507772Y5690881D01*
X2529539Y5683626D01*
X2544050D01*
X2565817Y5690881D01*
X2580328Y5705392D01*
X2587583Y5727159D01*
Y5748926D01*
X2580328Y5770693D01*
X2573072Y5777948D01*
X2558561Y5785204D01*
D50*
X1368369Y16097498D02*
G03*
X1368369Y16097498I-12500J0D01*
G01*
X1367946Y13598177D02*
G03*
X1367946Y13598177I-12500J0D01*
G01*
X1368252Y9817382D02*
G03*
X1368252Y9817382I-12500J0D01*
G01*
X1367807Y3537604D02*
G03*
X1367807Y3537604I-12500J0D01*
G01*
Y1037283D02*
G03*
X1367807Y1037283I-12500J0D01*
G01*
X1991273Y7859669D02*
G03*
X1991273Y7859669I-12500J0D01*
G01*
X1440000Y12810001D02*
G03*
X1440000Y12810001I-12500J0D01*
G01*
X407500Y11955000D02*
G03*
X407500Y11955000I-12500J0D01*
G01*
X1118000Y11742500D02*
G03*
X1118000Y11742500I-12500J0D01*
G01*
X232500Y14339999D02*
G03*
X232500Y14339999I-12500J0D01*
G01*
X4102158Y6673087D02*
G03*
X4102158Y6673087I-12500J0D01*
G01*
X5122159Y10284116D02*
G03*
X5122159Y10284116I-12500J0D01*
G01*
X5112159Y9550516D02*
G03*
X5112159Y9550516I-12500J0D01*
G01*
X5112158Y7691594D02*
G03*
X5112158Y7691594I-12500J0D01*
G01*
X5112159Y6966177D02*
G03*
X5112159Y6966177I-12500J0D01*
G01*
X892158Y9999487D02*
G03*
X892158Y9999487I-12500J0D01*
G01*
X892160Y9283790D02*
G03*
X892160Y9283790I-12500J0D01*
G01*
X892157Y8550808D02*
G03*
X892157Y8550808I-12500J0D01*
G01*
X892161Y7820044D02*
G03*
X892161Y7820044I-12500J0D01*
G01*
X892157Y7093904D02*
G03*
X892157Y7093904I-12500J0D01*
G01*
X1366580Y7316952D02*
G03*
X1366580Y7316952I-12500J0D01*
G01*
X1992500Y4080321D02*
G03*
X1992500Y4080321I-12500J0D01*
G01*
X1992945Y10360099D02*
G03*
X1992945Y10360099I-12500J0D01*
G01*
X1992639Y14140894D02*
G03*
X1992639Y14140894I-12500J0D01*
G01*
X1993062Y16640213D02*
G03*
X1993062Y16640213I-12500J0D01*
G01*
X1992500Y1580000D02*
G03*
X1992500Y1580000I-12500J0D01*
G01*
X3212500Y12380000D02*
G03*
X3212500Y12380000I-12500J0D01*
G01*
X3212500Y6100000D02*
G03*
X3212500Y6100000I-12500J0D01*
G01*
X2503457Y7897086D02*
G03*
X2503457Y7897086I-12500J0D01*
G01*
X2502613Y16679659D02*
G03*
X2502613Y16679659I-12500J0D01*
G01*
X2502707Y14179857D02*
G03*
X2502707Y14179857I-12500J0D01*
G01*
X2502324Y10399556D02*
G03*
X2502324Y10399556I-12500J0D01*
G01*
X2501773Y4119868D02*
G03*
X2501773Y4119868I-12500J0D01*
G01*
X2502500Y1620000D02*
G03*
X2502500Y1620000I-12500J0D01*
G01*
D51*
X1610000Y12600000D02*
G03*
X1610000Y12600000I-30000J0D01*
G01*
X635000Y12105000D02*
G03*
X635000Y12105000I-30000J0D01*
G01*
D52*
X4270000Y12450000D02*
G03*
X4280000Y12450000I5000J0D01*
G01*
D02*
G03*
X4270000Y12450000I-5000J0D01*
G01*
X3953000Y11520500D02*
X4340000D01*
X3953000D02*
Y12379500D01*
X4360000D01*
X5060000Y11520500D02*
X5447000D01*
Y12379500D01*
X5040000D02*
X5447000D01*
D53*
X5196639Y10940013D02*
Y11019987D01*
X5156652D01*
X5143323Y11006658D01*
Y10980000D01*
X5156652Y10966671D01*
X5196639D01*
X5169981D02*
X5143323Y10940013D01*
X5116665D02*
X5090007D01*
X5103335D01*
Y11019987D01*
X5116665Y11006658D01*
X5050019Y10940013D02*
X5023361D01*
X5036690D01*
Y11019987D01*
X5050019Y11006658D01*
X4369968Y11120013D02*
Y11199987D01*
X4329981D01*
X4316652Y11186658D01*
Y11160000D01*
X4329981Y11146671D01*
X4369968D01*
X4343310D02*
X4316652Y11120013D01*
X4289994D02*
X4263336D01*
X4276665D01*
Y11199987D01*
X4289994Y11186658D01*
X4223348D02*
X4210019Y11199987D01*
X4183361D01*
X4170032Y11186658D01*
Y11133342D01*
X4183361Y11120013D01*
X4210019D01*
X4223348Y11133342D01*
Y11186658D01*
X673329Y3889987D02*
X699987D01*
X686658D01*
Y3823342D01*
X699987Y3810013D01*
X713316D01*
X726645Y3823342D01*
X593355Y3810013D02*
X646671D01*
X593355Y3863329D01*
Y3876658D01*
X606684Y3889987D01*
X633342D01*
X646671Y3876658D01*
X4830000Y3889987D02*
X4856658D01*
X4843329D01*
Y3823342D01*
X4856658Y3810013D01*
X4869987D01*
X4883316Y3823342D01*
X4803342Y3810013D02*
X4776684D01*
X4790013D01*
Y3889987D01*
X4803342Y3876658D01*
X3079987Y11886619D02*
X3000013D01*
Y11846632D01*
X3013342Y11833303D01*
X3040000D01*
X3053329Y11846632D01*
Y11886619D01*
Y11859961D02*
X3079987Y11833303D01*
Y11753329D02*
Y11806645D01*
X3026671Y11753329D01*
X3013342D01*
X3000013Y11766658D01*
Y11793316D01*
X3013342Y11806645D01*
X3000013Y11673355D02*
X3013342Y11700013D01*
X3040000Y11726671D01*
X3066658D01*
X3079987Y11713342D01*
Y11686684D01*
X3066658Y11673355D01*
X3053329D01*
X3040000Y11686684D01*
Y11726671D01*
X3000013Y11646697D02*
X3079987D01*
Y11606709D01*
X3066658Y11593380D01*
X3053329D01*
X3040000Y11606709D01*
Y11646697D01*
Y11606709D01*
X3026671Y11593380D01*
X3013342D01*
X3000013Y11606709D01*
Y11646697D01*
X2856619Y5210013D02*
Y5289987D01*
X2816632D01*
X2803303Y5276658D01*
Y5250000D01*
X2816632Y5236671D01*
X2856619D01*
X2829961D02*
X2803303Y5210013D01*
X2723329D02*
X2776645D01*
X2723329Y5263329D01*
Y5276658D01*
X2736658Y5289987D01*
X2763316D01*
X2776645Y5276658D01*
X2643355Y5289987D02*
X2670013Y5276658D01*
X2696671Y5250000D01*
Y5223342D01*
X2683342Y5210013D01*
X2656684D01*
X2643355Y5223342D01*
Y5236671D01*
X2656684Y5250000D01*
X2696671D01*
X2616697Y5210013D02*
Y5263329D01*
X2590039Y5289987D01*
X2563381Y5263329D01*
Y5210013D01*
Y5250000D01*
X2616697D01*
X1280012Y13303316D02*
X1359987Y13250000D01*
X1280012D02*
X1359987Y13303316D01*
Y13223341D02*
Y13196684D01*
Y13210013D01*
X1280012D01*
X1293341Y13223341D01*
X1290013Y12876645D02*
X1356658D01*
X1369987Y12863316D01*
Y12836658D01*
X1356658Y12823329D01*
X1290013D01*
X1369987Y12743355D02*
Y12796671D01*
X1316671Y12743355D01*
X1303342D01*
X1290013Y12756684D01*
Y12783342D01*
X1303342Y12796671D01*
X613316Y12629987D02*
Y12563342D01*
X599987Y12550013D01*
X573329D01*
X560000Y12563342D01*
Y12629987D01*
X533342Y12550013D02*
X506684D01*
X520013D01*
Y12629987D01*
X533342Y12616659D01*
X1378360Y11303180D02*
X1298386D01*
Y11263192D01*
X1311715Y11249863D01*
X1338373D01*
X1351702Y11263192D01*
Y11303180D01*
Y11276522D02*
X1378360Y11249863D01*
X1365031Y11223205D02*
X1378360Y11209876D01*
Y11183218D01*
X1365031Y11169889D01*
X1311715D01*
X1298386Y11183218D01*
Y11209876D01*
X1311715Y11223205D01*
X1325044D01*
X1338373Y11209876D01*
Y11169889D01*
X731439Y14272704D02*
Y14352676D01*
X691452D01*
X678123Y14339348D01*
Y14312691D01*
X691452Y14299361D01*
X731439D01*
X704781D02*
X678123Y14272704D01*
X651465Y14339348D02*
X638136Y14352676D01*
X611478D01*
X598149Y14339348D01*
Y14326019D01*
X611478Y14312691D01*
X598149Y14299361D01*
Y14286032D01*
X611478Y14272704D01*
X638136D01*
X651465Y14286032D01*
Y14299361D01*
X638136Y14312691D01*
X651465Y14326019D01*
Y14339348D01*
X638136Y14312691D02*
X611478D01*
X1316645Y14580013D02*
Y14659987D01*
X1276658D01*
X1263329Y14646658D01*
Y14620000D01*
X1276658Y14606671D01*
X1316645D01*
X1289987D02*
X1263329Y14580013D01*
X1236671Y14659987D02*
X1183355D01*
Y14646658D01*
X1236671Y14593343D01*
Y14580013D01*
X726645Y14570013D02*
Y14649986D01*
X686658D01*
X673329Y14636658D01*
Y14610001D01*
X686658Y14596671D01*
X726645D01*
X699987D02*
X673329Y14570013D01*
X593355Y14649986D02*
X620013Y14636658D01*
X646671Y14610001D01*
Y14583342D01*
X633342Y14570013D01*
X606684D01*
X593355Y14583342D01*
Y14596671D01*
X606684Y14610001D01*
X646671D01*
X4786645Y12960013D02*
Y13039987D01*
X4746658D01*
X4733329Y13026659D01*
Y13000000D01*
X4746658Y12986671D01*
X4786645D01*
X4759987D02*
X4733329Y12960013D01*
X4653355Y13039987D02*
X4706671D01*
Y13000000D01*
X4680013Y13013329D01*
X4666684D01*
X4653355Y13000000D01*
Y12973341D01*
X4666684Y12960013D01*
X4693342D01*
X4706671Y12973341D01*
X4690013Y13353355D02*
X4769987D01*
Y13393343D01*
X4756658Y13406671D01*
X4730000D01*
X4716671Y13393343D01*
Y13353355D01*
Y13380013D02*
X4690013Y13406671D01*
Y13473315D02*
X4769987D01*
X4730000Y13433328D01*
Y13486646D01*
X4410013Y13353355D02*
X4489987D01*
Y13393343D01*
X4476658Y13406671D01*
X4450000D01*
X4436671Y13393343D01*
Y13353355D01*
Y13380013D02*
X4410013Y13406671D01*
X4476658Y13433328D02*
X4489987Y13446658D01*
Y13473315D01*
X4476658Y13486646D01*
X4463329D01*
X4450000Y13473315D01*
Y13459987D01*
Y13473315D01*
X4436671Y13486646D01*
X4423342D01*
X4410013Y13473315D01*
Y13446658D01*
X4423342Y13433328D01*
X4366645Y10940013D02*
Y11019987D01*
X4326658D01*
X4313329Y11006658D01*
Y10980000D01*
X4326658Y10966671D01*
X4366645D01*
X4339987D02*
X4313329Y10940013D01*
X4233355D02*
X4286671D01*
X4233355Y10993329D01*
Y11006658D01*
X4246684Y11019987D01*
X4273342D01*
X4286671Y11006658D01*
X4503316Y12960013D02*
Y13039987D01*
X4463329D01*
X4450000Y13026659D01*
Y13000000D01*
X4463329Y12986671D01*
X4503316D01*
X4476658D02*
X4450000Y12960013D01*
X4423342D02*
X4396684D01*
X4410013D01*
Y13039987D01*
X4423342Y13026659D01*
X447122Y14286041D02*
Y14339359D01*
X460451Y14352687D01*
X487109D01*
X500438Y14339359D01*
Y14286041D01*
X487109Y14272713D01*
X460451D01*
X473780Y14299371D02*
X447122Y14272713D01*
X460451D02*
X447122Y14286041D01*
X420464Y14272713D02*
X393806D01*
X407135D01*
Y14352687D01*
X420464Y14339359D01*
X1023329Y10845987D02*
X1049987D01*
X1036658D01*
Y10779342D01*
X1049987Y10766013D01*
X1063316D01*
X1076645Y10779342D01*
X956684Y10766013D02*
Y10845987D01*
X996671Y10806000D01*
X943355D01*
X4033329Y12489987D02*
X4059987D01*
X4046658D01*
Y12423342D01*
X4059987Y12410013D01*
X4073316D01*
X4086645Y12423342D01*
X4006671Y12476658D02*
X3993342Y12489987D01*
X3966684D01*
X3953355Y12476658D01*
Y12463329D01*
X3966684Y12450000D01*
X3980013D01*
X3966684D01*
X3953355Y12436671D01*
Y12423342D01*
X3966684Y12410013D01*
X3993342D01*
X4006671Y12423342D01*
X593329Y13036658D02*
X606658Y13049986D01*
X633316D01*
X646645Y13036658D01*
Y12983342D01*
X633316Y12970013D01*
X606658D01*
X593329Y12983342D01*
X566671Y13049986D02*
X513355D01*
Y13036658D01*
X566671Y12983342D01*
Y12970013D01*
X593329Y13286658D02*
X606658Y13299986D01*
X633316D01*
X646645Y13286658D01*
Y13233342D01*
X633316Y13220013D01*
X606658D01*
X593329Y13233342D01*
X513355Y13299986D02*
X540013Y13286658D01*
X566671Y13260001D01*
Y13233342D01*
X553342Y13220013D01*
X526684D01*
X513355Y13233342D01*
Y13246671D01*
X526684Y13260001D01*
X566671D01*
X1923329Y13296658D02*
X1936658Y13309987D01*
X1963316D01*
X1976645Y13296658D01*
Y13243343D01*
X1963316Y13230013D01*
X1936658D01*
X1923329Y13243343D01*
X1843355Y13309987D02*
X1896671D01*
Y13270000D01*
X1870013Y13283328D01*
X1856684D01*
X1843355Y13270000D01*
Y13243343D01*
X1856684Y13230013D01*
X1883342D01*
X1896671Y13243343D01*
X1923329Y13086658D02*
X1936658Y13099986D01*
X1963316D01*
X1976645Y13086658D01*
Y13033342D01*
X1963316Y13020013D01*
X1936658D01*
X1923329Y13033342D01*
X1856684Y13020013D02*
Y13099986D01*
X1896671Y13060001D01*
X1843355D01*
X4903329Y13406657D02*
X4916658Y13419987D01*
X4943316D01*
X4956645Y13406657D01*
Y13353342D01*
X4943316Y13340013D01*
X4916658D01*
X4903329Y13353342D01*
X4876671Y13406657D02*
X4863342Y13419987D01*
X4836684D01*
X4823355Y13406657D01*
Y13393329D01*
X4836684Y13380000D01*
X4850013D01*
X4836684D01*
X4823355Y13366672D01*
Y13353342D01*
X4836684Y13340013D01*
X4863342D01*
X4876671Y13353342D01*
X4303329Y13406657D02*
X4316658Y13419987D01*
X4343316D01*
X4356645Y13406657D01*
Y13353342D01*
X4343316Y13340013D01*
X4316658D01*
X4303329Y13353342D01*
X4223355Y13340013D02*
X4276671D01*
X4223355Y13393329D01*
Y13406657D01*
X4236684Y13419987D01*
X4263342D01*
X4276671Y13406657D01*
X1020000Y11946658D02*
X1033329Y11959987D01*
X1059987D01*
X1073316Y11946658D01*
Y11893342D01*
X1059987Y11880013D01*
X1033329D01*
X1020000Y11893342D01*
X993342Y11880013D02*
X966684D01*
X980013D01*
Y11959987D01*
X993342Y11946658D01*
X293316Y15929987D02*
Y15850014D01*
X253329D01*
X240000Y15863342D01*
Y15876671D01*
X253329Y15889999D01*
X293316D01*
X253329D01*
X240000Y15903329D01*
Y15916658D01*
X253329Y15929987D01*
X293316D01*
X213342Y15850014D02*
X186684D01*
X200013D01*
Y15929987D01*
X213342Y15916658D01*
X3529987Y12286619D02*
X3450013D01*
Y12246632D01*
X3463342Y12233303D01*
X3490000D01*
X3503329Y12246632D01*
Y12286619D01*
Y12259961D02*
X3529987Y12233303D01*
Y12153329D02*
Y12206645D01*
X3476671Y12153329D01*
X3463342D01*
X3450013Y12166658D01*
Y12193316D01*
X3463342Y12206645D01*
X3450013Y12126671D02*
Y12073355D01*
X3463342D01*
X3516658Y12126671D01*
X3529987D01*
X3450013Y12046697D02*
X3529987D01*
Y12006709D01*
X3516658Y11993380D01*
X3503329D01*
X3490000Y12006709D01*
Y12046697D01*
Y12006709D01*
X3476671Y11993380D01*
X3463342D01*
X3450013Y12006709D01*
Y12046697D01*
X3529987Y6056619D02*
X3450013D01*
Y6016632D01*
X3463342Y6003303D01*
X3490000D01*
X3503329Y6016632D01*
Y6056619D01*
Y6029961D02*
X3529987Y6003303D01*
Y5923329D02*
Y5976645D01*
X3476671Y5923329D01*
X3463342D01*
X3450013Y5936658D01*
Y5963316D01*
X3463342Y5976645D01*
X3450013Y5896671D02*
Y5843355D01*
X3463342D01*
X3516658Y5896671D01*
X3529987D01*
Y5816697D02*
X3476671D01*
X3450013Y5790039D01*
X3476671Y5763381D01*
X3529987D01*
X3490000D01*
Y5816697D01*
X3093316Y12393342D02*
Y12446658D01*
X3106645Y12459987D01*
X3133303D01*
X3146632Y12446658D01*
Y12393342D01*
X3133303Y12380013D01*
X3106645D01*
X3119974Y12406671D02*
X3093316Y12380013D01*
X3106645D02*
X3093316Y12393342D01*
X3066658Y12459987D02*
X3013342D01*
Y12446658D01*
X3066658Y12393342D01*
Y12380013D01*
X2986684Y12459987D02*
Y12380013D01*
X2946697D01*
X2933368Y12393342D01*
Y12406671D01*
X2946697Y12420000D01*
X2986684D01*
X2946697D01*
X2933368Y12433329D01*
Y12446658D01*
X2946697Y12459987D01*
X2986684D01*
X3093316Y6113342D02*
Y6166658D01*
X3106645Y6179987D01*
X3133303D01*
X3146633Y6166658D01*
Y6113342D01*
X3133303Y6100013D01*
X3106645D01*
X3119974Y6126671D02*
X3093316Y6100013D01*
X3106645D02*
X3093316Y6113342D01*
X3066658Y6179987D02*
X3013342D01*
Y6166658D01*
X3066658Y6113342D01*
Y6100013D01*
X2986684D02*
Y6153329D01*
X2960026Y6179987D01*
X2933368Y6153329D01*
Y6100013D01*
Y6140000D01*
X2986684D01*
X2683493Y16989645D02*
Y16909671D01*
X2723481D01*
X2736810Y16923000D01*
Y16949658D01*
X2723481Y16962987D01*
X2683493D01*
X2710152D02*
X2736810Y16989645D01*
X2816784D02*
X2763468D01*
X2816784Y16936330D01*
Y16923000D01*
X2803455Y16909671D01*
X2776797D01*
X2763468Y16923000D01*
X2896758Y16909671D02*
X2843442D01*
Y16949658D01*
X2870100Y16936330D01*
X2883429D01*
X2896758Y16949658D01*
Y16976315D01*
X2883429Y16989645D01*
X2856771D01*
X2843442Y16976315D01*
X2976732Y16909671D02*
X2923416D01*
Y16949658D01*
X2950074D01*
X2923416D01*
Y16989645D01*
X2683587Y14489844D02*
Y14409869D01*
X2723575D01*
X2736904Y14423198D01*
Y14449857D01*
X2723575Y14463185D01*
X2683587D01*
X2710246D02*
X2736904Y14489844D01*
X2816878D02*
X2763562D01*
X2816878Y14436526D01*
Y14423198D01*
X2803549Y14409869D01*
X2776891D01*
X2763562Y14423198D01*
X2896852Y14409869D02*
X2843536D01*
Y14449857D01*
X2870194Y14436526D01*
X2883523D01*
X2896852Y14449857D01*
Y14476514D01*
X2883523Y14489844D01*
X2856865D01*
X2843536Y14476514D01*
X2976826Y14409869D02*
X2923510D01*
Y14489844D01*
X2976826D01*
X2923510Y14449857D02*
X2950168D01*
X2683204Y10709542D02*
Y10629568D01*
X2723192D01*
X2736521Y10642897D01*
Y10669555D01*
X2723192Y10682884D01*
X2683204D01*
X2709862D02*
X2736521Y10709542D01*
X2816495D02*
X2763179D01*
X2816495Y10656226D01*
Y10642897D01*
X2803166Y10629568D01*
X2776508D01*
X2763179Y10642897D01*
X2896469Y10629568D02*
X2843153D01*
Y10669555D01*
X2869811Y10656226D01*
X2883140D01*
X2896469Y10669555D01*
Y10696213D01*
X2883140Y10709542D01*
X2856482D01*
X2843153Y10696213D01*
X2923127Y10629568D02*
Y10709542D01*
X2963114D01*
X2976443Y10696213D01*
Y10642897D01*
X2963114Y10629568D01*
X2923127D01*
X2684337Y8207073D02*
Y8127099D01*
X2724324D01*
X2737653Y8140427D01*
Y8167086D01*
X2724324Y8180415D01*
X2684337D01*
X2710995D02*
X2737653Y8207073D01*
X2817627D02*
X2764311D01*
X2817627Y8153757D01*
Y8140427D01*
X2804298Y8127099D01*
X2777640D01*
X2764311Y8140427D01*
X2897602Y8127099D02*
X2844285D01*
Y8167086D01*
X2870943Y8153757D01*
X2884273D01*
X2897602Y8167086D01*
Y8193744D01*
X2884273Y8207073D01*
X2857615D01*
X2844285Y8193744D01*
X2977576Y8140427D02*
X2964247Y8127099D01*
X2937589D01*
X2924260Y8140427D01*
Y8193744D01*
X2937589Y8207073D01*
X2964247D01*
X2977576Y8193744D01*
X2682653Y4429854D02*
Y4349880D01*
X2722640D01*
X2735969Y4363209D01*
Y4389867D01*
X2722640Y4403196D01*
X2682653D01*
X2709311D02*
X2735969Y4429854D01*
X2815944D02*
X2762627D01*
X2815944Y4376538D01*
Y4363209D01*
X2802615Y4349880D01*
X2775957D01*
X2762627Y4363209D01*
X2895918Y4349880D02*
X2842602D01*
Y4389867D01*
X2869260Y4376538D01*
X2882589D01*
X2895918Y4389867D01*
Y4416525D01*
X2882589Y4429854D01*
X2855931D01*
X2842602Y4416525D01*
X2922576Y4349880D02*
Y4429854D01*
X2962563D01*
X2975892Y4416525D01*
Y4403196D01*
X2962563Y4389867D01*
X2922576D01*
X2962563D01*
X2975892Y4376538D01*
Y4363209D01*
X2962563Y4349880D01*
X2922576D01*
X2683381Y1929987D02*
Y1850013D01*
X2723368D01*
X2736697Y1863342D01*
Y1890000D01*
X2723368Y1903329D01*
X2683381D01*
X2710039D02*
X2736697Y1929987D01*
X2816671D02*
X2763355D01*
X2816671Y1876671D01*
Y1863342D01*
X2803342Y1850013D01*
X2776684D01*
X2763355Y1863342D01*
X2896645Y1850013D02*
X2843329D01*
Y1890000D01*
X2869987Y1876671D01*
X2883316D01*
X2896645Y1890000D01*
Y1916658D01*
X2883316Y1929987D01*
X2856658D01*
X2843329Y1916658D01*
X2923303Y1929987D02*
Y1876671D01*
X2949961Y1850013D01*
X2976619Y1876671D01*
Y1929987D01*
Y1890000D01*
X2923303D01*
X2605776Y16402585D02*
Y16482561D01*
X2565788D01*
X2552459Y16469231D01*
Y16442574D01*
X2565788Y16429243D01*
X2605776D01*
X2579118D02*
X2552459Y16402585D01*
X2472485D02*
X2525801D01*
X2472485Y16455902D01*
Y16469231D01*
X2485814Y16482561D01*
X2512472D01*
X2525801Y16469231D01*
X2405840Y16402585D02*
Y16482561D01*
X2445827Y16442574D01*
X2392511D01*
X2312537Y16482561D02*
X2365853D01*
Y16442574D01*
X2339195D01*
X2365853D01*
Y16402585D01*
X2605870Y13902785D02*
Y13982758D01*
X2565882D01*
X2552553Y13969429D01*
Y13942770D01*
X2565882Y13929442D01*
X2605870D01*
X2579212D02*
X2552553Y13902785D01*
X2472579D02*
X2525895D01*
X2472579Y13956100D01*
Y13969429D01*
X2485908Y13982758D01*
X2512566D01*
X2525895Y13969429D01*
X2405934Y13902785D02*
Y13982758D01*
X2445921Y13942770D01*
X2392605D01*
X2312631Y13982758D02*
X2365947D01*
Y13902785D01*
X2312631D01*
X2365947Y13942770D02*
X2339289D01*
X2605487Y10122482D02*
Y10202457D01*
X2565499D01*
X2552170Y10189128D01*
Y10162470D01*
X2565499Y10149140D01*
X2605487D01*
X2578828D02*
X2552170Y10122482D01*
X2472196D02*
X2525512D01*
X2472196Y10175799D01*
Y10189128D01*
X2485525Y10202457D01*
X2512183D01*
X2525512Y10189128D01*
X2405551Y10122482D02*
Y10202457D01*
X2445538Y10162470D01*
X2392222D01*
X2365564Y10202457D02*
Y10122482D01*
X2325577D01*
X2312248Y10135812D01*
Y10189128D01*
X2325577Y10202457D01*
X2365564D01*
X2606619Y7620013D02*
Y7699987D01*
X2566632D01*
X2553303Y7686658D01*
Y7660000D01*
X2566632Y7646671D01*
X2606619D01*
X2579961D02*
X2553303Y7620013D01*
X2473329D02*
X2526645D01*
X2473329Y7673329D01*
Y7686658D01*
X2486658Y7699987D01*
X2513316D01*
X2526645Y7686658D01*
X2406684Y7620013D02*
Y7699987D01*
X2446671Y7660000D01*
X2393355D01*
X2313380Y7686658D02*
X2326709Y7699987D01*
X2353367D01*
X2366697Y7686658D01*
Y7633342D01*
X2353367Y7620013D01*
X2326709D01*
X2313380Y7633342D01*
X2604935Y3842794D02*
Y3922769D01*
X2564948D01*
X2551619Y3909440D01*
Y3882782D01*
X2564948Y3869453D01*
X2604935D01*
X2578277D02*
X2551619Y3842794D01*
X2471645D02*
X2524961D01*
X2471645Y3896111D01*
Y3909440D01*
X2484974Y3922769D01*
X2511632D01*
X2524961Y3909440D01*
X2405000Y3842794D02*
Y3922769D01*
X2444987Y3882782D01*
X2391671D01*
X2365013Y3922769D02*
Y3842794D01*
X2325026D01*
X2311697Y3856124D01*
Y3869453D01*
X2325026Y3882782D01*
X2365013D01*
X2325026D01*
X2311697Y3896111D01*
Y3909440D01*
X2325026Y3922769D01*
X2365013D01*
X2605663Y1342927D02*
Y1422901D01*
X2565676D01*
X2552347Y1409572D01*
Y1382914D01*
X2565676Y1369585D01*
X2605663D01*
X2579005D02*
X2552347Y1342927D01*
X2472373D02*
X2525689D01*
X2472373Y1396243D01*
Y1409572D01*
X2485701Y1422901D01*
X2512359D01*
X2525689Y1409572D01*
X2405727Y1342927D02*
Y1422901D01*
X2445714Y1382914D01*
X2392398D01*
X2365740Y1342927D02*
Y1396243D01*
X2339082Y1422901D01*
X2312424Y1396243D01*
Y1342927D01*
Y1382914D01*
X2365740D01*
X5146278Y10464129D02*
Y10544103D01*
X5106291D01*
X5092962Y10530774D01*
Y10504116D01*
X5106291Y10490787D01*
X5146278D01*
X5119620D02*
X5092962Y10464129D01*
X5012988D02*
X5066304D01*
X5012988Y10517445D01*
Y10530774D01*
X5026317Y10544103D01*
X5052975D01*
X5066304Y10530774D01*
X4986330D02*
X4973000Y10544103D01*
X4946342D01*
X4933014Y10530774D01*
Y10517445D01*
X4946342Y10504116D01*
X4959672D01*
X4946342D01*
X4933014Y10490787D01*
Y10477458D01*
X4946342Y10464129D01*
X4973000D01*
X4986330Y10477458D01*
X4853039Y10544103D02*
X4879697D01*
X4866368D01*
Y10477458D01*
X4879697Y10464129D01*
X4893026D01*
X4906355Y10477458D01*
X5122949Y9730529D02*
Y9810503D01*
X5082962D01*
X5069633Y9797174D01*
Y9770516D01*
X5082962Y9757187D01*
X5122949D01*
X5096291D02*
X5069633Y9730529D01*
X4989659D02*
X5042975D01*
X4989659Y9783845D01*
Y9797174D01*
X5002988Y9810503D01*
X5029646D01*
X5042975Y9797174D01*
X4963001D02*
X4949672Y9810503D01*
X4923014D01*
X4909685Y9797174D01*
Y9783845D01*
X4923014Y9770516D01*
X4936343D01*
X4923014D01*
X4909685Y9757187D01*
Y9743858D01*
X4923014Y9730529D01*
X4949672D01*
X4963001Y9743858D01*
X4883027Y9810503D02*
X4856368D01*
X4869697D01*
Y9730529D01*
X4883027D01*
X4856368D01*
X4939987Y8176619D02*
X4860013D01*
Y8136632D01*
X4873342Y8123303D01*
X4900000D01*
X4913329Y8136632D01*
Y8176619D01*
Y8149961D02*
X4939987Y8123303D01*
Y8043329D02*
Y8096645D01*
X4886671Y8043329D01*
X4873342D01*
X4860013Y8056658D01*
Y8083316D01*
X4873342Y8096645D01*
Y8016671D02*
X4860013Y8003342D01*
Y7976684D01*
X4873342Y7963355D01*
X4886671D01*
X4900000Y7976684D01*
Y7990013D01*
Y7976684D01*
X4913329Y7963355D01*
X4926658D01*
X4939987Y7976684D01*
Y8003342D01*
X4926658Y8016671D01*
X4860013Y7936697D02*
X4939987D01*
X4900000D01*
Y7883380D01*
X4860013D01*
X4939987D01*
X5206278Y7146190D02*
Y7226164D01*
X5166291D01*
X5152962Y7212835D01*
Y7186177D01*
X5166291Y7172848D01*
X5206278D01*
X5179620D02*
X5152962Y7146190D01*
X5072988D02*
X5126304D01*
X5072988Y7199506D01*
Y7212835D01*
X5086316Y7226164D01*
X5112975D01*
X5126304Y7212835D01*
X5046330D02*
X5033000Y7226164D01*
X5006342D01*
X4993013Y7212835D01*
Y7199506D01*
X5006342Y7186177D01*
X5019671D01*
X5006342D01*
X4993013Y7172848D01*
Y7159519D01*
X5006342Y7146190D01*
X5033000D01*
X5046330Y7159519D01*
X4913039Y7212835D02*
X4926368Y7226164D01*
X4953026D01*
X4966355Y7212835D01*
Y7159519D01*
X4953026Y7146190D01*
X4926368D01*
X4913039Y7159519D01*
Y7186177D01*
X4939697D01*
X4126277Y6853100D02*
Y6933074D01*
X4086290D01*
X4072961Y6919745D01*
Y6893087D01*
X4086290Y6879758D01*
X4126277D01*
X4099619D02*
X4072961Y6853100D01*
X3992987D02*
X4046303D01*
X3992987Y6906416D01*
Y6919745D01*
X4006316Y6933074D01*
X4032974D01*
X4046303Y6919745D01*
X3966329D02*
X3952999Y6933074D01*
X3926341D01*
X3913012Y6919745D01*
Y6906416D01*
X3926341Y6893087D01*
X3939671D01*
X3926341D01*
X3913012Y6879758D01*
Y6866429D01*
X3926341Y6853100D01*
X3952999D01*
X3966329Y6866429D01*
X3833038Y6933074D02*
X3886354D01*
Y6893087D01*
X3859696D01*
X3886354D01*
Y6853100D01*
X916278Y10179500D02*
Y10259475D01*
X876290D01*
X862961Y10246146D01*
Y10219488D01*
X876290Y10206158D01*
X916278D01*
X889620D02*
X862961Y10179500D01*
X782987D02*
X836303D01*
X782987Y10232816D01*
Y10246146D01*
X796316Y10259475D01*
X822974D01*
X836303Y10246146D01*
X756329D02*
X743000Y10259475D01*
X716342D01*
X703013Y10246146D01*
Y10232816D01*
X716342Y10219488D01*
X729671D01*
X716342D01*
X703013Y10206158D01*
Y10192829D01*
X716342Y10179500D01*
X743000D01*
X756329Y10192829D01*
X623039Y10259475D02*
X676355D01*
Y10179500D01*
X623039D01*
X676355Y10219488D02*
X649697D01*
X916279Y9463803D02*
Y9543777D01*
X876292D01*
X862963Y9530448D01*
Y9503790D01*
X876292Y9490461D01*
X916279D01*
X889621D02*
X862963Y9463803D01*
X782989D02*
X836305D01*
X782989Y9517119D01*
Y9530448D01*
X796318Y9543777D01*
X822976D01*
X836305Y9530448D01*
X756331D02*
X743002Y9543777D01*
X716343D01*
X703015Y9530448D01*
Y9517119D01*
X716343Y9503790D01*
X729673D01*
X716343D01*
X703015Y9490461D01*
Y9477132D01*
X716343Y9463803D01*
X743002D01*
X756331Y9477132D01*
X676357Y9543777D02*
Y9463803D01*
X636369D01*
X623040Y9477132D01*
Y9530448D01*
X636369Y9543777D01*
X676357D01*
X916276Y8730821D02*
Y8810795D01*
X876289D01*
X862960Y8797466D01*
Y8770808D01*
X876289Y8757479D01*
X916276D01*
X889618D02*
X862960Y8730821D01*
X782986D02*
X836302D01*
X782986Y8784137D01*
Y8797466D01*
X796315Y8810795D01*
X822973D01*
X836302Y8797466D01*
X756328D02*
X742999Y8810795D01*
X716340D01*
X703012Y8797466D01*
Y8784137D01*
X716340Y8770808D01*
X729670D01*
X716340D01*
X703012Y8757479D01*
Y8744150D01*
X716340Y8730821D01*
X742999D01*
X756328Y8744150D01*
X623037Y8797466D02*
X636366Y8810795D01*
X663024D01*
X676353Y8797466D01*
Y8744150D01*
X663024Y8730821D01*
X636366D01*
X623037Y8744150D01*
X916280Y8000057D02*
Y8080031D01*
X876292D01*
X862963Y8066702D01*
Y8040044D01*
X876292Y8026715D01*
X916280D01*
X889622D02*
X862963Y8000057D01*
X782989D02*
X836305D01*
X782989Y8053373D01*
Y8066702D01*
X796318Y8080031D01*
X822976D01*
X836305Y8066702D01*
X756331D02*
X743002Y8080031D01*
X716344D01*
X703015Y8066702D01*
Y8053373D01*
X716344Y8040044D01*
X729673D01*
X716344D01*
X703015Y8026715D01*
Y8013386D01*
X716344Y8000057D01*
X743002D01*
X756331Y8013386D01*
X676357Y8080031D02*
Y8000057D01*
X636370D01*
X623041Y8013386D01*
Y8026715D01*
X636370Y8040044D01*
X676357D01*
X636370D01*
X623041Y8053373D01*
Y8066702D01*
X636370Y8080031D01*
X676357D01*
X916277Y7273917D02*
Y7353891D01*
X876289D01*
X862960Y7340562D01*
Y7313904D01*
X876289Y7300575D01*
X916277D01*
X889618D02*
X862960Y7273917D01*
X782986D02*
X836302D01*
X782986Y7327233D01*
Y7340562D01*
X796315Y7353891D01*
X822973D01*
X836302Y7340562D01*
X756328D02*
X742999Y7353891D01*
X716341D01*
X703012Y7340562D01*
Y7327233D01*
X716341Y7313904D01*
X729670D01*
X716341D01*
X703012Y7300575D01*
Y7287246D01*
X716341Y7273917D01*
X742999D01*
X756328Y7287246D01*
X676354Y7273917D02*
Y7327233D01*
X649696Y7353891D01*
X623038Y7327233D01*
Y7273917D01*
Y7313904D01*
X676354D01*
X4816278Y10404129D02*
Y10484103D01*
X4776291D01*
X4762962Y10470774D01*
Y10444116D01*
X4776291Y10430787D01*
X4816278D01*
X4789620D02*
X4762962Y10404129D01*
X4682988D02*
X4736304D01*
X4682988Y10457445D01*
Y10470774D01*
X4696316Y10484103D01*
X4722975D01*
X4736304Y10470774D01*
X4603013Y10404129D02*
X4656330D01*
X4603013Y10457445D01*
Y10470774D01*
X4616342Y10484103D01*
X4643000D01*
X4656330Y10470774D01*
X4523039Y10484103D02*
X4549697D01*
X4536368D01*
Y10417458D01*
X4549697Y10404129D01*
X4563026D01*
X4576355Y10417458D01*
X4792949Y9670529D02*
Y9750503D01*
X4752962D01*
X4739633Y9737174D01*
Y9710516D01*
X4752962Y9697187D01*
X4792949D01*
X4766291D02*
X4739633Y9670529D01*
X4659659D02*
X4712975D01*
X4659659Y9723845D01*
Y9737174D01*
X4672988Y9750503D01*
X4699646D01*
X4712975Y9737174D01*
X4579685Y9670529D02*
X4633001D01*
X4579685Y9723845D01*
Y9737174D01*
X4593013Y9750503D01*
X4619671D01*
X4633001Y9737174D01*
X4553026Y9750503D02*
X4526368D01*
X4539697D01*
Y9670529D01*
X4553026D01*
X4526368D01*
X4806277Y7811607D02*
Y7891581D01*
X4766290D01*
X4752961Y7878252D01*
Y7851594D01*
X4766290Y7838265D01*
X4806277D01*
X4779619D02*
X4752961Y7811607D01*
X4672987D02*
X4726303D01*
X4672987Y7864923D01*
Y7878252D01*
X4686316Y7891581D01*
X4712974D01*
X4726303Y7878252D01*
X4593013Y7811607D02*
X4646329D01*
X4593013Y7864923D01*
Y7878252D01*
X4606342Y7891581D01*
X4633000D01*
X4646329Y7878252D01*
X4566355Y7891581D02*
Y7811607D01*
Y7851594D01*
X4513039D01*
Y7891581D01*
Y7811607D01*
X4806278Y7086190D02*
Y7166164D01*
X4766291D01*
X4752962Y7152835D01*
Y7126177D01*
X4766291Y7112848D01*
X4806278D01*
X4779620D02*
X4752962Y7086190D01*
X4672988D02*
X4726304D01*
X4672988Y7139506D01*
Y7152835D01*
X4686317Y7166164D01*
X4712975D01*
X4726304Y7152835D01*
X4593013Y7086190D02*
X4646330D01*
X4593013Y7139506D01*
Y7152835D01*
X4606342Y7166164D01*
X4633000D01*
X4646330Y7152835D01*
X4513039D02*
X4526368Y7166164D01*
X4553026D01*
X4566355Y7152835D01*
Y7099519D01*
X4553026Y7086190D01*
X4526368D01*
X4513039Y7099519D01*
Y7126177D01*
X4539697D01*
X3796277Y6793100D02*
Y6873074D01*
X3756290D01*
X3742961Y6859745D01*
Y6833087D01*
X3756290Y6819758D01*
X3796277D01*
X3769619D02*
X3742961Y6793100D01*
X3662987D02*
X3716303D01*
X3662987Y6846416D01*
Y6859745D01*
X3676315Y6873074D01*
X3702974D01*
X3716303Y6859745D01*
X3583012Y6793100D02*
X3636329D01*
X3583012Y6846416D01*
Y6859745D01*
X3596341Y6873074D01*
X3622999D01*
X3636329Y6859745D01*
X3503038Y6873074D02*
X3556354D01*
Y6833087D01*
X3529696D01*
X3556354D01*
Y6793100D01*
X586277Y10119500D02*
Y10199475D01*
X546290D01*
X532961Y10186146D01*
Y10159488D01*
X546290Y10146159D01*
X586277D01*
X559619D02*
X532961Y10119500D01*
X452987D02*
X506303D01*
X452987Y10172817D01*
Y10186146D01*
X466316Y10199475D01*
X492974D01*
X506303Y10186146D01*
X373013Y10119500D02*
X426329D01*
X373013Y10172817D01*
Y10186146D01*
X386342Y10199475D01*
X413000D01*
X426329Y10186146D01*
X293039Y10199475D02*
X346355D01*
Y10119500D01*
X293039D01*
X346355Y10159488D02*
X319697D01*
X586279Y9403803D02*
Y9483777D01*
X546292D01*
X532963Y9470448D01*
Y9443790D01*
X546292Y9430461D01*
X586279D01*
X559621D02*
X532963Y9403803D01*
X452989D02*
X506305D01*
X452989Y9457119D01*
Y9470448D01*
X466318Y9483777D01*
X492976D01*
X506305Y9470448D01*
X373014Y9403803D02*
X426331D01*
X373014Y9457119D01*
Y9470448D01*
X386343Y9483777D01*
X413001D01*
X426331Y9470448D01*
X346356Y9483777D02*
Y9403803D01*
X306369D01*
X293040Y9417132D01*
Y9470448D01*
X306369Y9483777D01*
X346356D01*
X586276Y8670821D02*
Y8750795D01*
X546289D01*
X532960Y8737466D01*
Y8710808D01*
X546289Y8697479D01*
X586276D01*
X559618D02*
X532960Y8670821D01*
X452986D02*
X506302D01*
X452986Y8724137D01*
Y8737466D01*
X466315Y8750795D01*
X492973D01*
X506302Y8737466D01*
X373011Y8670821D02*
X426328D01*
X373011Y8724137D01*
Y8737466D01*
X386340Y8750795D01*
X412998D01*
X426328Y8737466D01*
X293037D02*
X306366Y8750795D01*
X333024D01*
X346353Y8737466D01*
Y8684150D01*
X333024Y8670821D01*
X306366D01*
X293037Y8684150D01*
X586279Y7940057D02*
Y8020031D01*
X546292D01*
X532963Y8006703D01*
Y7980044D01*
X546292Y7966715D01*
X586279D01*
X559621D02*
X532963Y7940057D01*
X452989D02*
X506305D01*
X452989Y7993373D01*
Y8006703D01*
X466318Y8020031D01*
X492976D01*
X506305Y8006703D01*
X373015Y7940057D02*
X426331D01*
X373015Y7993373D01*
Y8006703D01*
X386344Y8020031D01*
X413002D01*
X426331Y8006703D01*
X346357Y8020031D02*
Y7940057D01*
X306370D01*
X293041Y7953386D01*
Y7966715D01*
X306370Y7980044D01*
X346357D01*
X306370D01*
X293041Y7993373D01*
Y8006703D01*
X306370Y8020031D01*
X346357D01*
X586276Y7213917D02*
Y7293891D01*
X546289D01*
X532960Y7280563D01*
Y7253904D01*
X546289Y7240575D01*
X586276D01*
X559618D02*
X532960Y7213917D01*
X452986D02*
X506302D01*
X452986Y7267233D01*
Y7280563D01*
X466315Y7293891D01*
X492973D01*
X506302Y7280563D01*
X373012Y7213917D02*
X426328D01*
X373012Y7267233D01*
Y7280563D01*
X386341Y7293891D01*
X412999D01*
X426328Y7280563D01*
X346354Y7213917D02*
Y7267233D01*
X319696Y7293891D01*
X293038Y7267233D01*
Y7213917D01*
Y7253904D01*
X346354D01*
X1280548Y16210168D02*
X1200574D01*
Y16170181D01*
X1213903Y16156853D01*
X1240561D01*
X1253890Y16170181D01*
Y16210168D01*
Y16183510D02*
X1280548Y16156853D01*
Y16076878D02*
Y16130194D01*
X1227232Y16076878D01*
X1213903D01*
X1200574Y16090207D01*
Y16116866D01*
X1213903Y16130194D01*
X1280548Y16050220D02*
Y16023563D01*
Y16036891D01*
X1200574D01*
X1213903Y16050220D01*
X1200574Y15930258D02*
Y15983575D01*
X1240561D01*
Y15956917D01*
Y15983575D01*
X1280548D01*
X1280126Y13710847D02*
X1200152D01*
Y13670860D01*
X1213481Y13657532D01*
X1240139D01*
X1253468Y13670860D01*
Y13710847D01*
Y13684190D02*
X1280126Y13657532D01*
Y13577557D02*
Y13630875D01*
X1226810Y13577557D01*
X1213481D01*
X1200152Y13590887D01*
Y13617545D01*
X1213481Y13630875D01*
X1280126Y13550900D02*
Y13524242D01*
Y13537572D01*
X1200152D01*
X1213481Y13550900D01*
X1200152Y13430939D02*
Y13484254D01*
X1280126D01*
Y13430939D01*
X1240139Y13484254D02*
Y13457597D01*
X1280432Y9930054D02*
X1200458D01*
Y9890066D01*
X1213787Y9876737D01*
X1240445D01*
X1253774Y9890066D01*
Y9930054D01*
Y9903395D02*
X1280432Y9876737D01*
Y9796763D02*
Y9850079D01*
X1227116Y9796763D01*
X1213787D01*
X1200458Y9810092D01*
Y9836750D01*
X1213787Y9850079D01*
X1280432Y9770105D02*
Y9743447D01*
Y9756776D01*
X1200458D01*
X1213787Y9770105D01*
X1200458Y9703460D02*
X1280432D01*
Y9663473D01*
X1267103Y9650144D01*
X1213787D01*
X1200458Y9663473D01*
Y9703460D01*
X1278759Y7429623D02*
X1198785D01*
Y7389636D01*
X1212114Y7376307D01*
X1238772D01*
X1252101Y7389636D01*
Y7429623D01*
Y7402965D02*
X1278759Y7376307D01*
Y7296333D02*
Y7349649D01*
X1225443Y7296333D01*
X1212114D01*
X1198785Y7309662D01*
Y7336320D01*
X1212114Y7349649D01*
X1278759Y7269675D02*
Y7243017D01*
Y7256346D01*
X1198785D01*
X1212114Y7269675D01*
Y7149714D02*
X1198785Y7163043D01*
Y7189701D01*
X1212114Y7203030D01*
X1265430D01*
X1278759Y7189701D01*
Y7163043D01*
X1265430Y7149714D01*
X1279987Y3650276D02*
X1200013D01*
Y3610288D01*
X1213342Y3596960D01*
X1240000D01*
X1253329Y3610288D01*
Y3650276D01*
Y3623618D02*
X1279987Y3596960D01*
Y3516985D02*
Y3570301D01*
X1226671Y3516985D01*
X1213342D01*
X1200013Y3530314D01*
Y3556972D01*
X1213342Y3570301D01*
X1279987Y3490327D02*
Y3463669D01*
Y3476998D01*
X1200013D01*
X1213342Y3490327D01*
X1200013Y3423682D02*
X1279987D01*
Y3383695D01*
X1266658Y3370366D01*
X1253329D01*
X1240000Y3383695D01*
Y3423682D01*
Y3383695D01*
X1226671Y3370366D01*
X1213342D01*
X1200013Y3383695D01*
Y3423682D01*
X1279987Y1149955D02*
X1200013D01*
Y1109968D01*
X1213342Y1096639D01*
X1240000D01*
X1253329Y1109968D01*
Y1149955D01*
Y1123297D02*
X1279987Y1096639D01*
Y1016664D02*
Y1069981D01*
X1226671Y1016664D01*
X1213342D01*
X1200013Y1029993D01*
Y1056651D01*
X1213342Y1069981D01*
X1279987Y990006D02*
Y963348D01*
Y976677D01*
X1200013D01*
X1213342Y990006D01*
X1279987Y923361D02*
X1226671D01*
X1200013Y896703D01*
X1226671Y870045D01*
X1279987D01*
X1240000D01*
Y923361D01*
X1655170Y16083032D02*
Y16003056D01*
X1695157D01*
X1708486Y16016386D01*
Y16043044D01*
X1695157Y16056374D01*
X1655170D01*
X1681828D02*
X1708486Y16083032D01*
X1788460D02*
X1735144D01*
X1788460Y16029715D01*
Y16016386D01*
X1775131Y16003056D01*
X1748473D01*
X1735144Y16016386D01*
X1815118D02*
X1828447Y16003056D01*
X1855105D01*
X1868434Y16016386D01*
Y16069702D01*
X1855105Y16083032D01*
X1828447D01*
X1815118Y16069702D01*
Y16016386D01*
X1948408Y16003056D02*
X1895092D01*
Y16043044D01*
X1921750D01*
X1895092D01*
Y16083032D01*
X1883381Y13589987D02*
Y13510013D01*
X1923368D01*
X1936697Y13523341D01*
Y13550000D01*
X1923368Y13563329D01*
X1883381D01*
X1910039D02*
X1936697Y13589987D01*
X2016671D02*
X1963355D01*
X2016671Y13536671D01*
Y13523341D01*
X2003342Y13510013D01*
X1976684D01*
X1963355Y13523341D01*
X2043329D02*
X2056658Y13510013D01*
X2083316D01*
X2096645Y13523341D01*
Y13576659D01*
X2083316Y13589987D01*
X2056658D01*
X2043329Y13576659D01*
Y13523341D01*
X2176619Y13510013D02*
X2123303D01*
Y13589987D01*
X2176619D01*
X2123303Y13550000D02*
X2149961D01*
X1655053Y9802917D02*
Y9722943D01*
X1695041D01*
X1708369Y9736272D01*
Y9762930D01*
X1695041Y9776259D01*
X1655053D01*
X1681711D02*
X1708369Y9802917D01*
X1788344D02*
X1735028D01*
X1788344Y9749601D01*
Y9736272D01*
X1775015Y9722943D01*
X1748357D01*
X1735028Y9736272D01*
X1815002D02*
X1828331Y9722943D01*
X1854989D01*
X1868318Y9736272D01*
Y9789588D01*
X1854989Y9802917D01*
X1828331D01*
X1815002Y9789588D01*
Y9736272D01*
X1894976Y9722943D02*
Y9802917D01*
X1934963D01*
X1948292Y9789588D01*
Y9736272D01*
X1934963Y9722943D01*
X1894976D01*
X1653381Y7302487D02*
Y7222513D01*
X1693368D01*
X1706697Y7235842D01*
Y7262500D01*
X1693368Y7275829D01*
X1653381D01*
X1680039D02*
X1706697Y7302487D01*
X1786671D02*
X1733355D01*
X1786671Y7249171D01*
Y7235842D01*
X1773342Y7222513D01*
X1746684D01*
X1733355Y7235842D01*
X1813329D02*
X1826658Y7222513D01*
X1853316D01*
X1866645Y7235842D01*
Y7289158D01*
X1853316Y7302487D01*
X1826658D01*
X1813329Y7289158D01*
Y7235842D01*
X1946619D02*
X1933291Y7222513D01*
X1906632D01*
X1893303Y7235842D01*
Y7289158D01*
X1906632Y7302487D01*
X1933291D01*
X1946619Y7289158D01*
X1654608Y3523139D02*
Y3443165D01*
X1694596D01*
X1707924Y3456494D01*
Y3483152D01*
X1694596Y3496481D01*
X1654608D01*
X1681266D02*
X1707924Y3523139D01*
X1787899D02*
X1734583D01*
X1787899Y3469823D01*
Y3456494D01*
X1774570Y3443165D01*
X1747912D01*
X1734583Y3456494D01*
X1814557D02*
X1827886Y3443165D01*
X1854544D01*
X1867873Y3456494D01*
Y3509810D01*
X1854544Y3523139D01*
X1827886D01*
X1814557Y3509810D01*
Y3456494D01*
X1894531Y3443165D02*
Y3523139D01*
X1934518D01*
X1947847Y3509810D01*
Y3496481D01*
X1934518Y3483152D01*
X1894531D01*
X1934518D01*
X1947847Y3469823D01*
Y3456494D01*
X1934518Y3443165D01*
X1894531D01*
X1654608Y1022818D02*
Y942844D01*
X1694596D01*
X1707924Y956173D01*
Y982831D01*
X1694596Y996160D01*
X1654608D01*
X1681266D02*
X1707924Y1022818D01*
X1787899D02*
X1734583D01*
X1787899Y969502D01*
Y956173D01*
X1774570Y942844D01*
X1747912D01*
X1734583Y956173D01*
X1814557D02*
X1827886Y942844D01*
X1854544D01*
X1867873Y956173D01*
Y1009489D01*
X1854544Y1022818D01*
X1827886D01*
X1814557Y1009489D01*
Y956173D01*
X1894531Y1022818D02*
Y969502D01*
X1921189Y942844D01*
X1947847Y969502D01*
Y1022818D01*
Y982831D01*
X1894531D01*
X1475824Y16928316D02*
Y17008290D01*
X1435836D01*
X1422507Y16994962D01*
Y16968303D01*
X1435836Y16954973D01*
X1475824D01*
X1449166D02*
X1422507Y16928316D01*
X1395849D02*
X1369191D01*
X1382520D01*
Y17008290D01*
X1395849Y16994962D01*
X1329204Y16941644D02*
X1315875Y16928316D01*
X1289217D01*
X1275888Y16941644D01*
Y16994962D01*
X1289217Y17008290D01*
X1315875D01*
X1329204Y16994962D01*
Y16981631D01*
X1315875Y16968303D01*
X1275888D01*
X1195914Y17008290D02*
X1249230D01*
Y16968303D01*
X1222572D01*
X1249230D01*
Y16928316D01*
X1475401Y14428996D02*
Y14508971D01*
X1435414D01*
X1422085Y14495641D01*
Y14468983D01*
X1435414Y14455653D01*
X1475401D01*
X1448743D02*
X1422085Y14428996D01*
X1395427D02*
X1368769D01*
X1382098D01*
Y14508971D01*
X1395427Y14495641D01*
X1328782Y14442325D02*
X1315453Y14428996D01*
X1288794D01*
X1275466Y14442325D01*
Y14495641D01*
X1288794Y14508971D01*
X1315453D01*
X1328782Y14495641D01*
Y14482312D01*
X1315453Y14468983D01*
X1275466D01*
X1195491Y14508971D02*
X1248808D01*
Y14428996D01*
X1195491D01*
X1248808Y14468983D02*
X1222149D01*
X1475707Y10648201D02*
Y10728175D01*
X1435720D01*
X1422391Y10714846D01*
Y10688188D01*
X1435720Y10674859D01*
X1475707D01*
X1449049D02*
X1422391Y10648201D01*
X1395733D02*
X1369075D01*
X1382404D01*
Y10728175D01*
X1395733Y10714846D01*
X1329088Y10661530D02*
X1315759Y10648201D01*
X1289101D01*
X1275772Y10661530D01*
Y10714846D01*
X1289101Y10728175D01*
X1315759D01*
X1329088Y10714846D01*
Y10701517D01*
X1315759Y10688188D01*
X1275772D01*
X1249114Y10728175D02*
Y10648201D01*
X1209126D01*
X1195797Y10661530D01*
Y10714846D01*
X1209126Y10728175D01*
X1249114D01*
X1474035Y8147771D02*
Y8227745D01*
X1434047D01*
X1420719Y8214416D01*
Y8187758D01*
X1434047Y8174429D01*
X1474035D01*
X1447377D02*
X1420719Y8147771D01*
X1394060D02*
X1367402D01*
X1380731D01*
Y8227745D01*
X1394060Y8214416D01*
X1327415Y8161100D02*
X1314086Y8147771D01*
X1287428D01*
X1274099Y8161100D01*
Y8214416D01*
X1287428Y8227745D01*
X1314086D01*
X1327415Y8214416D01*
Y8201087D01*
X1314086Y8187758D01*
X1274099D01*
X1194125Y8214416D02*
X1207454Y8227745D01*
X1234112D01*
X1247441Y8214416D01*
Y8161100D01*
X1234112Y8147771D01*
X1207454D01*
X1194125Y8161100D01*
X1475262Y4368423D02*
Y4448397D01*
X1435275D01*
X1421946Y4435068D01*
Y4408410D01*
X1435275Y4395081D01*
X1475262D01*
X1448604D02*
X1421946Y4368423D01*
X1395288D02*
X1368630D01*
X1381959D01*
Y4448397D01*
X1395288Y4435068D01*
X1328643Y4381752D02*
X1315314Y4368423D01*
X1288656D01*
X1275327Y4381752D01*
Y4435068D01*
X1288656Y4448397D01*
X1315314D01*
X1328643Y4435068D01*
Y4421739D01*
X1315314Y4408410D01*
X1275327D01*
X1248669Y4448397D02*
Y4368423D01*
X1208681D01*
X1195352Y4381752D01*
Y4395081D01*
X1208681Y4408410D01*
X1248669D01*
X1208681D01*
X1195352Y4421739D01*
Y4435068D01*
X1208681Y4448397D01*
X1248669D01*
X1475262Y1868102D02*
Y1948076D01*
X1435275D01*
X1421946Y1934747D01*
Y1908089D01*
X1435275Y1894760D01*
X1475262D01*
X1448604D02*
X1421946Y1868102D01*
X1395288D02*
X1368630D01*
X1381959D01*
Y1948076D01*
X1395288Y1934747D01*
X1328643Y1881431D02*
X1315314Y1868102D01*
X1288656D01*
X1275327Y1881431D01*
Y1934747D01*
X1288656Y1948076D01*
X1315314D01*
X1328643Y1934747D01*
Y1921418D01*
X1315314Y1908089D01*
X1275327D01*
X1248669Y1868102D02*
Y1921418D01*
X1222011Y1948076D01*
X1195352Y1921418D01*
Y1868102D01*
Y1908089D01*
X1248669D01*
X1801744Y17260558D02*
Y17340532D01*
X1761756D01*
X1748428Y17327203D01*
Y17300545D01*
X1761756Y17287216D01*
X1801744D01*
X1775086D02*
X1748428Y17260558D01*
X1721769D02*
X1695111D01*
X1708440D01*
Y17340532D01*
X1721769Y17327203D01*
X1655124D02*
X1641795Y17340532D01*
X1615137D01*
X1601808Y17327203D01*
Y17313873D01*
X1615137Y17300545D01*
X1601808Y17287216D01*
Y17273888D01*
X1615137Y17260558D01*
X1641795D01*
X1655124Y17273888D01*
Y17287216D01*
X1641795Y17300545D01*
X1655124Y17313873D01*
Y17327203D01*
X1641795Y17300545D02*
X1615137D01*
X1521834Y17340532D02*
X1575150D01*
Y17300545D01*
X1548492D01*
X1575150D01*
Y17260558D01*
X1801321Y14761238D02*
Y14841212D01*
X1761334D01*
X1748005Y14827882D01*
Y14801225D01*
X1761334Y14787897D01*
X1801321D01*
X1774663D02*
X1748005Y14761238D01*
X1721347D02*
X1694689D01*
X1708018D01*
Y14841212D01*
X1721347Y14827882D01*
X1654702D02*
X1641373Y14841212D01*
X1614715D01*
X1601386Y14827882D01*
Y14814554D01*
X1614715Y14801225D01*
X1601386Y14787897D01*
Y14774567D01*
X1614715Y14761238D01*
X1641373D01*
X1654702Y14774567D01*
Y14787897D01*
X1641373Y14801225D01*
X1654702Y14814554D01*
Y14827882D01*
X1641373Y14801225D02*
X1614715D01*
X1521411Y14841212D02*
X1574728D01*
Y14761238D01*
X1521411D01*
X1574728Y14801225D02*
X1548070D01*
X1801627Y10980443D02*
Y11060417D01*
X1761640D01*
X1748311Y11047088D01*
Y11020430D01*
X1761640Y11007101D01*
X1801627D01*
X1774969D02*
X1748311Y10980443D01*
X1721653D02*
X1694995D01*
X1708324D01*
Y11060417D01*
X1721653Y11047088D01*
X1655008D02*
X1641679Y11060417D01*
X1615021D01*
X1601692Y11047088D01*
Y11033759D01*
X1615021Y11020430D01*
X1601692Y11007101D01*
Y10993772D01*
X1615021Y10980443D01*
X1641679D01*
X1655008Y10993772D01*
Y11007101D01*
X1641679Y11020430D01*
X1655008Y11033759D01*
Y11047088D01*
X1641679Y11020430D02*
X1615021D01*
X1575034Y11060417D02*
Y10980443D01*
X1535046D01*
X1521718Y10993772D01*
Y11047088D01*
X1535046Y11060417D01*
X1575034D01*
X1799955Y8480013D02*
Y8559987D01*
X1759968D01*
X1746639Y8546658D01*
Y8520000D01*
X1759968Y8506671D01*
X1799955D01*
X1773297D02*
X1746639Y8480013D01*
X1719981D02*
X1693322D01*
X1706651D01*
Y8559987D01*
X1719981Y8546658D01*
X1653335D02*
X1640006Y8559987D01*
X1613348D01*
X1600019Y8546658D01*
Y8533329D01*
X1613348Y8520000D01*
X1600019Y8506671D01*
Y8493342D01*
X1613348Y8480013D01*
X1640006D01*
X1653335Y8493342D01*
Y8506671D01*
X1640006Y8520000D01*
X1653335Y8533329D01*
Y8546658D01*
X1640006Y8520000D02*
X1613348D01*
X1520045Y8546658D02*
X1533374Y8559987D01*
X1560032D01*
X1573361Y8546658D01*
Y8493342D01*
X1560032Y8480013D01*
X1533374D01*
X1520045Y8493342D01*
X1801182Y4700665D02*
Y4780639D01*
X1761195D01*
X1747866Y4767310D01*
Y4740652D01*
X1761195Y4727323D01*
X1801182D01*
X1774524D02*
X1747866Y4700665D01*
X1721208D02*
X1694550D01*
X1707879D01*
Y4780639D01*
X1721208Y4767310D01*
X1654563D02*
X1641234Y4780639D01*
X1614576D01*
X1601247Y4767310D01*
Y4753981D01*
X1614576Y4740652D01*
X1601247Y4727323D01*
Y4713994D01*
X1614576Y4700665D01*
X1641234D01*
X1654563Y4713994D01*
Y4727323D01*
X1641234Y4740652D01*
X1654563Y4753981D01*
Y4767310D01*
X1641234Y4740652D02*
X1614576D01*
X1574589Y4780639D02*
Y4700665D01*
X1534601D01*
X1521273Y4713994D01*
Y4727323D01*
X1534601Y4740652D01*
X1574589D01*
X1534601D01*
X1521273Y4753981D01*
Y4767310D01*
X1534601Y4780639D01*
X1574589D01*
X1801182Y2200344D02*
Y2280318D01*
X1761195D01*
X1747866Y2266989D01*
Y2240331D01*
X1761195Y2227002D01*
X1801182D01*
X1774524D02*
X1747866Y2200344D01*
X1721208D02*
X1694550D01*
X1707879D01*
Y2280318D01*
X1721208Y2266989D01*
X1654563D02*
X1641234Y2280318D01*
X1614576D01*
X1601247Y2266989D01*
Y2253660D01*
X1614576Y2240331D01*
X1601247Y2227002D01*
Y2213673D01*
X1614576Y2200344D01*
X1641234D01*
X1654563Y2213673D01*
Y2227002D01*
X1641234Y2240331D01*
X1654563Y2253660D01*
Y2266989D01*
X1641234Y2240331D02*
X1614576D01*
X1574589Y2200344D02*
Y2253660D01*
X1547931Y2280318D01*
X1521273Y2253660D01*
Y2200344D01*
Y2240331D01*
X1574589D01*
X2416770Y16672975D02*
X2363454D01*
X2350125Y16686304D01*
Y16712961D01*
X2363454Y16726291D01*
X2416770D01*
X2430100Y16712961D01*
Y16686304D01*
X2403441Y16699632D02*
X2430100Y16672975D01*
Y16686304D02*
X2416770Y16672975D01*
X2350125Y16592999D02*
X2363454Y16619658D01*
X2390112Y16646317D01*
X2416770D01*
X2430100Y16632986D01*
Y16606329D01*
X2416770Y16592999D01*
X2403441D01*
X2390112Y16606329D01*
Y16646317D01*
X2350125Y16513026D02*
Y16566342D01*
X2390112D01*
Y16539684D01*
Y16566342D01*
X2430100D01*
X2416864Y14173174D02*
X2363548D01*
X2350219Y14186502D01*
Y14213161D01*
X2363548Y14226489D01*
X2416864D01*
X2430194Y14213161D01*
Y14186502D01*
X2403535Y14199831D02*
X2430194Y14173174D01*
Y14186502D02*
X2416864Y14173174D01*
X2350219Y14093199D02*
X2363548Y14119856D01*
X2390206Y14146515D01*
X2416864D01*
X2430194Y14133186D01*
Y14106528D01*
X2416864Y14093199D01*
X2403535D01*
X2390206Y14106528D01*
Y14146515D01*
X2350219Y14013223D02*
Y14066541D01*
X2430194D01*
Y14013223D01*
X2390206Y14066541D02*
Y14039883D01*
X2416481Y10392872D02*
X2363165D01*
X2349836Y10406200D01*
Y10432858D01*
X2363165Y10446188D01*
X2416481D01*
X2429810Y10432858D01*
Y10406200D01*
X2403152Y10419530D02*
X2429810Y10392872D01*
Y10406200D02*
X2416481Y10392872D01*
X2349836Y10312897D02*
X2363165Y10339555D01*
X2389823Y10366213D01*
X2416481D01*
X2429810Y10352884D01*
Y10326226D01*
X2416481Y10312897D01*
X2403152D01*
X2389823Y10326226D01*
Y10366213D01*
X2349836Y10286239D02*
X2429810D01*
Y10246252D01*
X2416481Y10232923D01*
X2363165D01*
X2349836Y10246252D01*
Y10286239D01*
X2417614Y7890402D02*
X2364298D01*
X2350969Y7903731D01*
Y7930389D01*
X2364298Y7943718D01*
X2417614D01*
X2430943Y7930389D01*
Y7903731D01*
X2404285Y7917060D02*
X2430943Y7890402D01*
Y7903731D02*
X2417614Y7890402D01*
X2350969Y7810428D02*
X2364298Y7837086D01*
X2390956Y7863744D01*
X2417614D01*
X2430943Y7850415D01*
Y7823757D01*
X2417614Y7810428D01*
X2404285D01*
X2390956Y7823757D01*
Y7863744D01*
X2364298Y7730453D02*
X2350969Y7743782D01*
Y7770440D01*
X2364298Y7783770D01*
X2417614D01*
X2430943Y7770440D01*
Y7743782D01*
X2417614Y7730453D01*
X2415930Y4113184D02*
X2362614D01*
X2349285Y4126512D01*
Y4153171D01*
X2362614Y4166500D01*
X2415930D01*
X2429259Y4153171D01*
Y4126512D01*
X2402601Y4139842D02*
X2429259Y4113184D01*
Y4126512D02*
X2415930Y4113184D01*
X2349285Y4033209D02*
X2362614Y4059867D01*
X2389272Y4086525D01*
X2415930D01*
X2429259Y4073196D01*
Y4046538D01*
X2415930Y4033209D01*
X2402601D01*
X2389272Y4046538D01*
Y4086525D01*
X2349285Y4006551D02*
X2429259D01*
Y3966564D01*
X2415930Y3953235D01*
X2402601D01*
X2389272Y3966564D01*
Y4006551D01*
Y3966564D01*
X2375943Y3953235D01*
X2362614D01*
X2349285Y3966564D01*
Y4006551D01*
X2416658Y1613316D02*
X2363341D01*
X2350013Y1626645D01*
Y1653303D01*
X2363341Y1666632D01*
X2416658D01*
X2429987Y1653303D01*
Y1626645D01*
X2403329Y1639974D02*
X2429987Y1613316D01*
Y1626645D02*
X2416658Y1613316D01*
X2350013Y1533342D02*
X2363341Y1560000D01*
X2390000Y1586658D01*
X2416658D01*
X2429987Y1573329D01*
Y1546671D01*
X2416658Y1533342D01*
X2403329D01*
X2390000Y1546671D01*
Y1586658D01*
X2429987Y1506684D02*
X2376671D01*
X2350013Y1480026D01*
X2376671Y1453368D01*
X2429987D01*
X2390000D01*
Y1506684D01*
X5256317Y10187432D02*
X5203001D01*
X5189672Y10200761D01*
Y10227419D01*
X5203001Y10240748D01*
X5256317D01*
X5269646Y10227419D01*
Y10200761D01*
X5242988Y10214090D02*
X5269646Y10187432D01*
Y10200761D02*
X5256317Y10187432D01*
X5189672Y10107458D02*
Y10160774D01*
X5229659D01*
X5216330Y10134116D01*
Y10120786D01*
X5229659Y10107458D01*
X5256317D01*
X5269646Y10120786D01*
Y10147445D01*
X5256317Y10160774D01*
X5189672Y10027483D02*
Y10054141D01*
Y10040812D01*
X5256317D01*
X5269646Y10054141D01*
Y10067470D01*
X5256317Y10080799D01*
X5246317Y9440503D02*
X5193001D01*
X5179672Y9453831D01*
Y9480490D01*
X5193001Y9493819D01*
X5246317D01*
X5259646Y9480490D01*
Y9453831D01*
X5232988Y9467161D02*
X5259646Y9440503D01*
Y9453831D02*
X5246317Y9440503D01*
X5179672Y9360528D02*
Y9413845D01*
X5219659D01*
X5206330Y9387186D01*
Y9373857D01*
X5219659Y9360528D01*
X5246317D01*
X5259646Y9373857D01*
Y9400515D01*
X5246317Y9413845D01*
X5179672Y9333870D02*
Y9307212D01*
Y9320541D01*
X5259646D01*
Y9333870D01*
Y9307212D01*
X5246316Y7594910D02*
X5193000D01*
X5179671Y7608239D01*
Y7634897D01*
X5193000Y7648226D01*
X5246316D01*
X5259645Y7634897D01*
Y7608239D01*
X5232987Y7621568D02*
X5259645Y7594910D01*
Y7608239D02*
X5246316Y7594910D01*
X5179671Y7514935D02*
Y7568252D01*
X5219658D01*
X5206329Y7541594D01*
Y7528264D01*
X5219658Y7514935D01*
X5246316D01*
X5259645Y7528264D01*
Y7554922D01*
X5246316Y7568252D01*
X5179671Y7488277D02*
X5259645D01*
X5219658D01*
Y7434961D01*
X5179671D01*
X5259645D01*
X5246317Y6869493D02*
X5193001D01*
X5179672Y6882822D01*
Y6909480D01*
X5193001Y6922809D01*
X5246317D01*
X5259646Y6909480D01*
Y6882822D01*
X5232988Y6896151D02*
X5259646Y6869493D01*
Y6882822D02*
X5246317Y6869493D01*
X5179672Y6789519D02*
Y6842835D01*
X5219659D01*
X5206330Y6816177D01*
Y6802848D01*
X5219659Y6789519D01*
X5246317D01*
X5259646Y6802848D01*
Y6829506D01*
X5246317Y6842835D01*
X5193001Y6709545D02*
X5179672Y6722874D01*
Y6749532D01*
X5193001Y6762861D01*
X5246317D01*
X5259646Y6749532D01*
Y6722874D01*
X5246317Y6709545D01*
X5219659D01*
Y6736203D01*
X4236316Y6576403D02*
X4183000D01*
X4169671Y6589732D01*
Y6616390D01*
X4183000Y6629719D01*
X4236316D01*
X4249645Y6616390D01*
Y6589732D01*
X4222987Y6603061D02*
X4249645Y6576403D01*
Y6589732D02*
X4236316Y6576403D01*
X4169671Y6496429D02*
Y6549745D01*
X4209658D01*
X4196329Y6523087D01*
Y6509758D01*
X4209658Y6496429D01*
X4236316D01*
X4249645Y6509758D01*
Y6536416D01*
X4236316Y6549745D01*
X4169671Y6416455D02*
Y6469771D01*
X4209658D01*
Y6443113D01*
Y6469771D01*
X4249645D01*
X1026316Y9902804D02*
X973000D01*
X959671Y9916133D01*
Y9942791D01*
X973000Y9956120D01*
X1026316D01*
X1039645Y9942791D01*
Y9916133D01*
X1012987Y9929462D02*
X1039645Y9902804D01*
Y9916133D02*
X1026316Y9902804D01*
X959671Y9822829D02*
Y9876146D01*
X999658D01*
X986329Y9849488D01*
Y9836158D01*
X999658Y9822829D01*
X1026316D01*
X1039645Y9836158D01*
Y9862816D01*
X1026316Y9876146D01*
X959671Y9742855D02*
Y9796171D01*
X1039645D01*
Y9742855D01*
X999658Y9796171D02*
Y9769513D01*
X1026317Y9187106D02*
X973001D01*
X959672Y9200435D01*
Y9227093D01*
X973001Y9240422D01*
X1026317D01*
X1039647Y9227093D01*
Y9200435D01*
X1012989Y9213764D02*
X1039647Y9187106D01*
Y9200435D02*
X1026317Y9187106D01*
X959672Y9107132D02*
Y9160448D01*
X999659D01*
X986331Y9133790D01*
Y9120461D01*
X999659Y9107132D01*
X1026317D01*
X1039647Y9120461D01*
Y9147119D01*
X1026317Y9160448D01*
X959672Y9080474D02*
X1039647D01*
Y9040487D01*
X1026317Y9027158D01*
X973001D01*
X959672Y9040487D01*
Y9080474D01*
X1026314Y8454124D02*
X972998D01*
X959669Y8467453D01*
Y8494111D01*
X972998Y8507440D01*
X1026314D01*
X1039644Y8494111D01*
Y8467453D01*
X1012986Y8480782D02*
X1039644Y8454124D01*
Y8467453D02*
X1026314Y8454124D01*
X959669Y8374150D02*
Y8427466D01*
X999656D01*
X986327Y8400808D01*
Y8387479D01*
X999656Y8374150D01*
X1026314D01*
X1039644Y8387479D01*
Y8414137D01*
X1026314Y8427466D01*
X972998Y8294176D02*
X959669Y8307505D01*
Y8334163D01*
X972998Y8347492D01*
X1026314D01*
X1039644Y8334163D01*
Y8307505D01*
X1026314Y8294176D01*
X1026318Y7723360D02*
X973002D01*
X959673Y7736689D01*
Y7763347D01*
X973002Y7776676D01*
X1026318D01*
X1039647Y7763347D01*
Y7736689D01*
X1012989Y7750018D02*
X1039647Y7723360D01*
Y7736689D02*
X1026318Y7723360D01*
X959673Y7643386D02*
Y7696702D01*
X999660D01*
X986331Y7670044D01*
Y7656715D01*
X999660Y7643386D01*
X1026318D01*
X1039647Y7656715D01*
Y7683373D01*
X1026318Y7696702D01*
X959673Y7616728D02*
X1039647D01*
Y7576741D01*
X1026318Y7563412D01*
X1012989D01*
X999660Y7576741D01*
Y7616728D01*
Y7576741D01*
X986331Y7563412D01*
X973002D01*
X959673Y7576741D01*
Y7616728D01*
X1026315Y6997220D02*
X972999D01*
X959670Y7010549D01*
Y7037207D01*
X972999Y7050536D01*
X1026315D01*
X1039644Y7037207D01*
Y7010549D01*
X1012986Y7023878D02*
X1039644Y6997220D01*
Y7010549D02*
X1026315Y6997220D01*
X959670Y6917246D02*
Y6970562D01*
X999657D01*
X986328Y6943904D01*
Y6930575D01*
X999657Y6917246D01*
X1026315D01*
X1039644Y6930575D01*
Y6957233D01*
X1026315Y6970562D01*
X1039644Y6890588D02*
X986328D01*
X959670Y6863930D01*
X986328Y6837272D01*
X1039644D01*
X999657D01*
Y6890588D01*
X1209210Y16514180D02*
X1262527D01*
X1275855Y16500851D01*
Y16474193D01*
X1262527Y16460864D01*
X1209210D01*
X1195881Y16474193D01*
Y16500851D01*
X1222539Y16487521D02*
X1195881Y16514180D01*
Y16500851D02*
X1209210Y16514180D01*
X1195881Y16580826D02*
X1275855D01*
X1235868Y16540839D01*
Y16594154D01*
X1275855Y16674129D02*
Y16620813D01*
X1235868D01*
Y16647472D01*
Y16620813D01*
X1195881D01*
X1208788Y14014861D02*
X1262104D01*
X1275433Y14001532D01*
Y13974873D01*
X1262104Y13961543D01*
X1208788D01*
X1195459Y13974873D01*
Y14001532D01*
X1222117Y13988202D02*
X1195459Y14014861D01*
Y14001532D02*
X1208788Y14014861D01*
X1195459Y14081506D02*
X1275433D01*
X1235446Y14041519D01*
Y14094835D01*
X1275433Y14174809D02*
Y14121494D01*
X1195459D01*
Y14174809D01*
X1235446Y14121494D02*
Y14148151D01*
X1209094Y10234066D02*
X1262410D01*
X1275739Y10220737D01*
Y10194079D01*
X1262410Y10180750D01*
X1209094D01*
X1195765Y10194079D01*
Y10220737D01*
X1222423Y10207408D02*
X1195765Y10234066D01*
Y10220737D02*
X1209094Y10234066D01*
X1195765Y10300711D02*
X1275739D01*
X1235752Y10260724D01*
Y10314040D01*
X1275739Y10340698D02*
X1195765D01*
Y10380685D01*
X1209094Y10394014D01*
X1262410D01*
X1275739Y10380685D01*
Y10340698D01*
X1207422Y7733636D02*
X1260738D01*
X1274067Y7720307D01*
Y7693649D01*
X1260738Y7680319D01*
X1207422D01*
X1194092Y7693649D01*
Y7720307D01*
X1220750Y7706977D02*
X1194092Y7733636D01*
Y7720307D02*
X1207422Y7733636D01*
X1194092Y7800281D02*
X1274067D01*
X1234080Y7760294D01*
Y7813610D01*
X1260738Y7893584D02*
X1274067Y7880255D01*
Y7853597D01*
X1260738Y7840268D01*
X1207422D01*
X1194092Y7853597D01*
Y7880255D01*
X1207422Y7893584D01*
X1208649Y3954288D02*
X1261965D01*
X1275294Y3940959D01*
Y3914301D01*
X1261965Y3900972D01*
X1208649D01*
X1195320Y3914301D01*
Y3940959D01*
X1221978Y3927630D02*
X1195320Y3954288D01*
Y3940959D02*
X1208649Y3954288D01*
X1195320Y4020933D02*
X1275294D01*
X1235307Y3980946D01*
Y4034262D01*
X1275294Y4060920D02*
X1195320D01*
Y4100907D01*
X1208649Y4114236D01*
X1221978D01*
X1235307Y4100907D01*
Y4060920D01*
Y4100907D01*
X1248636Y4114236D01*
X1261965D01*
X1275294Y4100907D01*
Y4060920D01*
X1208649Y1453967D02*
X1261965D01*
X1275294Y1440638D01*
Y1413980D01*
X1261965Y1400651D01*
X1208649D01*
X1195320Y1413980D01*
Y1440638D01*
X1221978Y1427309D02*
X1195320Y1453967D01*
Y1440638D02*
X1208649Y1453967D01*
X1195320Y1520612D02*
X1275294D01*
X1235307Y1480625D01*
Y1533941D01*
X1195320Y1560599D02*
X1248636D01*
X1275294Y1587257D01*
X1248636Y1613915D01*
X1195320D01*
X1235307D01*
Y1560599D01*
X1985131Y16747229D02*
X2038447D01*
X2051776Y16733900D01*
Y16707242D01*
X2038447Y16693913D01*
X1985131D01*
X1971802Y16707242D01*
Y16733900D01*
X1998460Y16720570D02*
X1971802Y16747229D01*
Y16733900D02*
X1985131Y16747229D01*
X2038447Y16773888D02*
X2051776Y16787216D01*
Y16813873D01*
X2038447Y16827203D01*
X2025118D01*
X2011789Y16813873D01*
Y16800545D01*
Y16813873D01*
X1998460Y16827203D01*
X1985131D01*
X1971802Y16813873D01*
Y16787216D01*
X1985131Y16773888D01*
X2051776Y16907178D02*
Y16853860D01*
X2011789D01*
Y16880519D01*
Y16853860D01*
X1971802D01*
X1984709Y14247910D02*
X2038025D01*
X2051354Y14234579D01*
Y14207922D01*
X2038025Y14194592D01*
X1984709D01*
X1971380Y14207922D01*
Y14234579D01*
X1998038Y14221251D02*
X1971380Y14247910D01*
Y14234579D02*
X1984709Y14247910D01*
X2038025Y14274567D02*
X2051354Y14287897D01*
Y14314554D01*
X2038025Y14327882D01*
X2024696D01*
X2011367Y14314554D01*
Y14301225D01*
Y14314554D01*
X1998038Y14327882D01*
X1984709D01*
X1971380Y14314554D01*
Y14287897D01*
X1984709Y14274567D01*
X2051354Y14407857D02*
Y14354541D01*
X1971380D01*
Y14407857D01*
X2011367Y14354541D02*
Y14381200D01*
X1985015Y10467114D02*
X2038331D01*
X2051660Y10453785D01*
Y10427127D01*
X2038331Y10413798D01*
X1985015D01*
X1971686Y10427127D01*
Y10453785D01*
X1998344Y10440456D02*
X1971686Y10467114D01*
Y10453785D02*
X1985015Y10467114D01*
X2038331Y10493772D02*
X2051660Y10507101D01*
Y10533759D01*
X2038331Y10547088D01*
X2025002D01*
X2011673Y10533759D01*
Y10520430D01*
Y10533759D01*
X1998344Y10547088D01*
X1985015D01*
X1971686Y10533759D01*
Y10507101D01*
X1985015Y10493772D01*
X2051660Y10573746D02*
X1971686D01*
Y10613733D01*
X1985015Y10627062D01*
X2038331D01*
X2051660Y10613733D01*
Y10573746D01*
X1983342Y7966684D02*
X2036658D01*
X2049987Y7953355D01*
Y7926697D01*
X2036658Y7913368D01*
X1983342D01*
X1970013Y7926697D01*
Y7953355D01*
X1996671Y7940026D02*
X1970013Y7966684D01*
Y7953355D02*
X1983342Y7966684D01*
X2036658Y7993342D02*
X2049987Y8006671D01*
Y8033329D01*
X2036658Y8046658D01*
X2023329D01*
X2010000Y8033329D01*
Y8020000D01*
Y8033329D01*
X1996671Y8046658D01*
X1983342D01*
X1970013Y8033329D01*
Y8006671D01*
X1983342Y7993342D01*
X2036658Y8126632D02*
X2049987Y8113303D01*
Y8086645D01*
X2036658Y8073316D01*
X1983342D01*
X1970013Y8086645D01*
Y8113303D01*
X1983342Y8126632D01*
X1984570Y4187336D02*
X2037886D01*
X2051215Y4174007D01*
Y4147349D01*
X2037886Y4134020D01*
X1984570D01*
X1971241Y4147349D01*
Y4174007D01*
X1997899Y4160678D02*
X1971241Y4187336D01*
Y4174007D02*
X1984570Y4187336D01*
X2037886Y4213994D02*
X2051215Y4227323D01*
Y4253981D01*
X2037886Y4267310D01*
X2024557D01*
X2011228Y4253981D01*
Y4240652D01*
Y4253981D01*
X1997899Y4267310D01*
X1984570D01*
X1971241Y4253981D01*
Y4227323D01*
X1984570Y4213994D01*
X2051215Y4293968D02*
X1971241D01*
Y4333956D01*
X1984570Y4347284D01*
X1997899D01*
X2011228Y4333956D01*
Y4293968D01*
Y4333956D01*
X2024557Y4347284D01*
X2037886D01*
X2051215Y4333956D01*
Y4293968D01*
X1984570Y1687015D02*
X2037886D01*
X2051215Y1673686D01*
Y1647028D01*
X2037886Y1633699D01*
X1984570D01*
X1971241Y1647028D01*
Y1673686D01*
X1997899Y1660357D02*
X1971241Y1687015D01*
Y1673686D02*
X1984570Y1687015D01*
X2037886Y1713673D02*
X2051215Y1727002D01*
Y1753660D01*
X2037886Y1766989D01*
X2024557D01*
X2011228Y1753660D01*
Y1740331D01*
Y1753660D01*
X1997899Y1766989D01*
X1984570D01*
X1971241Y1753660D01*
Y1727002D01*
X1984570Y1713673D01*
X1971241Y1793647D02*
X2024557D01*
X2051215Y1820305D01*
X2024557Y1846964D01*
X1971241D01*
X2011228D01*
Y1793647D01*
%TF.MD5,edb34aba0fb00224a6062f1796c2645d*%
M02*
