%TF.GenerationSoftware,Altium Limited,Altium Designer,25.8.1 (18)*%
G04 Layer_Color=32768*
%FSLAX45Y45*%
%MOMM*%
%TF.SameCoordinates,A90300BB-9424-4608-9D80-60F7589C5BEE*%
%TF.FilePolarity,Positive*%
%TF.FileFunction,Other,Mechanical_15*%
%TF.Part,Single*%
G01*
G75*
%TA.AperFunction,NonConductor*%
%ADD52C,0.10000*%
%ADD87C,0.05000*%
D52*
X2750000Y16510001D02*
Y16580000D01*
Y16650000D01*
Y16580000D02*
X2820000D01*
X2680000D02*
X2750000D01*
Y14010001D02*
Y14080000D01*
Y14150000D01*
Y14080000D02*
X2820000D01*
X2680000D02*
X2750000D01*
Y10230000D02*
Y10300000D01*
Y10370000D01*
Y10300000D02*
X2820000D01*
X2680000D02*
X2750000D01*
Y7730000D02*
Y7800000D01*
Y7870000D01*
Y7800000D02*
X2820000D01*
X2680000D02*
X2750000D01*
Y3950000D02*
Y4020000D01*
Y4090000D01*
Y4020000D02*
X2820000D01*
X2680000D02*
X2750000D01*
Y1450000D02*
Y1520000D01*
Y1590000D01*
Y1520000D02*
X2820000D01*
X2680000D02*
X2750000D01*
X550000Y2500000D02*
X613500D01*
X486500D02*
X550000D01*
Y2563500D01*
Y2436500D02*
Y2500000D01*
X4950000D02*
X5013500D01*
X4886500D02*
X4950000D01*
Y2563500D01*
Y2436500D02*
Y2500000D01*
X2750000Y12151900D02*
Y12190000D01*
Y12228100D01*
X2711900Y12190000D02*
X2750000D01*
X2788100D01*
X2750000Y5871900D02*
Y5910000D01*
Y5948100D01*
X2711900Y5910000D02*
X2750000D01*
X2788100D01*
X1635000Y13270000D02*
X1730000D01*
X1682500Y13222501D02*
Y13317500D01*
X2750000Y11680000D02*
Y11780000D01*
X2700000Y11730000D02*
X2800000D01*
X1455869Y16237497D02*
Y16337497D01*
X1405868Y16287497D02*
X1505868D01*
X1455446Y13738177D02*
Y13838177D01*
X1405446Y13788177D02*
X1505446D01*
X1455752Y9957382D02*
Y10057382D01*
X1405752Y10007382D02*
X1505752D01*
X1455307Y3677604D02*
Y3777604D01*
X1405307Y3727604D02*
X1505307D01*
X1405307Y1227283D02*
X1505307D01*
X1455307Y1177283D02*
Y1277283D01*
X1738772Y7959669D02*
X1838773D01*
X1788772Y7909668D02*
Y8009669D01*
X2685113Y16254659D02*
Y16344658D01*
X2640113Y16299658D02*
X2730113D01*
X2685207Y13754857D02*
Y13844856D01*
X2640207Y13799857D02*
X2730207D01*
X2684824Y9974555D02*
Y10064555D01*
X2639824Y10019555D02*
X2729824D01*
X2685957Y7472086D02*
Y7562086D01*
X2640956Y7517086D02*
X2730956D01*
X2684273Y3694867D02*
Y3784867D01*
X2639273Y3739867D02*
X2729273D01*
X2685000Y1195000D02*
Y1285000D01*
X2640000Y1240000D02*
X2730000D01*
X1790000Y12340000D02*
Y12440000D01*
X1740000Y12390000D02*
X1840000D01*
X640000Y12260000D02*
X740000D01*
X690000Y12210000D02*
Y12310000D01*
X706500Y11313000D02*
Y11413000D01*
X656500Y11363000D02*
X756500D01*
X320000Y14480000D02*
Y14580000D01*
X270000Y14530000D02*
X370000D01*
X630000Y15314999D02*
X730000D01*
X680000Y15264999D02*
Y15364999D01*
X1170000Y12005000D02*
Y12095000D01*
X1125000Y12050000D02*
X1215000D01*
X3989658Y6433087D02*
Y6533087D01*
X3939658Y6483087D02*
X4039658D01*
X3914658Y6763087D02*
X4004658D01*
X3959658Y6718087D02*
Y6808087D01*
X3609658Y6545587D02*
X3709658D01*
X3659658Y6495587D02*
Y6595587D01*
X4520000Y10935000D02*
Y11025000D01*
X4475000Y10980000D02*
X4565001D01*
X882500Y13212500D02*
Y13307500D01*
X835000Y13260001D02*
X930000D01*
X882500Y12962500D02*
Y13057500D01*
X835000Y13010001D02*
X930000D01*
X1111900Y13135001D02*
X1150000D01*
X1188100D01*
X1150000Y13096899D02*
Y13135001D01*
Y13173100D01*
X1667500Y13075000D02*
Y13164999D01*
X1622500Y13120000D02*
X1712500D01*
X1162511Y11176698D02*
X1252511D01*
X1207510Y11131698D02*
Y11221698D01*
X2700000Y5450000D02*
X2800000D01*
X2750000Y5400000D02*
Y5500000D01*
X4970000Y13195000D02*
Y13285001D01*
X4925000Y13239999D02*
X5015000D01*
X4685000Y13189999D02*
X4775000D01*
X4730000Y13145000D02*
Y13235001D01*
X4405000Y13189999D02*
X4495000D01*
X4450000Y13145000D02*
Y13235001D01*
X4207500Y13195000D02*
Y13285001D01*
X4162500Y13239999D02*
X4252500D01*
X4380000Y12825000D02*
Y12914999D01*
X4335000Y12870000D02*
X4425000D01*
X4660000Y12825000D02*
Y12914999D01*
X4615000Y12870000D02*
X4705000D01*
X4520000Y11115000D02*
Y11205000D01*
X4475000Y11160000D02*
X4565001D01*
X4870000Y10935000D02*
Y11025000D01*
X4825000Y10980000D02*
X4915000D01*
X620000Y14395000D02*
Y14485001D01*
X575000Y14439999D02*
X665000D01*
X1045000Y14550000D02*
X1135000D01*
X1090000Y14505000D02*
Y14595000D01*
X880000Y14564999D02*
Y14655000D01*
X835000Y14610001D02*
X925000D01*
X4979659Y10329116D02*
Y10419116D01*
X4934659Y10374116D02*
X5024659D01*
X4959659Y10094116D02*
X5059659D01*
X5009659Y10044116D02*
Y10144116D01*
X4679659Y10106616D02*
Y10206616D01*
X4629659Y10156616D02*
X4729659D01*
X4969659Y9595516D02*
Y9685516D01*
X4924659Y9640516D02*
X5014659D01*
X4949659Y9360516D02*
X5049659D01*
X4999659Y9310516D02*
Y9410516D01*
X4669659Y9373016D02*
Y9473016D01*
X4619659Y9423016D02*
X4719659D01*
X4969658Y7736594D02*
Y7826594D01*
X4924658Y7781594D02*
X5014658D01*
X4949658Y7501594D02*
X5049658D01*
X4999658Y7451594D02*
Y7551594D01*
X4669658Y7514094D02*
Y7614094D01*
X4619658Y7564094D02*
X4719658D01*
X5039659Y7011177D02*
Y7101177D01*
X4994659Y7056177D02*
X5084659D01*
X4949659Y6776177D02*
X5049659D01*
X4999659Y6726177D02*
Y6826177D01*
X4669659Y6788677D02*
Y6888677D01*
X4619659Y6838677D02*
X4719659D01*
X749658Y10044487D02*
Y10134487D01*
X704658Y10089487D02*
X794658D01*
X729658Y9809487D02*
X829658D01*
X779658Y9759487D02*
Y9859488D01*
X449658Y9821987D02*
Y9921988D01*
X399658Y9871988D02*
X499658D01*
X749660Y9328790D02*
Y9418790D01*
X704660Y9373790D02*
X794660D01*
X729660Y9093790D02*
X829660D01*
X779660Y9043790D02*
Y9143790D01*
X449660Y9106290D02*
Y9206290D01*
X399660Y9156290D02*
X499660D01*
X749657Y8595808D02*
Y8685808D01*
X704657Y8640808D02*
X794657D01*
X729657Y8360808D02*
X829657D01*
X779657Y8310808D02*
Y8410808D01*
X449657Y8373308D02*
Y8473308D01*
X399657Y8423308D02*
X499657D01*
X749660Y7865044D02*
Y7955044D01*
X704660Y7910044D02*
X794660D01*
X729660Y7630044D02*
X829661D01*
X779660Y7580044D02*
Y7680044D01*
X449660Y7642544D02*
Y7742544D01*
X399660Y7692544D02*
X499660D01*
X449657Y6916404D02*
Y7016404D01*
X399657Y6966404D02*
X499657D01*
X749657Y7138904D02*
Y7228904D01*
X704657Y7183904D02*
X794657D01*
X729657Y6903904D02*
X829657D01*
X779657Y6853904D02*
Y6953904D01*
X1404079Y7506952D02*
X1504080D01*
X1454080Y7456952D02*
Y7556952D01*
X1751228Y3770652D02*
X1851227D01*
X1801228Y3720652D02*
Y3820652D01*
X1790000Y4130321D02*
Y4230321D01*
X1740000Y4180321D02*
X1840000D01*
X1681228Y4520652D02*
X1781228D01*
X1731228Y4470652D02*
Y4570652D01*
X1445307Y4070910D02*
Y4170910D01*
X1395308Y4120910D02*
X1495307D01*
X1430000Y3385321D02*
Y3475321D01*
X1385000Y3430321D02*
X1475000D01*
X1750000Y7550000D02*
X1850000D01*
X1800000Y7500000D02*
Y7600000D01*
X1680000Y8300000D02*
X1780000D01*
X1730000Y8250000D02*
Y8350000D01*
X1444080Y7850258D02*
Y7950258D01*
X1394080Y7900258D02*
X1494080D01*
X1428772Y7164668D02*
Y7254668D01*
X1383772Y7209669D02*
X1473773D01*
X1751673Y10050430D02*
X1851672D01*
X1801673Y10000430D02*
Y10100430D01*
X1790445Y10410099D02*
Y10510099D01*
X1740445Y10460099D02*
X1840445D01*
X1681673Y10800430D02*
X1781673D01*
X1731673Y10750430D02*
Y10850430D01*
X1445753Y10350688D02*
Y10450688D01*
X1395753Y10400688D02*
X1495752D01*
X1430445Y9665099D02*
Y9755099D01*
X1385445Y9710099D02*
X1475445D01*
X1751367Y13831226D02*
X1851366D01*
X1801366Y13781226D02*
Y13881226D01*
X1790139Y14190894D02*
Y14290894D01*
X1740139Y14240894D02*
X1840139D01*
X1681366Y14581226D02*
X1781367D01*
X1731367Y14531226D02*
Y14631226D01*
X1445446Y14131483D02*
Y14231483D01*
X1395447Y14181483D02*
X1495446D01*
X1430139Y13445892D02*
Y13535893D01*
X1385139Y13490894D02*
X1475139D01*
X1751789Y16330545D02*
X1851789D01*
X1801789Y16280545D02*
Y16380545D01*
X1790561Y16690213D02*
Y16790213D01*
X1740561Y16740213D02*
X1840561D01*
X1681789Y17080545D02*
X1781789D01*
X1731789Y17030545D02*
Y17130545D01*
X1430561Y15945213D02*
Y16035213D01*
X1385561Y15990213D02*
X1475561D01*
X1445869Y16630801D02*
Y16730801D01*
X1395869Y16680803D02*
X1495869D01*
X1430000Y885000D02*
Y975000D01*
X1385000Y930000D02*
X1475000D01*
X1445307Y1570589D02*
Y1670589D01*
X1395308Y1620589D02*
X1495307D01*
X1681228Y2020331D02*
X1781228D01*
X1731228Y1970331D02*
Y2070331D01*
X1790000Y1630000D02*
Y1730000D01*
X1740000Y1680000D02*
X1840000D01*
X1751228Y1270331D02*
X1851227D01*
X1801228Y1220331D02*
Y1320331D01*
X3050000Y12190000D02*
X3150000D01*
X3100000Y12140000D02*
Y12240000D01*
X3305000Y12160000D02*
X3395000D01*
X3350000Y12115000D02*
Y12205000D01*
X3305000Y5930000D02*
X3395000D01*
X3350000Y5885000D02*
Y5975000D01*
X3050000Y5910000D02*
X3150000D01*
X3100000Y5860000D02*
Y5960000D01*
X2700956Y7797086D02*
X2800956D01*
X2750956Y7747086D02*
Y7847086D01*
X2555956Y8107086D02*
X2645956D01*
X2600956Y8062086D02*
Y8152086D01*
X2680957Y7747086D02*
Y7847086D01*
X2630956Y7797086D02*
X2730956D01*
X2555112Y16889658D02*
X2645113D01*
X2600113Y16844658D02*
Y16934657D01*
X2680113Y16529659D02*
Y16629659D01*
X2630113Y16579659D02*
X2730113D01*
X2555206Y14389857D02*
X2645207D01*
X2600207Y14344856D02*
Y14434857D01*
X2680207Y14029857D02*
Y14129857D01*
X2630207Y14079857D02*
X2730207D01*
X2554823Y10609555D02*
X2644824D01*
X2599824Y10564555D02*
Y10654555D01*
X2679824Y10249556D02*
Y10349556D01*
X2629824Y10299555D02*
X2729824D01*
X2554272Y4329867D02*
X2644272D01*
X2599272Y4284867D02*
Y4374867D01*
X2679273Y3969868D02*
Y4069868D01*
X2629273Y4019868D02*
X2729273D01*
X2699272Y4019867D02*
X2799273D01*
X2749273Y3969867D02*
Y4069867D01*
X2699824Y10299555D02*
X2799824D01*
X2749824Y10249555D02*
Y10349555D01*
X2700207Y14079857D02*
X2800207D01*
X2750207Y14029857D02*
Y14129857D01*
X2700113Y16579659D02*
X2800113D01*
X2750113Y16529659D02*
Y16629659D01*
X2680000Y1470000D02*
Y1570000D01*
X2630000Y1520000D02*
X2730000D01*
X2555000Y1830000D02*
X2645000D01*
X2600000Y1785000D02*
Y1875000D01*
X2700000Y1520000D02*
X2800000D01*
X2750000Y1470000D02*
Y1570000D01*
X4700000Y11900000D02*
Y12000000D01*
X4650000Y11950000D02*
X4750000D01*
D87*
X3650000Y16580000D02*
G03*
X3650000Y16580000I-900000J0D01*
G01*
Y14080000D02*
G03*
X3650000Y14080000I-900000J0D01*
G01*
Y10300000D02*
G03*
X3650000Y10300000I-900000J0D01*
G01*
Y7800000D02*
G03*
X3650000Y7800000I-900000J0D01*
G01*
Y4020000D02*
G03*
X3650000Y4020000I-900000J0D01*
G01*
Y1520000D02*
G03*
X3650000Y1520000I-900000J0D01*
G01*
X3085000Y12190000D02*
G03*
X3085000Y12190000I-335000J0D01*
G01*
Y5910000D02*
G03*
X3085000Y5910000I-335000J0D01*
G01*
X1817500Y13195000D02*
Y13345000D01*
X1547500Y13195000D02*
Y13345000D01*
X1817500D01*
X1547500Y13195000D02*
X1817500D01*
X2530000Y11570000D02*
X2970000D01*
X2530000Y11890000D02*
X2970000D01*
X2530000Y11570000D02*
Y11890000D01*
X2970000Y11570000D02*
Y11890000D01*
X1300869Y16443497D02*
X1610869D01*
X1300869Y16131497D02*
X1610869D01*
Y16443497D01*
X1300869Y16131497D02*
Y16443497D01*
X1300446Y13944177D02*
X1610446D01*
X1300446Y13632178D02*
X1610446D01*
Y13944177D01*
X1300446Y13632178D02*
Y13944177D01*
X1300752Y10163382D02*
X1610752D01*
X1300752Y9851382D02*
X1610752D01*
Y10163382D01*
X1300752Y9851382D02*
Y10163382D01*
X1300307Y3883604D02*
X1610307D01*
X1300307Y3571604D02*
X1610307D01*
Y3883604D01*
X1300307Y3571604D02*
Y3883604D01*
Y1071283D02*
Y1383283D01*
X1610307Y1071283D02*
Y1383283D01*
X1300307Y1071283D02*
X1610307D01*
X1300307Y1383283D02*
X1610307D01*
X1632772Y7804669D02*
Y8114669D01*
X1944772Y7804669D02*
Y8114669D01*
X1632772D02*
X1944772D01*
X1632772Y7804669D02*
X1944772D01*
X2555113Y16369658D02*
X2815113D01*
X2555113Y16229659D02*
X2815113D01*
Y16369658D01*
X2555113Y16229659D02*
Y16369658D01*
X2555207Y13869856D02*
X2815207D01*
X2555207Y13729857D02*
X2815207D01*
Y13869856D01*
X2555207Y13729857D02*
Y13869856D01*
X2554824Y10089555D02*
X2814824D01*
X2554824Y9949555D02*
X2814824D01*
Y10089555D01*
X2554824Y9949555D02*
Y10089555D01*
X2555957Y7587086D02*
X2815957D01*
X2555957Y7447086D02*
X2815957D01*
Y7587086D01*
X2555957Y7447086D02*
Y7587086D01*
X2554273Y3809867D02*
X2814273D01*
X2554273Y3669867D02*
X2814273D01*
Y3809867D01*
X2554273Y3669867D02*
Y3809867D01*
X2555000Y1310000D02*
X2815000D01*
X2555000Y1170000D02*
X2815000D01*
Y1310000D01*
X2555000Y1170000D02*
Y1310000D01*
X1275000Y12905000D02*
X2305000D01*
X1275000Y11875000D02*
X2305000D01*
X1275000D02*
Y12905000D01*
X2305000Y11875000D02*
Y12905000D01*
X300000Y11980000D02*
Y12540000D01*
X1080000Y11980000D02*
Y12540000D01*
X300000Y11980000D02*
X1080000D01*
X300000Y12540000D02*
X1080000D01*
X325500Y10867700D02*
X1087500D01*
X325500D02*
Y11858300D01*
X1087500D01*
Y10867700D02*
Y11858300D01*
X165000Y14686000D02*
X475000D01*
X165000Y14374001D02*
X475000D01*
Y14686000D01*
X165000Y14374001D02*
Y14686000D01*
X1200000Y14737500D02*
Y15892500D01*
X160000Y14737500D02*
Y15892500D01*
Y14737500D02*
X1200000D01*
X160000Y15892500D02*
X1200000D01*
X1095000Y11900000D02*
X1245000D01*
X1095000Y12200000D02*
X1245000D01*
Y11900000D02*
Y12200000D01*
X1095000Y11900000D02*
Y12200000D01*
X3834658Y6327087D02*
X4144658D01*
X3834658Y6639087D02*
X4144658D01*
X3834658Y6327087D02*
Y6639087D01*
X4144658Y6327087D02*
Y6639087D01*
X3829658Y6693087D02*
Y6833087D01*
X4089658Y6693087D02*
Y6833087D01*
X3829658Y6693087D02*
X4089658D01*
X3829658Y6833087D02*
X4089658D01*
X3499658Y6325587D02*
Y6765587D01*
X3819658Y6325587D02*
Y6765587D01*
X3499658D02*
X3819658D01*
X3499658Y6325587D02*
X3819658D01*
X4390000Y10910000D02*
X4650000D01*
X4390000Y11050000D02*
X4650000D01*
X4390000Y10910000D02*
Y11050000D01*
X4650000Y10910000D02*
Y11050000D01*
X747500Y13185001D02*
X1017500D01*
X747500Y13335001D02*
X1017500D01*
X747500Y13185001D02*
Y13335001D01*
X1017500Y13185001D02*
Y13335001D01*
X747500Y12935001D02*
X1017500D01*
X747500Y13085001D02*
X1017500D01*
X747500Y12935001D02*
Y13085001D01*
X1017500Y12935001D02*
Y13085001D01*
X1035700Y12931799D02*
Y13096899D01*
Y13338200D01*
X1277000D01*
Y12931799D02*
Y13338200D01*
X1035700Y12931799D02*
X1277000D01*
X1517500Y13045000D02*
X1817500D01*
X1517500Y13195000D02*
X1817500D01*
X1517500Y13045000D02*
Y13195000D01*
X1817500Y13045000D02*
Y13195000D01*
X1277511Y11046698D02*
Y11306698D01*
X1137511Y11046698D02*
Y11306698D01*
Y11046698D02*
X1277511D01*
X1137511Y11306698D02*
X1277511D01*
X2970000Y5290000D02*
Y5610000D01*
X2530000Y5290000D02*
Y5610000D01*
X2970000D01*
X2530000Y5290000D02*
X2970000D01*
X4820000Y13164999D02*
X5120000D01*
X4820000Y13314999D02*
X5120000D01*
X4820000Y13164999D02*
Y13314999D01*
X5120000Y13164999D02*
Y13314999D01*
X4800000Y13060001D02*
Y13320000D01*
X4660000Y13060001D02*
Y13320000D01*
Y13060001D02*
X4800000D01*
X4660000Y13320000D02*
X4800000D01*
X4520000Y13060001D02*
Y13320000D01*
X4380000Y13060001D02*
Y13320000D01*
Y13060001D02*
X4520000D01*
X4380000Y13320000D02*
X4520000D01*
X4057500Y13164999D02*
X4357500D01*
X4057500Y13314999D02*
X4357500D01*
X4057500Y13164999D02*
Y13314999D01*
X4357500Y13164999D02*
Y13314999D01*
X4250000Y12800000D02*
X4510000D01*
X4250000Y12939999D02*
X4510000D01*
X4250000Y12800000D02*
Y12939999D01*
X4510000Y12800000D02*
Y12939999D01*
X4530000Y12939999D02*
X4790000D01*
X4530000Y12800000D02*
X4790000D01*
Y12939999D01*
X4530000Y12800000D02*
Y12939999D01*
X4390000Y11090000D02*
X4650000D01*
X4390000Y11230000D02*
X4650000D01*
X4390000Y11090000D02*
Y11230000D01*
X4650000Y11090000D02*
Y11230000D01*
X4740000Y11050000D02*
X5000000D01*
X4740000Y10910000D02*
X5000000D01*
Y11050000D01*
X4740000Y10910000D02*
Y11050000D01*
X490000Y14370000D02*
X750000D01*
X490000Y14510001D02*
X750000D01*
X490000Y14370000D02*
Y14510001D01*
X750000Y14370000D02*
Y14510001D01*
X1160000Y14420000D02*
Y14680000D01*
X1020000Y14420000D02*
Y14680000D01*
Y14420000D02*
X1160000D01*
X1020000Y14680000D02*
X1160000D01*
X750000Y14539999D02*
X1010000D01*
X750000Y14680000D02*
X1010000D01*
X750000Y14539999D02*
Y14680000D01*
X1010000Y14539999D02*
Y14680000D01*
X4849659Y10444116D02*
X5109659D01*
X4849659Y10304116D02*
X5109659D01*
Y10444116D01*
X4849659Y10304116D02*
Y10444116D01*
X5164659Y9938116D02*
Y10250116D01*
X4854659Y9938116D02*
Y10250116D01*
X5164659D01*
X4854659Y9938116D02*
X5164659D01*
X4519659Y9936616D02*
X4839659D01*
X4519659Y10376616D02*
X4839659D01*
Y9936616D02*
Y10376616D01*
X4519659Y9936616D02*
Y10376616D01*
X4839659Y9710516D02*
X5099659D01*
X4839659Y9570516D02*
X5099659D01*
Y9710516D01*
X4839659Y9570516D02*
Y9710516D01*
X5154659Y9204516D02*
Y9516516D01*
X4844659Y9204516D02*
Y9516516D01*
X5154659D01*
X4844659Y9204516D02*
X5154659D01*
X4509659Y9203016D02*
X4829659D01*
X4509659Y9643016D02*
X4829659D01*
Y9203016D02*
Y9643016D01*
X4509659Y9203016D02*
Y9643016D01*
X4839658Y7851594D02*
X5099658D01*
X4839658Y7711594D02*
X5099658D01*
Y7851594D01*
X4839658Y7711594D02*
Y7851594D01*
X5154658Y7345594D02*
Y7657594D01*
X4844658Y7345594D02*
Y7657594D01*
X5154658D01*
X4844658Y7345594D02*
X5154658D01*
X4509658Y7344094D02*
X4829658D01*
X4509658Y7784094D02*
X4829658D01*
Y7344094D02*
Y7784094D01*
X4509658Y7344094D02*
Y7784094D01*
X4909659Y7126177D02*
X5169659D01*
X4909659Y6986177D02*
X5169659D01*
Y7126177D01*
X4909659Y6986177D02*
Y7126177D01*
X5154659Y6620177D02*
Y6932177D01*
X4844659Y6620177D02*
Y6932177D01*
X5154659D01*
X4844659Y6620177D02*
X5154659D01*
X4509659Y6618677D02*
X4829659D01*
X4509659Y7058677D02*
X4829659D01*
Y6618677D02*
Y7058677D01*
X4509659Y6618677D02*
Y7058677D01*
X619658Y10159487D02*
X879658D01*
X619658Y10019487D02*
X879658D01*
Y10159487D01*
X619658Y10019487D02*
Y10159487D01*
X934658Y9653487D02*
Y9965487D01*
X624658Y9653487D02*
Y9965487D01*
X934658D01*
X624658Y9653487D02*
X934658D01*
X289658Y9651988D02*
X609658D01*
X289658Y10091987D02*
X609658D01*
Y9651988D02*
Y10091987D01*
X289658Y9651988D02*
Y10091987D01*
X619660Y9443790D02*
X879660D01*
X619660Y9303790D02*
X879660D01*
Y9443790D01*
X619660Y9303790D02*
Y9443790D01*
X934660Y8937790D02*
Y9249790D01*
X624660Y8937790D02*
Y9249790D01*
X934660D01*
X624660Y8937790D02*
X934660D01*
X289660Y8936290D02*
X609660D01*
X289660Y9376290D02*
X609660D01*
Y8936290D02*
Y9376290D01*
X289660Y8936290D02*
Y9376290D01*
X619657Y8710808D02*
X879657D01*
X619657Y8570808D02*
X879657D01*
Y8710808D01*
X619657Y8570808D02*
Y8710808D01*
X934657Y8204808D02*
Y8516808D01*
X624657Y8204808D02*
Y8516808D01*
X934657D01*
X624657Y8204808D02*
X934657D01*
X289657Y8203308D02*
X609657D01*
X289657Y8643308D02*
X609657D01*
Y8203308D02*
Y8643308D01*
X289657Y8203308D02*
Y8643308D01*
X619660Y7980044D02*
X879660D01*
X619660Y7840044D02*
X879660D01*
Y7980044D01*
X619660Y7840044D02*
Y7980044D01*
X934660Y7474044D02*
Y7786044D01*
X624660Y7474044D02*
Y7786044D01*
X934660D01*
X624660Y7474044D02*
X934660D01*
X289660Y7472544D02*
X609660D01*
X289660Y7912544D02*
X609660D01*
Y7472544D02*
Y7912544D01*
X289660Y7472544D02*
Y7912544D01*
X289657Y6746404D02*
X609657D01*
X289657Y7186404D02*
X609657D01*
Y6746404D02*
Y7186404D01*
X289657Y6746404D02*
Y7186404D01*
X619657Y7253904D02*
X879657D01*
X619657Y7113904D02*
X879657D01*
Y7253904D01*
X619657Y7113904D02*
Y7253904D01*
X934657Y6747904D02*
Y7059904D01*
X624657Y6747904D02*
Y7059904D01*
X934657D01*
X624657Y6747904D02*
X934657D01*
X1299080Y7350952D02*
Y7662952D01*
X1609080Y7350952D02*
Y7662952D01*
X1299080Y7350952D02*
X1609080D01*
X1299080Y7662952D02*
X1609080D01*
X1641228Y3550652D02*
Y3990652D01*
X1961227Y3550652D02*
Y3990652D01*
X1641228D02*
X1961227D01*
X1641228Y3550652D02*
X1961227D01*
X1634000Y4025321D02*
X1946000D01*
X1634000Y4335321D02*
X1946000D01*
Y4025321D02*
Y4335321D01*
X1634000Y4025321D02*
Y4335321D01*
X1511228Y4360652D02*
Y4680652D01*
X1951227Y4360652D02*
Y4680652D01*
X1511228Y4360652D02*
X1951227D01*
X1511228Y4680652D02*
X1951227D01*
X1285308Y3900910D02*
X1605307D01*
X1285308Y4340910D02*
X1605307D01*
Y3900910D02*
Y4340910D01*
X1285308Y3900910D02*
Y4340910D01*
X1300000Y3360321D02*
X1560000D01*
X1300000Y3500321D02*
X1560000D01*
X1300000Y3360321D02*
Y3500321D01*
X1560000Y3360321D02*
Y3500321D01*
X1640000Y7330000D02*
Y7770000D01*
X1960000Y7330000D02*
Y7770000D01*
X1640000D02*
X1960000D01*
X1640000Y7330000D02*
X1960000D01*
X1510000Y8140000D02*
Y8460000D01*
X1950000Y8140000D02*
Y8460000D01*
X1510000Y8140000D02*
X1950000D01*
X1510000Y8460000D02*
X1950000D01*
X1284080Y7680258D02*
X1604080D01*
X1284080Y8120258D02*
X1604080D01*
Y7680258D02*
Y8120258D01*
X1284080Y7680258D02*
Y8120258D01*
X1298772Y7139668D02*
X1558772D01*
X1298772Y7279668D02*
X1558772D01*
X1298772Y7139668D02*
Y7279668D01*
X1558772Y7139668D02*
Y7279668D01*
X1641673Y9830430D02*
Y10270430D01*
X1961672Y9830430D02*
Y10270430D01*
X1641673D02*
X1961672D01*
X1641673Y9830430D02*
X1961672D01*
X1634445Y10305099D02*
X1946445D01*
X1634445Y10615099D02*
X1946445D01*
Y10305099D02*
Y10615099D01*
X1634445Y10305099D02*
Y10615099D01*
X1511673Y10640430D02*
Y10960430D01*
X1951673Y10640430D02*
Y10960430D01*
X1511673Y10640430D02*
X1951673D01*
X1511673Y10960430D02*
X1951673D01*
X1285753Y10180688D02*
X1605752D01*
X1285753Y10620688D02*
X1605752D01*
Y10180688D02*
Y10620688D01*
X1285753Y10180688D02*
Y10620688D01*
X1300445Y9640099D02*
X1560445D01*
X1300445Y9780099D02*
X1560445D01*
X1300445Y9640099D02*
Y9780099D01*
X1560445Y9640099D02*
Y9780099D01*
X1641367Y13611224D02*
Y14051225D01*
X1961366Y13611224D02*
Y14051225D01*
X1641367D02*
X1961366D01*
X1641367Y13611224D02*
X1961366D01*
X1634139Y14085893D02*
X1946139D01*
X1634139Y14395892D02*
X1946139D01*
Y14085893D02*
Y14395892D01*
X1634139Y14085893D02*
Y14395892D01*
X1511367Y14421225D02*
Y14741225D01*
X1951366Y14421225D02*
Y14741225D01*
X1511367Y14421225D02*
X1951366D01*
X1511367Y14741225D02*
X1951366D01*
X1285447Y13961482D02*
X1605446D01*
X1285447Y14401483D02*
X1605446D01*
Y13961482D02*
Y14401483D01*
X1285447Y13961482D02*
Y14401483D01*
X1300139Y13420892D02*
X1560139D01*
X1300139Y13560893D02*
X1560139D01*
X1300139Y13420892D02*
Y13560893D01*
X1560139Y13420892D02*
Y13560893D01*
X1641789Y16110545D02*
Y16550545D01*
X1961789Y16110545D02*
Y16550545D01*
X1641789D02*
X1961789D01*
X1641789Y16110545D02*
X1961789D01*
X1634561Y16585213D02*
X1946561D01*
X1634561Y16895213D02*
X1946561D01*
Y16585213D02*
Y16895213D01*
X1634561Y16585213D02*
Y16895213D01*
X1511789Y16920544D02*
Y17240546D01*
X1951789Y16920544D02*
Y17240546D01*
X1511789Y16920544D02*
X1951789D01*
X1511789Y17240546D02*
X1951789D01*
X1300561Y15920213D02*
X1560561D01*
X1300561Y16060213D02*
X1560561D01*
X1300561Y15920213D02*
Y16060213D01*
X1560561Y15920213D02*
Y16060213D01*
X1285869Y16460802D02*
X1605869D01*
X1285869Y16900803D02*
X1605869D01*
Y16460802D02*
Y16900803D01*
X1285869Y16460802D02*
Y16900803D01*
X1300000Y860000D02*
X1560000D01*
X1300000Y1000000D02*
X1560000D01*
X1300000Y860000D02*
Y1000000D01*
X1560000Y860000D02*
Y1000000D01*
X1285308Y1400589D02*
X1605307D01*
X1285308Y1840589D02*
X1605307D01*
Y1400589D02*
Y1840589D01*
X1285308Y1400589D02*
Y1840589D01*
X1511228Y1860331D02*
Y2180331D01*
X1951227Y1860331D02*
Y2180331D01*
X1511228Y1860331D02*
X1951227D01*
X1511228Y2180331D02*
X1951227D01*
X1634000Y1525000D02*
X1946000D01*
X1634000Y1835000D02*
X1946000D01*
Y1525000D02*
Y1835000D01*
X1634000Y1525000D02*
Y1835000D01*
X1641228Y1050331D02*
Y1490331D01*
X1961227Y1050331D02*
Y1490331D01*
X1641228D02*
X1961227D01*
X1641228Y1050331D02*
X1961227D01*
X3255000Y12034000D02*
Y12346000D01*
X2945000Y12034000D02*
Y12346000D01*
X3255000D01*
X2945000Y12034000D02*
X3255000D01*
X3280000Y12030000D02*
Y12290000D01*
X3420000Y12030000D02*
Y12290000D01*
X3280000D02*
X3420000D01*
X3280000Y12030000D02*
X3420000D01*
X3280000Y5800000D02*
Y6060000D01*
X3420000Y5800000D02*
Y6060000D01*
X3280000D02*
X3420000D01*
X3280000Y5800000D02*
X3420000D01*
X3255000Y5754000D02*
Y6066000D01*
X2945000Y5754000D02*
Y6066000D01*
X3255000D01*
X2945000Y5754000D02*
X3255000D01*
X2845956Y7627086D02*
Y7967086D01*
X2655956Y7627086D02*
Y7967086D01*
X2845956D01*
X2655956Y7627086D02*
X2845956D01*
X2530956Y7977086D02*
Y8237086D01*
X2670956Y7977086D02*
Y8237086D01*
X2530956D02*
X2670956D01*
X2530956Y7977086D02*
X2670956D01*
X2524957Y7952086D02*
X2836956D01*
X2524957Y7642086D02*
X2836956D01*
X2524957D02*
Y7952086D01*
X2836956Y7642086D02*
Y7952086D01*
X2530113Y16759657D02*
Y17019658D01*
X2670113Y16759657D02*
Y17019658D01*
X2530113D02*
X2670113D01*
X2530113Y16759657D02*
X2670113D01*
X2524113Y16734657D02*
X2836113D01*
X2524113Y16424660D02*
X2836113D01*
X2524113D02*
Y16734657D01*
X2836113Y16424660D02*
Y16734657D01*
X2530207Y14259857D02*
Y14519856D01*
X2670206Y14259857D02*
Y14519856D01*
X2530207D02*
X2670206D01*
X2530207Y14259857D02*
X2670206D01*
X2524207Y14234857D02*
X2836207D01*
X2524207Y13924857D02*
X2836207D01*
X2524207D02*
Y14234857D01*
X2836207Y13924857D02*
Y14234857D01*
X2529823Y10479555D02*
Y10739555D01*
X2669823Y10479555D02*
Y10739555D01*
X2529823D02*
X2669823D01*
X2529823Y10479555D02*
X2669823D01*
X2523824Y10454555D02*
X2835824D01*
X2523824Y10144556D02*
X2835824D01*
X2523824D02*
Y10454555D01*
X2835824Y10144556D02*
Y10454555D01*
X2529272Y4199867D02*
Y4459867D01*
X2669272Y4199867D02*
Y4459867D01*
X2529272D02*
X2669272D01*
X2529272Y4199867D02*
X2669272D01*
X2523273Y4174867D02*
X2835273D01*
X2523273Y3864868D02*
X2835273D01*
X2523273D02*
Y4174867D01*
X2835273Y3864868D02*
Y4174867D01*
X2844272Y3849867D02*
Y4189867D01*
X2654273Y3849867D02*
Y4189867D01*
X2844272D01*
X2654273Y3849867D02*
X2844272D01*
X2844824Y10129555D02*
Y10469555D01*
X2654824Y10129555D02*
Y10469555D01*
X2844824D01*
X2654824Y10129555D02*
X2844824D01*
X2845207Y13909857D02*
Y14249857D01*
X2655207Y13909857D02*
Y14249857D01*
X2845207D01*
X2655207Y13909857D02*
X2845207D01*
X2845113Y16409657D02*
Y16749658D01*
X2655113Y16409657D02*
Y16749658D01*
X2845113D01*
X2655113Y16409657D02*
X2845113D01*
X2524000Y1675000D02*
X2836000D01*
X2524000Y1365000D02*
X2836000D01*
X2524000D02*
Y1675000D01*
X2836000Y1365000D02*
Y1675000D01*
X2530000Y1700000D02*
Y1960000D01*
X2670000Y1700000D02*
Y1960000D01*
X2530000D02*
X2670000D01*
X2530000Y1700000D02*
X2670000D01*
X2845000Y1350000D02*
Y1690000D01*
X2655000Y1350000D02*
Y1690000D01*
X2845000D01*
X2655000Y1350000D02*
X2845000D01*
X3953000Y11520500D02*
X5447000D01*
Y12379500D01*
X3953000D02*
X5447000D01*
X3953000Y11520500D02*
Y12379500D01*
%TF.MD5,66c2ae0e8852d1aa6952e148ac8342c1*%
M02*
