%TF.GenerationSoftware,Altium Limited,Altium Designer,25.8.1 (18)*%
G04 Layer_Physical_Order=2*
G04 Layer_Color=16711680*
%FSLAX45Y45*%
%MOMM*%
%TF.SameCoordinates,4643EFED-100C-4420-AF00-E0BAD233947B*%
%TF.FilePolarity,Positive*%
%TF.FileFunction,Copper,L2,Bot,Signal*%
%TF.Part,Single*%
G01*
G75*
%TA.AperFunction,ComponentPad*%
%ADD11R,2.60000X2.80000*%
%ADD12C,1.50000*%
%ADD13C,1.80000*%
%TA.AperFunction,ViaPad*%
%ADD14C,4.00000*%
%TA.AperFunction,ComponentPad*%
%ADD15C,1.60000*%
%ADD16R,1.60000X1.60000*%
G36*
X1370607Y4135688D02*
X1411028Y4127648D01*
X1449102Y4111877D01*
X1483369Y4088981D01*
X1512511Y4059838D01*
X1535407Y4025572D01*
X1551179Y3987497D01*
X1559219Y3947076D01*
X1559219Y3926471D01*
X1559219Y40784D01*
X40784D01*
Y3926473D01*
X40783Y3947079D01*
X48823Y3987499D01*
X64594Y4025573D01*
X87490Y4059840D01*
X116632Y4088981D01*
X150897Y4111877D01*
X188973Y4127648D01*
X229392Y4135688D01*
X249998Y4135688D01*
X1350001Y4135688D01*
X1370607Y4135688D01*
D02*
G37*
%LPC*%
G36*
X913824Y3381471D02*
X886177D01*
X859472Y3374315D01*
X835529Y3360491D01*
X817681Y3342643D01*
X814365Y3340942D01*
X785636D01*
X782321Y3342643D01*
X764472Y3360491D01*
X740529Y3374315D01*
X713824Y3381471D01*
X686177D01*
X659472Y3374315D01*
X635529Y3360491D01*
X617681Y3342643D01*
X614365Y3340942D01*
X585636D01*
X582321Y3342643D01*
X564472Y3360491D01*
X540529Y3374315D01*
X513824Y3381471D01*
X486177D01*
X459472Y3374315D01*
X435529Y3360491D01*
X415980Y3340942D01*
X402156Y3316999D01*
X395001Y3290294D01*
Y3262647D01*
X402156Y3235942D01*
X415980Y3211999D01*
X435529Y3192450D01*
X459472Y3178627D01*
X486177Y3171471D01*
X513824D01*
X540529Y3178627D01*
X564472Y3192450D01*
X582321Y3210299D01*
X585636Y3211999D01*
X614365D01*
X617681Y3210299D01*
X635529Y3192450D01*
X659472Y3178627D01*
X686177Y3171471D01*
X713824D01*
X740529Y3178627D01*
X764472Y3192450D01*
X782321Y3210299D01*
X785636Y3211999D01*
X814365D01*
X817681Y3210299D01*
X835529Y3192450D01*
X859472Y3178627D01*
X886177Y3171471D01*
X913824D01*
X940529Y3178627D01*
X964472Y3192450D01*
X982321Y3210299D01*
X985636Y3211999D01*
X1014365D01*
X1017681Y3210299D01*
X1035530Y3192450D01*
X1059472Y3178627D01*
X1085002Y3171786D01*
Y3276472D01*
Y3381156D01*
X1059472Y3374315D01*
X1035530Y3360491D01*
X1017681Y3342643D01*
X1014365Y3340942D01*
X985636D01*
X982321Y3342643D01*
X964472Y3360491D01*
X940529Y3374315D01*
X913824Y3381471D01*
D02*
G37*
G36*
X1115002Y3381155D02*
Y3291472D01*
X1204685D01*
X1197845Y3316999D01*
X1184022Y3340942D01*
X1164472Y3360491D01*
X1140529Y3374315D01*
X1115002Y3381155D01*
D02*
G37*
G36*
X1204686Y3261472D02*
X1115002D01*
Y3171787D01*
X1140529Y3178627D01*
X1164472Y3192450D01*
X1184022Y3211999D01*
X1197845Y3235942D01*
X1204686Y3261472D01*
D02*
G37*
G36*
X1520001Y2746471D02*
X1375000D01*
Y2591471D01*
X1520001D01*
Y2746471D01*
D02*
G37*
G36*
X400001D02*
X255000D01*
Y2591471D01*
X400001D01*
Y2746471D01*
D02*
G37*
G36*
X1345000D02*
X1200001D01*
Y2591471D01*
X1345000D01*
Y2746471D01*
D02*
G37*
G36*
X225000D02*
X80001D01*
Y2591471D01*
X225000D01*
Y2746471D01*
D02*
G37*
G36*
X1520001Y2561471D02*
X1375000D01*
Y2406471D01*
X1520001D01*
Y2561471D01*
D02*
G37*
G36*
X1345000D02*
X1200001D01*
Y2406471D01*
X1345000D01*
Y2561471D01*
D02*
G37*
G36*
X400001D02*
X255000D01*
Y2406471D01*
X400001D01*
Y2561471D01*
D02*
G37*
G36*
X225000D02*
X80001D01*
Y2406471D01*
X225000D01*
Y2561471D01*
D02*
G37*
G36*
X1065799Y1946471D02*
X1034202D01*
X1003683Y1938293D01*
X976319Y1922495D01*
X953977Y1900152D01*
X941391Y1878352D01*
X925001Y1875268D01*
X908611Y1878352D01*
X896024Y1900152D01*
X873682Y1922495D01*
X846319Y1938293D01*
X815799Y1946471D01*
X815001D01*
Y1826471D01*
Y1706471D01*
X815799D01*
X846319Y1714649D01*
X873682Y1730447D01*
X896024Y1752789D01*
X908611Y1774590D01*
X925001Y1777673D01*
X941391Y1774590D01*
X953977Y1752789D01*
X976319Y1730447D01*
X1003683Y1714649D01*
X1034202Y1706471D01*
X1065799D01*
X1096319Y1714649D01*
X1123682Y1730447D01*
X1146024Y1752789D01*
X1161823Y1780153D01*
X1170000Y1810673D01*
Y1842269D01*
X1161823Y1872789D01*
X1146024Y1900152D01*
X1123682Y1922495D01*
X1096319Y1938293D01*
X1065799Y1946471D01*
D02*
G37*
G36*
X785001D02*
X784202D01*
X753683Y1938293D01*
X726319Y1922495D01*
X703977Y1900152D01*
X691391Y1878352D01*
X675001Y1875268D01*
X658611Y1878352D01*
X646024Y1900152D01*
X623682Y1922495D01*
X596319Y1938293D01*
X565799Y1946471D01*
X534202D01*
X503683Y1938293D01*
X476319Y1922495D01*
X453977Y1900152D01*
X438179Y1872789D01*
X430001Y1842269D01*
Y1810673D01*
X438179Y1780153D01*
X453977Y1752789D01*
X476319Y1730447D01*
X503683Y1714649D01*
X534202Y1706471D01*
X565799D01*
X596319Y1714649D01*
X623682Y1730447D01*
X646024Y1752789D01*
X658611Y1774590D01*
X675001Y1777673D01*
X691391Y1774590D01*
X703977Y1752789D01*
X726319Y1730447D01*
X753683Y1714649D01*
X784202Y1706471D01*
X785001D01*
Y1826471D01*
Y1946471D01*
D02*
G37*
G36*
X1068483Y713471D02*
X1039519D01*
X1011543Y705974D01*
X986460Y691492D01*
X965980Y671012D01*
X951498Y645929D01*
X944001Y617953D01*
Y588989D01*
X951498Y561012D01*
X965980Y535929D01*
X986460Y515449D01*
X1011543Y500967D01*
X1039519Y493471D01*
X1068483D01*
X1096460Y500967D01*
X1121543Y515449D01*
X1142023Y535929D01*
X1156505Y561012D01*
X1164001Y588989D01*
Y617953D01*
X1156505Y645929D01*
X1142023Y671012D01*
X1121543Y691492D01*
X1096460Y705974D01*
X1068483Y713471D01*
D02*
G37*
G36*
X814483D02*
X785519D01*
X757543Y705974D01*
X732460Y691492D01*
X711980Y671012D01*
X697498Y645929D01*
X690001Y617953D01*
Y588989D01*
X697498Y561012D01*
X711980Y535929D01*
X732460Y515449D01*
X757543Y500967D01*
X785519Y493471D01*
X814483D01*
X842460Y500967D01*
X867543Y515449D01*
X888023Y535929D01*
X902505Y561012D01*
X910001Y588989D01*
Y617953D01*
X902505Y645929D01*
X888023Y671012D01*
X867543Y691492D01*
X842460Y705974D01*
X814483Y713471D01*
D02*
G37*
G36*
X656001D02*
X436001D01*
Y493471D01*
X656001D01*
Y713471D01*
D02*
G37*
G36*
X1069001Y459332D02*
Y364471D01*
X1163862D01*
X1156505Y391929D01*
X1142023Y417012D01*
X1121543Y437492D01*
X1096460Y451974D01*
X1069001Y459332D01*
D02*
G37*
G36*
X1039001D02*
X1011543Y451974D01*
X986460Y437492D01*
X965980Y417012D01*
X951498Y391929D01*
X944140Y364471D01*
X1039001D01*
Y459332D01*
D02*
G37*
G36*
X1163862Y334471D02*
X1069001D01*
Y239610D01*
X1096460Y246967D01*
X1121543Y261449D01*
X1142023Y281929D01*
X1156505Y307012D01*
X1163862Y334471D01*
D02*
G37*
G36*
X1039001D02*
X944140D01*
X951498Y307012D01*
X965980Y281929D01*
X986460Y261449D01*
X1011543Y246967D01*
X1039001Y239610D01*
Y334471D01*
D02*
G37*
G36*
X814483Y459471D02*
X785519D01*
X757543Y451974D01*
X732460Y437492D01*
X711980Y417012D01*
X697498Y391929D01*
X690001Y363953D01*
Y334989D01*
X697498Y307012D01*
X711980Y281929D01*
X732460Y261449D01*
X757543Y246967D01*
X785519Y239471D01*
X814483D01*
X842460Y246967D01*
X867543Y261449D01*
X888023Y281929D01*
X902505Y307012D01*
X910001Y334989D01*
Y363953D01*
X902505Y391929D01*
X888023Y417012D01*
X867543Y437492D01*
X842460Y451974D01*
X814483Y459471D01*
D02*
G37*
G36*
X560483D02*
X531519D01*
X503543Y451974D01*
X478460Y437492D01*
X457980Y417012D01*
X443498Y391929D01*
X436001Y363953D01*
Y334989D01*
X443498Y307012D01*
X457980Y281929D01*
X478460Y261449D01*
X503543Y246967D01*
X531519Y239471D01*
X560483D01*
X588460Y246967D01*
X613543Y261449D01*
X634023Y281929D01*
X648505Y307012D01*
X656001Y334989D01*
Y363953D01*
X648505Y391929D01*
X634023Y417012D01*
X613543Y437492D01*
X588460Y451974D01*
X560483Y459471D01*
D02*
G37*
%LPD*%
D11*
X1360001Y2576471D02*
D03*
X240001D02*
D03*
D12*
X1100001Y3276471D02*
D03*
X500001D02*
D03*
X900001D02*
D03*
X700001D02*
D03*
D13*
X1050001Y1826471D02*
D03*
X800001D02*
D03*
X550001D02*
D03*
D14*
X800001Y1346471D02*
D03*
Y3746471D02*
D03*
D15*
X1054001Y349471D02*
D03*
Y603471D02*
D03*
X800001Y349471D02*
D03*
Y603471D02*
D03*
X546001Y349471D02*
D03*
D16*
Y603471D02*
D03*
%TF.MD5,7b9beee437fc621a5f4197e49885df1b*%
M02*
