%TF.GenerationSoftware,Altium Limited,Altium Designer,25.8.1 (18)*%
G04 Layer_Color=8388736*
%FSLAX45Y45*%
%MOMM*%
%TF.SameCoordinates,B6F1274E-FB7E-4E4A-BDD4-123872AD24DE*%
%TF.FilePolarity,Negative*%
%TF.FileFunction,Soldermask,Top*%
%TF.Part,Single*%
G01*
G75*
%TA.AperFunction,SMDPad,CuDef*%
%ADD56R,2.99000X0.94000*%
%TA.AperFunction,ComponentPad*%
G04:AMPARAMS|DCode=57|XSize=4.2mm|YSize=2mm|CornerRadius=0.55mm|HoleSize=0mm|Usage=FLASHONLY|Rotation=90.000|XOffset=0mm|YOffset=0mm|HoleType=Round|Shape=RoundedRectangle|*
%AMROUNDEDRECTD57*
21,1,4.20000,0.90000,0,0,90.0*
21,1,3.10000,2.00000,0,0,90.0*
1,1,1.10000,0.45000,1.55000*
1,1,1.10000,0.45000,-1.55000*
1,1,1.10000,-0.45000,-1.55000*
1,1,1.10000,-0.45000,1.55000*
%
%ADD57ROUNDEDRECTD57*%
G04:AMPARAMS|DCode=58|XSize=4.2mm|YSize=2mm|CornerRadius=0.55mm|HoleSize=0mm|Usage=FLASHONLY|Rotation=180.000|XOffset=0mm|YOffset=0mm|HoleType=Round|Shape=RoundedRectangle|*
%AMROUNDEDRECTD58*
21,1,4.20000,0.90000,0,0,180.0*
21,1,3.10000,2.00000,0,0,180.0*
1,1,1.10000,-1.55000,0.45000*
1,1,1.10000,1.55000,0.45000*
1,1,1.10000,1.55000,-0.45000*
1,1,1.10000,-1.55000,-0.45000*
%
%ADD58ROUNDEDRECTD58*%
%ADD59C,1.39000*%
%TA.AperFunction,WasherPad*%
%ADD60C,7.20000*%
D56*
X753500Y1293500D02*
D03*
X346500D02*
D03*
X753500Y1420500D02*
D03*
X346500D02*
D03*
X753500Y1547500D02*
D03*
X346500D02*
D03*
X753500Y1674500D02*
D03*
X346500D02*
D03*
X753500Y1801500D02*
D03*
X346500D02*
D03*
X753500Y1928500D02*
D03*
X346500D02*
D03*
X753500Y2055500D02*
D03*
X346500D02*
D03*
X753500Y2182500D02*
D03*
X346500D02*
D03*
X753500Y2309500D02*
D03*
X346500D02*
D03*
X753500Y2436500D02*
D03*
X346500D02*
D03*
X753500Y2563500D02*
D03*
X346500D02*
D03*
X753500Y2690500D02*
D03*
X346500D02*
D03*
X753500Y2817500D02*
D03*
X346500D02*
D03*
X753500Y2944500D02*
D03*
X346500D02*
D03*
X753500Y3071500D02*
D03*
X346500D02*
D03*
X753500Y3198500D02*
D03*
X346500D02*
D03*
X753500Y3325500D02*
D03*
X346500D02*
D03*
X753500Y3452500D02*
D03*
X346500D02*
D03*
X753500Y3579500D02*
D03*
X346500D02*
D03*
X753500Y3706500D02*
D03*
X346500D02*
D03*
X5153500Y1293500D02*
D03*
X4746500D02*
D03*
X5153500Y1420500D02*
D03*
X4746500D02*
D03*
X5153500Y1547500D02*
D03*
X4746500D02*
D03*
X5153500Y1674500D02*
D03*
X4746500D02*
D03*
X5153500Y1801500D02*
D03*
X4746500D02*
D03*
X5153500Y1928500D02*
D03*
X4746500D02*
D03*
X5153500Y2055500D02*
D03*
X4746500D02*
D03*
X5153500Y2182500D02*
D03*
X4746500D02*
D03*
X5153500Y2309500D02*
D03*
X4746500D02*
D03*
X5153500Y2436500D02*
D03*
X4746500D02*
D03*
X5153500Y2563500D02*
D03*
X4746500D02*
D03*
X5153500Y2690500D02*
D03*
X4746500D02*
D03*
X5153500Y2817500D02*
D03*
X4746500D02*
D03*
X5153500Y2944500D02*
D03*
X4746500D02*
D03*
X5153500Y3071500D02*
D03*
X4746500D02*
D03*
X5153500Y3198500D02*
D03*
X4746500D02*
D03*
X5153500Y3325500D02*
D03*
X4746500D02*
D03*
X5153500Y3452500D02*
D03*
X4746500D02*
D03*
X5153500Y3579500D02*
D03*
X4746500D02*
D03*
X5153500Y3706500D02*
D03*
X4746500D02*
D03*
D57*
X4290000Y610000D02*
D03*
D58*
X3810000Y890000D02*
D03*
Y310000D02*
D03*
D59*
X1716401Y1175268D02*
D03*
X1462401Y1429268D02*
D03*
X1716401Y1683268D02*
D03*
D60*
X700000Y700000D02*
D03*
X4800000D02*
D03*
%TF.MD5,bd8081a25b627aa1b4110713f89c67dd*%
M02*
