%TF.GenerationSoftware,Altium Limited,Altium Designer,25.8.1 (18)*%
G04 Layer_Color=255*
%FSLAX45Y45*%
%MOMM*%
%TF.SameCoordinates,B6F1274E-FB7E-4E4A-BDD4-123872AD24DE*%
%TF.FilePolarity,Positive*%
%TF.FileFunction,Pads,Bot*%
%TF.Part,Single*%
G01*
G75*
%TA.AperFunction,ComponentPad*%
G04:AMPARAMS|DCode=13|XSize=4mm|YSize=1.8mm|CornerRadius=0.45mm|HoleSize=0mm|Usage=FLASHONLY|Rotation=90.000|XOffset=0mm|YOffset=0mm|HoleType=Round|Shape=RoundedRectangle|*
%AMROUNDEDRECTD13*
21,1,4.00000,0.90000,0,0,90.0*
21,1,3.10000,1.80000,0,0,90.0*
1,1,0.90000,0.45000,1.55000*
1,1,0.90000,0.45000,-1.55000*
1,1,0.90000,-0.45000,-1.55000*
1,1,0.90000,-0.45000,1.55000*
%
%ADD13ROUNDEDRECTD13*%
G04:AMPARAMS|DCode=14|XSize=4mm|YSize=1.8mm|CornerRadius=0.45mm|HoleSize=0mm|Usage=FLASHONLY|Rotation=180.000|XOffset=0mm|YOffset=0mm|HoleType=Round|Shape=RoundedRectangle|*
%AMROUNDEDRECTD14*
21,1,4.00000,0.90000,0,0,180.0*
21,1,3.10000,1.80000,0,0,180.0*
1,1,0.90000,-1.55000,0.45000*
1,1,0.90000,1.55000,0.45000*
1,1,0.90000,1.55000,-0.45000*
1,1,0.90000,-1.55000,-0.45000*
%
%ADD14ROUNDEDRECTD14*%
%ADD15C,1.19000*%
%TA.AperFunction,WasherPad*%
%ADD16C,7.00000*%
%TA.AperFunction,SMDPad,CuDef*%
%ADD18R,3.20000X1.60000*%
%ADD19R,0.90000X1.60000*%
%ADD20R,0.95000X3.60000*%
%ADD21R,1.10000X0.65000*%
%ADD22R,0.95000X0.95000*%
%ADD23R,0.95000X0.80000*%
%ADD24R,0.70000X0.90000*%
%ADD25R,1.05000X1.40000*%
%ADD26R,0.76000X1.27000*%
%ADD27R,2.67000X2.54000*%
%ADD28R,2.70000X1.15000*%
%ADD29R,2.50000X2.45000*%
%ADD30R,2.20000X3.30000*%
%ADD31R,2.20000X1.00000*%
%ADD32R,0.80000X0.90000*%
%ADD33R,0.70000X0.90000*%
%ADD34R,1.40000X1.25000*%
%ADD35R,2.45000X2.15000*%
%ADD36R,1.15000X1.75000*%
%ADD37R,1.00000X1.40000*%
%ADD38R,1.15000X2.70000*%
%ADD39R,0.80000X0.95000*%
%ADD40R,2.15000X2.45000*%
%ADD41R,0.70000X0.95000*%
%ADD42R,0.60000X1.52000*%
%ADD43R,3.60000X0.95000*%
%ADD44R,2.90000X5.40000*%
%ADD45R,1.00000X2.60000*%
%ADD46R,5.50000X6.30000*%
%ADD47O,2.20000X0.60000*%
D13*
X4290000Y610000D02*
D03*
D14*
X3810000Y890000D02*
D03*
Y310000D02*
D03*
D15*
X1716401Y1175268D02*
D03*
X1462401Y1429268D02*
D03*
X1716401Y1683268D02*
D03*
D16*
X700000Y700000D02*
D03*
X4800000D02*
D03*
D18*
X5042240Y1196602D02*
D03*
D19*
X5272240Y1856602D02*
D03*
X5042240D02*
D03*
X4812240D02*
D03*
D20*
X712089Y3877333D02*
D03*
X247089D02*
D03*
X244966Y3452500D02*
D03*
X709966D02*
D03*
D21*
X4803620Y3499740D02*
D03*
Y3309740D02*
D03*
X5043620D02*
D03*
Y3404740D02*
D03*
Y3499740D02*
D03*
D22*
X5203542Y3249740D02*
D03*
Y3399739D02*
D03*
X4896304Y2242026D02*
D03*
Y2092026D02*
D03*
D23*
X4635424Y3587500D02*
D03*
Y3452500D02*
D03*
X2199454Y1967140D02*
D03*
Y2132140D02*
D03*
D24*
X2257500Y1258529D02*
D03*
X2397500D02*
D03*
X4408657Y2838306D02*
D03*
X4268657D02*
D03*
X5187554Y2089500D02*
D03*
X5047554D02*
D03*
D25*
X710000Y3135149D02*
D03*
X525000D02*
D03*
D26*
X4724500Y2540000D02*
D03*
D27*
X4489000D02*
D03*
D28*
X4499920Y1367748D02*
D03*
Y1847748D02*
D03*
X1126518Y1997000D02*
D03*
Y2272000D02*
D03*
D29*
X3100000Y2572000D02*
D03*
Y1967000D02*
D03*
X2570000Y2572000D02*
D03*
Y1967000D02*
D03*
D30*
X5056120Y4350000D02*
D03*
D31*
X4456120Y4580000D02*
D03*
Y4350000D02*
D03*
Y4120000D02*
D03*
D32*
X2257500Y1096528D02*
D03*
X2447500D02*
D03*
X2352500Y896528D02*
D03*
D33*
X5186120Y2241836D02*
D03*
X5056120D02*
D03*
X5121120Y2431836D02*
D03*
D34*
X4369800Y3001928D02*
D03*
Y3166928D02*
D03*
D35*
X1745908Y3857492D02*
D03*
X1430908D02*
D03*
D36*
X4756120Y2760806D02*
D03*
X5041120D02*
D03*
D37*
X1239461Y1160022D02*
D03*
X1049461D02*
D03*
X2869121Y532854D02*
D03*
X2679121D02*
D03*
D38*
X5036300Y3061150D02*
D03*
X4556300D02*
D03*
X2797018Y1559298D02*
D03*
X3072018D02*
D03*
X751961Y1426585D02*
D03*
X1231961D02*
D03*
D39*
X4885934Y3686130D02*
D03*
X5050934D02*
D03*
X4562635Y4808683D02*
D03*
X4397635D02*
D03*
X1085908Y1677500D02*
D03*
X1250908D02*
D03*
D40*
X4057635Y4198683D02*
D03*
Y4513683D02*
D03*
D41*
X4572635Y3898683D02*
D03*
X4397635D02*
D03*
D42*
X2656518Y1290040D02*
D03*
X2783518D02*
D03*
X2910518D02*
D03*
X3037518D02*
D03*
X2656518Y742040D02*
D03*
X2783518D02*
D03*
X2910518D02*
D03*
X3037518D02*
D03*
D43*
X1455908Y4682500D02*
D03*
Y4217500D02*
D03*
X579587Y4682500D02*
D03*
Y4217500D02*
D03*
X1018465Y4682500D02*
D03*
Y4217500D02*
D03*
X1870000Y4682500D02*
D03*
Y4217500D02*
D03*
D44*
X3146322Y3415590D02*
D03*
X2176322D02*
D03*
D45*
X1834908Y2562500D02*
D03*
X1376908D02*
D03*
D46*
X1605908Y3202500D02*
D03*
D47*
X1455908Y1880500D02*
D03*
Y2007500D02*
D03*
Y2134500D02*
D03*
Y2261500D02*
D03*
X1935908Y1880500D02*
D03*
Y2007500D02*
D03*
Y2134500D02*
D03*
Y2261500D02*
D03*
%TF.MD5,7137f1a96c490fe0450975f729f60e45*%
M02*
