%TF.GenerationSoftware,Altium Limited,Altium Designer,25.8.1 (18)*%
G04 Layer_Physical_Order=1*
G04 Layer_Color=255*
%FSLAX45Y45*%
%MOMM*%
%TF.SameCoordinates,B6F1274E-FB7E-4E4A-BDD4-123872AD24DE*%
%TF.FilePolarity,Positive*%
%TF.FileFunction,Copper,L1,Top,Signal*%
%TF.Part,Single*%
G01*
G75*
%TA.AperFunction,SMDPad,CuDef*%
%ADD10R,2.79000X0.74000*%
%TA.AperFunction,Conductor*%
%ADD11C,0.30000*%
%ADD12C,0.80000*%
%TA.AperFunction,ComponentPad*%
G04:AMPARAMS|DCode=13|XSize=4mm|YSize=1.8mm|CornerRadius=0.45mm|HoleSize=0mm|Usage=FLASHONLY|Rotation=90.000|XOffset=0mm|YOffset=0mm|HoleType=Round|Shape=RoundedRectangle|*
%AMROUNDEDRECTD13*
21,1,4.00000,0.90000,0,0,90.0*
21,1,3.10000,1.80000,0,0,90.0*
1,1,0.90000,0.45000,1.55000*
1,1,0.90000,0.45000,-1.55000*
1,1,0.90000,-0.45000,-1.55000*
1,1,0.90000,-0.45000,1.55000*
%
%ADD13ROUNDEDRECTD13*%
G04:AMPARAMS|DCode=14|XSize=4mm|YSize=1.8mm|CornerRadius=0.45mm|HoleSize=0mm|Usage=FLASHONLY|Rotation=180.000|XOffset=0mm|YOffset=0mm|HoleType=Round|Shape=RoundedRectangle|*
%AMROUNDEDRECTD14*
21,1,4.00000,0.90000,0,0,180.0*
21,1,3.10000,1.80000,0,0,180.0*
1,1,0.90000,-1.55000,0.45000*
1,1,0.90000,1.55000,0.45000*
1,1,0.90000,1.55000,-0.45000*
1,1,0.90000,-1.55000,-0.45000*
%
%ADD14ROUNDEDRECTD14*%
%ADD15C,1.19000*%
%TA.AperFunction,WasherPad*%
%ADD16C,7.00000*%
%TA.AperFunction,ViaPad*%
%ADD17C,0.60000*%
G36*
X5030098Y5059217D02*
X5089779Y5051360D01*
X5147926Y5035780D01*
X5203542Y5012743D01*
X5255675Y4982644D01*
X5303433Y4945998D01*
X5345998Y4903433D01*
X5382645Y4855673D01*
X5412743Y4803542D01*
X5435780Y4747928D01*
X5451360Y4689780D01*
X5459217Y4630099D01*
Y4600000D01*
X5459217Y3626978D01*
X5449523Y3621890D01*
X5429217Y3617781D01*
X5416632Y3630366D01*
X5394580Y3639500D01*
X5370710D01*
X5353000Y3632164D01*
X5340003Y3635342D01*
X5337930Y3636386D01*
X5323000Y3650506D01*
Y3693800D01*
X5153500D01*
X4984000D01*
Y3625382D01*
X4916000D01*
Y3693799D01*
X4746501D01*
X4577000D01*
Y3639500D01*
Y3512500D01*
Y3465199D01*
X4746501D01*
Y3439799D01*
X4577000D01*
Y3371382D01*
X4540063D01*
X4456100Y3455344D01*
X4441215Y3465290D01*
X4423657Y3468782D01*
X4190016D01*
X4172458Y3465290D01*
X4157573Y3455344D01*
X3664470Y2962241D01*
X3654524Y2947356D01*
X3651032Y2929798D01*
Y1295011D01*
X3535236Y1179215D01*
X2645241D01*
X2503382Y1321074D01*
Y1387424D01*
X2506246Y1398191D01*
X2508366Y1400311D01*
X2517500Y1422363D01*
Y1446233D01*
X2508366Y1468285D01*
X2491488Y1485164D01*
X2469435Y1494298D01*
X2445566D01*
X2423513Y1485164D01*
X2406635Y1468285D01*
X2397500Y1446233D01*
Y1422363D01*
X2406635Y1400311D01*
X2408755Y1398191D01*
X2411619Y1387424D01*
Y1302069D01*
X2415111Y1284511D01*
X2425057Y1269626D01*
X2593793Y1100890D01*
X2608678Y1090944D01*
X2626236Y1087452D01*
X3554241D01*
X3571799Y1090944D01*
X3586684Y1100890D01*
X3729357Y1243563D01*
X3739302Y1258448D01*
X3742795Y1276006D01*
Y2910793D01*
X4209021Y3377019D01*
X4404652D01*
X4488615Y3293057D01*
X4503500Y3283111D01*
X4521058Y3279619D01*
X4547337D01*
X4554070Y3272551D01*
X4567004Y3249618D01*
X4566215Y3245653D01*
X4566216Y3245652D01*
Y2770260D01*
X4568544Y2758555D01*
X4575174Y2748631D01*
X4577000Y2747411D01*
Y2703199D01*
X4746501D01*
Y2677799D01*
X4577000D01*
Y2623500D01*
Y2576199D01*
X4746501D01*
Y2550799D01*
X4577000D01*
Y2506499D01*
X4575182Y2505284D01*
X4575172Y2505275D01*
X4568542Y2495352D01*
X4566213Y2483647D01*
X4541504Y2470737D01*
X4248516D01*
X4230242Y2468331D01*
X4213214Y2461278D01*
X4198592Y2450057D01*
X4187371Y2435435D01*
X4180318Y2418406D01*
X4177912Y2400133D01*
X4180318Y2381859D01*
X4187371Y2364831D01*
X4198592Y2350208D01*
X4213214Y2338988D01*
X4230242Y2331935D01*
X4248516Y2329529D01*
X4566214D01*
Y2263012D01*
X4536214Y2250585D01*
X4533908Y2252891D01*
X4511855Y2262026D01*
X4487986D01*
X4465933Y2252891D01*
X4449055Y2236013D01*
X4439921Y2213961D01*
Y2190091D01*
X4449055Y2168039D01*
X4451266Y2165828D01*
X4454146Y2155061D01*
Y2028990D01*
X4451266Y2018224D01*
X4449055Y2016013D01*
X4439921Y1993960D01*
Y1970091D01*
X4449055Y1948039D01*
X4465933Y1931160D01*
X4487986Y1922026D01*
X4511855D01*
X4533908Y1931160D01*
X4547000Y1944253D01*
X4564868Y1941064D01*
X4577000Y1935056D01*
Y1861500D01*
Y1814199D01*
X4746501D01*
Y1788799D01*
X4577000D01*
Y1744550D01*
X4575275Y1743397D01*
X4575266Y1743388D01*
X4568636Y1733464D01*
X4566307Y1721759D01*
X4566307Y1721758D01*
Y1246366D01*
X4568636Y1234660D01*
X4575266Y1224737D01*
X4585189Y1218106D01*
X4596895Y1215778D01*
X5303126D01*
X5314831Y1218106D01*
X5324754Y1224737D01*
X5324755Y1224737D01*
X5324857Y1224839D01*
X5331487Y1234763D01*
X5333816Y1246468D01*
X5333816Y1246469D01*
X5333824Y1714696D01*
X5333824Y1714697D01*
X5331496Y1726402D01*
X5324865Y1736325D01*
X5324865Y1736326D01*
X5323000Y1738191D01*
Y1788800D01*
X5153500D01*
Y1814200D01*
X5323000D01*
Y1861500D01*
Y1915800D01*
X5153500D01*
Y1941200D01*
X5323000D01*
Y1985514D01*
X5324661Y1986624D01*
X5324661Y1986625D01*
X5324763Y1986726D01*
X5331394Y1996650D01*
X5333723Y2008355D01*
X5333722Y2008357D01*
X5333731Y2476583D01*
X5333731Y2476584D01*
X5331402Y2488289D01*
X5324772Y2498213D01*
X5324771Y2498213D01*
X5323000Y2499985D01*
Y2550800D01*
X5153500D01*
Y2576200D01*
X5323000D01*
Y2623500D01*
Y2677800D01*
X5153500D01*
Y2703200D01*
X5323000D01*
Y2747520D01*
X5324663Y2748631D01*
X5324663Y2748632D01*
X5324765Y2748733D01*
X5331396Y2758657D01*
X5333725Y2770363D01*
X5333724Y2770364D01*
X5333731Y3127896D01*
X5343462D01*
X5361735Y3130302D01*
X5378763Y3137355D01*
X5393386Y3148576D01*
X5429217Y3184407D01*
X5459217Y3171980D01*
X5459218Y1000000D01*
X5459217Y952877D01*
X5449979Y859084D01*
X5431593Y766646D01*
X5404235Y676460D01*
X5368168Y589387D01*
X5323740Y506267D01*
X5271380Y427906D01*
X5211591Y355053D01*
X5144946Y288407D01*
X5072094Y228620D01*
X4993732Y176259D01*
X4910611Y131830D01*
X4823539Y95764D01*
X4733353Y68407D01*
X4640916Y50020D01*
X4547123Y40782D01*
X999996D01*
X952872Y40782D01*
X859079Y50020D01*
X766642Y68407D01*
X676453Y95765D01*
X589382Y131832D01*
X506264Y176260D01*
X427902Y228620D01*
X355048Y288410D01*
X288405Y355053D01*
X228617Y427906D01*
X176256Y506269D01*
X131830Y589387D01*
X95763Y676460D01*
X68406Y766647D01*
X50019Y859084D01*
X40782Y952876D01*
X40782Y999999D01*
Y4600000D01*
Y4630099D01*
X48639Y4689779D01*
X64219Y4747926D01*
X87256Y4803542D01*
X117355Y4855675D01*
X154000Y4903432D01*
X196566Y4945998D01*
X244326Y4982645D01*
X296457Y5012743D01*
X352073Y5035780D01*
X410219Y5051360D01*
X469901Y5059217D01*
X500000Y5059217D01*
X4999999Y5059218D01*
X5030098Y5059217D01*
D02*
G37*
G36*
X5361221Y3558500D02*
X5338664Y3564500D01*
Y3594500D01*
X5361221Y3600500D01*
Y3558500D01*
D02*
G37*
G36*
X5449523Y3537110D02*
X5459217Y3532023D01*
Y3326067D01*
X5429881Y3310763D01*
X5412853Y3317816D01*
X5394580Y3320222D01*
X5376306Y3317816D01*
X5359278Y3310763D01*
X5353000Y3305946D01*
X5323000Y3317467D01*
Y3385500D01*
Y3439800D01*
X5153500D01*
Y3465200D01*
X5323000D01*
Y3508494D01*
X5333622Y3519253D01*
X5353000Y3526836D01*
X5370710Y3519500D01*
X5394580D01*
X5416632Y3528635D01*
X5429217Y3541219D01*
X5449523Y3537110D01*
D02*
G37*
G36*
X5303145Y3238591D02*
X5303137Y2770363D01*
X5303034Y2770260D01*
X4596803D01*
Y3245653D01*
X4596812Y3245663D01*
X5296073D01*
X5303145Y3238591D01*
D02*
G37*
G36*
X4993981Y2578500D02*
Y2548500D01*
X4971424Y2542500D01*
Y2584500D01*
X4993981Y2578500D01*
D02*
G37*
G36*
X4928576Y2542500D02*
X4906019Y2548500D01*
Y2578500D01*
X4928576Y2584500D01*
Y2542500D01*
D02*
G37*
G36*
X4515028Y2158107D02*
X4485028Y2157983D01*
X4478997Y2180527D01*
X4520997Y2180677D01*
X4515028Y2158107D01*
D02*
G37*
G36*
X5303143Y2476584D02*
X5303135Y2008355D01*
X5303032Y2008253D01*
X4596801D01*
Y2483646D01*
X4596810Y2483655D01*
X5296071D01*
X5303143Y2476584D01*
D02*
G37*
G36*
X4515028Y2025944D02*
X4520997Y2003375D01*
X4478997Y2003525D01*
X4485028Y2026068D01*
X4515028Y2025944D01*
D02*
G37*
G36*
X2472500Y1390318D02*
X2442500D01*
X2436500Y1412874D01*
X2478500D01*
X2472500Y1390318D01*
D02*
G37*
G36*
X5303236Y1714697D02*
X5303228Y1246468D01*
X5303126Y1246366D01*
X4596895D01*
Y1721759D01*
X4596904Y1721768D01*
X5296165D01*
X5303236Y1714697D01*
D02*
G37*
%LPC*%
G36*
X516000Y3773500D02*
X359199D01*
Y3719200D01*
X516000D01*
Y3773500D01*
D02*
G37*
G36*
X333799D02*
X177000D01*
Y3719200D01*
X333799D01*
Y3773500D01*
D02*
G37*
G36*
X5323000D02*
X5166200D01*
Y3719200D01*
X5323000D01*
Y3773500D01*
D02*
G37*
G36*
X5140800D02*
X4984000D01*
Y3719200D01*
X5140800D01*
Y3773500D01*
D02*
G37*
G36*
X4916000D02*
X4759201D01*
Y3719199D01*
X4916000D01*
Y3773500D01*
D02*
G37*
G36*
X4733801D02*
X4577000D01*
Y3719199D01*
X4733801D01*
Y3773500D01*
D02*
G37*
G36*
X923000D02*
X766201D01*
Y3719199D01*
X923000D01*
Y3773500D01*
D02*
G37*
G36*
X740801D02*
X584000D01*
Y3719199D01*
X740801D01*
Y3773500D01*
D02*
G37*
G36*
X516000Y3693800D02*
X346499D01*
X177000D01*
Y3639500D01*
Y3592200D01*
X346499D01*
X516000D01*
Y3639500D01*
Y3693800D01*
D02*
G37*
G36*
X923000Y3693799D02*
X753501D01*
X584000D01*
Y3639500D01*
Y3592199D01*
X753501D01*
X923000D01*
Y3639500D01*
Y3693799D01*
D02*
G37*
G36*
X516000Y3566800D02*
X346499D01*
X177000D01*
Y3512500D01*
Y3465200D01*
X346499D01*
X516000D01*
Y3512500D01*
Y3566800D01*
D02*
G37*
G36*
X923000Y3566799D02*
X753501D01*
X584000D01*
Y3512500D01*
Y3465199D01*
X753501D01*
X923000D01*
Y3512500D01*
Y3566799D01*
D02*
G37*
G36*
X516000Y3439800D02*
X346499D01*
X177000D01*
Y3385500D01*
Y3338200D01*
X346499D01*
X516000D01*
Y3385500D01*
Y3439800D01*
D02*
G37*
G36*
X923000Y3439799D02*
X753501D01*
X584000D01*
Y3385500D01*
Y3338199D01*
X753501D01*
X923000D01*
Y3385500D01*
Y3439799D01*
D02*
G37*
G36*
X516000Y3312800D02*
X346499D01*
X177000D01*
Y3258500D01*
Y3211200D01*
X346499D01*
X516000D01*
Y3258500D01*
Y3312800D01*
D02*
G37*
G36*
X923000Y3312799D02*
X753501D01*
X584000D01*
Y3258500D01*
Y3211199D01*
X753501D01*
X923000D01*
Y3258500D01*
Y3312799D01*
D02*
G37*
G36*
X516000Y3185800D02*
X346499D01*
X177000D01*
Y3131500D01*
Y3084200D01*
X346499D01*
X516000D01*
Y3131500D01*
Y3185800D01*
D02*
G37*
G36*
X923000Y3185799D02*
X753501D01*
X584000D01*
Y3131500D01*
Y3084199D01*
X753501D01*
X923000D01*
Y3131500D01*
Y3185799D01*
D02*
G37*
G36*
X516000Y3058800D02*
X346499D01*
X177000D01*
Y3004500D01*
Y2957200D01*
X346499D01*
X516000D01*
Y3004500D01*
Y3058800D01*
D02*
G37*
G36*
X923000Y3058799D02*
X753501D01*
X584000D01*
Y3004500D01*
Y2957199D01*
X753501D01*
X923000D01*
Y3004500D01*
Y3058799D01*
D02*
G37*
G36*
X516000Y2931800D02*
X346499D01*
X177000D01*
Y2877500D01*
Y2830200D01*
X346499D01*
X516000D01*
Y2877500D01*
Y2931800D01*
D02*
G37*
G36*
X923000Y2931799D02*
X753501D01*
X584000D01*
Y2877500D01*
Y2830199D01*
X753501D01*
X923000D01*
Y2877500D01*
Y2931799D01*
D02*
G37*
G36*
X3301322Y4050598D02*
X2021338D01*
Y2780598D01*
X3301322D01*
Y4050598D01*
D02*
G37*
G36*
X516000Y2804800D02*
X346499D01*
X177000D01*
Y2750500D01*
Y2703200D01*
X346499D01*
X516000D01*
Y2750500D01*
Y2804800D01*
D02*
G37*
G36*
X923000Y2804799D02*
X753501D01*
X584000D01*
Y2750500D01*
Y2703199D01*
X753501D01*
X923000D01*
Y2750500D01*
Y2804799D01*
D02*
G37*
G36*
X516000Y2677800D02*
X346499D01*
X177000D01*
Y2623500D01*
Y2576200D01*
X346499D01*
X516000D01*
Y2623500D01*
Y2677800D01*
D02*
G37*
G36*
X923000Y2677799D02*
X753501D01*
X584000D01*
Y2623500D01*
Y2576199D01*
X753501D01*
X923000D01*
Y2623500D01*
Y2677799D01*
D02*
G37*
G36*
X516000Y2550800D02*
X346499D01*
X177000D01*
Y2496500D01*
Y2449200D01*
X346499D01*
X516000D01*
Y2496500D01*
Y2550800D01*
D02*
G37*
G36*
X923000Y2550799D02*
X753501D01*
X584000D01*
Y2496500D01*
Y2449199D01*
X753501D01*
X923000D01*
Y2496500D01*
Y2550799D01*
D02*
G37*
G36*
X516000Y2423800D02*
X346499D01*
X177000D01*
Y2369500D01*
Y2322200D01*
X346499D01*
X516000D01*
Y2369500D01*
Y2423800D01*
D02*
G37*
G36*
X923000Y2423799D02*
X753501D01*
X584000D01*
Y2369500D01*
Y2322199D01*
X753501D01*
X923000D01*
Y2369500D01*
Y2423799D01*
D02*
G37*
G36*
X516000Y2296800D02*
X346499D01*
X177000D01*
Y2242500D01*
Y2195200D01*
X346499D01*
X516000D01*
Y2242500D01*
Y2296800D01*
D02*
G37*
G36*
X923000Y2296799D02*
X753501D01*
X584000D01*
Y2242500D01*
Y2195199D01*
X753501D01*
X923000D01*
Y2242500D01*
Y2296799D01*
D02*
G37*
G36*
X516000Y2169800D02*
X346499D01*
X177000D01*
Y2115500D01*
Y2068200D01*
X346499D01*
X516000D01*
Y2115500D01*
Y2169800D01*
D02*
G37*
G36*
X923000Y2169799D02*
X753501D01*
X584000D01*
Y2115500D01*
Y2068199D01*
X753501D01*
X923000D01*
Y2115500D01*
Y2169799D01*
D02*
G37*
G36*
X516000Y2042800D02*
X346499D01*
X177000D01*
Y1988500D01*
Y1941200D01*
X346499D01*
X516000D01*
Y1988500D01*
Y2042800D01*
D02*
G37*
G36*
X923000Y2042799D02*
X753501D01*
X584000D01*
Y1988500D01*
Y1941199D01*
X753501D01*
X923000D01*
Y1988500D01*
Y2042799D01*
D02*
G37*
G36*
X516000Y1915800D02*
X346499D01*
X177000D01*
Y1861500D01*
Y1814200D01*
X346499D01*
X516000D01*
Y1861500D01*
Y1915800D01*
D02*
G37*
G36*
X923000Y1915799D02*
X753501D01*
X584000D01*
Y1861500D01*
Y1814199D01*
X753501D01*
X923000D01*
Y1861500D01*
Y1915799D01*
D02*
G37*
G36*
X516000Y1788800D02*
X346499D01*
X177000D01*
Y1734500D01*
Y1687200D01*
X346499D01*
X516000D01*
Y1734500D01*
Y1788800D01*
D02*
G37*
G36*
X923000Y1788799D02*
X753501D01*
X584000D01*
Y1734500D01*
Y1687199D01*
X753501D01*
X923000D01*
Y1734500D01*
Y1788799D01*
D02*
G37*
G36*
X1728183Y1772768D02*
X1704618D01*
X1681855Y1766669D01*
X1661446Y1754886D01*
X1644783Y1738222D01*
X1633000Y1717814D01*
X1626901Y1695051D01*
Y1671485D01*
X1633000Y1648722D01*
X1644783Y1628313D01*
X1661446Y1611650D01*
X1681855Y1599867D01*
X1704618Y1593768D01*
X1728183D01*
X1750946Y1599867D01*
X1771355Y1611650D01*
X1788019Y1628313D01*
X1799802Y1648722D01*
X1805901Y1671485D01*
Y1695051D01*
X1799802Y1717814D01*
X1788019Y1738222D01*
X1771355Y1754886D01*
X1750946Y1766669D01*
X1728183Y1772768D01*
D02*
G37*
G36*
X516000Y1661800D02*
X346499D01*
X177000D01*
Y1607500D01*
Y1560200D01*
X346499D01*
X516000D01*
Y1607500D01*
Y1661800D01*
D02*
G37*
G36*
X923000Y1661799D02*
X753501D01*
X584000D01*
Y1607500D01*
Y1560199D01*
X753501D01*
X923000D01*
Y1607500D01*
Y1661799D01*
D02*
G37*
G36*
X516000Y1534800D02*
X346499D01*
X177000D01*
Y1480500D01*
Y1433200D01*
X346499D01*
X516000D01*
Y1480500D01*
Y1534800D01*
D02*
G37*
G36*
X923000Y1534799D02*
X753501D01*
X584000D01*
Y1480500D01*
Y1433199D01*
X753501D01*
X923000D01*
Y1480500D01*
Y1534799D01*
D02*
G37*
G36*
X1474183Y1518768D02*
X1450618D01*
X1427855Y1512669D01*
X1407446Y1500886D01*
X1390783Y1484222D01*
X1379000Y1463814D01*
X1372901Y1441051D01*
Y1417485D01*
X1379000Y1394722D01*
X1390783Y1374313D01*
X1407446Y1357650D01*
X1427855Y1345867D01*
X1450618Y1339768D01*
X1474183D01*
X1496946Y1345867D01*
X1517355Y1357650D01*
X1534019Y1374313D01*
X1545802Y1394722D01*
X1551901Y1417485D01*
Y1441051D01*
X1545802Y1463814D01*
X1534019Y1484222D01*
X1517355Y1500886D01*
X1496946Y1512669D01*
X1474183Y1518768D01*
D02*
G37*
G36*
X516000Y1407800D02*
X346499D01*
X177000D01*
Y1353500D01*
Y1306200D01*
X346499D01*
X516000D01*
Y1353500D01*
Y1407800D01*
D02*
G37*
G36*
X923000Y1407799D02*
X753501D01*
X584000D01*
Y1353500D01*
Y1306199D01*
X753501D01*
X923000D01*
Y1353500D01*
Y1407799D01*
D02*
G37*
G36*
Y1280799D02*
X766201D01*
Y1226500D01*
X923000D01*
Y1280799D01*
D02*
G37*
G36*
X740801D02*
X584000D01*
Y1226500D01*
X740801D01*
Y1280799D01*
D02*
G37*
G36*
X516000Y1280800D02*
X359199D01*
Y1226500D01*
X516000D01*
Y1280800D01*
D02*
G37*
G36*
X333799D02*
X177000D01*
Y1226500D01*
X333799D01*
Y1280800D01*
D02*
G37*
G36*
X1728183Y1264768D02*
X1704618D01*
X1681855Y1258669D01*
X1661446Y1246886D01*
X1644783Y1230222D01*
X1633000Y1209814D01*
X1626901Y1187051D01*
Y1163485D01*
X1633000Y1140722D01*
X1644783Y1120313D01*
X1661446Y1103650D01*
X1681855Y1091867D01*
X1704618Y1085768D01*
X1728183D01*
X1750946Y1091867D01*
X1771355Y1103650D01*
X1788019Y1120313D01*
X1799802Y1140722D01*
X1805901Y1163485D01*
Y1187051D01*
X1799802Y1209814D01*
X1788019Y1230222D01*
X1771355Y1246886D01*
X1750946Y1258669D01*
X1728183Y1264768D01*
D02*
G37*
G36*
X4057635Y2362365D02*
X4039361Y2359959D01*
X4022333Y2352905D01*
X4007710Y2341685D01*
X3996490Y2327063D01*
X3989437Y2310034D01*
X3987031Y2291761D01*
Y1180894D01*
X3989437Y1162621D01*
X3996490Y1145592D01*
X4007710Y1130970D01*
X4034592Y1104088D01*
Y1013950D01*
X4004592Y999155D01*
X4002823Y1000512D01*
X3984579Y1008069D01*
X3965000Y1010647D01*
X3822702D01*
Y890001D01*
Y769353D01*
X3965000D01*
X3984579Y771931D01*
X4002823Y779488D01*
X4004592Y780845D01*
X4029709Y768458D01*
X4032521Y738410D01*
X3915075Y620964D01*
X3903855Y606342D01*
X3896802Y589314D01*
X3894396Y571040D01*
Y487075D01*
X3866289Y430647D01*
X3655000D01*
X3635421Y428069D01*
X3617177Y420512D01*
X3601509Y408490D01*
X3589488Y392823D01*
X3581931Y374579D01*
X3579353Y355000D01*
Y265000D01*
X3581931Y245421D01*
X3589488Y227176D01*
X3601509Y211509D01*
X3617177Y199488D01*
X3635421Y191931D01*
X3655000Y189353D01*
X3965000D01*
X3984579Y191931D01*
X4002823Y199488D01*
X4018491Y211509D01*
X4030512Y227176D01*
X4038069Y245421D01*
X4040647Y265000D01*
Y355000D01*
X4038069Y374579D01*
X4036995Y377172D01*
X4035604Y454361D01*
Y541795D01*
X4139353Y645544D01*
X4169353Y633118D01*
Y622700D01*
X4277300D01*
Y840647D01*
X4245000D01*
X4225421Y838069D01*
X4207177Y830512D01*
X4205799Y829455D01*
X4175799Y844250D01*
Y1133334D01*
X4173393Y1151607D01*
X4166340Y1168635D01*
X4155120Y1183258D01*
X4128239Y1210139D01*
Y2291761D01*
X4125833Y2310034D01*
X4118779Y2327063D01*
X4107559Y2341685D01*
X4092937Y2352905D01*
X4075908Y2359959D01*
X4057635Y2362365D01*
D02*
G37*
G36*
X3797302Y1010647D02*
X3655000D01*
X3635421Y1008069D01*
X3617177Y1000512D01*
X3601509Y988491D01*
X3589488Y972823D01*
X3581931Y954579D01*
X3579353Y935000D01*
Y902701D01*
X3797302D01*
Y1010647D01*
D02*
G37*
G36*
X4829907Y1080000D02*
X4770093D01*
X4711016Y1070643D01*
X4654131Y1052160D01*
X4600837Y1025005D01*
X4552447Y989848D01*
X4510152Y947554D01*
X4474995Y899164D01*
X4447840Y845870D01*
X4433471Y801647D01*
X4401520Y800391D01*
X4400512Y802823D01*
X4388491Y818491D01*
X4372823Y830512D01*
X4354579Y838069D01*
X4335000Y840647D01*
X4302700D01*
Y610000D01*
Y379353D01*
X4335000D01*
X4354579Y381931D01*
X4372823Y389488D01*
X4388491Y401509D01*
X4400512Y417177D01*
X4408069Y435421D01*
X4410647Y455000D01*
Y571518D01*
X4440647Y576269D01*
X4447840Y554131D01*
X4474995Y500837D01*
X4510152Y452447D01*
X4552447Y410152D01*
X4600837Y374995D01*
X4654131Y347840D01*
X4711016Y329357D01*
X4770093Y320000D01*
X4829907D01*
X4888984Y329357D01*
X4945869Y347840D01*
X4999163Y374995D01*
X5047554Y410152D01*
X5089848Y452447D01*
X5125005Y500837D01*
X5152160Y554131D01*
X5170643Y611017D01*
X5180000Y670093D01*
Y729907D01*
X5170643Y788984D01*
X5152160Y845870D01*
X5125005Y899164D01*
X5089848Y947554D01*
X5047554Y989848D01*
X4999163Y1025005D01*
X4945869Y1052160D01*
X4888984Y1070643D01*
X4829907Y1080000D01*
D02*
G37*
G36*
X3797302Y877301D02*
X3579353D01*
Y845000D01*
X3581931Y825421D01*
X3589488Y807177D01*
X3601509Y791509D01*
X3617177Y779488D01*
X3635421Y771931D01*
X3655000Y769353D01*
X3797302D01*
Y877301D01*
D02*
G37*
G36*
X4277300Y597300D02*
X4169353D01*
Y455000D01*
X4171931Y435421D01*
X4179488Y417177D01*
X4191510Y401509D01*
X4207177Y389488D01*
X4225421Y381931D01*
X4245000Y379353D01*
X4277300D01*
Y597300D01*
D02*
G37*
G36*
X729907Y1080000D02*
X670093D01*
X611017Y1070643D01*
X554131Y1052160D01*
X500837Y1025005D01*
X452447Y989848D01*
X410152Y947554D01*
X374995Y899164D01*
X347840Y845870D01*
X329357Y788984D01*
X320000Y729907D01*
Y670093D01*
X329357Y611017D01*
X347840Y554131D01*
X374995Y500837D01*
X410152Y452447D01*
X452447Y410152D01*
X500837Y374995D01*
X554131Y347840D01*
X611017Y329357D01*
X670093Y320000D01*
X729907D01*
X788984Y329357D01*
X845870Y347840D01*
X899164Y374995D01*
X947554Y410152D01*
X989848Y452447D01*
X1025005Y500837D01*
X1052160Y554131D01*
X1070643Y611017D01*
X1080000Y670093D01*
Y729907D01*
X1070643Y788984D01*
X1052160Y845870D01*
X1025005Y899164D01*
X989848Y947554D01*
X947554Y989848D01*
X899164Y1025005D01*
X845870Y1052160D01*
X788984Y1070643D01*
X729907Y1080000D01*
D02*
G37*
%LPD*%
G36*
X4005000Y454979D02*
X4006493Y372187D01*
X3885000Y399606D01*
X3925000Y479911D01*
X4005000Y454979D01*
D02*
G37*
D10*
X753500Y1293500D02*
D03*
X346500D02*
D03*
X753500Y1420500D02*
D03*
X346500D02*
D03*
X753500Y1547500D02*
D03*
X346500D02*
D03*
X753500Y1674500D02*
D03*
X346500D02*
D03*
X753500Y1801500D02*
D03*
X346500D02*
D03*
X753500Y1928500D02*
D03*
X346500D02*
D03*
X753500Y2055500D02*
D03*
X346500D02*
D03*
X753500Y2182500D02*
D03*
X346500D02*
D03*
X753500Y2309500D02*
D03*
X346500D02*
D03*
X753500Y2436500D02*
D03*
X346500D02*
D03*
X753500Y2563500D02*
D03*
X346500D02*
D03*
X753500Y2690500D02*
D03*
X346500D02*
D03*
X753500Y2817500D02*
D03*
X346500D02*
D03*
X753500Y2944500D02*
D03*
X346500D02*
D03*
X753500Y3071500D02*
D03*
X346500D02*
D03*
X753500Y3198500D02*
D03*
X346500D02*
D03*
X753500Y3325500D02*
D03*
X346500D02*
D03*
X753500Y3452500D02*
D03*
X346500D02*
D03*
X753500Y3579500D02*
D03*
X346500D02*
D03*
X753500Y3706500D02*
D03*
X346500D02*
D03*
X5153500Y1293500D02*
D03*
X4746500D02*
D03*
X5153500Y1420500D02*
D03*
X4746500D02*
D03*
X5153500Y1547500D02*
D03*
X4746500D02*
D03*
X5153500Y1674500D02*
D03*
X4746500D02*
D03*
X5153500Y1801500D02*
D03*
X4746500D02*
D03*
X5153500Y1928500D02*
D03*
X4746500D02*
D03*
X5153500Y2055500D02*
D03*
X4746500D02*
D03*
X5153500Y2182500D02*
D03*
X4746500D02*
D03*
X5153500Y2309500D02*
D03*
X4746500D02*
D03*
X5153500Y2436500D02*
D03*
X4746500D02*
D03*
X5153500Y2563500D02*
D03*
X4746500D02*
D03*
X5153500Y2690500D02*
D03*
X4746500D02*
D03*
X5153500Y2817500D02*
D03*
X4746500D02*
D03*
X5153500Y2944500D02*
D03*
X4746500D02*
D03*
X5153500Y3071500D02*
D03*
X4746500D02*
D03*
X5153500Y3198500D02*
D03*
X4746500D02*
D03*
X5153500Y3325500D02*
D03*
X4746500D02*
D03*
X5153500Y3452500D02*
D03*
X4746500D02*
D03*
X5153500Y3579500D02*
D03*
X4746500D02*
D03*
X5153500Y3706500D02*
D03*
X4746500D02*
D03*
D11*
X4499920Y2202026D02*
X4500028Y2201919D01*
Y1982133D02*
Y2201919D01*
X4499920Y1982026D02*
X4500028Y1982133D01*
X4746500Y3325500D02*
X5153500D01*
X4746500Y3452500D02*
X5153500D01*
X4582704Y1906500D02*
X4724500D01*
X4545453Y1869248D02*
X4582704Y1906500D01*
X4540063Y1869248D02*
X4545453D01*
X4724500Y1906500D02*
X4746500Y1928500D01*
X2457500Y1302069D02*
Y1434298D01*
Y1302069D02*
X2626236Y1133334D01*
X3554241D01*
X4950000Y2563500D02*
X5153500D01*
X4746500Y2690500D02*
X5153500D01*
X4746500Y2563500D02*
X4950000D01*
X3554241Y1133334D02*
X3696913Y1276006D01*
Y2929798D01*
X4190016Y3422901D01*
X4521058Y3325500D02*
X4746500D01*
X4423657Y3422901D02*
X4521058Y3325500D01*
X4190016Y3422901D02*
X4423657D01*
X4746500Y3579500D02*
X5153500D01*
X5382645D01*
D12*
X5343462Y3198500D02*
X5394580Y3249618D01*
X5153500Y3198500D02*
X5343462D01*
X3965000Y359619D02*
Y571040D01*
X3915381Y310000D02*
X3965000Y359619D01*
Y571040D02*
X4105195Y711236D01*
X3810000Y310000D02*
X3915381D01*
X4647000Y2430887D02*
Y2433500D01*
X4248516Y2400133D02*
X4616246D01*
X4647000Y2430887D01*
Y2433500D02*
X4743500D01*
X4746500Y2436500D01*
X4057635Y1180894D02*
X4105195Y1133334D01*
X4057635Y1180894D02*
Y2291761D01*
X4105195Y711236D02*
Y1133334D01*
D13*
X4290000Y610000D02*
D03*
D14*
X3810000Y890000D02*
D03*
Y310000D02*
D03*
D15*
X1716401Y1175268D02*
D03*
X1462401Y1429268D02*
D03*
X1716401Y1683268D02*
D03*
D16*
X700000Y700000D02*
D03*
X4800000D02*
D03*
D17*
X4057635Y2291761D02*
D03*
X4499920Y2202026D02*
D03*
X117355Y4607333D02*
D03*
Y4502333D02*
D03*
Y4397333D02*
D03*
Y4292333D02*
D03*
Y4187333D02*
D03*
X1975000Y4809263D02*
D03*
X2669121Y1439298D02*
D03*
X2197500Y1847748D02*
D03*
X4510000Y3587240D02*
D03*
X4640540Y4348895D02*
D03*
X4269491D02*
D03*
X4057635Y4710000D02*
D03*
X5056120Y4590000D02*
D03*
Y4110000D02*
D03*
X5247554Y4350000D02*
D03*
X4499920Y1982026D02*
D03*
X5394580Y3249618D02*
D03*
X1076361Y1859500D02*
D03*
X1161204D02*
D03*
X3214450Y2184700D02*
D03*
X3108639D02*
D03*
X3002828D02*
D03*
X3220328Y1773700D02*
D03*
X4169353Y2838306D02*
D03*
X550000Y3004500D02*
D03*
X2557298Y1096528D02*
D03*
X5067240Y1672607D02*
D03*
X4950000Y2563500D02*
D03*
X4248516Y2400133D02*
D03*
X4499920Y1494298D02*
D03*
X4369800Y3290320D02*
D03*
X5382645Y3579500D02*
D03*
X117355Y3355796D02*
D03*
Y3666565D02*
D03*
Y3560754D02*
D03*
Y3454944D02*
D03*
Y4082333D02*
D03*
Y3771565D02*
D03*
Y3877375D02*
D03*
Y3983186D02*
D03*
X517695Y4809263D02*
D03*
X411885D02*
D03*
X306074D02*
D03*
X622695D02*
D03*
X933463D02*
D03*
X827653D02*
D03*
X721842D02*
D03*
X1038464D02*
D03*
X1349232D02*
D03*
X1243421D02*
D03*
X1137611D02*
D03*
X1870000D02*
D03*
X1553379D02*
D03*
X1659189D02*
D03*
X1765000D02*
D03*
X1454232D02*
D03*
X3114518Y1773700D02*
D03*
X3008707D02*
D03*
X2897018D02*
D03*
Y2079838D02*
D03*
Y1978825D02*
D03*
Y1877812D02*
D03*
Y2184700D02*
D03*
X1935908Y1773700D02*
D03*
X2360566Y2184700D02*
D03*
X2360613Y2079209D02*
D03*
X2359713Y1765900D02*
D03*
X2360613Y1868399D02*
D03*
Y1974209D02*
D03*
X2671335Y2184700D02*
D03*
X2565524D02*
D03*
X2459713D02*
D03*
X2776335D02*
D03*
X2471402Y1765900D02*
D03*
X2577213D02*
D03*
X2683024D02*
D03*
X2776335Y1877812D02*
D03*
Y1978825D02*
D03*
Y2079838D02*
D03*
X4693834Y3898683D02*
D03*
X4562635Y4929882D02*
D03*
X1006991Y2134310D02*
D03*
X1091833Y2134500D02*
D03*
X1176676D02*
D03*
X1261518D02*
D03*
X2797018Y1765633D02*
D03*
X941961Y1160022D02*
D03*
X2457500Y1434298D02*
D03*
X974461Y1677500D02*
D03*
X4883887Y3815533D02*
D03*
%TF.MD5,23bf21c6456d50b297d8dcedf37492b5*%
M02*
