%TF.GenerationSoftware,Altium Limited,Altium Designer,25.8.1 (18)*%
G04 Layer_Color=65535*
%FSLAX45Y45*%
%MOMM*%
%TF.SameCoordinates,B6F1274E-FB7E-4E4A-BDD4-123872AD24DE*%
%TF.FilePolarity,Positive*%
%TF.FileFunction,Legend,Top*%
%TF.Part,Single*%
G01*
G75*
%TA.AperFunction,NonConductor*%
%ADD49C,0.20000*%
%ADD50C,0.15000*%
D49*
X378500Y1221500D02*
X721500D01*
X378500Y3778500D02*
X721500D01*
X4778500Y1221500D02*
X5121500D01*
X4778500Y3778500D02*
X5121500D01*
D50*
X3670045Y540824D02*
Y487508D01*
X3696703Y460850D01*
X3723361Y487508D01*
Y540824D01*
X3829994D02*
X3856652D01*
X3843323D01*
Y460850D01*
X3829994D01*
X3856652D01*
X3896639D02*
Y540824D01*
X3949955Y460850D01*
Y540824D01*
X4221736Y1420500D02*
X4275052D01*
X4248394Y1447158D02*
Y1393842D01*
X4301710Y1460487D02*
Y1380513D01*
Y1420500D01*
X4355026D01*
Y1460487D01*
Y1380513D01*
X4381684Y1460487D02*
Y1407171D01*
X4408342Y1380513D01*
X4435000Y1407171D01*
Y1460487D01*
X4075116Y2182500D02*
X4128432D01*
X4101774Y2209158D02*
Y2155842D01*
X4155090Y2142513D02*
X4181749D01*
X4168420D01*
Y2222487D01*
X4155090Y2209158D01*
X4221736D02*
X4235065Y2222487D01*
X4261723D01*
X4275052Y2209158D01*
Y2155842D01*
X4261723Y2142513D01*
X4235065D01*
X4221736Y2155842D01*
Y2209158D01*
X4301710D02*
X4315039Y2222487D01*
X4341697D01*
X4355026Y2209158D01*
Y2155842D01*
X4341697Y2142513D01*
X4315039D01*
X4301710Y2155842D01*
Y2209158D01*
X4381684Y2222487D02*
Y2169171D01*
X4408342Y2142513D01*
X4435000Y2169171D01*
Y2222487D01*
X4141762Y2944500D02*
X4195078D01*
X4168420Y2971158D02*
Y2917842D01*
X4221736Y2971158D02*
X4235065Y2984487D01*
X4261723D01*
X4275052Y2971158D01*
Y2957829D01*
X4261723Y2944500D01*
X4248394D01*
X4261723D01*
X4275052Y2931171D01*
Y2917842D01*
X4261723Y2904513D01*
X4235065D01*
X4221736Y2917842D01*
X4301710Y2984487D02*
Y2931171D01*
X4328368Y2904513D01*
X4355026Y2931171D01*
Y2984487D01*
X4381684Y2971158D02*
X4395013Y2984487D01*
X4421671D01*
X4435000Y2971158D01*
Y2957829D01*
X4421671Y2944500D01*
X4408342D01*
X4421671D01*
X4435000Y2931171D01*
Y2917842D01*
X4421671Y2904513D01*
X4395013D01*
X4381684Y2917842D01*
X4115104Y3619487D02*
X4061787D01*
Y3579500D01*
X4088445D01*
X4061787D01*
Y3539513D01*
X4141762D02*
Y3592829D01*
X4168420Y3619487D01*
X4195078Y3592829D01*
Y3539513D01*
Y3579500D01*
X4141762D01*
X4221736Y3619487D02*
Y3552842D01*
X4235065Y3539513D01*
X4261723D01*
X4275052Y3552842D01*
Y3619487D01*
X4301710D02*
Y3539513D01*
X4355026D01*
X4381684Y3619487D02*
X4435000D01*
X4408342D01*
Y3539513D01*
X4078316Y3353898D02*
X4064987Y3367227D01*
X4038329D01*
X4025000Y3353898D01*
Y3340569D01*
X4038329Y3327240D01*
X4064987D01*
X4078316Y3313911D01*
Y3300582D01*
X4064987Y3287253D01*
X4038329D01*
X4025000Y3300582D01*
X4104974Y3367227D02*
Y3287253D01*
Y3327240D01*
X4158290D01*
Y3367227D01*
Y3287253D01*
X4184948Y3367227D02*
Y3287253D01*
X4224935D01*
X4238264Y3300582D01*
Y3353898D01*
X4224935Y3367227D01*
X4184948D01*
X4264922Y3287253D02*
Y3367227D01*
X4318239Y3287253D01*
Y3367227D01*
X266745Y3879987D02*
X240087D01*
X253416D01*
Y3813342D01*
X240087Y3800013D01*
X226758D01*
X213429Y3813342D01*
X346719Y3800013D02*
X293403D01*
X346719Y3853329D01*
Y3866658D01*
X333390Y3879987D01*
X306732D01*
X293403Y3866658D01*
X5240000Y3879987D02*
X5213342D01*
X5226671D01*
Y3813342D01*
X5213342Y3800013D01*
X5200013D01*
X5186684Y3813342D01*
X5266658Y3800013D02*
X5293316D01*
X5279987D01*
Y3879987D01*
X5266658Y3866658D01*
%TF.MD5,2a12d871b4b6423a2d6cdd4381cb63ea*%
M02*
