%TF.GenerationSoftware,Altium Limited,Altium Designer,25.8.1 (18)*%
G04 Layer_Color=32768*
%FSLAX45Y45*%
%MOMM*%
%TF.SameCoordinates,B6F1274E-FB7E-4E4A-BDD4-123872AD24DE*%
%TF.FilePolarity,Positive*%
%TF.FileFunction,Other,Mechanical_15*%
%TF.Part,Single*%
G01*
G75*
%TA.AperFunction,NonConductor*%
%ADD52C,0.10000*%
%ADD95C,0.05000*%
D52*
X4992240Y1526601D02*
X5092240D01*
X5042240Y1476602D02*
Y1576602D01*
X550000Y2436500D02*
Y2500000D01*
Y2563500D01*
Y2500000D02*
X613500D01*
X486500D02*
X550000D01*
X4950000Y2436500D02*
Y2500000D01*
Y2563500D01*
Y2500000D02*
X5013500D01*
X4886500D02*
X4950000D01*
X429589Y3877333D02*
X529589D01*
X479589Y3827333D02*
Y3927333D01*
X4923620Y3354740D02*
Y3454740D01*
X4873620Y3404740D02*
X4973620D01*
X5203542Y3277240D02*
Y3372239D01*
X5156042Y3324740D02*
X5251042D01*
X4635424Y3472500D02*
Y3567500D01*
X4587924Y3520000D02*
X4682924D01*
X3760000Y945000D02*
X3860000D01*
X3810000Y895000D02*
Y995000D01*
X2282500Y1258529D02*
X2372500D01*
X2327500Y1213529D02*
Y1303529D01*
X617500Y3085149D02*
Y3185149D01*
X567500Y3135149D02*
X667500D01*
X4510000Y2490000D02*
Y2590000D01*
X4460000Y2540000D02*
X4560000D01*
X4499920Y1557748D02*
Y1657748D01*
X4449920Y1607748D02*
X4549920D01*
X3100000Y2219501D02*
Y2319501D01*
X3050000Y2269500D02*
X3150000D01*
X2570000Y2219501D02*
Y2319501D01*
X2520000Y2269500D02*
X2620000D01*
X4756120Y4300000D02*
Y4400000D01*
X4706120Y4350000D02*
X4806120D01*
X2352500Y946528D02*
Y1046529D01*
X2302500Y996528D02*
X2402500D01*
X1602501Y1391168D02*
Y1429268D01*
Y1467368D01*
X1564401Y1429268D02*
X1602501D01*
X1640601D01*
X5121120Y2286836D02*
Y2386836D01*
X5071120Y2336836D02*
X5171120D01*
X4369800Y3034428D02*
Y3134428D01*
X4319800Y3084428D02*
X4419800D01*
X1588408Y3807492D02*
Y3907492D01*
X1538408Y3857492D02*
X1638408D01*
X4898620Y2710806D02*
Y2810806D01*
X4848620Y2760806D02*
X4948620D01*
X1144461Y1110022D02*
Y1210022D01*
X1094461Y1160022D02*
X1194461D01*
X4338657Y2793306D02*
Y2883306D01*
X4293657Y2838306D02*
X4383657D01*
X4796300Y3011150D02*
Y3111150D01*
X4746300Y3061150D02*
X4846300D01*
X4968434Y3641130D02*
Y3731130D01*
X4923434Y3686130D02*
X5013434D01*
X4896304Y2119526D02*
Y2214526D01*
X4848804Y2167026D02*
X4943804D01*
X5117554Y2044500D02*
Y2134500D01*
X5072553Y2089500D02*
X5162554D01*
X4007635Y4356183D02*
X4107635D01*
X4057635Y4306183D02*
Y4406183D01*
X4485135Y3853683D02*
Y3943683D01*
X4440135Y3898683D02*
X4530135D01*
X4480135Y4763683D02*
Y4853683D01*
X4435135Y4808683D02*
X4525135D01*
X2884518Y1559298D02*
X2984518D01*
X2934518Y1509298D02*
Y1609298D01*
X2774121Y482853D02*
Y582854D01*
X2724121Y532854D02*
X2824121D01*
X2797018Y1016040D02*
X2897018D01*
X2847018Y966040D02*
Y1066040D01*
X1405908Y4450000D02*
X1505908D01*
X1455908Y4400000D02*
Y4500000D01*
X529586Y4450000D02*
X629586D01*
X579587Y4400000D02*
Y4500000D01*
X968464Y4450000D02*
X1068464D01*
X1018465Y4400000D02*
Y4500000D01*
X1820000Y4450000D02*
X1920000D01*
X1870000Y4400000D02*
Y4500000D01*
X477466Y3402500D02*
Y3502500D01*
X427466Y3452500D02*
X527466D01*
X2661322Y3365590D02*
Y3465590D01*
X2611322Y3415590D02*
X2711322D01*
X2154454Y2049640D02*
X2244454D01*
X2199454Y2004640D02*
Y2094640D01*
X991961Y1376585D02*
Y1476585D01*
X941961Y1426585D02*
X1041961D01*
X1605908Y2927500D02*
Y3027500D01*
X1555908Y2977500D02*
X1655908D01*
X1126518Y2084500D02*
Y2184500D01*
X1076519Y2134500D02*
X1176518D01*
X1695908Y2021001D02*
Y2121000D01*
X1645908Y2071000D02*
X1745908D01*
X1168408Y1632500D02*
Y1722500D01*
X1123408Y1677500D02*
X1213408D01*
D95*
X5402240Y1091602D02*
Y1961602D01*
X4682240Y1091602D02*
Y1961602D01*
Y1091602D02*
X5402240D01*
X4682240Y1961602D02*
X5402240D01*
X182000Y1205000D02*
X918000D01*
Y3795000D01*
X182000D02*
X918000D01*
X182000Y1205000D02*
Y3795000D01*
X4582000Y1205000D02*
X5318000D01*
Y3795000D01*
X4582000D02*
X5318000D01*
X4582000Y1205000D02*
Y3795000D01*
X784589Y3672333D02*
Y4082333D01*
X174589Y3672333D02*
Y4082333D01*
X784589D01*
X174589Y3672333D02*
X784589D01*
X4723620Y3224740D02*
X5123620D01*
X4723620Y3584740D02*
X5123620D01*
X4723620Y3224740D02*
Y3584740D01*
X5123620Y3224740D02*
Y3584740D01*
X5128542Y3174739D02*
X5278542D01*
X5128542Y3474740D02*
X5278542D01*
Y3174739D02*
Y3474740D01*
X5128542Y3174739D02*
Y3474740D01*
X4560424Y3655000D02*
X4710424D01*
X4560424Y3385000D02*
X4710424D01*
X4560424D02*
Y3655000D01*
X4710424Y3385000D02*
Y3655000D01*
X4400000Y200000D02*
Y1690000D01*
X3340000Y200000D02*
X4400000D01*
X3340000D02*
Y1690000D01*
X4400000D01*
X2197500Y1188529D02*
Y1328529D01*
X2457500Y1188529D02*
Y1328529D01*
X2197500Y1188529D02*
X2457500D01*
X2197500Y1328529D02*
X2457500D01*
X447500Y3040149D02*
X787500D01*
X447500Y3230149D02*
X787500D01*
X447500Y3040149D02*
Y3230149D01*
X787500Y3040149D02*
Y3230149D01*
X4345500Y2403000D02*
X4772500D01*
Y2677000D01*
X4345500D02*
X4772500D01*
X4345500Y2403000D02*
Y2677000D01*
X4772500D01*
Y2403000D02*
Y2677000D01*
X4345500Y2403000D02*
Y2677000D01*
Y2403000D02*
X4772500D01*
X4339920Y1282748D02*
X4659920D01*
X4339920Y1932748D02*
X4659920D01*
Y1282748D02*
Y1932748D01*
X4339920Y1282748D02*
Y1932748D01*
X2850000Y2719501D02*
X3350000D01*
X2850000Y1819501D02*
X3350000D01*
X2850000D02*
Y2719501D01*
X3350000Y1819501D02*
Y2719501D01*
X2320000D02*
X2820000D01*
X2320000Y1819501D02*
X2820000D01*
X2320000D02*
Y2719501D01*
X2820000Y1819501D02*
Y2719501D01*
X4321120Y4710000D02*
X5191120D01*
X4321120Y3990000D02*
X5191120D01*
Y4710000D01*
X4321120Y3990000D02*
Y4710000D01*
X2196500Y1151528D02*
X2508500D01*
X2196500Y841528D02*
X2508500D01*
X2196500D02*
Y1151528D01*
X2508500Y841528D02*
Y1151528D01*
X1387401Y1111768D02*
Y1746768D01*
X1818401D01*
Y1111768D02*
Y1746768D01*
X1387401Y1111768D02*
X1818401D01*
X5011120Y2186836D02*
X5231120D01*
X5011120Y2486836D02*
X5231120D01*
Y2186836D02*
Y2486836D01*
X5011120Y2186836D02*
Y2486836D01*
X4274800Y2914428D02*
X4464800D01*
X4274800Y3254428D02*
X4464800D01*
Y2914428D02*
Y3254428D01*
X4274800Y2914428D02*
Y3254428D01*
X1283408Y4082492D02*
X1893408D01*
X1283408Y3632492D02*
X1893408D01*
Y4082492D01*
X1283408Y3632492D02*
Y4082492D01*
X4673620Y2645806D02*
X5123620D01*
X4673620Y2875806D02*
X5123620D01*
X4673620Y2645806D02*
Y2875806D01*
X5123620Y2645806D02*
Y2875806D01*
X974461Y1255022D02*
X1314461D01*
X974461Y1065022D02*
X1314461D01*
Y1255022D01*
X974461Y1065022D02*
Y1255022D01*
X4208657Y2908306D02*
X4468657D01*
X4208657Y2768306D02*
X4468657D01*
Y2908306D01*
X4208657Y2768306D02*
Y2908306D01*
X4471300Y3221150D02*
X5121300D01*
X4471300Y2901150D02*
X5121300D01*
Y3221150D01*
X4471300Y2901150D02*
Y3221150D01*
X4818434Y3611130D02*
X5118434D01*
X4818434Y3761130D02*
X5118434D01*
X4818434Y3611130D02*
Y3761130D01*
X5118434Y3611130D02*
Y3761130D01*
X4821304Y2317026D02*
X4971303D01*
X4821304Y2017026D02*
X4971303D01*
X4821304D02*
Y2317026D01*
X4971303Y2017026D02*
Y2317026D01*
X4987554Y2159500D02*
X5247554D01*
X4987554Y2019500D02*
X5247554D01*
Y2159500D01*
X4987554Y2019500D02*
Y2159500D01*
X4282635Y4051183D02*
Y4661183D01*
X3832635Y4051183D02*
Y4661183D01*
Y4051183D02*
X4282635D01*
X3832635Y4661183D02*
X4282635D01*
X4335135Y3973683D02*
X4635135D01*
X4335135Y3823683D02*
X4635135D01*
Y3973683D01*
X4335135Y3823683D02*
Y3973683D01*
X4330135Y4883683D02*
X4630135D01*
X4330135Y4733683D02*
X4630135D01*
Y4883683D01*
X4330135Y4733683D02*
Y4883683D01*
X2714518Y1399298D02*
Y1719298D01*
X3154518Y1399298D02*
Y1719298D01*
X2714518Y1399298D02*
X3154518D01*
X2714518Y1719298D02*
X3154518D01*
X2604121Y627853D02*
X2944121D01*
X2604121Y437854D02*
X2944121D01*
Y627853D01*
X2604121Y437854D02*
Y627853D01*
X2587018Y656040D02*
Y1376040D01*
X3107018Y656040D02*
Y1376040D01*
X2587018D02*
X3107018D01*
X2587018Y656040D02*
X3107018D01*
X1250908Y4145000D02*
Y4755000D01*
X1660908Y4145000D02*
Y4755000D01*
X1250908D02*
X1660908D01*
X1250908Y4145000D02*
X1660908D01*
X374587Y4145000D02*
Y4755000D01*
X784586Y4145000D02*
Y4755000D01*
X374587D02*
X784586D01*
X374587Y4145000D02*
X784586D01*
X813464D02*
Y4755000D01*
X1223464Y4145000D02*
Y4755000D01*
X813464D02*
X1223464D01*
X813464Y4145000D02*
X1223464D01*
X1665000Y4145000D02*
Y4755000D01*
X2075000Y4145000D02*
Y4755000D01*
X1665000D02*
X2075000D01*
X1665000Y4145000D02*
X2075000D01*
X172466Y3247500D02*
X782466D01*
X172466Y3657500D02*
X782466D01*
X172466Y3247500D02*
Y3657500D01*
X782466Y3247500D02*
Y3657500D01*
X3301322Y2780598D02*
Y4050598D01*
X2021338Y2780598D02*
X3301322D01*
X2021338D02*
Y4050598D01*
X3301322D01*
X2274454Y1899640D02*
Y2199640D01*
X2124454Y1899640D02*
Y2199640D01*
Y1899640D02*
X2274454D01*
X2124454Y2199640D02*
X2274454D01*
X666961Y1266585D02*
X1316961D01*
X666961Y1586585D02*
X1316961D01*
X666961Y1266585D02*
Y1586585D01*
X1316961Y1266585D02*
Y1586585D01*
X1250908Y2412500D02*
X1960908D01*
X1250908Y3542500D02*
X1960908D01*
Y2412500D02*
Y3542500D01*
X1250908Y2412500D02*
Y3542500D01*
X966519Y1914500D02*
X1286518D01*
X966519Y2354500D02*
X1286518D01*
Y1914500D02*
Y2354500D01*
X966519Y1914500D02*
Y2354500D01*
X1320908Y1796000D02*
X2070908D01*
X1320908Y2346000D02*
X2070908D01*
X1320908Y1796000D02*
Y2346000D01*
X2070908Y1796000D02*
Y2346000D01*
X1018408Y1602500D02*
X1318408D01*
X1018408Y1752500D02*
X1318408D01*
X1018408Y1602500D02*
Y1752500D01*
X1318408Y1602500D02*
Y1752500D01*
%TF.MD5,9f056e983172db2fb2095038d62a99a0*%
M02*
