%TF.GenerationSoftware,Altium Limited,Altium Designer,25.1.2 (22)*%
G04 Layer_Physical_Order=1*
G04 Layer_Color=255*
%FSLAX45Y45*%
%MOMM*%
%TF.SameCoordinates,BF30D0C4-2389-474D-B6D4-4450DCB69705*%
%TF.FilePolarity,Positive*%
%TF.FileFunction,Copper,L1,Top,Signal*%
%TF.Part,Single*%
G01*
G75*
%TA.AperFunction,Conductor*%
%ADD10C,0.50000*%
%TA.AperFunction,SMDPad,CuDef*%
%ADD11R,1.40000X0.90000*%
%TA.AperFunction,Conductor*%
%ADD12C,0.30000*%
%ADD13C,0.20000*%
%TA.AperFunction,ComponentPad*%
G04:AMPARAMS|DCode=14|XSize=1.6mm|YSize=2.4mm|CornerRadius=0mm|HoleSize=0mm|Usage=FLASHONLY|Rotation=242.304|XOffset=0mm|YOffset=0mm|HoleType=Round|Shape=Round|*
%AMOVALD14*
21,1,0.80000,1.60000,0.00000,0.00000,332.304*
1,1,1.60000,-0.35417,0.18591*
1,1,1.60000,0.35417,-0.18591*
%
%ADD14OVALD14*%

G04:AMPARAMS|DCode=15|XSize=1.6mm|YSize=2.4mm|CornerRadius=0mm|HoleSize=0mm|Usage=FLASHONLY|Rotation=214.612|XOffset=0mm|YOffset=0mm|HoleType=Round|Shape=Round|*
%AMOVALD15*
21,1,0.80000,1.60000,0.00000,0.00000,304.612*
1,1,1.60000,-0.22721,0.32921*
1,1,1.60000,0.22721,-0.32921*
%
%ADD15OVALD15*%

G04:AMPARAMS|DCode=16|XSize=1.6mm|YSize=2.4mm|CornerRadius=0mm|HoleSize=0mm|Usage=FLASHONLY|Rotation=186.920|XOffset=0mm|YOffset=0mm|HoleType=Round|Shape=Round|*
%AMOVALD16*
21,1,0.80000,1.60000,0.00000,0.00000,276.92*
1,1,1.60000,-0.04819,0.39709*
1,1,1.60000,0.04819,-0.39709*
%
%ADD16OVALD16*%

G04:AMPARAMS|DCode=17|XSize=1.6mm|YSize=2.4mm|CornerRadius=0mm|HoleSize=0mm|Usage=FLASHONLY|Rotation=159.228|XOffset=0mm|YOffset=0mm|HoleType=Round|Shape=Round|*
%AMOVALD17*
21,1,0.80000,1.60000,0.00000,0.00000,249.228*
1,1,1.60000,0.14186,0.37400*
1,1,1.60000,-0.14186,-0.37400*
%
%ADD17OVALD17*%

G04:AMPARAMS|DCode=18|XSize=1.6mm|YSize=2.4mm|CornerRadius=0mm|HoleSize=0mm|Usage=FLASHONLY|Rotation=131.536|XOffset=0mm|YOffset=0mm|HoleType=Round|Shape=Round|*
%AMOVALD18*
21,1,0.80000,1.60000,0.00000,0.00000,221.536*
1,1,1.60000,0.29942,0.26523*
1,1,1.60000,-0.29942,-0.26523*
%
%ADD18OVALD18*%

G04:AMPARAMS|DCode=19|XSize=1.6mm|YSize=2.4mm|CornerRadius=0mm|HoleSize=0mm|Usage=FLASHONLY|Rotation=103.844|XOffset=0mm|YOffset=0mm|HoleType=Round|Shape=Round|*
%AMOVALD19*
21,1,0.80000,1.60000,0.00000,0.00000,193.844*
1,1,1.60000,0.38838,0.09571*
1,1,1.60000,-0.38838,-0.09571*
%
%ADD19OVALD19*%

G04:AMPARAMS|DCode=20|XSize=1.6mm|YSize=2.4mm|CornerRadius=0mm|HoleSize=0mm|Usage=FLASHONLY|Rotation=76.152|XOffset=0mm|YOffset=0mm|HoleType=Round|Shape=Round|*
%AMOVALD20*
21,1,0.80000,1.60000,0.00000,0.00000,166.152*
1,1,1.60000,0.38837,-0.09574*
1,1,1.60000,-0.38837,0.09574*
%
%ADD20OVALD20*%

G04:AMPARAMS|DCode=21|XSize=1.6mm|YSize=2.4mm|CornerRadius=0mm|HoleSize=0mm|Usage=FLASHONLY|Rotation=48.460|XOffset=0mm|YOffset=0mm|HoleType=Round|Shape=Round|*
%AMOVALD21*
21,1,0.80000,1.60000,0.00000,0.00000,138.46*
1,1,1.60000,0.29940,-0.26526*
1,1,1.60000,-0.29940,0.26526*
%
%ADD21OVALD21*%

G04:AMPARAMS|DCode=22|XSize=1.6mm|YSize=2.4mm|CornerRadius=0mm|HoleSize=0mm|Usage=FLASHONLY|Rotation=20.768|XOffset=0mm|YOffset=0mm|HoleType=Round|Shape=Round|*
%AMOVALD22*
21,1,0.80000,1.60000,0.00000,0.00000,110.768*
1,1,1.60000,0.14183,-0.37401*
1,1,1.60000,-0.14183,0.37401*
%
%ADD22OVALD22*%

G04:AMPARAMS|DCode=23|XSize=1.6mm|YSize=2.4mm|CornerRadius=0mm|HoleSize=0mm|Usage=FLASHONLY|Rotation=353.076|XOffset=0mm|YOffset=0mm|HoleType=Round|Shape=Round|*
%AMOVALD23*
21,1,0.80000,1.60000,0.00000,0.00000,83.076*
1,1,1.60000,-0.04822,-0.39708*
1,1,1.60000,0.04822,0.39708*
%
%ADD23OVALD23*%

G04:AMPARAMS|DCode=24|XSize=1.6mm|YSize=2.4mm|CornerRadius=0mm|HoleSize=0mm|Usage=FLASHONLY|Rotation=325.384|XOffset=0mm|YOffset=0mm|HoleType=Round|Shape=Round|*
%AMOVALD24*
21,1,0.80000,1.60000,0.00000,0.00000,55.384*
1,1,1.60000,-0.22723,-0.32919*
1,1,1.60000,0.22723,0.32919*
%
%ADD24OVALD24*%

G04:AMPARAMS|DCode=25|XSize=1.6mm|YSize=2.4mm|CornerRadius=0mm|HoleSize=0mm|Usage=FLASHONLY|Rotation=297.692|XOffset=0mm|YOffset=0mm|HoleType=Round|Shape=Round|*
%AMOVALD25*
21,1,0.80000,1.60000,0.00000,0.00000,27.692*
1,1,1.60000,-0.35418,-0.18589*
1,1,1.60000,0.35418,0.18589*
%
%ADD25OVALD25*%

%ADD26O,2.40000X1.60000*%
%ADD27C,1.02000*%
%TA.AperFunction,ViaPad*%
%ADD28C,4.00000*%
%TA.AperFunction,WasherPad*%
%ADD29C,8.00000*%
%TA.AperFunction,ViaPad*%
%ADD30C,0.60000*%
G36*
X4547150Y18059187D02*
X4640940Y18049950D01*
X4733372Y18031564D01*
X4823555Y18004208D01*
X4910624Y17968143D01*
X4993740Y17923717D01*
X5072098Y17871358D01*
X5144948Y17811572D01*
X5211590Y17744931D01*
X5271375Y17672083D01*
X5323733Y17593723D01*
X5368160Y17510606D01*
X5404225Y17423538D01*
X5431581Y17333354D01*
X5449968Y17240923D01*
X5459205Y17147133D01*
X5459205Y17100014D01*
X5459205Y999987D01*
Y952865D01*
X5449967Y859072D01*
X5431581Y766637D01*
X5404223Y676449D01*
X5368157Y589378D01*
X5323729Y506259D01*
X5271369Y427898D01*
X5211581Y355045D01*
X5144936Y288400D01*
X5072086Y228614D01*
X4993723Y176254D01*
X4910604Y131825D01*
X4823532Y95759D01*
X4733346Y68401D01*
X4640910Y50015D01*
X4547118Y40777D01*
X952880D01*
X859086Y50015D01*
X766648Y68402D01*
X676461Y95760D01*
X589384Y131829D01*
X506268Y176256D01*
X427904Y228617D01*
X355049Y288407D01*
X288407Y355049D01*
X228616Y427905D01*
X176255Y506267D01*
X131827Y589388D01*
X95760Y676462D01*
X68402Y766649D01*
X50015Y859086D01*
X40777Y952881D01*
X40777Y1000004D01*
Y6516189D01*
X60000Y6518065D01*
X69134Y6496013D01*
X86013Y6479134D01*
X108065Y6470000D01*
X115835D01*
X130000Y6451935D01*
Y6428065D01*
X139134Y6406013D01*
X156013Y6389135D01*
X178065Y6380000D01*
X201935D01*
X223987Y6389135D01*
X240865Y6406013D01*
X250000Y6428065D01*
Y6451935D01*
X240865Y6473987D01*
X239784Y6475069D01*
X237131Y6485767D01*
Y12222694D01*
X248066Y12230000D01*
X271935D01*
X293987Y12239135D01*
X298314Y12243461D01*
X308748Y12246582D01*
X480213D01*
X490000Y12231934D01*
Y12208065D01*
X499134Y12186013D01*
X501254Y12183893D01*
X504118Y12173126D01*
Y12100000D01*
X507611Y12082442D01*
X517557Y12067557D01*
X620754Y11964359D01*
X613101Y11945882D01*
X560000D01*
X542442Y11942389D01*
X527557Y11932443D01*
X504840Y11909727D01*
X481744Y11914915D01*
X477228Y11925818D01*
X460350Y11942697D01*
X438297Y11951831D01*
X414428D01*
X392375Y11942697D01*
X380390Y11930711D01*
X367817Y11943284D01*
X345765Y11952418D01*
X321895D01*
X299843Y11943284D01*
X282965Y11926406D01*
X273830Y11904353D01*
Y11880484D01*
X282965Y11858431D01*
X285085Y11856311D01*
X287949Y11845544D01*
Y8130046D01*
X285439Y8115066D01*
X280000Y8101935D01*
Y8078065D01*
X289135Y8056013D01*
X306013Y8039135D01*
X328065Y8030000D01*
X351935D01*
X373987Y8039135D01*
X393923Y8030786D01*
Y7738207D01*
X391291Y7728312D01*
X384771Y7717019D01*
X380000Y7699216D01*
Y7680784D01*
X384771Y7662981D01*
X391291Y7651688D01*
X393923Y7641793D01*
Y7018207D01*
X391291Y7008312D01*
X384771Y6997019D01*
X380000Y6979216D01*
Y6960784D01*
X384771Y6942981D01*
X391291Y6931688D01*
X393923Y6921793D01*
Y6398207D01*
X391291Y6388312D01*
X384771Y6377019D01*
X380000Y6359216D01*
Y6340784D01*
X384771Y6322981D01*
X393986Y6307019D01*
X407019Y6293986D01*
X422981Y6284771D01*
X440784Y6280000D01*
X459216D01*
X477019Y6284771D01*
X492981Y6293986D01*
X506014Y6307019D01*
X515230Y6322981D01*
X520000Y6340784D01*
Y6359216D01*
X515230Y6377019D01*
X508709Y6388312D01*
X506077Y6398207D01*
Y6921793D01*
X508709Y6931688D01*
X515230Y6942981D01*
X520000Y6960784D01*
Y6979216D01*
X515230Y6997019D01*
X508709Y7008312D01*
X506077Y7018207D01*
Y7641793D01*
X508709Y7651688D01*
X515230Y7662981D01*
X520000Y7680784D01*
Y7699216D01*
X515230Y7717019D01*
X508709Y7728312D01*
X506077Y7738207D01*
Y8371793D01*
X508709Y8381688D01*
X515230Y8392981D01*
X520000Y8410784D01*
Y8429216D01*
X515230Y8447019D01*
X508709Y8458312D01*
X506077Y8468207D01*
Y9111793D01*
X508709Y9121688D01*
X515230Y9132981D01*
X520000Y9150784D01*
Y9169216D01*
X515230Y9187019D01*
X508709Y9198312D01*
X506077Y9208207D01*
Y9290831D01*
X559653Y9344406D01*
X571809Y9362599D01*
X576077Y9384059D01*
Y9821793D01*
X578709Y9831688D01*
X585229Y9842981D01*
X590000Y9860784D01*
Y9879216D01*
X585229Y9897019D01*
X576014Y9912981D01*
X562981Y9926014D01*
X547019Y9935230D01*
X529216Y9940000D01*
X510784D01*
X492981Y9935230D01*
X492244Y9934804D01*
X472244Y9946351D01*
Y10716772D01*
X492244Y10726553D01*
X508065Y10720000D01*
X531935D01*
X553987Y10729134D01*
X570866Y10746013D01*
X580000Y10768065D01*
Y10791935D01*
X570866Y10813987D01*
X568746Y10816107D01*
X565882Y10826874D01*
Y11081882D01*
X562389Y11099440D01*
X560000Y11103016D01*
Y11121935D01*
X550866Y11143987D01*
X533987Y11160865D01*
X511935Y11170000D01*
X488066D01*
X472244Y11180571D01*
Y11419429D01*
X483806Y11427154D01*
X492244Y11429315D01*
X500702Y11424411D01*
X527557Y11397557D01*
X542442Y11387611D01*
X560000Y11384118D01*
X1223126D01*
X1233893Y11381254D01*
X1236013Y11379134D01*
X1258065Y11370000D01*
X1281935D01*
X1303987Y11379134D01*
X1320866Y11396013D01*
X1330000Y11418065D01*
Y11441934D01*
X1338014Y11453929D01*
X1373126D01*
X1383893Y11451065D01*
X1386013Y11448945D01*
X1389214Y11447619D01*
X1393116Y11428003D01*
X822453Y10857339D01*
X812507Y10842455D01*
X809015Y10824896D01*
Y10821978D01*
X806151Y10811211D01*
X804031Y10809091D01*
X794896Y10787038D01*
Y10763169D01*
X804031Y10741116D01*
X820909Y10724238D01*
X831099Y10720017D01*
X836731Y10696626D01*
X836203Y10695716D01*
X740347Y10599860D01*
X728191Y10581668D01*
X723923Y10560208D01*
Y8158207D01*
X721291Y8148312D01*
X714770Y8137019D01*
X710000Y8119216D01*
Y8100784D01*
X714770Y8082981D01*
X721291Y8071688D01*
X723923Y8061793D01*
Y7220000D01*
X728191Y7198540D01*
X740347Y7180347D01*
X1036260Y6884435D01*
X1041395Y6875577D01*
X1044771Y6862981D01*
X1051291Y6851688D01*
X1053923Y6841793D01*
Y5018207D01*
X1051291Y5008312D01*
X1044771Y4997019D01*
X1040000Y4979216D01*
Y4960784D01*
X1044771Y4942981D01*
X1051291Y4931688D01*
X1053923Y4921793D01*
Y2498207D01*
X1051291Y2488312D01*
X1044771Y2477019D01*
X1040000Y2459216D01*
Y2440784D01*
X1044771Y2422981D01*
X1053986Y2407019D01*
X1067019Y2393986D01*
X1082981Y2384770D01*
X1100784Y2380000D01*
X1119216D01*
X1137019Y2384770D01*
X1152981Y2393986D01*
X1166014Y2407019D01*
X1175230Y2422981D01*
X1180000Y2440784D01*
Y2459216D01*
X1175230Y2477019D01*
X1168709Y2488312D01*
X1166077Y2498207D01*
Y4921793D01*
X1168709Y4931688D01*
X1175230Y4942981D01*
X1180000Y4960784D01*
Y4979216D01*
X1175230Y4997019D01*
X1168709Y5008312D01*
X1166077Y5018207D01*
Y6841793D01*
X1168709Y6851688D01*
X1173107Y6859304D01*
X1194314Y6866380D01*
X1263923Y6796772D01*
Y3318207D01*
X1261291Y3308312D01*
X1254770Y3297019D01*
X1250000Y3279216D01*
Y3260784D01*
X1254770Y3242981D01*
X1261291Y3231688D01*
X1263923Y3221793D01*
Y788207D01*
X1261291Y778312D01*
X1254770Y767019D01*
X1250000Y749216D01*
Y730784D01*
X1254770Y712981D01*
X1263986Y697019D01*
X1277019Y683986D01*
X1292981Y674771D01*
X1310784Y670000D01*
X1329216D01*
X1333922Y671261D01*
X1351085Y660059D01*
X1353445Y656411D01*
X1351291Y648312D01*
X1344770Y637019D01*
X1340000Y619216D01*
Y600784D01*
X1344770Y582981D01*
X1353986Y567019D01*
X1367019Y553986D01*
X1382981Y544771D01*
X1400784Y540000D01*
X1419216D01*
X1437019Y544771D01*
X1452981Y553986D01*
X1466014Y567019D01*
X1475229Y582981D01*
X1480000Y600784D01*
Y619216D01*
X1475229Y637019D01*
X1468709Y648312D01*
X1466077Y658207D01*
Y3121793D01*
X1468709Y3131688D01*
X1475229Y3142981D01*
X1480000Y3160784D01*
Y3179216D01*
X1475229Y3197019D01*
X1468709Y3208312D01*
X1466077Y3218207D01*
Y6189037D01*
X1482707Y6200148D01*
X1483065Y6200000D01*
X1506935D01*
X1524118Y6207118D01*
X1544119Y6198135D01*
Y3091109D01*
X1547611Y3073551D01*
X1557557Y3058666D01*
X1560000Y3056223D01*
Y3048065D01*
X1569135Y3026013D01*
X1586013Y3009134D01*
X1608065Y3000000D01*
X1631935D01*
X1653987Y3009134D01*
X1670866Y3026013D01*
X1680000Y3048065D01*
Y3071935D01*
X1670866Y3093987D01*
X1653987Y3110866D01*
X1635882Y3118365D01*
Y3343339D01*
X1655882Y3351145D01*
X1667240Y3339787D01*
X1689293Y3330652D01*
X1713162D01*
X1735215Y3339787D01*
X1752093Y3356665D01*
X1761227Y3378717D01*
Y3381715D01*
X1766816Y3391354D01*
X1788923Y3413461D01*
X1808923Y3405177D01*
Y1833117D01*
X1813192Y1811658D01*
X1825348Y1793465D01*
X1834754Y1784059D01*
X1800347Y1749653D01*
X1788191Y1731460D01*
X1783923Y1710000D01*
Y561882D01*
X1788191Y540422D01*
X1800347Y522230D01*
X1846912Y475664D01*
X1854126Y465386D01*
X1854770Y462981D01*
X1863986Y447019D01*
X1877019Y433986D01*
X1892981Y424771D01*
X1910784Y420000D01*
X1929216D01*
X1947019Y424771D01*
X1962981Y433986D01*
X1976014Y447019D01*
X1985229Y462981D01*
X1990000Y480784D01*
Y499216D01*
X1985229Y517019D01*
X1976014Y532981D01*
X1962981Y546014D01*
X1947019Y555230D01*
X1929216Y560000D01*
X1923856D01*
X1918569Y562619D01*
X1896077Y585110D01*
Y800786D01*
X1916013Y809135D01*
X1938065Y800000D01*
X1961935D01*
X1983987Y809135D01*
X2000865Y826013D01*
X2010000Y848065D01*
Y871935D01*
X2000865Y893987D01*
X1983987Y910866D01*
X1969989Y916664D01*
X1965882Y919547D01*
Y1600995D01*
X2036598Y1671711D01*
X2046544Y1686596D01*
X2050036Y1704155D01*
Y1834337D01*
X2046544Y1851896D01*
X2036598Y1866781D01*
X2000882Y1902497D01*
Y3932231D01*
X2020882Y3939020D01*
X2024415Y3934415D01*
X2049482Y3915180D01*
X2078674Y3903089D01*
X2110000Y3898965D01*
X2190000D01*
X2221327Y3903089D01*
X2250518Y3915180D01*
X2275585Y3934415D01*
X2294820Y3959482D01*
X2306911Y3988674D01*
X2311036Y4020000D01*
X2306911Y4051326D01*
X2294820Y4080518D01*
X2275585Y4105585D01*
X2250518Y4124820D01*
X2221327Y4136911D01*
X2190000Y4141035D01*
X2110000D01*
X2078674Y4136911D01*
X2049482Y4124820D01*
X2024415Y4105585D01*
X2020882Y4100980D01*
X2000882Y4107770D01*
Y4154176D01*
X2059861Y4213155D01*
X2069807Y4228040D01*
X2073299Y4245598D01*
Y4248021D01*
X2073838Y4248358D01*
X2093299Y4253669D01*
X2108092Y4235917D01*
X2131761Y4219223D01*
X2202595Y4182040D01*
X2229778Y4172041D01*
X2258622Y4169418D01*
X2287163Y4174350D01*
X2313454Y4186501D01*
X2335705Y4205042D01*
X2352399Y4228711D01*
X2362398Y4255893D01*
X2363727Y4270505D01*
X2364218Y4271468D01*
X2384209Y4285270D01*
X2390000Y4284118D01*
X2603101D01*
X2610754Y4265641D01*
X2540059Y4194946D01*
X2530113Y4180061D01*
X2526621Y4162502D01*
Y3662212D01*
X2506621Y3653332D01*
X2500636Y3658742D01*
X2472512Y3673144D01*
X2441619Y3679776D01*
X2410063Y3678186D01*
X2379993Y3668483D01*
X2353459Y3651328D01*
X2332269Y3627890D01*
X2286823Y3562052D01*
X2272422Y3533928D01*
X2265790Y3503035D01*
X2267380Y3471479D01*
X2277083Y3441409D01*
X2294238Y3414875D01*
X2317676Y3393685D01*
X2345799Y3379284D01*
X2376692Y3372652D01*
X2408249Y3374242D01*
X2438318Y3383945D01*
X2444119Y3387695D01*
X2464119Y3376809D01*
Y2163241D01*
X2444119Y2152357D01*
X2438363Y2156078D01*
X2408294Y2165783D01*
X2376738Y2167375D01*
X2345845Y2160745D01*
X2317720Y2146346D01*
X2294280Y2125158D01*
X2277123Y2098625D01*
X2267419Y2068556D01*
X2265827Y2036999D01*
X2272456Y2006106D01*
X2286856Y1977982D01*
X2332297Y1912140D01*
X2353486Y1888701D01*
X2380018Y1871543D01*
X2410087Y1861839D01*
X2441644Y1860246D01*
X2472537Y1866876D01*
X2500661Y1881276D01*
X2519615Y1898409D01*
X2526792Y1902068D01*
X2545849Y1899264D01*
X2644412Y1800702D01*
X2650000Y1791063D01*
Y1788065D01*
X2659134Y1766013D01*
X2676013Y1749134D01*
X2698065Y1740000D01*
X2721935D01*
X2743987Y1749134D01*
X2760865Y1766013D01*
X2770000Y1788065D01*
Y1792410D01*
X2790000Y1800695D01*
X2863923Y1726772D01*
Y1706733D01*
X2850000Y1692500D01*
X2650000D01*
Y1542500D01*
X2850000D01*
Y1561423D01*
X2877500D01*
X2898960Y1565692D01*
X2917153Y1577847D01*
X2959653Y1620347D01*
X2971809Y1638540D01*
X2976077Y1660000D01*
Y1750000D01*
X2971809Y1771460D01*
X2959653Y1789653D01*
X2855044Y1894262D01*
Y1941654D01*
X2873404Y1949585D01*
X2877852Y1945397D01*
X2905679Y1930431D01*
X2936432Y1923178D01*
X2968014Y1924130D01*
X2998274Y1933225D01*
X3025148Y1949841D01*
X3046806Y1972847D01*
X3061772Y2000674D01*
X3090145Y2075474D01*
X3097398Y2106227D01*
X3096446Y2137809D01*
X3087351Y2168069D01*
X3070735Y2194943D01*
X3047729Y2216601D01*
X3019902Y2231568D01*
X2989149Y2238821D01*
X2957567Y2237869D01*
X2927308Y2228774D01*
X2916077Y2221830D01*
X2896077Y2232979D01*
Y2798595D01*
X2900000Y2808065D01*
Y2831935D01*
X2890865Y2853987D01*
X2873987Y2870865D01*
X2851935Y2880000D01*
X2828065D01*
X2806013Y2870865D01*
X2789134Y2853987D01*
X2780000Y2831935D01*
Y2808065D01*
X2783923Y2798595D01*
Y2242061D01*
X2763923Y2233895D01*
X2747541Y2250611D01*
X2720339Y2266686D01*
X2689904Y2275172D01*
X2658309Y2275492D01*
X2627707Y2267623D01*
X2600186Y2252103D01*
X2577618Y2229988D01*
X2575882Y2227049D01*
X2555882Y2232517D01*
Y3307411D01*
X2575882Y3312879D01*
X2577568Y3310025D01*
X2600133Y3287908D01*
X2627654Y3272386D01*
X2658255Y3264515D01*
X2689850Y3264833D01*
X2720286Y3273317D01*
X2747489Y3289390D01*
X2769606Y3311955D01*
X2785128Y3339476D01*
X2792998Y3370077D01*
X2802643Y3449493D01*
X2802325Y3481089D01*
X2793841Y3511525D01*
X2777768Y3538728D01*
X2764980Y3551261D01*
X2764854Y3552039D01*
X2770721Y3573639D01*
X2783987Y3579135D01*
X2800866Y3596013D01*
X2810000Y3618065D01*
Y3641935D01*
X2800866Y3663987D01*
X2798746Y3666107D01*
X2795882Y3676874D01*
Y3847367D01*
X2849272D01*
Y3997367D01*
X2649273D01*
Y3847367D01*
X2704119D01*
Y3676874D01*
X2701254Y3666107D01*
X2699135Y3663987D01*
X2690000Y3641935D01*
Y3618065D01*
X2695733Y3604225D01*
X2685512Y3585249D01*
X2684066Y3584106D01*
X2665486Y3583920D01*
X2638384Y3576365D01*
X2618384Y3585851D01*
Y4142189D01*
X2631015Y4152461D01*
X2649273Y4144544D01*
Y4042368D01*
X2849272D01*
Y4061290D01*
X2877367D01*
X2898827Y4065559D01*
X2917020Y4077715D01*
X2959653Y4120347D01*
X2971809Y4138540D01*
X2976077Y4160000D01*
Y4270000D01*
X2971809Y4291460D01*
X2959653Y4309653D01*
X2839653Y4429653D01*
X2821460Y4441809D01*
X2800000Y4446077D01*
X2736408D01*
X2732044Y4466077D01*
X2755236Y4479156D01*
X2777803Y4501271D01*
X2793878Y4528473D01*
X2802364Y4558908D01*
X2802684Y4590503D01*
X2793045Y4669921D01*
X2785177Y4700522D01*
X2769656Y4728044D01*
X2747541Y4750611D01*
X2720339Y4766686D01*
X2689904Y4775172D01*
X2658309Y4775492D01*
X2627707Y4767623D01*
X2600186Y4752103D01*
X2577618Y4729988D01*
X2572247Y4720899D01*
X2552247Y4726366D01*
Y4866777D01*
X2555121Y4873714D01*
Y4897584D01*
X2545986Y4919636D01*
X2529108Y4936515D01*
X2507055Y4945649D01*
X2483186D01*
X2461134Y4936515D01*
X2444255Y4919636D01*
X2435121Y4897584D01*
Y4873714D01*
X2440092Y4861712D01*
Y4676536D01*
X2430732Y4666603D01*
X2421814Y4661420D01*
X2408294Y4665783D01*
X2376738Y4667375D01*
X2345845Y4660746D01*
X2317720Y4646346D01*
X2294280Y4625158D01*
X2277123Y4598625D01*
X2267419Y4568556D01*
X2266323Y4546847D01*
X2245901Y4538985D01*
X2205588Y4579298D01*
X2200000Y4588937D01*
Y4591935D01*
X2190866Y4613987D01*
X2173987Y4630866D01*
X2151935Y4640000D01*
X2128065D01*
X2106013Y4630866D01*
X2089135Y4613987D01*
X2080000Y4591935D01*
Y4568065D01*
X2089135Y4546013D01*
X2106013Y4529134D01*
X2128065Y4520000D01*
X2131063D01*
X2140702Y4514412D01*
X2207557Y4447557D01*
X2212320Y4444374D01*
X2210723Y4437900D01*
X2203733Y4426058D01*
X2178867Y4428319D01*
X2150327Y4423387D01*
X2124035Y4411237D01*
X2101784Y4392695D01*
X2093299Y4380665D01*
X2073299Y4387009D01*
Y4392583D01*
X2069807Y4410141D01*
X2059861Y4425026D01*
X2035880Y4449007D01*
Y7274559D01*
X2032388Y7292117D01*
X2022442Y7307002D01*
X1905882Y7423562D01*
Y7820995D01*
X2052443Y7967557D01*
X2062389Y7982442D01*
X2065882Y8000000D01*
Y8041709D01*
X2085882Y8046107D01*
X2089551Y8038167D01*
X2108092Y8015917D01*
X2131761Y7999223D01*
X2202595Y7962040D01*
X2229778Y7952041D01*
X2258622Y7949418D01*
X2287163Y7954350D01*
X2313454Y7966500D01*
X2335705Y7985042D01*
X2352399Y8008710D01*
X2362398Y8035893D01*
X2363476Y8047743D01*
X2384242Y8055262D01*
X2391946Y8047557D01*
X2406831Y8037611D01*
X2424390Y8034119D01*
X2663126D01*
X2673893Y8031254D01*
X2676013Y8029135D01*
X2698065Y8020000D01*
X2721935D01*
X2743987Y8029135D01*
X2760865Y8046013D01*
X2770000Y8068065D01*
Y8091935D01*
X2760865Y8113987D01*
X2743987Y8130866D01*
X2721935Y8140000D01*
X2698065D01*
X2676013Y8130866D01*
X2673893Y8128746D01*
X2663126Y8125882D01*
X2470025D01*
X2467903Y8145882D01*
X2472537Y8146876D01*
X2500661Y8161276D01*
X2524101Y8182464D01*
X2541258Y8208997D01*
X2550963Y8239066D01*
X2552555Y8270622D01*
X2545925Y8301515D01*
X2531526Y8329640D01*
X2486084Y8395482D01*
X2464896Y8418921D01*
X2438363Y8436078D01*
X2408294Y8445783D01*
X2376738Y8447375D01*
X2345845Y8440745D01*
X2317720Y8426346D01*
X2294280Y8405158D01*
X2277123Y8378625D01*
X2267419Y8348556D01*
X2266703Y8334366D01*
X2257992Y8330318D01*
X2246384Y8328553D01*
X2231983Y8342954D01*
X2220769Y8347599D01*
X2215452Y8370566D01*
X2382443Y8537557D01*
X2392389Y8552442D01*
X2395882Y8570000D01*
Y9460000D01*
X2392389Y9477558D01*
X2382443Y9492443D01*
X1965882Y9909005D01*
Y10390995D01*
X1982024Y10407137D01*
X1982651Y10407557D01*
X2032443Y10457349D01*
X2042389Y10472234D01*
X2045882Y10489792D01*
Y10720995D01*
X2369005Y11044118D01*
X2470000D01*
X2487558Y11047611D01*
X2502443Y11057557D01*
X3062444Y11617557D01*
X3072390Y11632442D01*
X3075882Y11650001D01*
Y11760947D01*
X3095882Y11769232D01*
X3234412Y11630702D01*
X3240000Y11621063D01*
Y11618065D01*
X3249134Y11596013D01*
X3266013Y11579135D01*
X3288065Y11570000D01*
X3311935D01*
X3333987Y11579135D01*
X3350866Y11596013D01*
X3360000Y11618065D01*
Y11641935D01*
X3350866Y11663987D01*
X3333987Y11680866D01*
X3311935Y11690000D01*
X3308937D01*
X3299298Y11695588D01*
X3155881Y11839005D01*
Y12520948D01*
X3175881Y12529232D01*
X3304118Y12400996D01*
Y12016874D01*
X3301254Y12006107D01*
X3299134Y12003987D01*
X3290000Y11981935D01*
Y11958065D01*
X3299134Y11936013D01*
X3316013Y11919134D01*
X3338065Y11910000D01*
X3361935D01*
X3383987Y11919134D01*
X3393688Y11928835D01*
X3413688Y11920551D01*
Y11858467D01*
X3411056Y11848572D01*
X3404536Y11837279D01*
X3399766Y11819475D01*
Y11801044D01*
X3404536Y11783241D01*
X3413752Y11767279D01*
X3426785Y11754246D01*
X3442746Y11745030D01*
X3460550Y11740260D01*
X3478981D01*
X3496784Y11745030D01*
X3503923Y11749151D01*
X3523923Y11738458D01*
Y9648207D01*
X3521291Y9638312D01*
X3514770Y9627019D01*
X3510000Y9609215D01*
Y9590784D01*
X3514770Y9572981D01*
X3521291Y9561688D01*
X3523923Y9551793D01*
Y9473228D01*
X3444435Y9393740D01*
X3435577Y9388605D01*
X3422981Y9385229D01*
X3407019Y9376014D01*
X3393986Y9362981D01*
X3384770Y9347019D01*
X3380000Y9329216D01*
Y9310784D01*
X3384770Y9292981D01*
X3391291Y9281688D01*
X3393923Y9271793D01*
Y8840000D01*
X3398191Y8818540D01*
X3410347Y8800347D01*
X4173923Y8036772D01*
Y7148207D01*
X4171291Y7138312D01*
X4164770Y7127019D01*
X4160000Y7109216D01*
Y7090784D01*
X4164770Y7072981D01*
X4171291Y7061688D01*
X4173923Y7051793D01*
Y5088564D01*
X4164332Y5080999D01*
X4153922Y5076059D01*
X4139216Y5080000D01*
X4120784D01*
X4102981Y5075229D01*
X4087019Y5066014D01*
X4073986Y5052981D01*
X4064771Y5037019D01*
X4060000Y5019216D01*
Y5000784D01*
X4064771Y4982981D01*
X4071291Y4971688D01*
X4073923Y4961793D01*
Y4798564D01*
X4064332Y4790999D01*
X4053923Y4786059D01*
X4039216Y4790000D01*
X4020784D01*
X4002981Y4785230D01*
X3987019Y4776014D01*
X3973986Y4762981D01*
X3964771Y4747019D01*
X3960000Y4729216D01*
Y4710785D01*
X3964771Y4692981D01*
X3971291Y4681688D01*
X3973923Y4671793D01*
Y4515683D01*
X3953923Y4504136D01*
X3951862Y4505326D01*
X3934059Y4510096D01*
X3915627D01*
X3897824Y4505326D01*
X3881862Y4496110D01*
X3868829Y4483077D01*
X3859614Y4467115D01*
X3854843Y4449312D01*
Y4430880D01*
X3859614Y4413077D01*
X3863626Y4406128D01*
X3866344Y4394317D01*
Y4247539D01*
X3847019Y4235602D01*
X3829216Y4240373D01*
X3810784D01*
X3792981Y4235602D01*
X3777019Y4226387D01*
X3763986Y4213354D01*
X3754770Y4197392D01*
X3750000Y4179588D01*
Y4161157D01*
X3754770Y4143354D01*
X3761291Y4132061D01*
X3763923Y4122165D01*
Y3938564D01*
X3754332Y3930998D01*
X3743922Y3926059D01*
X3729216Y3930000D01*
X3710784D01*
X3692981Y3925229D01*
X3677019Y3916014D01*
X3663986Y3902981D01*
X3654770Y3887019D01*
X3650000Y3869216D01*
Y3850784D01*
X3654770Y3832981D01*
X3661291Y3821688D01*
X3663923Y3811793D01*
Y3668564D01*
X3654332Y3660999D01*
X3643922Y3656059D01*
X3629216Y3660000D01*
X3610784D01*
X3592981Y3655229D01*
X3577019Y3646014D01*
X3563986Y3632981D01*
X3554771Y3617019D01*
X3550000Y3599216D01*
Y3580784D01*
X3554771Y3562981D01*
X3561291Y3551688D01*
X3563923Y3541793D01*
Y3398564D01*
X3554332Y3390999D01*
X3543923Y3386059D01*
X3529216Y3390000D01*
X3510784D01*
X3492981Y3385229D01*
X3477019Y3376014D01*
X3463986Y3362981D01*
X3454771Y3347019D01*
X3450000Y3329216D01*
Y3310784D01*
X3454771Y3292981D01*
X3461291Y3281688D01*
X3463923Y3271793D01*
Y1778415D01*
X3443923Y1768801D01*
X3434029Y1776715D01*
X3405087Y1789393D01*
X3373851Y1794149D01*
X3342447Y1790657D01*
X3264771Y1771515D01*
X3235342Y1760015D01*
X3209891Y1741290D01*
X3190155Y1716616D01*
X3177477Y1687674D01*
X3172722Y1656438D01*
X3176213Y1625034D01*
X3187713Y1595605D01*
X3206438Y1570155D01*
X3231112Y1550419D01*
X3260054Y1537740D01*
X3291290Y1532985D01*
X3322693Y1536476D01*
X3400370Y1555619D01*
X3429799Y1567119D01*
X3443923Y1577510D01*
X3463923Y1567395D01*
Y1472551D01*
X3443923Y1462437D01*
X3429796Y1472833D01*
X3400367Y1484335D01*
X3322692Y1503483D01*
X3291289Y1506976D01*
X3260052Y1502223D01*
X3231110Y1489547D01*
X3206434Y1469812D01*
X3187708Y1444363D01*
X3176205Y1414935D01*
X3172712Y1383532D01*
X3177465Y1352295D01*
X3190141Y1323353D01*
X3209876Y1298677D01*
X3235324Y1279950D01*
X3264753Y1268448D01*
X3342428Y1249300D01*
X3373831Y1245807D01*
X3405068Y1250560D01*
X3434011Y1263236D01*
X3443923Y1271163D01*
X3463923Y1261549D01*
Y868207D01*
X3461291Y858312D01*
X3454771Y847019D01*
X3450000Y829216D01*
Y810784D01*
X3454771Y792981D01*
X3463986Y777019D01*
X3477019Y763986D01*
X3492981Y754770D01*
X3510784Y750000D01*
X3529216D01*
X3547019Y754770D01*
X3562981Y763986D01*
X3576014Y777019D01*
X3585230Y792981D01*
X3590000Y810784D01*
Y829216D01*
X3585230Y847019D01*
X3578709Y858312D01*
X3576077Y868207D01*
Y1011436D01*
X3585668Y1019002D01*
X3596078Y1023941D01*
X3610784Y1020000D01*
X3629216D01*
X3647019Y1024771D01*
X3662981Y1033986D01*
X3676014Y1047019D01*
X3685230Y1062981D01*
X3690000Y1080784D01*
Y1099216D01*
X3685230Y1117019D01*
X3678709Y1128312D01*
X3676077Y1138207D01*
Y1271436D01*
X3685668Y1279001D01*
X3696078Y1283941D01*
X3710784Y1280000D01*
X3729216D01*
X3747019Y1284771D01*
X3762981Y1293986D01*
X3776014Y1307019D01*
X3785229Y1322981D01*
X3790000Y1340784D01*
Y1359216D01*
X3785229Y1377019D01*
X3778709Y1388312D01*
X3776077Y1398207D01*
Y1591436D01*
X3785668Y1599001D01*
X3796077Y1603941D01*
X3810784Y1600000D01*
X3829216D01*
X3847019Y1604770D01*
X3862981Y1613986D01*
X3876014Y1627019D01*
X3885229Y1642981D01*
X3890000Y1660784D01*
Y1679216D01*
X3885229Y1697019D01*
X3878709Y1708312D01*
X3876077Y1718207D01*
Y1861436D01*
X3885668Y1869001D01*
X3896078Y1873941D01*
X3910784Y1870000D01*
X3929216D01*
X3947019Y1874770D01*
X3962981Y1883986D01*
X3976014Y1897019D01*
X3985230Y1912981D01*
X3990000Y1930784D01*
Y1949216D01*
X3985230Y1967019D01*
X3981217Y1973969D01*
X3978499Y1985779D01*
Y2145811D01*
X3998499Y2157358D01*
X4002981Y2154770D01*
X4020784Y2150000D01*
X4039216D01*
X4057019Y2154770D01*
X4072981Y2163986D01*
X4086014Y2177019D01*
X4095230Y2192981D01*
X4100000Y2210784D01*
Y2229216D01*
X4095230Y2247019D01*
X4088709Y2258312D01*
X4086077Y2268207D01*
Y2441436D01*
X4095668Y2449001D01*
X4106078Y2453941D01*
X4120784Y2450000D01*
X4139216D01*
X4157019Y2454771D01*
X4172981Y2463986D01*
X4186014Y2477019D01*
X4195230Y2492981D01*
X4200000Y2510784D01*
Y2529216D01*
X4195230Y2547019D01*
X4188709Y2558312D01*
X4186077Y2568207D01*
Y3241436D01*
X4195668Y3249001D01*
X4206078Y3253941D01*
X4220784Y3250000D01*
X4239216D01*
X4257019Y3254771D01*
X4272981Y3263986D01*
X4286014Y3277019D01*
X4295229Y3292981D01*
X4300000Y3310785D01*
Y3329216D01*
X4295229Y3347019D01*
X4288709Y3358312D01*
X4286077Y3368207D01*
Y3511436D01*
X4295668Y3519002D01*
X4306077Y3523941D01*
X4320784Y3520000D01*
X4339216D01*
X4357019Y3524771D01*
X4372981Y3533986D01*
X4386014Y3547019D01*
X4395229Y3562981D01*
X4400000Y3580785D01*
Y3599216D01*
X4395229Y3617019D01*
X4388709Y3628312D01*
X4386077Y3638207D01*
Y3787893D01*
X4406077Y3798756D01*
X4412981Y3794771D01*
X4430784Y3790000D01*
X4449216D01*
X4467019Y3794771D01*
X4482981Y3803986D01*
X4494119Y3815124D01*
X4502274Y3814031D01*
X4514118Y3808377D01*
Y3626874D01*
X4511254Y3616107D01*
X4509134Y3613987D01*
X4500000Y3591935D01*
Y3568065D01*
X4509134Y3546013D01*
X4526013Y3529134D01*
X4544067Y3521656D01*
X4552217Y3501522D01*
X4450347Y3399653D01*
X4438191Y3381460D01*
X4433923Y3360000D01*
Y2478207D01*
X4431291Y2468312D01*
X4424770Y2457019D01*
X4420000Y2439216D01*
Y2420784D01*
X4424770Y2402981D01*
X4433986Y2387019D01*
X4447019Y2373986D01*
X4462981Y2364770D01*
X4480784Y2360000D01*
X4499216D01*
X4517019Y2364770D01*
X4532981Y2373986D01*
X4546014Y2387019D01*
X4555229Y2402981D01*
X4560000Y2420784D01*
Y2439216D01*
X4555229Y2457019D01*
X4548709Y2468312D01*
X4546077Y2478207D01*
Y2882939D01*
X4566077Y2894966D01*
X4578065Y2890000D01*
X4601935D01*
X4623987Y2899134D01*
X4640865Y2916013D01*
X4650000Y2938065D01*
Y2961935D01*
X4646077Y2971405D01*
Y3306772D01*
X4789653Y3450347D01*
X4801809Y3468540D01*
X4806077Y3490000D01*
Y3836772D01*
X5339653Y4370347D01*
X5351809Y4388540D01*
X5356077Y4410000D01*
Y5278595D01*
X5360000Y5288065D01*
Y5311935D01*
X5356077Y5321405D01*
Y8298596D01*
X5360000Y8308065D01*
Y8331935D01*
X5356077Y8341405D01*
Y10668595D01*
X5360000Y10678065D01*
Y10701935D01*
X5356077Y10711405D01*
Y12750000D01*
Y16930000D01*
X5351809Y16951460D01*
X5339653Y16969653D01*
X5239653Y17069653D01*
X5221460Y17081808D01*
X5200000Y17086076D01*
X4403228D01*
X3939653Y17549654D01*
X3921460Y17561809D01*
X3900000Y17566077D01*
X2630000D01*
X2608540Y17561809D01*
X2590347Y17549654D01*
X2460347Y17419653D01*
X2448191Y17401460D01*
X2443923Y17380000D01*
Y17235300D01*
X2433276Y17224367D01*
X2425472Y17220239D01*
X2408294Y17225783D01*
X2376738Y17227374D01*
X2345845Y17220746D01*
X2317720Y17206346D01*
X2294280Y17185158D01*
X2277123Y17158624D01*
X2274303Y17149886D01*
X2268100Y17146928D01*
X1740851D01*
X1719391Y17142661D01*
X1701199Y17130504D01*
X1625348Y17054652D01*
X1613192Y17036459D01*
X1608923Y17014999D01*
Y15271938D01*
X1606948Y15265942D01*
X1603986Y15262981D01*
X1594770Y15247018D01*
X1590000Y15229216D01*
Y15210783D01*
X1594770Y15192981D01*
X1601291Y15181688D01*
X1603923Y15171793D01*
Y13550000D01*
X1608191Y13528540D01*
X1620347Y13510347D01*
X1622113Y13508582D01*
X1613963Y13488448D01*
X1608492Y13486182D01*
X1296993D01*
X1216077Y13567097D01*
Y14278596D01*
X1220000Y14288065D01*
Y14311935D01*
X1210865Y14333987D01*
X1193987Y14350867D01*
X1171935Y14360001D01*
X1148065D01*
X1126013Y14350867D01*
X1125881Y14350734D01*
X1105881Y14359019D01*
Y15823126D01*
X1108746Y15833893D01*
X1110865Y15836012D01*
X1120000Y15858064D01*
Y15881935D01*
X1110865Y15903987D01*
X1093987Y15920866D01*
X1071935Y15930000D01*
X1048065D01*
X1026013Y15920866D01*
X1009134Y15903987D01*
X1000000Y15881935D01*
Y15858064D01*
X1009134Y15836012D01*
X1011254Y15833893D01*
X1014118Y15823126D01*
Y13569005D01*
X797557Y13352443D01*
X787611Y13337558D01*
X784119Y13320000D01*
Y12809006D01*
X737099Y12761985D01*
X732443Y12762443D01*
X635882Y12859006D01*
Y13320995D01*
X689298Y13374413D01*
X698937Y13380000D01*
X701935D01*
X723987Y13389136D01*
X740865Y13406013D01*
X750000Y13428065D01*
Y13451935D01*
X740865Y13473987D01*
X723987Y13490866D01*
X701935Y13500000D01*
X678065D01*
X656013Y13490866D01*
X639134Y13473987D01*
X630000Y13451935D01*
Y13448936D01*
X624412Y13439297D01*
X557557Y13372443D01*
X547611Y13357559D01*
X544119Y13339999D01*
Y12839999D01*
X547611Y12822443D01*
X557557Y12807558D01*
X654119Y12710995D01*
Y12316899D01*
X635641Y12309246D01*
X619980Y12324907D01*
X605095Y12334852D01*
X587537Y12338345D01*
X304577D01*
X294104Y12340749D01*
X293987Y12340866D01*
X271935Y12350000D01*
X252499D01*
Y12369435D01*
X243365Y12391488D01*
X226487Y12408366D01*
X204434Y12417500D01*
X180565D01*
X177375Y12419632D01*
Y12436329D01*
X168240Y12458381D01*
X151362Y12475260D01*
X129309Y12484394D01*
X105440D01*
X83387Y12475260D01*
X66509Y12458381D01*
X60777Y12444544D01*
X40777Y12448522D01*
Y17099995D01*
X40777Y17147116D01*
X50015Y17240907D01*
X68401Y17333342D01*
X95757Y17423524D01*
X131823Y17510596D01*
X176251Y17593713D01*
X228610Y17672076D01*
X288397Y17744925D01*
X355039Y17811568D01*
X427889Y17871355D01*
X506252Y17923715D01*
X589368Y17968141D01*
X676438Y18004207D01*
X766623Y18031564D01*
X859057Y18049950D01*
X952848Y18059187D01*
X999969Y18059187D01*
X4500029Y18059187D01*
X4547150Y18059187D01*
D02*
G37*
G36*
X3894617Y17436076D02*
X3886333Y17416077D01*
X2830000D01*
X2808540Y17411809D01*
X2790347Y17399654D01*
X2722699Y17332004D01*
X2713542Y17328581D01*
X2689904Y17335172D01*
X2658309Y17335492D01*
X2627707Y17327623D01*
X2600186Y17312103D01*
X2577618Y17289989D01*
X2576077Y17287379D01*
X2556077Y17292848D01*
Y17356772D01*
X2653228Y17453923D01*
X3876772D01*
X3894617Y17436076D01*
D02*
G37*
G36*
X2764744Y17273531D02*
X2749461Y17237215D01*
X2712196Y17284537D01*
X2745939Y17297153D01*
X2764744Y17273531D01*
D02*
G37*
G36*
X2535302Y17165424D02*
X2516612Y17158304D01*
X2489760Y17207195D01*
X2522819Y17219788D01*
X2535302Y17165424D01*
D02*
G37*
G36*
X3086589Y17182321D02*
X3082385Y17152321D01*
X3046609Y17137428D01*
X3054205Y17197264D01*
X3086589Y17182321D01*
D02*
G37*
G36*
X2919461Y17283923D02*
X2900433Y17272157D01*
X2878775Y17249152D01*
X2863809Y17221326D01*
X2835437Y17146526D01*
X2828183Y17115771D01*
X2829136Y17084190D01*
X2838230Y17053931D01*
X2854846Y17027055D01*
X2877852Y17005399D01*
X2905679Y16990431D01*
X2936432Y16983179D01*
X2968014Y16984129D01*
X2998274Y16993225D01*
X3025148Y17009840D01*
X3046806Y17032848D01*
X3061772Y17060674D01*
X3079290Y17106857D01*
X3092124Y17112199D01*
X3108781Y17115512D01*
X3126974Y17127669D01*
X3203228Y17203923D01*
X3317603D01*
X3325887Y17183923D01*
X3269328Y17127364D01*
X3255042Y17121576D01*
X3236379Y17125192D01*
X3204860Y17122968D01*
X3174992Y17112662D01*
X3148808Y17094977D01*
X3088925Y17041930D01*
X3068211Y17018071D01*
X3054377Y16989664D01*
X3048368Y16958644D01*
X3050592Y16927126D01*
X3060897Y16897256D01*
X3078583Y16871072D01*
X3102442Y16850359D01*
X3130849Y16836526D01*
X3161869Y16830516D01*
X3193387Y16832739D01*
X3223256Y16843047D01*
X3249440Y16860732D01*
X3309323Y16913779D01*
X3330037Y16937637D01*
X3343870Y16966045D01*
X3349880Y16997066D01*
X3347656Y17028583D01*
X3344771Y17036946D01*
X3349434Y17048859D01*
X3403107Y17102531D01*
X3788163D01*
X3893923Y16996771D01*
Y16743668D01*
X3873923Y16735384D01*
X3838907Y16770398D01*
X3820715Y16782555D01*
X3799255Y16786823D01*
X3487933D01*
X3477487Y16791379D01*
X3477428Y16791528D01*
X3458703Y16816978D01*
X3434029Y16836716D01*
X3405087Y16849394D01*
X3373851Y16854149D01*
X3342447Y16850658D01*
X3264771Y16831516D01*
X3235342Y16820015D01*
X3209891Y16801289D01*
X3190155Y16776616D01*
X3177477Y16747675D01*
X3172722Y16716438D01*
X3176213Y16685034D01*
X3187713Y16655605D01*
X3206438Y16630154D01*
X3231112Y16610419D01*
X3260054Y16597740D01*
X3291290Y16592986D01*
X3322693Y16596477D01*
X3400370Y16615619D01*
X3429799Y16627119D01*
X3455250Y16645844D01*
X3473942Y16669214D01*
X3486906Y16674667D01*
X3776027D01*
X3793923Y16656772D01*
Y16451514D01*
X3775445Y16443861D01*
X3750442Y16468864D01*
X3732249Y16481020D01*
X3710789Y16485289D01*
X3486895D01*
X3473929Y16490744D01*
X3455245Y16514107D01*
X3429796Y16532832D01*
X3400367Y16544334D01*
X3322692Y16563483D01*
X3291289Y16566975D01*
X3260052Y16562222D01*
X3231110Y16549547D01*
X3206434Y16529813D01*
X3187708Y16504362D01*
X3176205Y16474934D01*
X3172712Y16443532D01*
X3177465Y16412296D01*
X3190141Y16383353D01*
X3209876Y16358678D01*
X3235324Y16339951D01*
X3264753Y16328448D01*
X3342428Y16309300D01*
X3373831Y16305807D01*
X3405068Y16310561D01*
X3434011Y16323236D01*
X3458686Y16342970D01*
X3477413Y16368420D01*
X3477475Y16368578D01*
X3487922Y16373134D01*
X3687561D01*
X3703923Y16356772D01*
Y16181514D01*
X3685445Y16173862D01*
X3657433Y16201872D01*
X3639240Y16214029D01*
X3617780Y16218297D01*
X3343092D01*
X3328192Y16224419D01*
X3309299Y16246182D01*
X3249419Y16299234D01*
X3223237Y16316920D01*
X3193369Y16327229D01*
X3161851Y16329456D01*
X3130831Y16323447D01*
X3102422Y16309616D01*
X3078562Y16288904D01*
X3060875Y16262721D01*
X3050567Y16232854D01*
X3048341Y16201335D01*
X3054348Y16170316D01*
X3068179Y16141907D01*
X3088892Y16118047D01*
X3126839Y16084425D01*
X3119254Y16064426D01*
X3083991D01*
X3073284Y16068858D01*
X3061738Y16099304D01*
X3046774Y16127133D01*
X3025117Y16150140D01*
X2998244Y16166759D01*
X2967985Y16175854D01*
X2949582Y16176411D01*
X2941549Y16196663D01*
X2962443Y16217557D01*
X2972389Y16232442D01*
X2975882Y16250000D01*
Y16789999D01*
X2972389Y16807559D01*
X2962443Y16822444D01*
X2892444Y16892442D01*
X2877559Y16902390D01*
X2860000Y16905882D01*
X2764100D01*
X2753813Y16909026D01*
X2748992Y16913846D01*
X2726940Y16922980D01*
X2703070D01*
X2681018Y16913846D01*
X2664139Y16896967D01*
X2655005Y16874915D01*
X2636077Y16877502D01*
Y17003532D01*
X2653311Y17018355D01*
X2655690Y17018826D01*
X2665518Y17016087D01*
X2697113Y17015767D01*
X2727714Y17023634D01*
X2755236Y17039156D01*
X2777803Y17061272D01*
X2793878Y17088474D01*
X2802364Y17118909D01*
X2802684Y17150504D01*
X2793045Y17229921D01*
X2792133Y17233469D01*
X2798933Y17249628D01*
X2853228Y17303923D01*
X2913778D01*
X2919461Y17283923D01*
D02*
G37*
G36*
X2321254Y17061024D02*
X2282964Y17075851D01*
X2276705Y17105852D01*
X2308112Y17120821D01*
X2321254Y17061024D01*
D02*
G37*
G36*
X3314833Y17072350D02*
X3301267Y17037697D01*
X3257693Y17078647D01*
X3293012Y17092955D01*
X3314833Y17072350D01*
D02*
G37*
G36*
X2760492Y16875000D02*
X2757020Y16845000D01*
X2734237Y16839957D01*
X2738409Y16881747D01*
X2760492Y16875000D01*
D02*
G37*
G36*
X1893576Y16831578D02*
X1871020Y16837578D01*
Y16867578D01*
X1893576Y16873578D01*
Y16831578D01*
D02*
G37*
G36*
X2293799Y17027921D02*
X2332297Y16972141D01*
X2353486Y16948701D01*
X2380018Y16931544D01*
X2410087Y16921838D01*
X2441644Y16920247D01*
X2472537Y16926875D01*
X2500661Y16941277D01*
X2505644Y16945779D01*
X2523923Y16937663D01*
Y16730000D01*
X2528191Y16708540D01*
X2540347Y16690347D01*
X2593189Y16637506D01*
X2611382Y16625349D01*
X2632842Y16621082D01*
X2650113D01*
Y16602159D01*
X2850113D01*
Y16752158D01*
X2650113D01*
X2636077Y16766345D01*
Y16848457D01*
X2655005Y16851045D01*
X2664139Y16828993D01*
X2681018Y16812114D01*
X2703070Y16802980D01*
X2726940D01*
X2747850Y16811641D01*
X2759039Y16814119D01*
X2840996D01*
X2884118Y16770996D01*
Y16269005D01*
X2821863Y16206749D01*
X2802247Y16210651D01*
X2800866Y16213988D01*
X2798746Y16216107D01*
X2795882Y16226874D01*
Y16407158D01*
X2850113D01*
Y16557158D01*
X2650113D01*
Y16407158D01*
X2704119D01*
Y16226874D01*
X2701254Y16216107D01*
X2699135Y16213988D01*
X2690000Y16191936D01*
Y16168065D01*
X2691608Y16164183D01*
X2678300Y16144048D01*
X2665486Y16143919D01*
X2635050Y16135435D01*
X2607847Y16119363D01*
X2585730Y16096797D01*
X2570208Y16069276D01*
X2562338Y16038676D01*
X2552693Y15959259D01*
X2553011Y15927664D01*
X2561495Y15897227D01*
X2577568Y15870026D01*
X2600133Y15847908D01*
X2612581Y15840887D01*
X2617974Y15828400D01*
Y15627280D01*
X2586772Y15596077D01*
X2393667D01*
X2385383Y15616077D01*
X2431766Y15662460D01*
X2443922Y15680653D01*
X2448191Y15702113D01*
Y15938921D01*
X2454652Y15954504D01*
X2464852Y15961099D01*
X2486042Y15984538D01*
X2531488Y16050375D01*
X2545890Y16078500D01*
X2552522Y16109393D01*
X2550932Y16140948D01*
X2541229Y16171019D01*
X2524074Y16197552D01*
X2500636Y16218742D01*
X2472512Y16233144D01*
X2441619Y16239777D01*
X2410063Y16238187D01*
X2379993Y16228484D01*
X2353459Y16211328D01*
X2332269Y16187891D01*
X2286823Y16122052D01*
X2272422Y16093929D01*
X2265790Y16063036D01*
X2267380Y16031479D01*
X2277083Y16001408D01*
X2294238Y15974875D01*
X2317676Y15953685D01*
X2331283Y15946716D01*
X2336036Y15936008D01*
Y15725340D01*
X2306772Y15696077D01*
X1848564D01*
X1840999Y15705669D01*
X1836059Y15716078D01*
X1840000Y15730785D01*
Y15749216D01*
X1835230Y15767020D01*
X1828709Y15778313D01*
X1826077Y15788206D01*
Y16756772D01*
X1865806Y16796501D01*
X1866793D01*
X1876688Y16793869D01*
X1887981Y16787349D01*
X1905785Y16782578D01*
X1924216D01*
X1942019Y16787349D01*
X1957981Y16796564D01*
X1971014Y16809596D01*
X1980230Y16825558D01*
X1985000Y16843362D01*
Y16861794D01*
X1980230Y16879597D01*
X1971014Y16895560D01*
X1957981Y16908592D01*
X1942019Y16917809D01*
X1924216Y16922578D01*
X1905785D01*
X1887981Y16917809D01*
X1876688Y16911287D01*
X1866793Y16908656D01*
X1842578D01*
X1821118Y16904387D01*
X1802926Y16892232D01*
X1741078Y16830383D01*
X1721078Y16838667D01*
Y16991772D01*
X1764079Y17034773D01*
X2276103D01*
X2293799Y17027921D01*
D02*
G37*
G36*
X3480101Y16745744D02*
X3479374Y16715746D01*
X3444048Y16700882D01*
X3445927Y16760649D01*
X3480101Y16745744D01*
D02*
G37*
G36*
X3479363Y16444211D02*
X3480090Y16414211D01*
X3445916Y16399307D01*
X3444037Y16459074D01*
X3479363Y16444211D01*
D02*
G37*
G36*
X2771000Y16201424D02*
X2729000D01*
X2735000Y16223981D01*
X2765000D01*
X2771000Y16201424D01*
D02*
G37*
G36*
X3335757Y16177220D02*
X3338488Y16147220D01*
X3304990Y16132320D01*
X3299565Y16192085D01*
X3335757Y16177220D01*
D02*
G37*
G36*
X2819880Y16084567D02*
X2799987Y16082504D01*
X2796223Y16112859D01*
X2817336Y16115048D01*
X2819880Y16084567D01*
D02*
G37*
G36*
X3076593Y16023347D02*
X3085774Y15993349D01*
X3056263Y15978357D01*
X3040620Y16038240D01*
X3076593Y16023347D01*
D02*
G37*
G36*
X2407114Y15946330D02*
X2377114Y15943990D01*
X2362223Y15977539D01*
X2421990Y15982214D01*
X2407114Y15946330D01*
D02*
G37*
G36*
X2839463Y15901637D02*
X2818350Y15899449D01*
X2815806Y15929929D01*
X2835699Y15931992D01*
X2839463Y15901637D01*
D02*
G37*
G36*
X3523923Y15936772D02*
Y13428207D01*
X3521291Y13418312D01*
X3514770Y13407019D01*
X3510000Y13389217D01*
Y13370784D01*
X3514770Y13352982D01*
X3521291Y13341689D01*
X3523923Y13331793D01*
Y13130585D01*
X3503923Y13126607D01*
X3500865Y13133987D01*
X3483987Y13150865D01*
X3461935Y13160001D01*
X3438065D01*
X3416013Y13150865D01*
X3399134Y13133987D01*
X3395777Y13125882D01*
X2856874D01*
X2846107Y13128746D01*
X2843987Y13130865D01*
X2821935Y13139999D01*
X2798065D01*
X2776013Y13130865D01*
X2759134Y13113988D01*
X2750000Y13091936D01*
Y13068065D01*
X2759134Y13046013D01*
X2776013Y13029134D01*
X2798065Y13020000D01*
X2821935D01*
X2833714Y13024879D01*
X2843585Y13017033D01*
X2850000Y13009978D01*
Y12988065D01*
X2859134Y12966013D01*
X2876013Y12949133D01*
X2898065Y12939999D01*
X2921935D01*
X2943987Y12949133D01*
X2946107Y12951254D01*
X2956874Y12954118D01*
X3293126D01*
X3303893Y12951254D01*
X3306013Y12949133D01*
X3328065Y12939999D01*
X3351935D01*
X3373987Y12949133D01*
X3390865Y12966013D01*
X3400000Y12988065D01*
Y13011935D01*
X3399095Y13014117D01*
X3412459Y13034119D01*
X3421882D01*
X3439440Y13037611D01*
X3443016Y13039999D01*
X3461935D01*
X3483987Y13049133D01*
X3500865Y13066013D01*
X3503923Y13073393D01*
X3523923Y13069415D01*
Y12503155D01*
X3503923Y12495383D01*
X3119653Y12879652D01*
X3101460Y12891809D01*
X3080000Y12896077D01*
X2873228D01*
X2674653Y13094653D01*
X2656460Y13106808D01*
X2635000Y13111076D01*
X2422226D01*
X2415882Y13113112D01*
X2413735Y13115260D01*
X2397773Y13124475D01*
X2384244Y13128101D01*
X2378373Y13140392D01*
X2377105Y13149246D01*
X2421978Y13194118D01*
X2770000D01*
X2787558Y13197610D01*
X2802443Y13207558D01*
X2862443Y13267557D01*
X2872389Y13282442D01*
X2875881Y13300000D01*
Y13384682D01*
X2895881Y13392615D01*
X2900384Y13387831D01*
X2927257Y13371214D01*
X2957516Y13362117D01*
X2989098Y13361162D01*
X3019851Y13368414D01*
X3047680Y13383379D01*
X3070687Y13405034D01*
X3087305Y13431908D01*
X3096401Y13462166D01*
X3097357Y13493748D01*
X3090105Y13524503D01*
X3061738Y13599304D01*
X3046774Y13627133D01*
X3025117Y13650140D01*
X2998244Y13666759D01*
X2967985Y13675854D01*
X2949581Y13676411D01*
X2941549Y13696663D01*
X3017443Y13772557D01*
X3027389Y13787442D01*
X3030881Y13805000D01*
Y14245000D01*
X3027389Y14262558D01*
X3017443Y14277443D01*
X2902443Y14392442D01*
X2887558Y14402390D01*
X2870000Y14405882D01*
X2867919D01*
X2856425Y14417377D01*
Y14500354D01*
X2874785Y14508286D01*
X2877852Y14505397D01*
X2905679Y14490431D01*
X2936432Y14483179D01*
X2968014Y14484129D01*
X2998274Y14493225D01*
X3025148Y14509840D01*
X3046806Y14532848D01*
X3061772Y14560674D01*
X3090145Y14635474D01*
X3097398Y14666228D01*
X3096446Y14697809D01*
X3087351Y14728069D01*
X3070735Y14754942D01*
X3047729Y14776601D01*
X3019902Y14791568D01*
X2989149Y14798820D01*
X2957567Y14797868D01*
X2927308Y14788774D01*
X2900433Y14772157D01*
X2895881Y14767323D01*
X2875881Y14775256D01*
Y15884682D01*
X2889528Y15892226D01*
X2895353Y15893176D01*
X2900384Y15887833D01*
X2927257Y15871214D01*
X2957516Y15862117D01*
X2989098Y15861162D01*
X3019851Y15868414D01*
X3047680Y15883379D01*
X3070687Y15905034D01*
X3087305Y15931908D01*
X3093150Y15951350D01*
X3094960Y15952271D01*
X3508424D01*
X3523923Y15936772D01*
D02*
G37*
G36*
X2689052Y15836452D02*
X2659052Y15836150D01*
X2644158Y15870634D01*
X2703925Y15871584D01*
X2689052Y15836452D01*
D02*
G37*
G36*
X1075000Y15826019D02*
X1045000D01*
X1039000Y15848576D01*
X1081000D01*
X1075000Y15826019D01*
D02*
G37*
G36*
X1791000Y15761424D02*
X1749000Y15761424D01*
X1755000Y15783981D01*
X1785000Y15783981D01*
X1791000Y15761424D01*
D02*
G37*
G36*
X1892136Y15510376D02*
X1885000Y15488716D01*
X1855000Y15494640D01*
X1850723Y15517375D01*
X1892136Y15510376D01*
D02*
G37*
G36*
X1680000Y15260361D02*
X1684277Y15237624D01*
X1642865Y15244624D01*
X1650000Y15266284D01*
X1680000Y15260361D01*
D02*
G37*
G36*
X1675000Y15176019D02*
X1645000D01*
X1639000Y15198576D01*
X1681000D01*
X1675000Y15176019D01*
D02*
G37*
G36*
X4161000Y15061424D02*
X4119000D01*
X4125000Y15083981D01*
X4155000D01*
X4161000Y15061424D01*
D02*
G37*
G36*
X4155000Y14996019D02*
X4125000D01*
X4119000Y15018576D01*
X4161000D01*
X4155000Y14996019D01*
D02*
G37*
G36*
X1891000Y14821423D02*
X1849000D01*
X1855000Y14843980D01*
X1885000D01*
X1891000Y14821423D01*
D02*
G37*
G36*
X4071000Y14801424D02*
X4029000D01*
X4035000Y14823981D01*
X4065000D01*
X4071000Y14801424D01*
D02*
G37*
G36*
X2784118Y15858525D02*
Y14801601D01*
X2764118Y14793695D01*
X2747541Y14810611D01*
X2720339Y14826686D01*
X2689904Y14835172D01*
X2658309Y14835492D01*
X2627707Y14827623D01*
X2600186Y14812103D01*
X2577618Y14789989D01*
X2561544Y14762785D01*
X2553058Y14732350D01*
X2552738Y14700755D01*
X2562376Y14621338D01*
X2570245Y14590736D01*
X2585765Y14563216D01*
X2607880Y14540648D01*
X2635082Y14524573D01*
X2665518Y14516087D01*
X2697113Y14515767D01*
X2727714Y14523634D01*
X2744661Y14533192D01*
X2764661Y14521510D01*
Y14421727D01*
X2748500Y14408109D01*
X2746107Y14408746D01*
X2743987Y14410866D01*
X2721935Y14420000D01*
X2698065D01*
X2676013Y14410866D01*
X2659134Y14393987D01*
X2650000Y14371935D01*
Y14348065D01*
X2659134Y14326013D01*
X2676013Y14309134D01*
X2698065Y14300000D01*
X2721935D01*
X2743987Y14309134D01*
X2746107Y14311253D01*
X2756874Y14314117D01*
X2850995D01*
X2939118Y14225995D01*
Y14197377D01*
X2932057Y14192702D01*
X2919118Y14189659D01*
X2906334Y14202443D01*
X2891449Y14212389D01*
X2873891Y14215881D01*
X2850207D01*
Y14252357D01*
X2650207D01*
Y14102357D01*
X2823036D01*
X2830000Y14091934D01*
Y14068066D01*
X2822844Y14057356D01*
X2650207D01*
Y13907356D01*
X2704119D01*
Y13726874D01*
X2701254Y13716107D01*
X2699135Y13713988D01*
X2690000Y13691936D01*
Y13668065D01*
X2691608Y13664183D01*
X2678300Y13644048D01*
X2665486Y13643919D01*
X2635050Y13635435D01*
X2607847Y13619363D01*
X2585730Y13596797D01*
X2570208Y13569276D01*
X2562338Y13538676D01*
X2552693Y13459259D01*
X2553011Y13427664D01*
X2561495Y13397227D01*
X2577568Y13370026D01*
X2600133Y13347908D01*
X2627654Y13332385D01*
X2658255Y13324515D01*
X2689850Y13324834D01*
X2720286Y13333318D01*
X2747489Y13349390D01*
X2764118Y13366356D01*
X2784118Y13358525D01*
Y13319005D01*
X2750995Y13285881D01*
X2402973D01*
X2385415Y13282388D01*
X2370530Y13272443D01*
X2311536Y13213449D01*
X2285355Y13215553D01*
X2277540Y13223369D01*
X2255487Y13232503D01*
X2231618D01*
X2209565Y13223369D01*
X2192687Y13206490D01*
X2183552Y13184438D01*
Y13181441D01*
X2177964Y13171802D01*
X1869555Y12863393D01*
X1851078Y12871046D01*
Y12961772D01*
X1883228Y12993922D01*
X1923492D01*
X1944952Y12998192D01*
X1963145Y13010349D01*
X2069653Y13116856D01*
X2081809Y13135048D01*
X2086077Y13156508D01*
Y13321793D01*
X2088709Y13331688D01*
X2095229Y13342981D01*
X2100000Y13360783D01*
Y13379216D01*
X2095229Y13397018D01*
X2088709Y13408311D01*
X2086077Y13418207D01*
Y13610001D01*
X2081809Y13631461D01*
X2069653Y13649654D01*
X1976077Y13743228D01*
Y14037482D01*
X1996077Y14041460D01*
X2005180Y14019482D01*
X2024415Y13994415D01*
X2049482Y13975180D01*
X2078674Y13963089D01*
X2110000Y13958965D01*
X2190000D01*
X2221327Y13963089D01*
X2250518Y13975180D01*
X2275585Y13994415D01*
X2294820Y14019482D01*
X2306911Y14048674D01*
X2311036Y14080000D01*
X2306911Y14111327D01*
X2294820Y14140518D01*
X2275585Y14165585D01*
X2250518Y14184821D01*
X2221327Y14196912D01*
X2190000Y14201035D01*
X2110000D01*
X2078674Y14196912D01*
X2049482Y14184821D01*
X2024415Y14165585D01*
X2005180Y14140518D01*
X1996077Y14118541D01*
X1976077Y14122519D01*
Y14676772D01*
X1999653Y14700346D01*
X2011809Y14718539D01*
X2016077Y14739999D01*
Y15456772D01*
X2043228Y15483923D01*
X2610000D01*
X2631460Y15488191D01*
X2649653Y15500346D01*
X2713704Y15564400D01*
X2725860Y15582591D01*
X2730129Y15604051D01*
Y15828868D01*
X2735924Y15842557D01*
X2747489Y15849390D01*
X2764118Y15866356D01*
X2784118Y15858525D01*
D02*
G37*
G36*
X1875446Y14770499D02*
X1856610Y14757280D01*
X1830547Y14773643D01*
X1840613Y14793967D01*
X1875446Y14770499D01*
D02*
G37*
G36*
X4065000Y14736018D02*
X4035000D01*
X4029000Y14758575D01*
X4071000D01*
X4065000Y14736018D01*
D02*
G37*
G36*
X2839377Y14739587D02*
X2835387Y14709262D01*
X2815510Y14711472D01*
X2818280Y14741933D01*
X2839377Y14739587D01*
D02*
G37*
G36*
X2825033Y14616156D02*
X2822263Y14585696D01*
X2801166Y14588042D01*
X2805156Y14618367D01*
X2825033Y14616156D01*
D02*
G37*
G36*
X3971000Y14521423D02*
X3929000D01*
X3935000Y14543980D01*
X3965000D01*
X3971000Y14521423D01*
D02*
G37*
G36*
X3965000Y14456020D02*
X3935000D01*
X3929000Y14478577D01*
X3971000D01*
X3965000Y14456020D01*
D02*
G37*
G36*
X2855543Y14375000D02*
X2810543Y14345000D01*
X2765543Y14375000D01*
X2795543Y14405000D01*
X2825543D01*
X2855543Y14375000D01*
D02*
G37*
G36*
X2753981D02*
Y14345000D01*
X2731424Y14339000D01*
Y14381000D01*
X2753981Y14375000D01*
D02*
G37*
G36*
X3871000Y14251424D02*
X3829000D01*
X3835000Y14273981D01*
X3865000D01*
X3871000Y14251424D01*
D02*
G37*
G36*
X3865000Y14186018D02*
X3835000D01*
X3829000Y14208575D01*
X3871000D01*
X3865000Y14186018D01*
D02*
G37*
G36*
X2911000Y14101424D02*
X2869000D01*
X2875000Y14123981D01*
X2905000D01*
X2911000Y14101424D01*
D02*
G37*
G36*
X3781000Y13941425D02*
X3739000D01*
X3745000Y13963982D01*
X3775000D01*
X3781000Y13941425D01*
D02*
G37*
G36*
X3775000Y13876019D02*
X3745000D01*
X3739000Y13898576D01*
X3781000D01*
X3775000Y13876019D01*
D02*
G37*
G36*
X2771000Y13701424D02*
X2729000D01*
X2735000Y13723981D01*
X2765000D01*
X2771000Y13701424D01*
D02*
G37*
G36*
X3691000Y13671423D02*
X3649000D01*
X3655000Y13693980D01*
X3685000D01*
X3691000Y13671423D01*
D02*
G37*
G36*
X3685000Y13606020D02*
X3655000D01*
X3649000Y13628577D01*
X3691000D01*
X3685000Y13606020D01*
D02*
G37*
G36*
X2820661Y13585483D02*
X2800769Y13583405D01*
X2796979Y13613754D01*
X2818091Y13615962D01*
X2820661Y13585483D01*
D02*
G37*
G36*
X1811669Y13575726D02*
X1776837Y13552258D01*
X1766771Y13572581D01*
X1792834Y13588945D01*
X1811669Y13575726D01*
D02*
G37*
G36*
X1825409Y13505161D02*
X1795409Y13500243D01*
X1788418Y13522079D01*
X1830007Y13527940D01*
X1825409Y13505161D01*
D02*
G37*
G36*
X2839454Y13411646D02*
X2818342Y13409439D01*
X2815772Y13439917D01*
X2835663Y13441997D01*
X2839454Y13411646D01*
D02*
G37*
G36*
X3601000Y13401424D02*
X3559000D01*
X3565000Y13423981D01*
X3595000D01*
X3601000Y13401424D01*
D02*
G37*
G36*
X689700Y13410002D02*
X669507Y13398296D01*
X648294Y13419508D01*
X660001Y13439700D01*
X689700Y13410002D01*
D02*
G37*
G36*
X2051000Y13391425D02*
X2009000D01*
X2015000Y13413982D01*
X2045000D01*
X2051000Y13391425D01*
D02*
G37*
G36*
X3595000Y13336018D02*
X3565000D01*
X3559000Y13358575D01*
X3601000D01*
X3595000Y13336018D01*
D02*
G37*
G36*
X2045000Y13326019D02*
X2015000D01*
X2009000Y13348576D01*
X2051000D01*
X2045000Y13326019D01*
D02*
G37*
G36*
X4558576Y13239000D02*
X4536019Y13245000D01*
Y13275000D01*
X4558576Y13281000D01*
Y13239000D01*
D02*
G37*
G36*
X4340347Y16990347D02*
X4358540Y16978191D01*
X4380000Y16973923D01*
X5176772D01*
X5243923Y16906772D01*
Y12837180D01*
X5212820Y12806078D01*
X4611405D01*
X4601935Y12810001D01*
X4578065D01*
X4556013Y12800865D01*
X4539134Y12783987D01*
X4530000Y12761935D01*
Y12738065D01*
X4520000Y12725485D01*
X4510778Y12737087D01*
X4510000Y12740161D01*
Y12761935D01*
X4500866Y12783987D01*
X4498746Y12786107D01*
X4495882Y12796874D01*
Y12840994D01*
X4612443Y12957558D01*
X4622389Y12972443D01*
X4625882Y12989999D01*
Y13073126D01*
X4628746Y13083893D01*
X4630866Y13086012D01*
X4640000Y13108064D01*
Y13131935D01*
X4630866Y13153987D01*
X4613987Y13170865D01*
X4591935Y13180000D01*
X4568065D01*
X4546013Y13170865D01*
X4529134Y13153987D01*
X4520000Y13131935D01*
Y13108064D01*
X4529134Y13086012D01*
X4531254Y13083893D01*
X4534118Y13073126D01*
Y13009006D01*
X4417557Y12892442D01*
X4407611Y12877557D01*
X4404118Y12860001D01*
Y12796874D01*
X4401254Y12786107D01*
X4399134Y12783987D01*
X4390000Y12761935D01*
Y12738065D01*
X4395047Y12725882D01*
X4383134Y12705882D01*
X4299019D01*
X4290734Y12725882D01*
X4290865Y12726013D01*
X4300000Y12748065D01*
Y12771935D01*
X4290865Y12793987D01*
X4288746Y12796107D01*
X4285881Y12806874D01*
Y12890994D01*
X4422443Y13027557D01*
X4432389Y13042442D01*
X4435882Y13060001D01*
Y13180995D01*
X4469005Y13214117D01*
X4533126D01*
X4543893Y13211253D01*
X4546013Y13209134D01*
X4568065Y13200000D01*
X4591935D01*
X4613987Y13209134D01*
X4630866Y13226013D01*
X4640000Y13248065D01*
Y13271935D01*
X4630866Y13293987D01*
X4613987Y13310864D01*
X4591935Y13320000D01*
X4568065D01*
X4546013Y13310864D01*
X4543893Y13308746D01*
X4533126Y13305881D01*
X4450000D01*
X4432442Y13302390D01*
X4417557Y13292442D01*
X4357557Y13232443D01*
X4347611Y13217558D01*
X4344119Y13200000D01*
Y13079005D01*
X4216077Y12950964D01*
X4196077Y12959248D01*
Y14991792D01*
X4198709Y15001688D01*
X4205230Y15012981D01*
X4210000Y15030785D01*
Y15049216D01*
X4205230Y15067020D01*
X4198709Y15078313D01*
X4196077Y15088206D01*
Y17106332D01*
X4216077Y17114616D01*
X4340347Y16990347D01*
D02*
G37*
G36*
X1901000Y13176424D02*
X1859000D01*
X1865000Y13198981D01*
X1895000D01*
X1901000Y13176424D01*
D02*
G37*
G36*
X2243252Y13142505D02*
X2223060Y13130797D01*
X2201847Y13152011D01*
X2213554Y13172203D01*
X2243252Y13142505D01*
D02*
G37*
G36*
X4595000Y13076019D02*
X4565000D01*
X4559000Y13098576D01*
X4601000D01*
X4595000Y13076019D01*
D02*
G37*
G36*
X2853981Y13095000D02*
Y13064999D01*
X2831424Y13059000D01*
Y13100999D01*
X2853981Y13095000D01*
D02*
G37*
G36*
X2416760Y13070000D02*
X2411767Y13039999D01*
X2388990Y13035425D01*
X2394935Y13077002D01*
X2416760Y13070000D01*
D02*
G37*
G36*
X3318576Y12978999D02*
X3296019Y12985001D01*
Y13014999D01*
X3318576Y13021001D01*
Y12978999D01*
D02*
G37*
G36*
X2953981Y13014999D02*
Y12985001D01*
X2931424Y12978999D01*
Y13021001D01*
X2953981Y13014999D01*
D02*
G37*
G36*
X4261000Y12781424D02*
X4219000D01*
X4225000Y12803979D01*
X4255000D01*
X4261000Y12781424D01*
D02*
G37*
G36*
X4471000Y12771424D02*
X4429000D01*
X4435000Y12793981D01*
X4465000D01*
X4471000Y12771424D01*
D02*
G37*
G36*
X2618576Y12729000D02*
X2596019Y12735000D01*
Y12765000D01*
X2618576Y12771000D01*
Y12729000D01*
D02*
G37*
G36*
X5325000Y12750000D02*
X5275000Y12675000D01*
X5225000Y12725000D01*
Y12775000D01*
X5275000Y12825000D01*
X5325000Y12750000D01*
D02*
G37*
G36*
X2081706Y12680493D02*
X2069998Y12660300D01*
X2040300Y12689998D01*
X2060492Y12701706D01*
X2081706Y12680493D01*
D02*
G37*
G36*
X4868576Y12639000D02*
X4846020Y12645000D01*
Y12675000D01*
X4868576Y12681000D01*
Y12639000D01*
D02*
G37*
G36*
X4283981Y12675000D02*
Y12645000D01*
X4261424Y12639000D01*
Y12681000D01*
X4283981Y12675000D01*
D02*
G37*
G36*
X2369700Y12640002D02*
X2349508Y12628295D01*
X2328295Y12649508D01*
X2340002Y12669700D01*
X2369700Y12640002D01*
D02*
G37*
G36*
X5243923Y12662820D02*
Y10711405D01*
X5240000Y10701935D01*
Y10678065D01*
X5243923Y10668595D01*
Y10211818D01*
X5223923Y10209848D01*
X5222389Y10217558D01*
X5212443Y10232443D01*
X4914886Y10530000D01*
X4921935Y10550000D01*
X4943987Y10559135D01*
X4960866Y10576013D01*
X4970000Y10598065D01*
Y10621935D01*
X4960866Y10643987D01*
X4958746Y10646107D01*
X4955882Y10656874D01*
Y11730000D01*
X4952389Y11747558D01*
X4942443Y11762443D01*
X4882443Y11822443D01*
X4867558Y11832389D01*
X4850000Y11835882D01*
X4306874D01*
X4296107Y11838746D01*
X4293987Y11840866D01*
X4271935Y11850000D01*
X4248065D01*
X4226013Y11840866D01*
X4216077Y11830930D01*
X4196077Y11839215D01*
Y12592938D01*
X4216078Y12604966D01*
X4228065Y12600000D01*
X4251935D01*
X4273987Y12609135D01*
X4276107Y12611254D01*
X4286874Y12614119D01*
X4843126D01*
X4853893Y12611254D01*
X4856013Y12609135D01*
X4878065Y12600000D01*
X4901935D01*
X4923987Y12609135D01*
X4940866Y12626013D01*
X4950000Y12648065D01*
Y12671935D01*
X4947781Y12677293D01*
X4958892Y12693923D01*
X5212820D01*
X5243923Y12662820D01*
D02*
G37*
G36*
X1030353Y12598341D02*
Y12568341D01*
X1007797Y12562341D01*
Y12604341D01*
X1030353Y12598341D01*
D02*
G37*
G36*
X2413981Y12585000D02*
Y12555000D01*
X2391425Y12549000D01*
Y12591000D01*
X2413981Y12585000D01*
D02*
G37*
G36*
X1113965Y13513766D02*
X1120347Y13504216D01*
X1234112Y13390451D01*
X1252305Y13378294D01*
X1273765Y13374026D01*
X1586437D01*
X1590121Y13370219D01*
X1596588Y13354027D01*
X1588191Y13341460D01*
X1583923Y13320000D01*
Y12557061D01*
X1563922Y12545034D01*
X1551935Y12550000D01*
X1528065D01*
X1506013Y12540865D01*
X1489134Y12523987D01*
X1485212Y12514517D01*
X1438407Y12467712D01*
X1426251Y12449520D01*
X1421982Y12428060D01*
Y11984757D01*
X1401982Y11977341D01*
X1395882Y11984437D01*
Y12310000D01*
X1392389Y12327559D01*
X1382443Y12342443D01*
X1109102Y12615784D01*
X1094218Y12625730D01*
X1076659Y12629223D01*
X1033247D01*
X1022480Y12632087D01*
X1020360Y12634207D01*
X998307Y12643341D01*
X974438D01*
X952385Y12634207D01*
X935507Y12617328D01*
X926373Y12595276D01*
Y12571406D01*
X935507Y12549354D01*
X952385Y12532476D01*
X974438Y12523341D01*
X998307D01*
X1020360Y12532476D01*
X1022480Y12534595D01*
X1033247Y12537460D01*
X1057654D01*
X1304119Y12290995D01*
Y11981874D01*
X1301254Y11971107D01*
X1299135Y11968987D01*
X1290000Y11946934D01*
Y11923065D01*
X1285331Y11916077D01*
X1191405D01*
X1181935Y11920000D01*
X1158065D01*
X1136013Y11910865D01*
X1119134Y11893987D01*
X1117753Y11890651D01*
X1098137Y11886749D01*
X805882Y12179005D01*
Y12700995D01*
X862443Y12757557D01*
X872389Y12772442D01*
X875882Y12790000D01*
Y13300995D01*
X1090505Y13515619D01*
X1090963Y13515794D01*
X1100354Y13516164D01*
X1113965Y13513766D01*
D02*
G37*
G36*
X2037514Y12526301D02*
X2024825Y12506763D01*
X1998833Y12539754D01*
X2019225Y12550438D01*
X2037514Y12526301D01*
D02*
G37*
G36*
X2413981Y12485000D02*
Y12455000D01*
X2391425Y12449000D01*
Y12491000D01*
X2413981Y12485000D01*
D02*
G37*
G36*
X2101705Y12419508D02*
X2080492Y12398294D01*
X2060300Y12410002D01*
X2089998Y12439700D01*
X2101705Y12419508D01*
D02*
G37*
G36*
X133687Y12381217D02*
X103687Y12379698D01*
X97332Y12402071D01*
X139292Y12403909D01*
X133687Y12381217D01*
D02*
G37*
G36*
X2413981Y12385000D02*
Y12355000D01*
X2391424Y12349000D01*
Y12391000D01*
X2413981Y12385000D01*
D02*
G37*
G36*
X1575000Y12349639D02*
X1545000Y12343716D01*
X1537864Y12365376D01*
X1579277Y12372375D01*
X1575000Y12349639D01*
D02*
G37*
G36*
X212589Y12335220D02*
X206250Y12312837D01*
X176250Y12314282D01*
X170625Y12336969D01*
X212589Y12335220D01*
D02*
G37*
G36*
X1895000Y12286019D02*
X1865000D01*
X1859000Y12308576D01*
X1901000D01*
X1895000Y12286019D01*
D02*
G37*
G36*
X302393Y12307463D02*
X305255Y12277463D01*
X283076Y12270830D01*
X279628Y12312688D01*
X302393Y12307463D01*
D02*
G37*
G36*
X2413981Y12285000D02*
Y12255000D01*
X2391425Y12249000D01*
Y12291000D01*
X2413981Y12285000D01*
D02*
G37*
G36*
X2007135Y12244625D02*
X1965723Y12237624D01*
X1970000Y12260360D01*
X2000000Y12266284D01*
X2007135Y12244625D01*
D02*
G37*
G36*
X565000Y12176019D02*
X535000D01*
X529000Y12198576D01*
X571000D01*
X565000Y12176019D01*
D02*
G37*
G36*
X2385000Y12126019D02*
X2355000D01*
X2349000Y12148576D01*
X2391000D01*
X2385000Y12126019D01*
D02*
G37*
G36*
X2005000Y12066019D02*
X1975000D01*
X1969000Y12088576D01*
X2011000D01*
X2005000Y12066019D01*
D02*
G37*
G36*
X2241000Y12021424D02*
X2199000D01*
X2205000Y12043980D01*
X2235000D01*
X2241000Y12021424D01*
D02*
G37*
G36*
X3371000Y11991424D02*
X3329000D01*
X3335000Y12013981D01*
X3365000D01*
X3371000Y11991424D01*
D02*
G37*
G36*
X1371000Y11956424D02*
X1329000D01*
X1335000Y11978980D01*
X1365000D01*
X1371000Y11956424D01*
D02*
G37*
G36*
X348830Y11848438D02*
X318830D01*
X312830Y11870994D01*
X354830D01*
X348830Y11848438D01*
D02*
G37*
G36*
X441363Y11847851D02*
X411363D01*
X405363Y11870407D01*
X447363D01*
X441363Y11847851D01*
D02*
G37*
G36*
X3490765Y11831684D02*
X3448766D01*
X3454766Y11854240D01*
X3484765D01*
X3490765Y11831684D01*
D02*
G37*
G36*
X2175000Y11816019D02*
X2145000D01*
X2139000Y11838576D01*
X2181000D01*
X2175000Y11816019D01*
D02*
G37*
G36*
X1483966Y11780613D02*
X1463642Y11770547D01*
X1447280Y11796610D01*
X1460498Y11815446D01*
X1483966Y11780613D01*
D02*
G37*
G36*
X4303981Y11805000D02*
Y11775000D01*
X4281424Y11769000D01*
Y11811000D01*
X4303981Y11805000D01*
D02*
G37*
G36*
X2105000Y11736019D02*
X2075000D01*
X2069000Y11758576D01*
X2111000D01*
X2105000Y11736019D01*
D02*
G37*
G36*
X2041000Y11731424D02*
X1999000D01*
X2005000Y11753981D01*
X2035000D01*
X2041000Y11731424D01*
D02*
G37*
G36*
X2391000Y11671424D02*
X2349000D01*
X2355000Y11693981D01*
X2385000D01*
X2391000Y11671424D01*
D02*
G37*
G36*
X521000Y11641424D02*
X479000D01*
X485000Y11663980D01*
X515000D01*
X521000Y11641424D01*
D02*
G37*
G36*
X3299700Y11659999D02*
X3270002Y11630300D01*
X3258294Y11650493D01*
X3279508Y11671706D01*
X3299700Y11659999D01*
D02*
G37*
G36*
X4303981Y11665000D02*
Y11635000D01*
X4281424Y11629000D01*
Y11671000D01*
X4303981Y11665000D01*
D02*
G37*
G36*
X1468576Y11629000D02*
X1446019Y11635000D01*
Y11665000D01*
X1468576Y11671000D01*
Y11629000D01*
D02*
G37*
G36*
X1465347Y11543810D02*
X1442790Y11549810D01*
Y11579810D01*
X1465347Y11585810D01*
Y11543810D01*
D02*
G37*
G36*
X2255000Y11533980D02*
X2261000Y11511424D01*
X2219000Y11511424D01*
X2225000Y11533981D01*
X2255000Y11533980D01*
D02*
G37*
G36*
X2345551Y11516008D02*
X2304327Y11507972D01*
X2308298Y11530638D01*
X2338298Y11537497D01*
X2345551Y11516008D01*
D02*
G37*
G36*
X4303981Y11525000D02*
Y11495000D01*
X4281424Y11489000D01*
Y11531000D01*
X4303981Y11525000D01*
D02*
G37*
G36*
X1398576Y11478810D02*
X1376019Y11484810D01*
Y11514810D01*
X1398576Y11520810D01*
Y11478810D01*
D02*
G37*
G36*
X2757335Y11488233D02*
X2733901Y11462688D01*
X2709846Y11481059D01*
X2717957Y11499741D01*
X2757335Y11488233D01*
D02*
G37*
G36*
X541706Y11469507D02*
X520492Y11448294D01*
X500300Y11460001D01*
X529998Y11489700D01*
X541706Y11469507D01*
D02*
G37*
G36*
X1248576Y11409000D02*
X1226019Y11415000D01*
Y11445000D01*
X1248576Y11451000D01*
Y11409000D01*
D02*
G37*
G36*
X4301706Y11359508D02*
X4280493Y11338295D01*
X4260300Y11350002D01*
X4289999Y11379700D01*
X4301706Y11359508D01*
D02*
G37*
G36*
X4721000Y11271424D02*
X4679000D01*
X4685000Y11293981D01*
X4715000D01*
X4721000Y11271424D01*
D02*
G37*
G36*
X4161000Y11101424D02*
X4119000D01*
X4125000Y11123981D01*
X4155000D01*
X4161000Y11101424D01*
D02*
G37*
G36*
X4155000Y11036019D02*
X4125000D01*
X4119000Y11058576D01*
X4161000D01*
X4155000Y11036019D01*
D02*
G37*
G36*
X4071000Y11021424D02*
X4029000D01*
X4035000Y11043980D01*
X4065000D01*
X4071000Y11021424D01*
D02*
G37*
G36*
X4065000Y10956019D02*
X4035000D01*
X4029000Y10978576D01*
X4071000D01*
X4065000Y10956019D01*
D02*
G37*
G36*
X4275000Y10816020D02*
X4245000D01*
X4239000Y10838576D01*
X4281000D01*
X4275000Y10816020D01*
D02*
G37*
G36*
X541000Y10801424D02*
X499000D01*
X505000Y10823981D01*
X535000D01*
X541000Y10801424D01*
D02*
G37*
G36*
X875896Y10796528D02*
X833896D01*
X839896Y10819084D01*
X869896D01*
X875896Y10796528D01*
D02*
G37*
G36*
X3971000Y10741424D02*
X3929000D01*
X3935000Y10763981D01*
X3965000D01*
X3971000Y10741424D01*
D02*
G37*
G36*
X944562Y10723348D02*
X936321Y10704399D01*
X897020Y10717176D01*
X920897Y10742110D01*
X944562Y10723348D01*
D02*
G37*
G36*
X3965000Y10676019D02*
X3935000D01*
X3929000Y10698576D01*
X3971000D01*
X3965000Y10676019D01*
D02*
G37*
G36*
X909611Y10660106D02*
X889414Y10648409D01*
X868230Y10669651D01*
X879947Y10689839D01*
X909611Y10660106D01*
D02*
G37*
G36*
X4931000Y10631424D02*
X4889000D01*
X4895000Y10653981D01*
X4925000D01*
X4931000Y10631424D01*
D02*
G37*
G36*
X1936000Y10546424D02*
X1894000D01*
X1900000Y10568980D01*
X1930000D01*
X1936000Y10546424D01*
D02*
G37*
G36*
X1914700Y10495001D02*
X1894508Y10483294D01*
X1873295Y10504507D01*
X1885002Y10524700D01*
X1914700Y10495001D01*
D02*
G37*
G36*
X3871000Y10471424D02*
X3829000D01*
X3835000Y10493981D01*
X3865000D01*
X3871000Y10471424D01*
D02*
G37*
G36*
X3865000Y10406019D02*
X3835000D01*
X3829000Y10428576D01*
X3871000D01*
X3865000Y10406019D01*
D02*
G37*
G36*
X3781000Y10161424D02*
X3739000D01*
X3745000Y10183981D01*
X3775000D01*
X3781000Y10161424D01*
D02*
G37*
G36*
X3798793Y10112420D02*
X3771489Y10097298D01*
X3753221Y10110776D01*
X3789083Y10132638D01*
X3798793Y10112420D01*
D02*
G37*
G36*
X1491000Y9891424D02*
X1449000D01*
X1455000Y9913981D01*
X1485000D01*
X1491000Y9891424D01*
D02*
G37*
G36*
X3691000Y9891424D02*
X3649000D01*
X3655000Y9913980D01*
X3685000D01*
X3691000Y9891424D01*
D02*
G37*
G36*
X4799700Y9889999D02*
X4770002Y9860300D01*
X4758295Y9880493D01*
X4779508Y9901706D01*
X4799700Y9889999D01*
D02*
G37*
G36*
X4679700Y9859998D02*
X4650002Y9830300D01*
X4638295Y9850492D01*
X4659508Y9871705D01*
X4679700Y9859998D01*
D02*
G37*
G36*
X1469700Y9840002D02*
X1449508Y9828295D01*
X1428295Y9849508D01*
X1440002Y9869700D01*
X1469700Y9840002D01*
D02*
G37*
G36*
X535000Y9826019D02*
X505000D01*
X499000Y9848576D01*
X541000D01*
X535000Y9826019D01*
D02*
G37*
G36*
X3685000Y9826019D02*
X3655000D01*
X3649000Y9848576D01*
X3691000D01*
X3685000Y9826019D01*
D02*
G37*
G36*
X4721706Y9809508D02*
X4700493Y9788294D01*
X4680301Y9800001D01*
X4709998Y9829700D01*
X4721706Y9809508D01*
D02*
G37*
G36*
X1631000Y9701424D02*
X1589000D01*
X1595000Y9723981D01*
X1625000D01*
X1631000Y9701424D01*
D02*
G37*
G36*
X4226013Y11329135D02*
X4248065Y11320000D01*
X4251063D01*
X4260702Y11314412D01*
X4644118Y10930995D01*
Y10560000D01*
X4647611Y10542442D01*
X4657557Y10527557D01*
X4954118Y10230995D01*
Y9659037D01*
X4934118Y9652970D01*
X4929653Y9659653D01*
X4807783Y9781522D01*
X4815934Y9801657D01*
X4833987Y9809135D01*
X4850866Y9826013D01*
X4860000Y9848065D01*
Y9871935D01*
X4850866Y9893987D01*
X4833987Y9910866D01*
X4811935Y9920000D01*
X4808937D01*
X4799298Y9925588D01*
X4305882Y10419005D01*
Y10813126D01*
X4308746Y10823893D01*
X4310866Y10826013D01*
X4320000Y10848065D01*
Y10871935D01*
X4310866Y10893987D01*
X4293987Y10910866D01*
X4271935Y10920000D01*
X4248065D01*
X4226013Y10910866D01*
X4216077Y10900930D01*
X4196077Y10909215D01*
Y11031793D01*
X4198709Y11041688D01*
X4205230Y11052981D01*
X4210000Y11070784D01*
Y11089216D01*
X4205230Y11107019D01*
X4198709Y11118312D01*
X4196077Y11128207D01*
Y11330786D01*
X4216077Y11339070D01*
X4226013Y11329135D01*
D02*
G37*
G36*
X3601000Y9621424D02*
X3559000D01*
X3565000Y9643980D01*
X3595000D01*
X3601000Y9621424D01*
D02*
G37*
G36*
X1001240Y9597512D02*
X959257Y9596295D01*
X965000Y9618947D01*
X995000Y9619952D01*
X1001240Y9597512D01*
D02*
G37*
G36*
X3595000Y9556019D02*
X3565000D01*
X3559000Y9578576D01*
X3601000D01*
X3595000Y9556019D01*
D02*
G37*
G36*
X1001240Y9553465D02*
X995000Y9531025D01*
X965000Y9532029D01*
X959257Y9554681D01*
X1001240Y9553465D01*
D02*
G37*
G36*
X1101000Y9511424D02*
X1059000D01*
X1065000Y9533981D01*
X1095000D01*
X1101000Y9511424D01*
D02*
G37*
G36*
X441363Y9509115D02*
X448617Y9487628D01*
X407396Y9479578D01*
X411363Y9510020D01*
X441363Y9509115D01*
D02*
G37*
G36*
X3691000Y9451424D02*
X3649000D01*
X3655000Y9473981D01*
X3685000D01*
X3691000Y9451424D01*
D02*
G37*
G36*
X1095000Y9446019D02*
X1065000D01*
X1059000Y9468576D01*
X1101000D01*
X1095000Y9446019D01*
D02*
G37*
G36*
X3669700Y9400002D02*
X3649508Y9388294D01*
X3628294Y9409507D01*
X3640002Y9429700D01*
X3669700Y9400002D01*
D02*
G37*
G36*
X3491705Y9340492D02*
X3479998Y9320300D01*
X3450300Y9349998D01*
X3470492Y9361705D01*
X3491705Y9340492D01*
D02*
G37*
G36*
X3465000Y9276019D02*
X3435000D01*
X3429000Y9298576D01*
X3471000D01*
X3465000Y9276019D01*
D02*
G37*
G36*
X4801000Y9181424D02*
X4759000D01*
X4765000Y9203981D01*
X4795000D01*
X4801000Y9181424D01*
D02*
G37*
G36*
X471000D02*
X429000D01*
X435000Y9203981D01*
X465000D01*
X471000Y9181424D01*
D02*
G37*
G36*
X4795000Y9116019D02*
X4765000D01*
X4759000Y9138576D01*
X4801000D01*
X4795000Y9116019D01*
D02*
G37*
G36*
X465000D02*
X435000D01*
X429000Y9138576D01*
X471000D01*
X465000Y9116019D01*
D02*
G37*
G36*
X5134119Y10180995D02*
Y9038451D01*
X5124065Y9030678D01*
X5114118Y9026007D01*
X5099216Y9030000D01*
X5080784D01*
X5065882Y9026007D01*
X5055935Y9030678D01*
X5045881Y9038451D01*
Y10240948D01*
X5065881Y10249232D01*
X5134119Y10180995D01*
D02*
G37*
G36*
X5105000Y8916020D02*
X5075000D01*
X5069000Y8938576D01*
X5111000D01*
X5105000Y8916020D01*
D02*
G37*
G36*
X4911000Y8681424D02*
X4869000D01*
X4875000Y8703981D01*
X4905000D01*
X4911000Y8681424D01*
D02*
G37*
G36*
X1821706Y8690492D02*
X1809998Y8670300D01*
X1780300Y8699998D01*
X1800492Y8711705D01*
X1821706Y8690492D01*
D02*
G37*
G36*
X4905000Y8616019D02*
X4875000D01*
X4869000Y8638576D01*
X4911000D01*
X4905000Y8616019D01*
D02*
G37*
G36*
X4801000Y8521424D02*
X4759000D01*
X4765000Y8543981D01*
X4795000D01*
X4801000Y8521424D01*
D02*
G37*
G36*
X4795000Y8456019D02*
X4765000D01*
X4759000Y8478576D01*
X4801000D01*
X4795000Y8456019D01*
D02*
G37*
G36*
X471000Y8441424D02*
X429000D01*
X435000Y8463981D01*
X465000D01*
X471000Y8441424D01*
D02*
G37*
G36*
X465000Y8376019D02*
X435000D01*
X429000Y8398576D01*
X471000D01*
X465000Y8376019D01*
D02*
G37*
G36*
X2238856Y8268157D02*
X2225332Y8253423D01*
X2199579Y8262130D01*
X2227980Y8293072D01*
X2238856Y8268157D01*
D02*
G37*
G36*
X4691000Y8241424D02*
X4649000D01*
X4655000Y8263981D01*
X4685000D01*
X4691000Y8241424D01*
D02*
G37*
G36*
X4685000Y8176019D02*
X4655000D01*
X4649000Y8198576D01*
X4691000D01*
X4685000Y8176019D01*
D02*
G37*
G36*
X4383923Y9426772D02*
Y8173487D01*
X4363923Y8165383D01*
X3616077Y8913228D01*
Y9296772D01*
X3675565Y9356260D01*
X3684423Y9361395D01*
X3697019Y9364770D01*
X3712981Y9373986D01*
X3726014Y9387019D01*
X3735230Y9402981D01*
X3740000Y9420784D01*
Y9439216D01*
X3735230Y9457019D01*
X3728709Y9468312D01*
X3726077Y9478207D01*
Y9821793D01*
X3728709Y9831688D01*
X3735230Y9842981D01*
X3740000Y9860784D01*
Y9879215D01*
X3735230Y9897019D01*
X3728709Y9908312D01*
X3726077Y9918207D01*
Y10055266D01*
X3736517Y10062691D01*
X3746077Y10064617D01*
X4383923Y9426772D01*
D02*
G37*
G36*
X2371563Y8147182D02*
X2357209Y8131544D01*
X2335095Y8152674D01*
X2348619Y8167408D01*
X2371563Y8147182D01*
D02*
G37*
G36*
X801000Y8131424D02*
X759000D01*
X765000Y8153981D01*
X795000D01*
X801000Y8131424D01*
D02*
G37*
G36*
X5111000Y8111424D02*
X5069000D01*
X5075000Y8133981D01*
X5105000D01*
X5111000Y8111424D01*
D02*
G37*
G36*
X356145Y8115285D02*
X315043Y8106647D01*
X318830Y8129256D01*
X348830Y8136671D01*
X356145Y8115285D01*
D02*
G37*
G36*
X1936000Y8091424D02*
X1894000D01*
X1900000Y8113981D01*
X1930000D01*
X1936000Y8091424D01*
D02*
G37*
G36*
X795000Y8066019D02*
X765000D01*
X759000Y8088576D01*
X801000D01*
X795000Y8066019D01*
D02*
G37*
G36*
X2688576Y8059000D02*
X2666019Y8065000D01*
Y8095000D01*
X2688576Y8101000D01*
Y8059000D01*
D02*
G37*
G36*
X1101000Y8031424D02*
X1059000D01*
X1065000Y8053981D01*
X1095000D01*
X1101000Y8031424D01*
D02*
G37*
G36*
X1914700Y8040002D02*
X1894508Y8028295D01*
X1873295Y8049508D01*
X1885002Y8069700D01*
X1914700Y8040002D01*
D02*
G37*
G36*
X5201000Y7971424D02*
X5159000D01*
X5165000Y7993981D01*
X5195000D01*
X5201000Y7971424D01*
D02*
G37*
G36*
X4571000D02*
X4529000D01*
X4535000Y7993981D01*
X4565000D01*
X4571000Y7971424D01*
D02*
G37*
G36*
X1095000Y7966019D02*
X1065000D01*
X1059000Y7988576D01*
X1101000D01*
X1095000Y7966019D01*
D02*
G37*
G36*
X4565000Y7906019D02*
X4535000D01*
X4529000Y7928576D01*
X4571000D01*
X4565000Y7906019D01*
D02*
G37*
G36*
X471000Y7711424D02*
X429000D01*
X435000Y7733981D01*
X465000D01*
X471000Y7711424D01*
D02*
G37*
G36*
X1284118Y10763101D02*
Y9530000D01*
X1287611Y9512442D01*
X1297557Y9497557D01*
X1427557Y9367557D01*
X1442442Y9357611D01*
X1460000Y9354118D01*
X1610995D01*
X1764118Y9200995D01*
Y8849005D01*
X1640995Y8725881D01*
X1480000D01*
X1462442Y8722389D01*
X1447557Y8712443D01*
X1357557Y8622443D01*
X1347611Y8607558D01*
X1344118Y8590000D01*
Y7689417D01*
X1324119Y7681132D01*
X1215881Y7789369D01*
Y10720995D01*
X1265641Y10770754D01*
X1284118Y10763101D01*
D02*
G37*
G36*
X4461000Y7661424D02*
X4419000D01*
X4425000Y7683981D01*
X4455000D01*
X4461000Y7661424D01*
D02*
G37*
G36*
X465000Y7646020D02*
X435000D01*
X429000Y7668576D01*
X471000D01*
X465000Y7646020D01*
D02*
G37*
G36*
X4455000Y7596019D02*
X4425000D01*
X4419000Y7618576D01*
X4461000D01*
X4455000Y7596019D01*
D02*
G37*
G36*
X4351000Y7391424D02*
X4309000D01*
X4315000Y7413981D01*
X4345000D01*
X4351000Y7391424D01*
D02*
G37*
G36*
X4345000Y7326019D02*
X4315000D01*
X4309000Y7348576D01*
X4351000D01*
X4345000Y7326019D01*
D02*
G37*
G36*
X4691000Y7321424D02*
X4649000D01*
X4655000Y7343980D01*
X4685000D01*
X4691000Y7321424D01*
D02*
G37*
G36*
X1001642Y7315600D02*
X959788Y7312100D01*
X965000Y7334867D01*
X995000Y7337772D01*
X1001642Y7315600D01*
D02*
G37*
G36*
X4685000Y7256019D02*
X4655000D01*
X4649000Y7278576D01*
X4691000D01*
X4685000Y7256019D01*
D02*
G37*
G36*
X1001642Y7269400D02*
X995000Y7247228D01*
X965000Y7250133D01*
X959788Y7272900D01*
X1001642Y7269400D01*
D02*
G37*
G36*
X923923Y10596541D02*
Y9622877D01*
X921201Y9612139D01*
X915640Y9602507D01*
X910869Y9584704D01*
Y9566273D01*
X915640Y9548469D01*
X921201Y9538837D01*
X923923Y9528100D01*
Y7338193D01*
X921209Y7326341D01*
X917271Y7319519D01*
X912500Y7301716D01*
Y7283284D01*
X917271Y7265481D01*
X921209Y7258659D01*
X923923Y7246807D01*
Y7183667D01*
X903923Y7175383D01*
X836077Y7243228D01*
Y8061793D01*
X838709Y8071688D01*
X845229Y8082981D01*
X850000Y8100784D01*
Y8119216D01*
X845229Y8137019D01*
X838709Y8148312D01*
X836077Y8158207D01*
Y10536980D01*
X903923Y10604825D01*
X923923Y10596541D01*
D02*
G37*
G36*
X1699700Y7199998D02*
X1670001Y7170300D01*
X1658294Y7190492D01*
X1679507Y7211705D01*
X1699700Y7199998D01*
D02*
G37*
G36*
X4251000Y7121424D02*
X4209000D01*
X4215000Y7143981D01*
X4245000D01*
X4251000Y7121424D01*
D02*
G37*
G36*
X1254118Y7621360D02*
Y7130000D01*
X1257611Y7112442D01*
X1262571Y7105019D01*
X1247036Y7092269D01*
X1136077Y7203228D01*
Y7711116D01*
X1156077Y7719401D01*
X1254118Y7621360D01*
D02*
G37*
G36*
X4245000Y7056019D02*
X4215000D01*
X4209000Y7078576D01*
X4251000D01*
X4245000Y7056019D01*
D02*
G37*
G36*
X471000Y6991424D02*
X429000D01*
X435000Y7013981D01*
X465000D01*
X471000Y6991424D01*
D02*
G37*
G36*
X465000Y6926019D02*
X435000D01*
X429000Y6948576D01*
X471000D01*
X465000Y6926019D01*
D02*
G37*
G36*
X1109700Y6919998D02*
X1080002Y6890300D01*
X1068295Y6910492D01*
X1089508Y6931705D01*
X1109700Y6919998D01*
D02*
G37*
G36*
X1409700Y6879998D02*
X1380002Y6850300D01*
X1368294Y6870492D01*
X1389508Y6891706D01*
X1409700Y6879998D01*
D02*
G37*
G36*
X1125000Y6846019D02*
X1095000D01*
X1089000Y6868576D01*
X1131000D01*
X1125000Y6846019D01*
D02*
G37*
G36*
X1425000Y6806019D02*
X1395000D01*
X1389000Y6828576D01*
X1431000D01*
X1425000Y6806019D01*
D02*
G37*
G36*
X4571000Y6591424D02*
X4529000D01*
X4535000Y6613981D01*
X4565000D01*
X4571000Y6591424D01*
D02*
G37*
G36*
X140042Y6552322D02*
X98083Y6550485D01*
X103687Y6573177D01*
X133687Y6574696D01*
X140042Y6552322D01*
D02*
G37*
G36*
X4565000Y6526019D02*
X4535000D01*
X4529000Y6548576D01*
X4571000D01*
X4565000Y6526019D01*
D02*
G37*
G36*
X206250Y6483218D02*
X211874Y6460531D01*
X169911Y6462281D01*
X176250Y6484663D01*
X206250Y6483218D01*
D02*
G37*
G36*
X471000Y6371424D02*
X429000D01*
X435000Y6393981D01*
X465000D01*
X471000Y6371424D01*
D02*
G37*
G36*
X5145000Y6306019D02*
X5115000D01*
X5109000Y6328576D01*
X5151000D01*
X5145000Y6306019D01*
D02*
G37*
G36*
X4461000Y6281424D02*
X4419000D01*
X4425000Y6303981D01*
X4455000D01*
X4461000Y6281424D01*
D02*
G37*
G36*
X1516000D02*
X1474000D01*
X1480000Y6303981D01*
X1510000D01*
X1516000Y6281424D01*
D02*
G37*
G36*
X4455000Y6216019D02*
X4425000D01*
X4419000Y6238576D01*
X4461000D01*
X4455000Y6216019D01*
D02*
G37*
G36*
X1906000Y5471424D02*
X1864000D01*
X1870000Y5493981D01*
X1900000D01*
X1906000Y5471424D01*
D02*
G37*
G36*
X1900000Y5406019D02*
X1870000D01*
X1864000Y5428576D01*
X1906000D01*
X1900000Y5406019D01*
D02*
G37*
G36*
X4911000Y5031424D02*
X4869000D01*
X4875000Y5053980D01*
X4905000D01*
X4911000Y5031424D01*
D02*
G37*
G36*
X1131000Y4991424D02*
X1089000D01*
X1095000Y5013981D01*
X1125000D01*
X1131000Y4991424D01*
D02*
G37*
G36*
X4145000Y4966019D02*
X4115000D01*
X4109000Y4988576D01*
X4151000D01*
X4145000Y4966019D01*
D02*
G37*
G36*
X1125000Y4926019D02*
X1095000D01*
X1089000Y4948576D01*
X1131000D01*
X1125000Y4926019D01*
D02*
G37*
G36*
X1701000Y4887076D02*
X1659000D01*
X1665000Y4909633D01*
X1695000D01*
X1701000Y4887076D01*
D02*
G37*
G36*
X4801000Y4741424D02*
X4759000D01*
X4765000Y4763981D01*
X4795000D01*
X4801000Y4741424D01*
D02*
G37*
G36*
X4045000Y4676020D02*
X4015000D01*
X4009000Y4698576D01*
X4051000D01*
X4045000Y4676020D01*
D02*
G37*
G36*
X2533680Y4608725D02*
X2515247Y4600964D01*
X2486723Y4648897D01*
X2519328Y4662626D01*
X2533680Y4608725D01*
D02*
G37*
G36*
X2181706Y4559508D02*
X2160493Y4538294D01*
X2140300Y4550002D01*
X2169998Y4579700D01*
X2181706Y4559508D01*
D02*
G37*
G36*
X4691000Y4461425D02*
X4649000Y4461424D01*
X4655000Y4483981D01*
X4685000Y4483981D01*
X4691000Y4461425D01*
D02*
G37*
G36*
X2598862Y4473730D02*
X2566257Y4460002D01*
X2551905Y4513902D01*
X2570338Y4521664D01*
X2598862Y4473730D01*
D02*
G37*
G36*
X2276190Y4457952D02*
X2262048Y4443810D01*
X2239990Y4465000D01*
X2255000Y4480010D01*
X2276190Y4457952D01*
D02*
G37*
G36*
X3944045Y4417047D02*
X3937421Y4394860D01*
X3907421Y4397673D01*
X3902182Y4420437D01*
X3944045Y4417047D01*
D02*
G37*
G36*
X5080784Y8020000D02*
X5099216D01*
X5114118Y8023993D01*
X5124065Y8019322D01*
X5134119Y8011549D01*
Y7996874D01*
X5131254Y7986107D01*
X5129135Y7983987D01*
X5120000Y7961935D01*
Y7938065D01*
X5129135Y7916013D01*
X5146013Y7899135D01*
X5168065Y7890000D01*
X5191935D01*
X5213987Y7899135D01*
X5223923Y7909070D01*
X5243923Y7900786D01*
Y5321405D01*
X5240000Y5311935D01*
Y5288065D01*
X5243923Y5278595D01*
Y4433228D01*
X5205420Y4394725D01*
X5194862Y4397604D01*
X5186077Y4403667D01*
Y6301793D01*
X5188709Y6311688D01*
X5195229Y6322981D01*
X5200000Y6340784D01*
Y6359216D01*
X5195229Y6377019D01*
X5186014Y6392981D01*
X5172981Y6406014D01*
X5157019Y6415229D01*
X5139216Y6420000D01*
X5120784D01*
X5102981Y6415229D01*
X5087019Y6406014D01*
X5073986Y6392981D01*
X5048489Y6388399D01*
X5045881Y6390027D01*
Y8011549D01*
X5055935Y8019322D01*
X5065882Y8023993D01*
X5080784Y8020000D01*
D02*
G37*
G36*
X2390010Y4345000D02*
X2375000Y4329990D01*
X2353810Y4352048D01*
X2367952Y4366190D01*
X2390010Y4345000D01*
D02*
G37*
G36*
X1943418Y4310514D02*
X1901418D01*
X1907418Y4333071D01*
X1937418D01*
X1943418Y4310514D01*
D02*
G37*
G36*
X2709700Y4270002D02*
X2689507Y4258295D01*
X2668294Y4279508D01*
X2680001Y4299700D01*
X2709700Y4270002D01*
D02*
G37*
G36*
X1922118Y4259092D02*
X1901925Y4247385D01*
X1880712Y4268598D01*
X1892419Y4288790D01*
X1922118Y4259092D01*
D02*
G37*
G36*
X4571000Y4191424D02*
X4529000D01*
X4535000Y4213981D01*
X4565000D01*
X4571000Y4191424D01*
D02*
G37*
G36*
X3835000Y4126392D02*
X3805000D01*
X3799000Y4148949D01*
X3841000D01*
X3835000Y4126392D01*
D02*
G37*
G36*
X4461000Y3881424D02*
X4419000D01*
X4425000Y3903981D01*
X4455000D01*
X4461000Y3881424D01*
D02*
G37*
G36*
X3735000Y3816019D02*
X3705000D01*
X3699000Y3838576D01*
X3741000D01*
X3735000Y3816019D01*
D02*
G37*
G36*
X2771000Y3651424D02*
X2729000D01*
X2735000Y3673981D01*
X2765000D01*
X2771000Y3651424D01*
D02*
G37*
G36*
X4351000Y3611424D02*
X4309000D01*
X4315000Y3633981D01*
X4345000D01*
X4351000Y3611424D01*
D02*
G37*
G36*
X4581000Y3601424D02*
X4539000D01*
X4545000Y3623981D01*
X4575000D01*
X4581000Y3601424D01*
D02*
G37*
G36*
X3635000Y3546019D02*
X3605000D01*
X3599000Y3568576D01*
X3641000D01*
X3635000Y3546019D01*
D02*
G37*
G36*
X2571929Y3524831D02*
X2560611Y3496415D01*
X2541886Y3503442D01*
X2552055Y3532288D01*
X2571929Y3524831D01*
D02*
G37*
G36*
X2533830Y3425042D02*
X2523661Y3396196D01*
X2503787Y3403653D01*
X2515105Y3432069D01*
X2533830Y3425042D01*
D02*
G37*
G36*
X1742933Y3411145D02*
X1731226Y3390952D01*
X1701527Y3420651D01*
X1721720Y3432358D01*
X1742933Y3411145D01*
D02*
G37*
G36*
X4251000Y3341424D02*
X4209000D01*
X4215000Y3363981D01*
X4245000D01*
X4251000Y3341424D01*
D02*
G37*
G36*
X1341000Y3291424D02*
X1299000D01*
X1305000Y3313981D01*
X1335000D01*
X1341000Y3291424D01*
D02*
G37*
G36*
X3535000Y3276019D02*
X3505000D01*
X3499000Y3298576D01*
X3541000D01*
X3535000Y3276019D01*
D02*
G37*
G36*
X1335000Y3226019D02*
X1305000D01*
X1299000Y3248576D01*
X1341000D01*
X1335000Y3226019D01*
D02*
G37*
G36*
X1431000Y3191424D02*
X1389000D01*
X1395000Y3213981D01*
X1425000D01*
X1431000Y3191424D01*
D02*
G37*
G36*
X1425000Y3126019D02*
X1395000D01*
X1389000Y3148576D01*
X1431000D01*
X1425000Y3126019D01*
D02*
G37*
G36*
X1613476Y3089282D02*
X1591099Y3068046D01*
X1579394Y3080503D01*
X1600607Y3101716D01*
X1613476Y3089282D01*
D02*
G37*
G36*
X4151000Y2541424D02*
X4109000D01*
X4115000Y2563981D01*
X4145000D01*
X4151000Y2541424D01*
D02*
G37*
G36*
X1131000Y2471424D02*
X1089000D01*
X1095000Y2493981D01*
X1125000D01*
X1131000Y2471424D01*
D02*
G37*
G36*
X4511000Y2451424D02*
X4469000D01*
X4475000Y2473981D01*
X4505000D01*
X4511000Y2451424D01*
D02*
G37*
G36*
X4051000Y2241424D02*
X4009000D01*
X4015000Y2263980D01*
X4045000D01*
X4051000Y2241424D01*
D02*
G37*
G36*
X2854533Y2191918D02*
X2837837Y2138697D01*
X2818111Y2141996D01*
X2819640Y2197753D01*
X2854533Y2191918D01*
D02*
G37*
G36*
X2533823Y2114953D02*
X2515096Y2107931D01*
X2503784Y2136349D01*
X2523660Y2143802D01*
X2533823Y2114953D01*
D02*
G37*
G36*
X2576216Y2003652D02*
X2556340Y1996198D01*
X2546177Y2025047D01*
X2564904Y2032070D01*
X2576216Y2003652D01*
D02*
G37*
G36*
X2820855Y2037139D02*
X2819326Y1981381D01*
X2784434Y1987216D01*
X2801129Y2040438D01*
X2820855Y2037139D01*
D02*
G37*
G36*
X3937421Y1982423D02*
X3942661Y1959659D01*
X3900798Y1963049D01*
X3907421Y1985236D01*
X3937421Y1982423D01*
D02*
G37*
G36*
X2709700Y1829998D02*
X2680001Y1800300D01*
X2668294Y1820492D01*
X2689507Y1841705D01*
X2709700Y1829998D01*
D02*
G37*
G36*
X1915445Y1809502D02*
X1880613Y1786034D01*
X1870547Y1806358D01*
X1896610Y1822721D01*
X1915445Y1809502D01*
D02*
G37*
G36*
X1909700Y1750002D02*
X1889508Y1738294D01*
X1868294Y1759508D01*
X1880002Y1779700D01*
X1909700Y1750002D01*
D02*
G37*
G36*
X3841000Y1691424D02*
X3799000D01*
X3805000Y1713981D01*
X3835000D01*
X3841000Y1691424D01*
D02*
G37*
G36*
X3741000Y1371424D02*
X3699000D01*
X3705000Y1393981D01*
X3735000D01*
X3741000Y1371424D01*
D02*
G37*
G36*
X3641000Y1111424D02*
X3599000D01*
X3605000Y1133981D01*
X3635000D01*
X3641000Y1111424D01*
D02*
G37*
G36*
X1955445Y889502D02*
X1920613Y866034D01*
X1910547Y886358D01*
X1936610Y902721D01*
X1955445Y889502D01*
D02*
G37*
G36*
X3541000Y841424D02*
X3499000D01*
X3505000Y863980D01*
X3535000D01*
X3541000Y841424D01*
D02*
G37*
G36*
X1341000Y761424D02*
X1299000D01*
X1305000Y783981D01*
X1335000D01*
X1341000Y761424D01*
D02*
G37*
G36*
X1431000Y631424D02*
X1389000D01*
X1395000Y653981D01*
X1425000D01*
X1431000Y631424D01*
D02*
G37*
G36*
X1913966Y519387D02*
X1890498Y484555D01*
X1877279Y503390D01*
X1893642Y529453D01*
X1913966Y519387D01*
D02*
G37*
%LPC*%
G36*
X717164Y11126500D02*
X695836D01*
X675235Y11120980D01*
X656765Y11110316D01*
X641684Y11095235D01*
X631020Y11076765D01*
X625500Y11056164D01*
Y11034836D01*
X631020Y11014235D01*
X641684Y10995765D01*
X656765Y10980684D01*
X675235Y10970020D01*
X695836Y10964500D01*
X717164D01*
X737765Y10970020D01*
X756235Y10980684D01*
X771316Y10995765D01*
X781980Y11014235D01*
X787500Y11034836D01*
Y11056164D01*
X781980Y11076765D01*
X771316Y11095235D01*
X756235Y11110316D01*
X737765Y11120980D01*
X717164Y11126500D01*
D02*
G37*
G36*
X2658309Y11055492D02*
X2627707Y11047623D01*
X2600186Y11032103D01*
X2577618Y11009988D01*
X2561544Y10982786D01*
X2553058Y10952350D01*
X2552738Y10920755D01*
X2562376Y10841338D01*
X2570245Y10810737D01*
X2585765Y10783215D01*
X2607880Y10760648D01*
X2635082Y10744573D01*
X2665518Y10736087D01*
X2697113Y10735767D01*
X2727714Y10743635D01*
X2755236Y10759156D01*
X2777803Y10781271D01*
X2793878Y10808473D01*
X2802364Y10838908D01*
X2802684Y10870503D01*
X2793045Y10949921D01*
X2785177Y10980522D01*
X2769656Y11008044D01*
X2747541Y11030611D01*
X2720339Y11046686D01*
X2689904Y11055172D01*
X2658309Y11055492D01*
D02*
G37*
G36*
X2989149Y11018821D02*
X2957567Y11017868D01*
X2927308Y11008774D01*
X2900433Y10992158D01*
X2878775Y10969152D01*
X2863809Y10941325D01*
X2835437Y10866524D01*
X2828183Y10835772D01*
X2829136Y10804190D01*
X2838230Y10773930D01*
X2854846Y10747055D01*
X2877852Y10725397D01*
X2905679Y10710431D01*
X2936432Y10703177D01*
X2968014Y10704130D01*
X2998274Y10713225D01*
X3025148Y10729841D01*
X3046806Y10752847D01*
X3061772Y10780674D01*
X3090145Y10855474D01*
X3097398Y10886227D01*
X3096446Y10917809D01*
X3087351Y10948069D01*
X3070735Y10974943D01*
X3047729Y10996601D01*
X3019902Y11011568D01*
X2989149Y11018821D01*
D02*
G37*
G36*
X2376738Y10947375D02*
X2345845Y10940745D01*
X2317720Y10926346D01*
X2294280Y10905158D01*
X2277123Y10878625D01*
X2267419Y10848556D01*
X2265827Y10816999D01*
X2272456Y10786106D01*
X2286856Y10757982D01*
X2332297Y10692140D01*
X2353486Y10668701D01*
X2380018Y10651544D01*
X2410087Y10641839D01*
X2441644Y10640246D01*
X2472537Y10646876D01*
X2500661Y10661276D01*
X2524101Y10682464D01*
X2541258Y10708997D01*
X2550963Y10739066D01*
X2552555Y10770622D01*
X2545925Y10801515D01*
X2531526Y10829640D01*
X2486084Y10895482D01*
X2464896Y10918921D01*
X2438363Y10936078D01*
X2408294Y10945783D01*
X2376738Y10947375D01*
D02*
G37*
G36*
X3236379Y10845192D02*
X3204860Y10842968D01*
X3174992Y10832662D01*
X3148808Y10814977D01*
X3088925Y10761930D01*
X3068211Y10738070D01*
X3054377Y10709663D01*
X3048368Y10678643D01*
X3050592Y10647125D01*
X3060897Y10617256D01*
X3078583Y10591073D01*
X3102442Y10570359D01*
X3130849Y10556525D01*
X3161869Y10550516D01*
X3193387Y10552740D01*
X3223256Y10563045D01*
X3249440Y10580730D01*
X3309323Y10633778D01*
X3330037Y10657637D01*
X3343870Y10686045D01*
X3349880Y10717064D01*
X3347656Y10748583D01*
X3337350Y10778451D01*
X3319665Y10804635D01*
X3295806Y10825349D01*
X3267399Y10839182D01*
X3236379Y10845192D01*
D02*
G37*
G36*
X2178867Y10708319D02*
X2150327Y10703387D01*
X2124035Y10691237D01*
X2101784Y10672695D01*
X2085090Y10649027D01*
X2075091Y10621844D01*
X2072468Y10593000D01*
X2077400Y10564459D01*
X2089551Y10538167D01*
X2108092Y10515917D01*
X2131761Y10499223D01*
X2202595Y10462040D01*
X2229778Y10452041D01*
X2258622Y10449418D01*
X2287163Y10454350D01*
X2313454Y10466501D01*
X2335705Y10485042D01*
X2352399Y10508711D01*
X2362398Y10535893D01*
X2365021Y10564738D01*
X2360089Y10593278D01*
X2347938Y10619570D01*
X2329397Y10641820D01*
X2305729Y10658514D01*
X2234894Y10695697D01*
X2207712Y10705696D01*
X2178867Y10708319D01*
D02*
G37*
G36*
X2721935Y10640000D02*
X2698065D01*
X2676013Y10630865D01*
X2659134Y10613987D01*
X2650000Y10591935D01*
Y10588937D01*
X2644412Y10579298D01*
X2466496Y10401382D01*
X2456550Y10386497D01*
X2453057Y10368939D01*
Y10065811D01*
X2450193Y10055044D01*
X2448073Y10052924D01*
X2438939Y10030871D01*
Y10007002D01*
X2448073Y9984950D01*
X2455845Y9977178D01*
X2445877Y9958862D01*
X2441619Y9959776D01*
X2410063Y9958186D01*
X2379993Y9948483D01*
X2353459Y9931328D01*
X2332269Y9907890D01*
X2286823Y9842051D01*
X2272422Y9813928D01*
X2265790Y9783035D01*
X2267380Y9751479D01*
X2277083Y9721409D01*
X2294238Y9694875D01*
X2317676Y9673685D01*
X2345799Y9659284D01*
X2376692Y9652652D01*
X2408249Y9654242D01*
X2438318Y9663944D01*
X2464852Y9681100D01*
X2486042Y9704538D01*
X2531488Y9770376D01*
X2545890Y9798500D01*
X2552522Y9829393D01*
X2550932Y9860949D01*
X2541229Y9891019D01*
X2524074Y9917553D01*
X2500636Y9938742D01*
X2500256Y9938937D01*
X2505079Y9958937D01*
X2510874D01*
X2532926Y9968071D01*
X2549804Y9984950D01*
X2558939Y10007002D01*
Y10030871D01*
X2549804Y10052924D01*
X2547685Y10055044D01*
X2544820Y10065811D01*
Y10349934D01*
X2631346Y10436460D01*
X2649824Y10428806D01*
Y10322056D01*
X2849824D01*
Y10354118D01*
X3070000D01*
X3087558Y10357611D01*
X3102443Y10367557D01*
X3119298Y10384412D01*
X3128937Y10390000D01*
X3131935D01*
X3153987Y10399134D01*
X3156812Y10401959D01*
X3159320Y10402357D01*
X3179573Y10396436D01*
X3187713Y10375605D01*
X3206438Y10350155D01*
X3231112Y10330419D01*
X3260054Y10317740D01*
X3291290Y10312985D01*
X3322693Y10316476D01*
X3400370Y10335619D01*
X3429799Y10347119D01*
X3455250Y10365844D01*
X3474986Y10390518D01*
X3487664Y10419460D01*
X3492419Y10450696D01*
X3488928Y10482099D01*
X3477428Y10511529D01*
X3458703Y10536979D01*
X3434029Y10556715D01*
X3405087Y10569393D01*
X3373851Y10574149D01*
X3342447Y10570657D01*
X3264771Y10551515D01*
X3235342Y10540015D01*
X3209891Y10521290D01*
X3190155Y10496616D01*
X3187832Y10491312D01*
X3165249Y10489604D01*
X3153987Y10500865D01*
X3131935Y10510000D01*
X3108065D01*
X3086013Y10500865D01*
X3069135Y10483987D01*
X3060000Y10461935D01*
Y10458937D01*
X3054412Y10449298D01*
X3050995Y10445882D01*
X2849824D01*
Y10472055D01*
X2693073D01*
X2685419Y10490533D01*
X2709298Y10514412D01*
X2718937Y10520000D01*
X2721935D01*
X2743987Y10529134D01*
X2760865Y10546013D01*
X2770000Y10568065D01*
Y10591935D01*
X2760865Y10613987D01*
X2743987Y10630865D01*
X2721935Y10640000D01*
D02*
G37*
G36*
X2190000Y10421035D02*
X2110000D01*
X2078674Y10416911D01*
X2049482Y10404820D01*
X2024415Y10385585D01*
X2005180Y10360518D01*
X1993089Y10331326D01*
X1988965Y10300000D01*
X1993089Y10268674D01*
X2005180Y10239482D01*
X2024415Y10214415D01*
X2049482Y10195180D01*
X2078674Y10183089D01*
X2110000Y10178965D01*
X2190000D01*
X2221327Y10183089D01*
X2250518Y10195180D01*
X2275585Y10214415D01*
X2294820Y10239482D01*
X2306911Y10268674D01*
X2311036Y10300000D01*
X2306911Y10331326D01*
X2294820Y10360518D01*
X2275585Y10385585D01*
X2250518Y10404820D01*
X2221327Y10416911D01*
X2190000Y10421035D01*
D02*
G37*
G36*
X3291289Y10286976D02*
X3260052Y10282223D01*
X3231110Y10269547D01*
X3206434Y10249812D01*
X3187708Y10224363D01*
X3176205Y10194935D01*
X3172712Y10163532D01*
X3177465Y10132295D01*
X3190141Y10103353D01*
X3209876Y10078677D01*
X3235324Y10059950D01*
X3264753Y10048448D01*
X3342428Y10029300D01*
X3373831Y10025807D01*
X3405068Y10030560D01*
X3434011Y10043236D01*
X3458686Y10062971D01*
X3477413Y10088419D01*
X3488915Y10117848D01*
X3492409Y10149251D01*
X3487655Y10180488D01*
X3474979Y10209430D01*
X3455245Y10234106D01*
X3429796Y10252833D01*
X3400367Y10264335D01*
X3322692Y10283483D01*
X3291289Y10286976D01*
D02*
G37*
G36*
X2258611Y10150617D02*
X2229767Y10147996D01*
X2202583Y10137999D01*
X2131746Y10100821D01*
X2108077Y10084129D01*
X2089534Y10061880D01*
X2077381Y10035589D01*
X2072447Y10007049D01*
X2075068Y9978204D01*
X2085066Y9951020D01*
X2101758Y9927351D01*
X2124007Y9908808D01*
X2150298Y9896656D01*
X2178838Y9891722D01*
X2207683Y9894343D01*
X2234866Y9904340D01*
X2305703Y9941518D01*
X2329373Y9958210D01*
X2347916Y9980459D01*
X2360068Y10006750D01*
X2365002Y10035290D01*
X2362381Y10064135D01*
X2352384Y10091318D01*
X2335692Y10114988D01*
X2313442Y10133531D01*
X2287151Y10145683D01*
X2258611Y10150617D01*
D02*
G37*
G36*
X3161851Y10049454D02*
X3130831Y10043447D01*
X3102422Y10029616D01*
X3078562Y10008904D01*
X3060875Y9982721D01*
X3050567Y9952853D01*
X3048341Y9921335D01*
X3054348Y9890315D01*
X3068179Y9861907D01*
X3088892Y9838046D01*
X3148772Y9784994D01*
X3174954Y9767307D01*
X3204822Y9757000D01*
X3236340Y9754774D01*
X3267360Y9760781D01*
X3295769Y9774612D01*
X3319629Y9795325D01*
X3337316Y9821507D01*
X3347624Y9851375D01*
X3349850Y9882893D01*
X3343843Y9913913D01*
X3330012Y9942321D01*
X3309299Y9966182D01*
X3249419Y10019234D01*
X3223237Y10036921D01*
X3193369Y10047229D01*
X3161851Y10049454D01*
D02*
G37*
G36*
X2936403Y9896809D02*
X2905650Y9889558D01*
X2877821Y9874594D01*
X2854814Y9852937D01*
X2838196Y9826063D01*
X2829099Y9795805D01*
X2828144Y9764223D01*
X2835396Y9733469D01*
X2863763Y9658667D01*
X2878727Y9630839D01*
X2900384Y9607831D01*
X2927257Y9591213D01*
X2957516Y9582117D01*
X2989098Y9581162D01*
X3019851Y9588414D01*
X3047680Y9603378D01*
X3070687Y9625034D01*
X3087305Y9651908D01*
X3096401Y9682166D01*
X3097357Y9713748D01*
X3090105Y9744502D01*
X3061738Y9819304D01*
X3046774Y9847132D01*
X3025117Y9870140D01*
X2998244Y9886758D01*
X2967985Y9895854D01*
X2936403Y9896809D01*
D02*
G37*
G36*
X2849824Y10277055D02*
X2649824D01*
Y10127055D01*
X2708956D01*
Y9955258D01*
X2706092Y9944491D01*
X2703972Y9942371D01*
X2694837Y9920318D01*
Y9896449D01*
X2700263Y9883351D01*
X2700057Y9882115D01*
X2688090Y9864147D01*
X2665486Y9863920D01*
X2635050Y9855435D01*
X2607847Y9839363D01*
X2585730Y9816797D01*
X2570208Y9789276D01*
X2562338Y9758676D01*
X2552693Y9679259D01*
X2553011Y9647664D01*
X2561495Y9617227D01*
X2577568Y9590025D01*
X2600133Y9567908D01*
X2627654Y9552386D01*
X2658255Y9544515D01*
X2689850Y9544833D01*
X2720286Y9553317D01*
X2747489Y9569390D01*
X2769606Y9591955D01*
X2785128Y9619476D01*
X2792998Y9650076D01*
X2802643Y9729493D01*
X2802325Y9761088D01*
X2793841Y9791525D01*
X2777768Y9818728D01*
X2767576Y9828717D01*
X2767398Y9833062D01*
X2773317Y9851095D01*
X2788824Y9857518D01*
X2805703Y9874397D01*
X2814837Y9896449D01*
Y9920318D01*
X2805703Y9942371D01*
X2803583Y9944491D01*
X2800719Y9955258D01*
Y10127055D01*
X2849824D01*
Y10277055D01*
D02*
G37*
G36*
X2658309Y8555492D02*
X2627707Y8547623D01*
X2600186Y8532103D01*
X2577618Y8509988D01*
X2561544Y8482786D01*
X2553058Y8452350D01*
X2552738Y8420755D01*
X2562376Y8341338D01*
X2570245Y8310736D01*
X2585765Y8283215D01*
X2607880Y8260647D01*
X2635082Y8244573D01*
X2665518Y8236087D01*
X2697113Y8235767D01*
X2727714Y8243635D01*
X2755236Y8259156D01*
X2777803Y8281270D01*
X2793878Y8308473D01*
X2802364Y8338908D01*
X2802684Y8370503D01*
X2793045Y8449921D01*
X2785177Y8480522D01*
X2769656Y8508044D01*
X2747541Y8530611D01*
X2720339Y8546685D01*
X2689904Y8555172D01*
X2658309Y8555492D01*
D02*
G37*
G36*
X2989149Y8518821D02*
X2957567Y8517868D01*
X2927308Y8508774D01*
X2900433Y8492158D01*
X2878775Y8469152D01*
X2863809Y8441324D01*
X2835437Y8366524D01*
X2828183Y8335771D01*
X2829136Y8304190D01*
X2838230Y8273930D01*
X2854846Y8247055D01*
X2877852Y8225397D01*
X2905679Y8210431D01*
X2936432Y8203177D01*
X2968014Y8204130D01*
X2998274Y8213225D01*
X3025148Y8229841D01*
X3046806Y8252847D01*
X3061772Y8280674D01*
X3090145Y8355474D01*
X3097398Y8386227D01*
X3096446Y8417809D01*
X3087351Y8448068D01*
X3070735Y8474943D01*
X3047729Y8496601D01*
X3019902Y8511567D01*
X2989149Y8518821D01*
D02*
G37*
G36*
X3236379Y8345192D02*
X3204860Y8342968D01*
X3174992Y8332662D01*
X3148808Y8314977D01*
X3088925Y8261930D01*
X3068211Y8238070D01*
X3054377Y8209663D01*
X3048368Y8178643D01*
X3050592Y8147125D01*
X3060897Y8117256D01*
X3078583Y8091073D01*
X3102442Y8070359D01*
X3130849Y8056525D01*
X3161869Y8050516D01*
X3193387Y8052740D01*
X3223256Y8063045D01*
X3249440Y8080730D01*
X3309323Y8133778D01*
X3330037Y8157637D01*
X3343870Y8186045D01*
X3349880Y8217064D01*
X3347656Y8248583D01*
X3337350Y8278451D01*
X3319665Y8304635D01*
X3295806Y8325349D01*
X3267399Y8339182D01*
X3236379Y8345192D01*
D02*
G37*
G36*
X3373851Y8074149D02*
X3342447Y8070657D01*
X3264771Y8051515D01*
X3235342Y8040015D01*
X3209891Y8021290D01*
X3190155Y7996615D01*
X3185668Y7986372D01*
X3163929Y7986591D01*
X3160865Y7993987D01*
X3143987Y8010866D01*
X3121935Y8020000D01*
X3098065D01*
X3076013Y8010866D01*
X3059134Y7993987D01*
X3055212Y7984517D01*
X3023999Y7953305D01*
X2850956D01*
Y7969586D01*
X2650957D01*
Y7819586D01*
X2850956D01*
Y7841150D01*
X3047227D01*
X3068687Y7845419D01*
X3086880Y7857575D01*
X3134517Y7905212D01*
X3143987Y7909135D01*
X3154468Y7919616D01*
X3175359Y7912718D01*
X3176213Y7905034D01*
X3187713Y7875605D01*
X3206438Y7850155D01*
X3231112Y7830418D01*
X3260054Y7817740D01*
X3291290Y7812985D01*
X3322693Y7816476D01*
X3400370Y7835619D01*
X3429799Y7847119D01*
X3455250Y7865844D01*
X3474986Y7890518D01*
X3487664Y7919460D01*
X3492419Y7950696D01*
X3488928Y7982099D01*
X3477428Y8011529D01*
X3458703Y8036979D01*
X3434029Y8056715D01*
X3405087Y8069393D01*
X3373851Y8074149D01*
D02*
G37*
G36*
X2190000Y7921035D02*
X2110000D01*
X2078674Y7916911D01*
X2049482Y7904820D01*
X2024415Y7885585D01*
X2005180Y7860518D01*
X1993089Y7831326D01*
X1988965Y7800000D01*
X1993089Y7768674D01*
X2005180Y7739482D01*
X2024415Y7714415D01*
X2049482Y7695180D01*
X2078674Y7683089D01*
X2110000Y7678965D01*
X2190000D01*
X2221327Y7683089D01*
X2250518Y7695180D01*
X2275585Y7714415D01*
X2294820Y7739482D01*
X2306911Y7768674D01*
X2311036Y7800000D01*
X2306911Y7831326D01*
X2294820Y7860518D01*
X2275585Y7885585D01*
X2250518Y7904820D01*
X2221327Y7916911D01*
X2190000Y7921035D01*
D02*
G37*
G36*
X3291289Y7786976D02*
X3260052Y7782223D01*
X3231110Y7769547D01*
X3206434Y7749812D01*
X3187708Y7724363D01*
X3176205Y7694935D01*
X3172712Y7663532D01*
X3177465Y7632295D01*
X3190141Y7603353D01*
X3209876Y7578677D01*
X3235324Y7559950D01*
X3264753Y7548448D01*
X3342428Y7529300D01*
X3373831Y7525807D01*
X3405068Y7530560D01*
X3434011Y7543236D01*
X3458686Y7562971D01*
X3477413Y7588419D01*
X3488915Y7617848D01*
X3492409Y7649251D01*
X3487655Y7680488D01*
X3474979Y7709430D01*
X3455245Y7734106D01*
X3429796Y7752833D01*
X3400367Y7764335D01*
X3322692Y7783483D01*
X3291289Y7786976D01*
D02*
G37*
G36*
X2258611Y7650617D02*
X2229767Y7647996D01*
X2202583Y7637999D01*
X2131746Y7600821D01*
X2108077Y7584129D01*
X2089534Y7561879D01*
X2077381Y7535589D01*
X2072447Y7507048D01*
X2075068Y7478204D01*
X2085066Y7451020D01*
X2101758Y7427351D01*
X2124007Y7408808D01*
X2150298Y7396656D01*
X2178838Y7391722D01*
X2207683Y7394343D01*
X2234866Y7404340D01*
X2305703Y7441518D01*
X2329373Y7458210D01*
X2347916Y7480459D01*
X2360068Y7506750D01*
X2365002Y7535290D01*
X2362381Y7564135D01*
X2352384Y7591318D01*
X2335692Y7614988D01*
X2313442Y7633531D01*
X2287151Y7645683D01*
X2258611Y7650617D01*
D02*
G37*
G36*
X3161851Y7549454D02*
X3130831Y7543447D01*
X3102422Y7529616D01*
X3078562Y7508903D01*
X3060875Y7482721D01*
X3050567Y7452853D01*
X3048341Y7421335D01*
X3054348Y7390315D01*
X3068179Y7361907D01*
X3088892Y7338046D01*
X3148772Y7284994D01*
X3174954Y7267307D01*
X3204822Y7256999D01*
X3236340Y7254774D01*
X3267360Y7260781D01*
X3295769Y7274612D01*
X3319629Y7295324D01*
X3337316Y7321507D01*
X3347624Y7351375D01*
X3349850Y7382893D01*
X3343843Y7413913D01*
X3330012Y7442321D01*
X3309299Y7466182D01*
X3249419Y7519234D01*
X3223237Y7536921D01*
X3193369Y7547228D01*
X3161851Y7549454D01*
D02*
G37*
G36*
X2441619Y7459776D02*
X2410063Y7458186D01*
X2379993Y7448483D01*
X2353459Y7431328D01*
X2332269Y7407890D01*
X2286823Y7342051D01*
X2272422Y7313928D01*
X2265790Y7283035D01*
X2267380Y7251479D01*
X2277083Y7221409D01*
X2294238Y7194875D01*
X2317676Y7173685D01*
X2345799Y7159284D01*
X2376692Y7152652D01*
X2408249Y7154242D01*
X2438318Y7163944D01*
X2464852Y7181099D01*
X2486042Y7204538D01*
X2531488Y7270376D01*
X2545890Y7298500D01*
X2552522Y7329393D01*
X2550932Y7360949D01*
X2541229Y7391019D01*
X2524074Y7417553D01*
X2500636Y7438742D01*
X2472512Y7453144D01*
X2441619Y7459776D01*
D02*
G37*
G36*
X2936403Y7396809D02*
X2905650Y7389557D01*
X2877821Y7374594D01*
X2854814Y7352937D01*
X2838196Y7326063D01*
X2829099Y7295805D01*
X2828144Y7264223D01*
X2835396Y7233469D01*
X2863763Y7158667D01*
X2878727Y7130839D01*
X2900384Y7107831D01*
X2927257Y7091213D01*
X2957516Y7082117D01*
X2989098Y7081162D01*
X3019851Y7088414D01*
X3047680Y7103377D01*
X3070687Y7125034D01*
X3087305Y7151908D01*
X3096401Y7182166D01*
X3097357Y7213748D01*
X3090105Y7244502D01*
X3061738Y7319304D01*
X3046774Y7347132D01*
X3025117Y7370140D01*
X2998244Y7386758D01*
X2967985Y7395854D01*
X2936403Y7396809D01*
D02*
G37*
G36*
X2850956Y7774586D02*
X2650957D01*
Y7624586D01*
X2704119D01*
Y7456874D01*
X2701254Y7446107D01*
X2699135Y7443987D01*
X2690000Y7421935D01*
Y7398065D01*
X2695733Y7384224D01*
X2685512Y7365249D01*
X2684066Y7364106D01*
X2665486Y7363919D01*
X2635050Y7355435D01*
X2607847Y7339363D01*
X2585730Y7316797D01*
X2570208Y7289276D01*
X2562338Y7258676D01*
X2552693Y7179259D01*
X2553011Y7147664D01*
X2561495Y7117227D01*
X2577568Y7090024D01*
X2600133Y7067908D01*
X2627654Y7052385D01*
X2658255Y7044515D01*
X2689850Y7044832D01*
X2720286Y7053317D01*
X2747489Y7069389D01*
X2769606Y7091955D01*
X2785128Y7119476D01*
X2792998Y7150076D01*
X2802643Y7229493D01*
X2802325Y7261088D01*
X2793841Y7291525D01*
X2777768Y7318728D01*
X2764980Y7331261D01*
X2764854Y7332038D01*
X2770721Y7353639D01*
X2783987Y7359134D01*
X2800866Y7376013D01*
X2810000Y7398065D01*
Y7421935D01*
X2800866Y7443987D01*
X2798746Y7446107D01*
X2795882Y7456874D01*
Y7624586D01*
X2850956D01*
Y7774586D01*
D02*
G37*
G36*
X2790000Y6190949D02*
X2710000D01*
X2681284Y6187169D01*
X2654526Y6176085D01*
X2631547Y6158453D01*
X2613915Y6135475D01*
X2602831Y6108716D01*
X2599051Y6080000D01*
X2602831Y6051285D01*
X2613915Y6024526D01*
X2631547Y6001548D01*
X2654526Y5983916D01*
X2681284Y5972832D01*
X2710000Y5969051D01*
X2790000D01*
X2818716Y5972832D01*
X2845475Y5983916D01*
X2868453Y6001548D01*
X2886085Y6024526D01*
X2897169Y6051285D01*
X2900949Y6080000D01*
X2897169Y6108716D01*
X2886085Y6135475D01*
X2868453Y6158453D01*
X2845475Y6176085D01*
X2818716Y6187169D01*
X2790000Y6190949D01*
D02*
G37*
G36*
Y5861036D02*
X2710000D01*
X2678674Y5856911D01*
X2649482Y5844820D01*
X2624415Y5825585D01*
X2605180Y5800518D01*
X2593089Y5771327D01*
X2588965Y5740000D01*
X2593089Y5708674D01*
X2605180Y5679483D01*
X2624415Y5654415D01*
X2649482Y5635180D01*
X2678674Y5623089D01*
X2710000Y5618965D01*
X2790000D01*
X2821327Y5623089D01*
X2850518Y5635180D01*
X2875585Y5654415D01*
X2894820Y5679483D01*
X2906911Y5708674D01*
X2911036Y5740000D01*
X2906911Y5771327D01*
X2894820Y5800518D01*
X2875585Y5825585D01*
X2850518Y5844820D01*
X2821327Y5856911D01*
X2790000Y5861036D01*
D02*
G37*
G36*
X2989149Y4738821D02*
X2957567Y4737869D01*
X2927308Y4728774D01*
X2900433Y4712158D01*
X2878775Y4689152D01*
X2863809Y4661325D01*
X2835437Y4586524D01*
X2828183Y4555772D01*
X2829136Y4524190D01*
X2838230Y4493930D01*
X2854846Y4467056D01*
X2877852Y4445398D01*
X2905679Y4430431D01*
X2936432Y4423178D01*
X2968014Y4424130D01*
X2998274Y4433225D01*
X3025148Y4449841D01*
X3046806Y4472847D01*
X3061772Y4500674D01*
X3090145Y4575474D01*
X3097398Y4606227D01*
X3096446Y4637809D01*
X3087351Y4668069D01*
X3070735Y4694943D01*
X3047729Y4716601D01*
X3019902Y4731568D01*
X2989149Y4738821D01*
D02*
G37*
G36*
X3236379Y4565192D02*
X3204860Y4562968D01*
X3174992Y4552662D01*
X3148808Y4534977D01*
X3088925Y4481930D01*
X3068211Y4458071D01*
X3054377Y4429663D01*
X3048368Y4398643D01*
X3050592Y4367125D01*
X3060897Y4337257D01*
X3078583Y4311073D01*
X3102442Y4290359D01*
X3130849Y4276526D01*
X3161869Y4270516D01*
X3193387Y4272740D01*
X3223256Y4283046D01*
X3249440Y4300731D01*
X3309323Y4353778D01*
X3330037Y4377637D01*
X3343870Y4406045D01*
X3349880Y4437065D01*
X3347656Y4468583D01*
X3337350Y4498452D01*
X3319665Y4524635D01*
X3295806Y4545349D01*
X3267399Y4559182D01*
X3236379Y4565192D01*
D02*
G37*
G36*
X3373851Y4294149D02*
X3342447Y4290657D01*
X3264771Y4271515D01*
X3235342Y4260015D01*
X3209891Y4241290D01*
X3190155Y4216616D01*
X3177477Y4187674D01*
X3172722Y4156438D01*
X3176213Y4125034D01*
X3187713Y4095605D01*
X3206438Y4070155D01*
X3231112Y4050419D01*
X3260054Y4037740D01*
X3291290Y4032985D01*
X3322693Y4036477D01*
X3400370Y4055619D01*
X3429799Y4067119D01*
X3455249Y4085844D01*
X3474986Y4110518D01*
X3487664Y4139460D01*
X3492419Y4170696D01*
X3488928Y4202100D01*
X3477428Y4231529D01*
X3458703Y4256979D01*
X3434029Y4276715D01*
X3405087Y4289394D01*
X3373851Y4294149D01*
D02*
G37*
G36*
X3291289Y4006976D02*
X3260052Y4002223D01*
X3231110Y3989547D01*
X3206434Y3969812D01*
X3187708Y3944363D01*
X3176205Y3914935D01*
X3172712Y3883532D01*
X3177465Y3852295D01*
X3190141Y3823353D01*
X3209876Y3798677D01*
X3235324Y3779950D01*
X3264753Y3768448D01*
X3342428Y3749300D01*
X3373831Y3745807D01*
X3405068Y3750560D01*
X3434011Y3763236D01*
X3458686Y3782971D01*
X3477413Y3808420D01*
X3488915Y3837848D01*
X3492409Y3869251D01*
X3487655Y3900488D01*
X3474979Y3929430D01*
X3455245Y3954106D01*
X3429796Y3972833D01*
X3400367Y3984335D01*
X3322692Y4003483D01*
X3291289Y4006976D01*
D02*
G37*
G36*
X2258611Y3870617D02*
X2229767Y3867996D01*
X2202583Y3857999D01*
X2131746Y3820821D01*
X2108077Y3804129D01*
X2089534Y3781880D01*
X2077381Y3755589D01*
X2072447Y3727049D01*
X2075068Y3698204D01*
X2085066Y3671021D01*
X2101758Y3647351D01*
X2124007Y3628808D01*
X2150298Y3616656D01*
X2178838Y3611722D01*
X2207683Y3614343D01*
X2234866Y3624340D01*
X2305703Y3661518D01*
X2329373Y3678210D01*
X2347916Y3700459D01*
X2360068Y3726750D01*
X2365002Y3755290D01*
X2362381Y3784135D01*
X2352384Y3811319D01*
X2335692Y3834988D01*
X2313442Y3853531D01*
X2287151Y3865683D01*
X2258611Y3870617D01*
D02*
G37*
G36*
X3161851Y3769454D02*
X3130831Y3763447D01*
X3102422Y3749616D01*
X3078562Y3728904D01*
X3060875Y3702721D01*
X3050567Y3672853D01*
X3048341Y3641335D01*
X3054348Y3610315D01*
X3068179Y3581907D01*
X3088892Y3558046D01*
X3148772Y3504994D01*
X3174954Y3487307D01*
X3204822Y3477000D01*
X3236340Y3474774D01*
X3267360Y3480781D01*
X3295769Y3494612D01*
X3319629Y3515325D01*
X3337316Y3541507D01*
X3347624Y3571375D01*
X3349850Y3602893D01*
X3343843Y3633913D01*
X3330012Y3662322D01*
X3309299Y3686182D01*
X3249419Y3739234D01*
X3223237Y3756921D01*
X3193369Y3767229D01*
X3161851Y3769454D01*
D02*
G37*
G36*
X2936403Y3616809D02*
X2905650Y3609558D01*
X2877821Y3594594D01*
X2854814Y3572937D01*
X2838196Y3546064D01*
X2829099Y3515805D01*
X2828144Y3484223D01*
X2835396Y3453470D01*
X2863763Y3378667D01*
X2878727Y3350839D01*
X2900384Y3327832D01*
X2927257Y3311214D01*
X2957516Y3302117D01*
X2989098Y3301162D01*
X3019851Y3308414D01*
X3047680Y3323378D01*
X3070687Y3345034D01*
X3087305Y3371908D01*
X3096401Y3402167D01*
X3097357Y3433749D01*
X3090105Y3464502D01*
X3061738Y3539304D01*
X3046774Y3567133D01*
X3025117Y3590140D01*
X2998244Y3606758D01*
X2967985Y3615854D01*
X2936403Y3616809D01*
D02*
G37*
G36*
X3236379Y2065192D02*
X3204860Y2062968D01*
X3174992Y2052662D01*
X3148808Y2034977D01*
X3088925Y1981930D01*
X3068211Y1958071D01*
X3054377Y1929663D01*
X3048368Y1898643D01*
X3050592Y1867125D01*
X3060897Y1837256D01*
X3078583Y1811073D01*
X3102442Y1790359D01*
X3130849Y1776526D01*
X3161869Y1770516D01*
X3193387Y1772740D01*
X3223256Y1783045D01*
X3249440Y1800730D01*
X3309323Y1853778D01*
X3330037Y1877637D01*
X3343870Y1906045D01*
X3349880Y1937064D01*
X3347656Y1968583D01*
X3337350Y1998451D01*
X3319665Y2024635D01*
X3295806Y2045349D01*
X3267399Y2059182D01*
X3236379Y2065192D01*
D02*
G37*
G36*
X2178867Y1928319D02*
X2150327Y1923387D01*
X2124035Y1911237D01*
X2101784Y1892695D01*
X2085090Y1869027D01*
X2075091Y1841844D01*
X2072468Y1813000D01*
X2077400Y1784459D01*
X2089551Y1758168D01*
X2108092Y1735917D01*
X2131761Y1719223D01*
X2202595Y1682040D01*
X2229778Y1672041D01*
X2258622Y1669418D01*
X2287163Y1674350D01*
X2313454Y1686501D01*
X2335705Y1705042D01*
X2352399Y1728711D01*
X2362398Y1755893D01*
X2365021Y1784738D01*
X2360089Y1813278D01*
X2347939Y1839570D01*
X2329397Y1861821D01*
X2305729Y1878514D01*
X2234894Y1915697D01*
X2207712Y1925696D01*
X2178867Y1928319D01*
D02*
G37*
G36*
X2190000Y1641035D02*
X2110000D01*
X2078674Y1636911D01*
X2049482Y1624820D01*
X2024415Y1605585D01*
X2005180Y1580518D01*
X1993089Y1551326D01*
X1988965Y1520000D01*
X1993089Y1488674D01*
X2005180Y1459482D01*
X2024415Y1434415D01*
X2049482Y1415180D01*
X2078674Y1403089D01*
X2110000Y1398965D01*
X2190000D01*
X2221327Y1403089D01*
X2250518Y1415180D01*
X2275585Y1434415D01*
X2294820Y1459482D01*
X2306911Y1488674D01*
X2311036Y1520000D01*
X2306911Y1551326D01*
X2294820Y1580518D01*
X2275585Y1605585D01*
X2250518Y1624820D01*
X2221327Y1636911D01*
X2190000Y1641035D01*
D02*
G37*
G36*
X2258611Y1370617D02*
X2229767Y1367996D01*
X2202583Y1357999D01*
X2131746Y1320821D01*
X2108077Y1304129D01*
X2089534Y1281880D01*
X2077381Y1255589D01*
X2072447Y1227049D01*
X2075068Y1198204D01*
X2085066Y1171021D01*
X2101758Y1147351D01*
X2124007Y1128808D01*
X2150298Y1116656D01*
X2178838Y1111722D01*
X2207683Y1114343D01*
X2234866Y1124340D01*
X2305703Y1161518D01*
X2329373Y1178210D01*
X2347916Y1200459D01*
X2360068Y1226750D01*
X2365002Y1255290D01*
X2362381Y1284135D01*
X2352384Y1311318D01*
X2335692Y1334988D01*
X2313442Y1353531D01*
X2287151Y1365683D01*
X2258611Y1370617D01*
D02*
G37*
G36*
X3161851Y1269454D02*
X3130831Y1263447D01*
X3102422Y1249616D01*
X3078562Y1228904D01*
X3060875Y1202721D01*
X3050567Y1172853D01*
X3048341Y1141335D01*
X3054348Y1110315D01*
X3068179Y1081907D01*
X3088892Y1058046D01*
X3148772Y1004994D01*
X3174954Y987307D01*
X3204822Y977000D01*
X3236340Y974774D01*
X3267360Y980781D01*
X3295769Y994612D01*
X3319629Y1015325D01*
X3337316Y1041507D01*
X3347624Y1071375D01*
X3349850Y1102893D01*
X3343843Y1133913D01*
X3330012Y1162322D01*
X3309299Y1186182D01*
X3249419Y1239234D01*
X3223237Y1256921D01*
X3193369Y1267229D01*
X3161851Y1269454D01*
D02*
G37*
G36*
X2441619Y1179776D02*
X2410063Y1178186D01*
X2379993Y1168483D01*
X2353459Y1151328D01*
X2332269Y1127890D01*
X2286823Y1062051D01*
X2272422Y1033928D01*
X2265790Y1003035D01*
X2267380Y971479D01*
X2277083Y941409D01*
X2294238Y914875D01*
X2317676Y893685D01*
X2345799Y879284D01*
X2376692Y872652D01*
X2408249Y874242D01*
X2438318Y883945D01*
X2464852Y901100D01*
X2486042Y924538D01*
X2531488Y990376D01*
X2545890Y1018500D01*
X2552521Y1049392D01*
X2550932Y1080949D01*
X2541229Y1111019D01*
X2524074Y1137553D01*
X2500636Y1158742D01*
X2472512Y1173144D01*
X2441619Y1179776D01*
D02*
G37*
G36*
X2936403Y1116809D02*
X2905650Y1109558D01*
X2877821Y1094594D01*
X2854814Y1072937D01*
X2838196Y1046063D01*
X2829099Y1015805D01*
X2828144Y984223D01*
X2835396Y953470D01*
X2863763Y878667D01*
X2878727Y850839D01*
X2900384Y827832D01*
X2927257Y811214D01*
X2957516Y802117D01*
X2989098Y801162D01*
X3019851Y808414D01*
X3047680Y823378D01*
X3070687Y845034D01*
X3087305Y871908D01*
X3096401Y902167D01*
X3097357Y933748D01*
X3090105Y964502D01*
X3061738Y1039304D01*
X3046774Y1067132D01*
X3025117Y1090140D01*
X2998244Y1106758D01*
X2967985Y1115854D01*
X2936403Y1116809D01*
D02*
G37*
G36*
X2850000Y1497500D02*
X2650000D01*
Y1347500D01*
X2704119D01*
Y1166874D01*
X2701254Y1156107D01*
X2699135Y1153987D01*
X2690000Y1131935D01*
Y1108065D01*
X2691608Y1104183D01*
X2678300Y1084048D01*
X2665486Y1083920D01*
X2635050Y1075435D01*
X2607847Y1059363D01*
X2585730Y1036797D01*
X2570208Y1009276D01*
X2562338Y978676D01*
X2552693Y899259D01*
X2553011Y867664D01*
X2561495Y837228D01*
X2577568Y810025D01*
X2600133Y787908D01*
X2627654Y772386D01*
X2658255Y764515D01*
X2689850Y764833D01*
X2720286Y773317D01*
X2747489Y789390D01*
X2769606Y811955D01*
X2785128Y839476D01*
X2792998Y870076D01*
X2802643Y949493D01*
X2802325Y981088D01*
X2793841Y1011525D01*
X2777768Y1038728D01*
X2773334Y1043074D01*
X2777893Y1066610D01*
X2783987Y1069135D01*
X2800866Y1086013D01*
X2810000Y1108065D01*
Y1131935D01*
X2800866Y1153987D01*
X2798746Y1156107D01*
X2795882Y1166874D01*
Y1347500D01*
X2850000D01*
Y1497500D01*
D02*
G37*
%LPD*%
G36*
X2709700Y10550002D02*
X2689507Y10538294D01*
X2668294Y10559507D01*
X2680001Y10579700D01*
X2709700Y10550002D01*
D02*
G37*
G36*
X3119700Y10420002D02*
X3099508Y10408294D01*
X3078295Y10429507D01*
X3090002Y10449700D01*
X3119700Y10420002D01*
D02*
G37*
G36*
X2519939Y10040361D02*
X2477939D01*
X2483939Y10062917D01*
X2513939D01*
X2519939Y10040361D01*
D02*
G37*
G36*
X2775837Y9929808D02*
X2733837D01*
X2739837Y9952364D01*
X2769837D01*
X2775837Y9929808D01*
D02*
G37*
G36*
X2771000Y7431424D02*
X2729000D01*
X2735000Y7453981D01*
X2765000D01*
X2771000Y7431424D01*
D02*
G37*
G36*
Y1141424D02*
X2729000D01*
X2735000Y1163981D01*
X2765000D01*
X2771000Y1141424D01*
D02*
G37*
%LPC*%
G36*
X2178867Y16988319D02*
X2150327Y16983388D01*
X2124035Y16971237D01*
X2101784Y16952695D01*
X2085090Y16929027D01*
X2075091Y16901843D01*
X2072468Y16873000D01*
X2077400Y16844460D01*
X2089551Y16818169D01*
X2108092Y16795917D01*
X2131761Y16779224D01*
X2202595Y16742039D01*
X2229778Y16732040D01*
X2258622Y16729417D01*
X2287163Y16734351D01*
X2313454Y16746501D01*
X2335705Y16765042D01*
X2352399Y16788712D01*
X2362398Y16815894D01*
X2365021Y16844737D01*
X2360089Y16873277D01*
X2347938Y16899570D01*
X2329397Y16921822D01*
X2305729Y16938515D01*
X2234894Y16975697D01*
X2207712Y16985696D01*
X2178867Y16988319D01*
D02*
G37*
G36*
X2190000Y16701035D02*
X2110000D01*
X2078674Y16696912D01*
X2049482Y16684821D01*
X2024415Y16665585D01*
X2005180Y16640518D01*
X1993089Y16611327D01*
X1988965Y16580000D01*
X1993089Y16548674D01*
X2005180Y16519482D01*
X2024415Y16494415D01*
X2049482Y16475180D01*
X2078674Y16463089D01*
X2110000Y16458965D01*
X2190000D01*
X2221327Y16463089D01*
X2250518Y16475180D01*
X2275585Y16494415D01*
X2294820Y16519482D01*
X2306911Y16548674D01*
X2311036Y16580000D01*
X2306911Y16611327D01*
X2294820Y16640518D01*
X2275585Y16665585D01*
X2250518Y16684821D01*
X2221327Y16696912D01*
X2190000Y16701035D01*
D02*
G37*
G36*
X2258611Y16430617D02*
X2229767Y16427995D01*
X2202583Y16417999D01*
X2131746Y16380821D01*
X2108077Y16364130D01*
X2089534Y16341879D01*
X2077381Y16315588D01*
X2072447Y16287048D01*
X2075068Y16258205D01*
X2085066Y16231021D01*
X2101758Y16207352D01*
X2124007Y16188808D01*
X2150298Y16176656D01*
X2178838Y16171722D01*
X2207683Y16174342D01*
X2234866Y16184340D01*
X2305703Y16221518D01*
X2329373Y16238210D01*
X2347916Y16260458D01*
X2360068Y16286749D01*
X2365002Y16315289D01*
X2362381Y16344135D01*
X2352384Y16371320D01*
X2335692Y16394987D01*
X2313442Y16413531D01*
X2287151Y16425684D01*
X2258611Y16430617D01*
D02*
G37*
G36*
X3236379Y14625192D02*
X3204860Y14622968D01*
X3174992Y14612662D01*
X3148808Y14594977D01*
X3088925Y14541930D01*
X3068211Y14518071D01*
X3054377Y14489664D01*
X3048368Y14458643D01*
X3050592Y14427126D01*
X3060897Y14397256D01*
X3078583Y14371072D01*
X3102442Y14350359D01*
X3130849Y14336526D01*
X3161869Y14330516D01*
X3193387Y14332739D01*
X3223256Y14343045D01*
X3249440Y14360730D01*
X3309323Y14413779D01*
X3330037Y14437637D01*
X3343870Y14466045D01*
X3349880Y14497064D01*
X3347656Y14528583D01*
X3337350Y14558450D01*
X3319665Y14584634D01*
X3295806Y14605350D01*
X3267399Y14619182D01*
X3236379Y14625192D01*
D02*
G37*
G36*
X3373851Y14354149D02*
X3342447Y14350658D01*
X3264771Y14331516D01*
X3235342Y14320015D01*
X3209891Y14301289D01*
X3190155Y14276616D01*
X3177477Y14247675D01*
X3172722Y14216438D01*
X3176213Y14185034D01*
X3187713Y14155605D01*
X3206438Y14130154D01*
X3231112Y14110419D01*
X3260054Y14097740D01*
X3291290Y14092986D01*
X3322693Y14096477D01*
X3400370Y14115619D01*
X3429799Y14127119D01*
X3455250Y14145844D01*
X3474986Y14170518D01*
X3487664Y14199460D01*
X3492419Y14230696D01*
X3488928Y14262099D01*
X3477428Y14291528D01*
X3458703Y14316978D01*
X3434029Y14336716D01*
X3405087Y14349393D01*
X3373851Y14354149D01*
D02*
G37*
G36*
X3291289Y14066975D02*
X3260052Y14062222D01*
X3231110Y14049547D01*
X3206434Y14029813D01*
X3187708Y14004362D01*
X3176205Y13974934D01*
X3172712Y13943532D01*
X3177465Y13912296D01*
X3190141Y13883353D01*
X3209876Y13858678D01*
X3235324Y13839951D01*
X3264753Y13828448D01*
X3342428Y13809300D01*
X3373831Y13805807D01*
X3405068Y13810561D01*
X3434011Y13823236D01*
X3458686Y13842970D01*
X3477413Y13868420D01*
X3488915Y13897849D01*
X3492409Y13929251D01*
X3487655Y13960487D01*
X3474979Y13989430D01*
X3455245Y14014107D01*
X3429796Y14032832D01*
X3400367Y14044334D01*
X3322692Y14063483D01*
X3291289Y14066975D01*
D02*
G37*
G36*
X3161851Y13829454D02*
X3130831Y13823447D01*
X3102422Y13809616D01*
X3078562Y13788904D01*
X3060875Y13762721D01*
X3050567Y13732854D01*
X3048341Y13701335D01*
X3054348Y13670316D01*
X3068179Y13641907D01*
X3088892Y13618047D01*
X3148772Y13564993D01*
X3174954Y13547307D01*
X3204822Y13537000D01*
X3236340Y13534773D01*
X3267360Y13540781D01*
X3295769Y13554613D01*
X3319629Y13575325D01*
X3337316Y13601508D01*
X3347624Y13631375D01*
X3349850Y13662894D01*
X3343843Y13693913D01*
X3330012Y13722322D01*
X3309299Y13746182D01*
X3249419Y13799234D01*
X3223237Y13816920D01*
X3193369Y13827229D01*
X3161851Y13829454D01*
D02*
G37*
G36*
X2376738Y14727374D02*
X2345845Y14720746D01*
X2317720Y14706346D01*
X2294280Y14685158D01*
X2277123Y14658624D01*
X2267419Y14628555D01*
X2265827Y14596999D01*
X2272456Y14566107D01*
X2286856Y14537982D01*
X2332297Y14472141D01*
X2353486Y14448701D01*
X2380018Y14431544D01*
X2410087Y14421838D01*
X2441644Y14420245D01*
X2472537Y14426875D01*
X2500661Y14441277D01*
X2524101Y14462463D01*
X2541258Y14488997D01*
X2550963Y14519066D01*
X2552555Y14550623D01*
X2545925Y14581516D01*
X2531526Y14609641D01*
X2486084Y14675482D01*
X2464896Y14698921D01*
X2438363Y14716078D01*
X2408294Y14725783D01*
X2376738Y14727374D01*
D02*
G37*
G36*
X2178867Y14488319D02*
X2150327Y14483388D01*
X2124035Y14471237D01*
X2101784Y14452695D01*
X2085090Y14429027D01*
X2075091Y14401843D01*
X2072468Y14373000D01*
X2077400Y14344460D01*
X2089551Y14318167D01*
X2108092Y14295917D01*
X2131761Y14279224D01*
X2202595Y14242039D01*
X2229778Y14232040D01*
X2258622Y14229417D01*
X2287163Y14234351D01*
X2313454Y14246501D01*
X2335705Y14265042D01*
X2352399Y14288712D01*
X2362398Y14315894D01*
X2365021Y14344737D01*
X2360089Y14373277D01*
X2347938Y14399570D01*
X2329397Y14421822D01*
X2305729Y14438515D01*
X2234894Y14475697D01*
X2207712Y14485696D01*
X2178867Y14488319D01*
D02*
G37*
G36*
X2258611Y13930617D02*
X2229767Y13927995D01*
X2202583Y13917999D01*
X2131746Y13880821D01*
X2108077Y13864130D01*
X2089534Y13841879D01*
X2077381Y13815588D01*
X2072447Y13787048D01*
X2075068Y13758205D01*
X2085066Y13731021D01*
X2101758Y13707352D01*
X2124007Y13688808D01*
X2150298Y13676656D01*
X2178838Y13671722D01*
X2207683Y13674342D01*
X2234866Y13684340D01*
X2305703Y13721518D01*
X2329373Y13738210D01*
X2347916Y13760458D01*
X2360068Y13786749D01*
X2365002Y13815289D01*
X2362381Y13844135D01*
X2352384Y13871318D01*
X2335692Y13894987D01*
X2313442Y13913531D01*
X2287151Y13925684D01*
X2258611Y13930617D01*
D02*
G37*
G36*
X2441619Y13739777D02*
X2410063Y13738187D01*
X2379993Y13728484D01*
X2353459Y13711328D01*
X2332269Y13687891D01*
X2286823Y13622050D01*
X2272422Y13593929D01*
X2265790Y13563036D01*
X2267380Y13531479D01*
X2277083Y13501408D01*
X2294238Y13474875D01*
X2317676Y13453685D01*
X2345799Y13439284D01*
X2376692Y13432652D01*
X2408249Y13434242D01*
X2438318Y13443944D01*
X2464852Y13461099D01*
X2486042Y13484538D01*
X2531488Y13550375D01*
X2545890Y13578500D01*
X2552522Y13609393D01*
X2550932Y13640948D01*
X2541229Y13671019D01*
X2524074Y13697552D01*
X2500636Y13718742D01*
X2472512Y13733144D01*
X2441619Y13739777D01*
D02*
G37*
G36*
X4728184Y15760001D02*
X4671816D01*
X4615931Y15752641D01*
X4561484Y15738054D01*
X4509408Y15716483D01*
X4460592Y15688300D01*
X4415873Y15653986D01*
X4376015Y15614127D01*
X4341701Y15569408D01*
X4313517Y15520592D01*
X4291946Y15468517D01*
X4277358Y15414069D01*
X4270000Y15358183D01*
Y15301816D01*
X4277358Y15245930D01*
X4291946Y15191484D01*
X4313517Y15139407D01*
X4341701Y15090591D01*
X4376015Y15045872D01*
X4415873Y15006015D01*
X4460592Y14971701D01*
X4509408Y14943517D01*
X4561484Y14921947D01*
X4615931Y14907358D01*
X4671816Y14900000D01*
X4728184D01*
X4784069Y14907358D01*
X4838516Y14921947D01*
X4890592Y14943517D01*
X4939408Y14971701D01*
X4984127Y15006015D01*
X5023985Y15045872D01*
X5058299Y15090591D01*
X5086483Y15139407D01*
X5108054Y15191484D01*
X5122642Y15245930D01*
X5130000Y15301816D01*
Y15358183D01*
X5122642Y15414069D01*
X5108054Y15468517D01*
X5086483Y15520592D01*
X5058299Y15569408D01*
X5023985Y15614127D01*
X4984127Y15653986D01*
X4939408Y15688300D01*
X4890592Y15716483D01*
X4838516Y15738054D01*
X4784069Y15752641D01*
X4728184Y15760001D01*
D02*
G37*
%LPD*%
D10*
X2580000Y17014938D02*
G03*
X2578198Y17024728I-27501J-0D01*
G01*
X1160000Y13543869D02*
X1273765Y13430104D01*
X1629896D01*
X4750000Y3490000D02*
Y3860000D01*
X4590000Y2950000D02*
Y3330000D01*
X4750000Y3490000D01*
X5300000Y5300000D02*
Y8320000D01*
X4750000Y3860000D02*
X5300000Y4410000D01*
Y5300000D01*
X4380000Y17030000D02*
X5200000D01*
X5300000Y16930000D01*
Y12750000D02*
Y16930000D01*
Y10690000D02*
Y12750000D01*
X4590000D02*
X5300000D01*
Y8320000D02*
Y10690000D01*
X1170000Y11860000D02*
X1418033D01*
X1160000Y13543869D02*
Y14300000D01*
X3047227Y7897227D02*
X3110000Y7960000D01*
X2775815Y7897227D02*
X3047227D01*
X3110000Y7960000D02*
X3110000D01*
X2495121Y4885649D02*
X2496170Y4884600D01*
Y4672044D02*
Y4884600D01*
X2589415Y4450584D02*
X2650000Y4389999D01*
X2798966Y1871034D02*
X2920000Y1750000D01*
X2798966Y1871034D02*
Y1966874D01*
X2840000Y2212260D02*
Y2820000D01*
X2650000Y4390000D02*
X2800000D01*
X2920000Y4160000D02*
Y4270000D01*
X2800000Y4390000D02*
X2920000Y4270000D01*
X2877367Y4117367D02*
X2920000Y4160000D01*
X2749273Y4117367D02*
X2877367D01*
X2750000Y1617500D02*
X2877500D01*
X2920000Y1660000D02*
Y1750000D01*
X2877500Y1617500D02*
X2920000Y1660000D01*
X2580000Y16730000D02*
Y17014938D01*
Y17014938D01*
X3900000Y17510001D02*
X4380000Y17030000D01*
X2630000Y17510001D02*
X3900000D01*
X2500000Y17380000D02*
X2630000Y17510001D01*
X2500000Y17230000D02*
Y17380000D01*
X2580000Y16730000D02*
X2632842Y16677158D01*
X2750113D01*
X1478060Y11920027D02*
Y12428060D01*
X1418033Y11860000D02*
X1478060Y11920027D01*
Y12428060D02*
X1540000Y12490000D01*
D11*
X2750956Y7894586D02*
D03*
Y7699586D02*
D03*
X2749273Y4117367D02*
D03*
Y3922367D02*
D03*
X2749824Y10397055D02*
D03*
Y10202055D02*
D03*
X2750207Y14177357D02*
D03*
Y13982356D02*
D03*
X2750113Y16677158D02*
D03*
Y16482158D02*
D03*
X2750000Y1617500D02*
D03*
Y1422500D02*
D03*
D12*
X1960000Y15480000D02*
X2020000Y15539999D01*
X1960000Y14739999D02*
Y15480000D01*
X2020000Y15539999D02*
X2610000D01*
X1920000Y14700000D02*
X1960000Y14739999D01*
X1920000Y1620000D02*
X2004154Y1704155D01*
X1920000Y898118D02*
Y1620000D01*
Y898118D02*
X1950000Y868118D01*
Y860000D02*
Y868118D01*
X1955000Y1883492D02*
X2004154Y1834337D01*
Y1704155D02*
Y1834337D01*
X1955000Y4173181D02*
X2027418Y4245598D01*
X1989999Y4430002D02*
X2027418Y4392583D01*
Y4245598D02*
Y4392583D01*
X1989999Y4430002D02*
Y7274559D01*
X1955000Y1883492D02*
Y4173181D01*
X1920000Y10410000D02*
X1950000Y10440000D01*
X1920000Y9890000D02*
Y10410000D01*
Y9890000D02*
X2350000Y9460000D01*
X2350000Y11090000D02*
X2470000D01*
X3030001Y11650001D02*
Y12500000D01*
X2470000Y11090000D02*
X3030001Y11650001D01*
X2000000Y10740000D02*
X2350000Y11090000D01*
X2000000Y10489792D02*
Y10740000D01*
X2260000Y8610000D02*
Y9430000D01*
X1840000Y9850000D02*
X2260000Y9430000D01*
X2350000Y8570000D02*
Y9460000D01*
X1840000Y10449999D02*
X1915000Y10525000D01*
X1840000Y9850000D02*
Y10449999D01*
X1950000Y10440000D02*
X1950208D01*
X2000000Y10489792D01*
X2754837Y9908384D02*
Y10197042D01*
X2749824Y10202055D02*
X2754837Y10197042D01*
X2750000Y16180000D02*
Y16482047D01*
X2750113Y16482158D01*
X2750000Y13982150D02*
X2750207Y13982356D01*
X2750000Y13680000D02*
Y13982150D01*
Y1120000D02*
Y1422500D01*
X2749273Y3922367D02*
X2750000Y3921640D01*
Y3630000D02*
Y3921640D01*
Y7410000D02*
Y7698630D01*
X2750956Y7699586D01*
X1775001Y3464425D02*
Y7234999D01*
X1701227Y3390652D02*
X1775001Y3464425D01*
X1630000Y9400000D02*
X1810000Y9220000D01*
X1660000Y8680000D02*
X1810000Y8830000D01*
Y9220000D01*
X1480000Y8680000D02*
X1660000D01*
X1390000Y8590000D02*
X1480000Y8680000D01*
X1390000Y7190000D02*
Y8590000D01*
X1780000Y8670000D02*
X1898076Y8788076D01*
Y9241924D01*
X1546590Y8596590D02*
X1826590D01*
X1490000Y7240000D02*
Y8540000D01*
X1646590Y8526590D02*
X1896590D01*
X1590000Y7280000D02*
Y8470000D01*
X1646590Y8526590D01*
X1490000Y8540000D02*
X1546590Y8596590D01*
X1896590Y8526590D02*
X2080000Y8710000D01*
X1826590Y8596590D02*
X1980000Y8750000D01*
X1080000Y7180000D02*
Y10750000D01*
Y7180000D02*
X1410000Y6850000D01*
X1980000Y8750000D02*
Y9295157D01*
X2080000Y8710000D02*
Y9345157D01*
X1650000Y9490000D02*
X1898076Y9241924D01*
X1300000Y7130000D02*
Y7640365D01*
Y7130000D02*
X1495000Y6935000D01*
X1170000Y7770365D02*
X1300000Y7640365D01*
X1390000Y7190000D02*
X1590000Y6990000D01*
X2030000Y13156508D02*
Y13370000D01*
X1923492Y13050002D02*
X2030000Y13156508D01*
X1880000Y13155000D02*
Y13300000D01*
X1860000Y13050002D02*
X1923492D01*
X1795000Y11465000D02*
Y12985001D01*
X1860000Y13050002D01*
X1870000Y12798951D02*
X2243552Y13172504D01*
X1870000Y12440000D02*
Y12798951D01*
X1930000Y12460000D02*
Y12767027D01*
X2402973Y13239999D02*
X2770000D01*
X1930000Y12767027D02*
X2402973Y13239999D01*
X2375000Y13055000D02*
X2635000D01*
X2370754Y13059245D02*
X2375000Y13055000D01*
X2635000D02*
X2850000Y12839999D01*
X1720000Y13400000D02*
Y13489999D01*
X1640000Y13320000D02*
X1720000Y13400000D01*
X1640000Y11511005D02*
Y13320000D01*
X1660000Y13550000D02*
Y15220000D01*
Y13550000D02*
X1720000Y13489999D01*
X2030000Y13370000D02*
Y13610001D01*
X1920000Y13720000D02*
X2030000Y13610001D01*
X1880000Y13300000D02*
X1920000Y13339999D01*
X1830000Y13680000D02*
X1920000Y13589999D01*
Y13339999D02*
Y13589999D01*
X1810409Y13360410D02*
Y13536426D01*
X1790000Y13339999D02*
X1810409Y13360410D01*
X1806224Y13546225D02*
Y13554343D01*
X1790000Y13339999D02*
X1790000D01*
X1350000Y11935000D02*
Y12310000D01*
X1076659Y12583341D02*
X1350000Y12310000D01*
X986373Y12583341D02*
X1076659D01*
X3110000Y11820000D02*
Y12540000D01*
Y11820000D02*
X3300000Y11630000D01*
X1410000Y3170000D02*
Y6850000D01*
Y610000D02*
Y3170000D01*
X1680000Y4865652D02*
Y7050000D01*
X1840000Y561882D02*
Y1710000D01*
Y561882D02*
X1911882Y490000D01*
X1840000Y1710000D02*
X1910000Y1780000D01*
X1865000Y1833117D02*
Y4231673D01*
Y1833117D02*
X1910000Y1788118D01*
X1860000Y7404558D02*
X1989999Y7274559D01*
X1110000Y4970000D02*
Y6890000D01*
Y2450000D02*
Y4970000D01*
X1320000Y740000D02*
Y3270000D01*
Y3261882D02*
Y6820000D01*
X980000Y7160000D02*
X1320000Y6820000D01*
X1620000Y3060000D02*
Y3061109D01*
X1590000Y3091109D02*
X1620000Y3061109D01*
X1590000Y3091109D02*
Y6990000D01*
X1495000Y6260000D02*
Y6935000D01*
X1490000Y7240000D02*
X1680000Y7050000D01*
Y7330000D02*
X1775001Y7234999D01*
X1865000Y4231673D02*
X1922418Y4289090D01*
X1885000Y4405000D02*
Y5450000D01*
Y4405000D02*
X1922418Y4367582D01*
Y4289090D02*
Y4367582D01*
X1885000Y5450000D02*
Y7252279D01*
X1770000Y7367279D02*
X1885000Y7252279D01*
X1920000Y13720000D02*
Y14700000D01*
X1830000Y13680000D02*
Y14751881D01*
X2910000Y13000000D02*
X3340000D01*
X2810000Y13080000D02*
X3421882D01*
X3441882Y13100000D01*
X3450000D01*
X2850000Y12839999D02*
X3080000D01*
X3469765Y12450235D01*
Y11810260D02*
Y12450235D01*
X3350000Y11970000D02*
Y12420000D01*
X2800000Y12750000D02*
X3020000D01*
X3350000Y12420000D01*
X2260000Y12880000D02*
X2670000D01*
X2800000Y12750000D01*
X2430000Y11180000D02*
X2738047Y11488047D01*
Y11509260D01*
X2743787Y11515000D01*
X1740000Y13620566D02*
Y15130000D01*
X1770000Y15160001D01*
X1740000Y13620566D02*
X1806224Y13554343D01*
X1770000Y15160001D02*
Y15580000D01*
X2630001Y11510001D02*
Y11780001D01*
X2690000Y11840000D01*
X2880001D01*
X2310000Y11180000D02*
X2430000D01*
X1915000Y10785001D02*
X2310000Y11180000D01*
X1915000Y10525000D02*
Y10785001D01*
X2880001Y11840000D02*
X2950000Y11910000D01*
X1870000Y14791882D02*
Y14800000D01*
X1830000Y14751881D02*
X1870000Y14791882D01*
X2240000Y11490000D02*
Y11871923D01*
X2240000Y11490000D02*
X2240000Y11490000D01*
X2150000Y11961923D02*
X2240000Y11871923D01*
X2305000Y11575962D02*
X2323298Y11557664D01*
Y11496702D02*
Y11557664D01*
Y11496702D02*
X2329038Y11490962D01*
X2305000Y11575962D02*
Y12031800D01*
X2292741Y12044059D02*
X2305000Y12031800D01*
X2570000Y12590000D02*
X2940000D01*
X3030001Y12500000D01*
X2292741Y12044059D02*
Y12592741D01*
X2270000Y11270000D02*
X2390000D01*
X1760000Y9795157D02*
Y10760000D01*
X2270000Y11270000D01*
X2390000D02*
X2630001Y11510001D01*
X1680000Y9745157D02*
Y10770000D01*
X2230000Y11320000D01*
X1680000Y9745157D02*
X2080000Y9345157D01*
X1610000Y10786153D02*
X2201923Y11378077D01*
X1610000Y9680000D02*
Y10786153D01*
X2350000Y11320000D02*
X2550000Y11520000D01*
X2230000Y11320000D02*
X2350000D01*
X2308076Y11378077D02*
X2470001Y11540001D01*
X2201923Y11378077D02*
X2308076D01*
X2470001Y11540001D02*
Y12240000D01*
X1009896Y10669846D02*
Y10779896D01*
X1720000Y11490000D01*
X1470000Y10840000D02*
X2090000Y11460000D01*
X909946Y10690104D02*
X915686Y10695844D01*
X2090000Y11460000D02*
Y11780000D01*
X939896Y10810901D02*
X1640000Y11511005D01*
X1080000Y10750000D02*
X1795000Y11465000D01*
X854896Y10824896D02*
X1560000Y11530000D01*
X1540000Y10810000D02*
X2160000Y11430000D01*
X1560000Y11530000D02*
Y12385000D01*
X2160000Y11430000D02*
Y11860000D01*
X854896Y10775104D02*
Y10824896D01*
X1720000Y11490000D02*
Y13270000D01*
X1970000Y11440000D02*
Y11650000D01*
X980000Y9576357D02*
Y10639950D01*
X1009896Y10669846D01*
X1170000Y10740000D02*
X1880000Y11450000D01*
X915686Y10715686D02*
X939896Y10739896D01*
X1330000Y9530000D02*
Y10800000D01*
X1970000Y11440000D01*
X939896Y10739896D02*
Y10810901D01*
X1470000Y9870000D02*
Y10840000D01*
X1880000Y11450000D02*
Y12330000D01*
X1540000Y9790000D02*
Y10810000D01*
X1170000Y7770365D02*
Y10740000D01*
X915686Y10695844D02*
Y10715686D01*
X2550000Y11520000D02*
Y12300000D01*
X2950000Y11910000D02*
Y12460000D01*
X660000Y11900000D02*
X1060190Y11499810D01*
X1420000D01*
X1085190Y11564810D02*
X1486771D01*
X550000Y12100000D02*
X1085190Y11564810D01*
X1090000Y11650000D02*
X1490000D01*
X640000Y12100000D02*
X1090000Y11650000D01*
X1464336Y11722568D02*
X1485549D01*
X1110000Y11720000D02*
X1461768D01*
X1485549Y11722568D02*
X1491290Y11728308D01*
X1461768Y11720000D02*
X1464336Y11722568D01*
X909896Y10690104D02*
X909946D01*
X2292741Y12592741D02*
X2370000Y12670000D01*
Y11650000D02*
Y12170000D01*
X1770000Y16780000D02*
X1842578Y16852579D01*
X1770000Y15739999D02*
Y16780000D01*
X1842578Y16852579D02*
X1915000D01*
X1665000Y17014999D02*
X1740851Y17090851D01*
X1665000Y15225000D02*
Y17014999D01*
X1660000Y15220000D02*
X1665000Y15225000D01*
X1870000Y14800000D02*
Y15530000D01*
X1875000Y15535001D01*
X1830000Y15639999D02*
X2330000D01*
X1770000Y15580000D02*
X1830000Y15639999D01*
X1770000Y15739999D02*
X1770000Y15739999D01*
X1810000Y8300000D02*
X2170000Y8660000D01*
X1680000Y7980000D02*
X1810000Y8110000D01*
X1680000Y7330000D02*
Y7980000D01*
X1810000Y8110000D02*
Y8300000D01*
X1770000Y7925000D02*
X1915000Y8070000D01*
Y8265000D02*
X2260000Y8610000D01*
X1915000Y8070000D02*
Y8265000D01*
X2170000Y8660000D02*
Y9385157D01*
X2020000Y8240000D02*
X2350000Y8570000D01*
X2020000Y8000000D02*
Y8240000D01*
X2565715Y3538484D02*
X2572502Y3545271D01*
Y4162502D02*
X2710000Y4300000D01*
X2572502Y3545271D02*
Y4162502D01*
X2510000Y2150000D02*
Y3390000D01*
X2570000Y1940000D02*
Y1990000D01*
Y1940000D02*
X2710000Y1800000D01*
X1911882Y490000D02*
X1920000D01*
X1910000Y1780000D02*
Y1788118D01*
X1770000Y7367279D02*
Y7925000D01*
X1860000Y7404558D02*
Y7840000D01*
X1590000Y7280000D02*
X1700000Y7170000D01*
X1860000Y7840000D02*
X2020000Y8000000D01*
X1760000Y9795157D02*
X2170000Y9385157D01*
X1500000Y9750000D02*
X1540000Y9790000D01*
X1410000Y9810000D02*
X1470000Y9870000D01*
X1410000Y9600000D02*
Y9810000D01*
X2440000Y12270000D02*
X2470001Y12240000D01*
X2480000Y12370000D02*
X2550000Y12300000D01*
X118687Y6531313D02*
X120000Y6530000D01*
X118687Y6531313D02*
Y12423081D01*
X117375Y12424394D02*
X118687Y12423081D01*
X190000Y6440000D02*
X191250Y6441250D01*
Y12356251D01*
X192499Y12357500D01*
X450000Y6350000D02*
Y7690000D01*
X4490000Y2430000D02*
Y3360000D01*
X4650000Y3520000D01*
Y3920000D01*
X5130000Y4400000D01*
Y6350000D01*
X4560000Y3990000D02*
X5000000Y4430000D01*
Y10250000D01*
X4560000Y3580000D02*
Y3990000D01*
X5090000Y8090000D02*
Y8960000D01*
X4690000Y10560000D02*
X5000000Y10250000D01*
X5180000Y7950000D02*
Y10200000D01*
X4800000Y10580000D02*
X5180000Y10200000D01*
X4440000Y3860000D02*
Y9450000D01*
X980000Y7292500D02*
Y9574619D01*
Y7160000D02*
Y7292500D01*
X780000Y8110000D02*
Y10560208D01*
X1695157Y9580000D02*
X1980000Y9295157D01*
X520000Y9384059D02*
Y9870000D01*
X450000Y9314059D02*
X520000Y9384059D01*
X450000Y9160000D02*
Y9314059D01*
Y8420000D02*
Y9160000D01*
Y7690000D02*
Y8420000D01*
X1460000Y9400000D02*
X1630000D01*
X1330000Y9530000D02*
X1460000Y9400000D01*
X1410000Y9600000D02*
X1520000Y9490000D01*
X1650000D01*
X1500000Y9650000D02*
X1570000Y9580000D01*
X1695157D01*
X2424390Y8080000D02*
X2710000D01*
X2372195Y8132195D02*
X2424390Y8080000D01*
X1500000Y9650000D02*
Y9750000D01*
X1060000Y13550000D02*
Y15870000D01*
X830000Y13320000D02*
X1060000Y13550000D01*
X830000Y12790000D02*
Y13320000D01*
X760000Y12720000D02*
X830000Y12790000D01*
X760000Y12160000D02*
Y12720000D01*
Y12160000D02*
X1140000Y11780000D01*
X1481882Y11810000D02*
X1490000D01*
X1451882Y11780000D02*
X1481882Y11810000D01*
X1140000Y11780000D02*
X1451882D01*
X700000Y12130000D02*
X1110000Y11720000D01*
X590000Y12839999D02*
Y13339999D01*
X700000Y12130000D02*
Y12730000D01*
X590000Y12839999D02*
X700000Y12730000D01*
X590000Y13339999D02*
X690000Y13439999D01*
X262463Y12292463D02*
X587537D01*
X640000Y12240000D01*
Y12100000D02*
Y12240000D01*
X2370001Y12270000D02*
X2440000D01*
X2370001Y12470000D02*
X2560000D01*
X2370001Y12570000D02*
X2550000D01*
X2560000Y12470000D02*
X2610001Y12520000D01*
X2890000D02*
X2950000Y12460000D01*
X2610001Y12520000D02*
X2890000D01*
X2550000Y12570000D02*
X2570000Y12590000D01*
X980000Y9576357D02*
X980869Y9575488D01*
X980000Y9574619D02*
X980869Y9575488D01*
X1720000Y13270000D02*
X1790000Y13339999D01*
X1985000Y12225000D02*
Y12325000D01*
X1870000Y12440000D02*
X1985000Y12325000D01*
X1930000Y12460000D02*
X2070000Y12320000D01*
Y11870000D02*
Y12320000D01*
X1995000Y12510000D02*
X2000000D01*
X2150000Y11961923D02*
Y12350000D01*
X2000000Y12510000D02*
X2300000Y12810001D01*
X2060000Y12440000D02*
X2150000Y12350000D01*
X2830000Y13300000D02*
Y13400000D01*
X2770000Y13239999D02*
X2830000Y13300000D01*
X2806433Y13625400D02*
Y13626433D01*
X2710000Y14360001D02*
X2810543D01*
X2830000Y14751295D02*
Y15889999D01*
X2810543Y14360001D02*
X2870000D01*
X2810543D02*
Y14576334D01*
X2805686Y16124496D02*
Y16125687D01*
X780000Y10560208D02*
X909896Y10690104D01*
X1555000Y12390000D02*
X1560000Y12385000D01*
X780000Y7220000D02*
Y8110000D01*
Y7220000D02*
X1110000Y6890000D01*
X2140000Y4580000D02*
X2240000Y4480000D01*
X2390000Y4330000D02*
X2680000D01*
X3070000Y10400000D02*
X3120000Y10450000D01*
X2752768Y10400000D02*
X3070000D01*
X2749824Y10397055D02*
X2752768Y10400000D01*
X4690000Y10560000D02*
Y10950000D01*
X4260000Y11380000D02*
X4690000Y10950000D01*
X4800000Y10580000D02*
Y11610000D01*
X4890000Y5010000D02*
Y8660000D01*
X4240000Y12660000D02*
X4890000D01*
X3950000Y10240000D02*
Y17020000D01*
X3379879Y17158609D02*
X3811391D01*
X3900000Y17360001D02*
X4140000Y17120000D01*
X3850000Y17260001D02*
X4050000Y17060001D01*
X3811391Y17158609D02*
X3950000Y17020000D01*
X4140000Y15039999D02*
Y17120000D01*
X4050000Y10310000D02*
Y17060001D01*
X2830000Y17360001D02*
X3900000D01*
X3180000Y17260001D02*
X3850000D01*
X3339749Y16730745D02*
X3799255D01*
X3850000Y14230000D02*
Y16680000D01*
X3799255Y16730745D02*
X3850000Y16680000D01*
X3199124Y16977853D02*
X3379879Y17158609D01*
X4140000Y11080000D02*
Y15039999D01*
X2677711Y17207710D02*
X2830000Y17360001D01*
X2677711Y17175629D02*
Y17207710D01*
X2680000Y4330000D02*
X2710000Y4300000D01*
X2498939Y10018937D02*
Y10368939D01*
X4450000Y13260001D02*
X4580000D01*
X4390000Y13200000D02*
X4450000Y13260001D01*
X4390000Y13060001D02*
Y13200000D01*
X4240000Y12910001D02*
X4390000Y13060001D01*
X4240000Y12760000D02*
Y12910001D01*
X2890000Y14080000D02*
Y14153891D01*
X2873891Y14170000D02*
X2890000Y14153891D01*
X2757563Y14170000D02*
X2873891D01*
X2750207Y14177357D02*
X2757563Y14170000D01*
X2806433Y13626433D02*
X2985000Y13805000D01*
Y14245000D01*
X2870000Y14360001D02*
X2985000Y14245000D01*
X550000Y12100000D02*
Y12220000D01*
X560000Y11900000D02*
X660000D01*
X4260000Y11510000D02*
X4650000D01*
X4700000Y11250000D02*
Y11460000D01*
X4650000Y11510000D02*
X4700000Y11460000D01*
X2220000Y12000000D02*
Y12630000D01*
X3580000Y9450000D02*
Y9600000D01*
X3950000Y10240000D02*
X4670000Y9520000D01*
X3670000Y9430000D02*
Y13650000D01*
X3617780Y16162219D02*
X3670000Y16110001D01*
X3450000Y9320000D02*
X3580000Y9450000D01*
X3850000Y10450000D02*
Y14230000D01*
X3531652Y16008348D02*
X3580000Y15960001D01*
X4050000Y10310000D02*
X4780000Y9580000D01*
X3560000Y9320000D02*
X3670000Y9430000D01*
Y13650000D02*
Y16110001D01*
X4140000Y10370000D02*
Y11080000D01*
X3560000Y8890000D02*
Y9320000D01*
X3850000Y10190000D02*
Y10450000D01*
X3580000Y13380000D02*
Y15960001D01*
X4140000Y10370000D02*
X4680000Y9830000D01*
X3760000Y10140000D02*
Y16380000D01*
X3580000Y9600000D02*
Y13380000D01*
X2020000Y11820000D02*
X2070000Y11870000D01*
X2020000Y11710000D02*
Y11820000D01*
X1940000Y11680000D02*
X1970000Y11650000D01*
X1940000Y11680000D02*
Y11830000D01*
X1990000Y11880000D01*
Y12110000D01*
X2530001Y12750000D02*
X2640000D01*
X2470000Y12810001D02*
X2530001Y12750000D01*
X2300000Y12810001D02*
X2470000D01*
X4330000Y7370000D02*
Y8120000D01*
X3560000Y8890000D02*
X4330000Y8120000D01*
X3450000Y8840000D02*
Y9320000D01*
Y8840000D02*
X4230000Y8060000D01*
X2980000Y12670000D02*
X3110000Y12540000D01*
X2500000Y12670000D02*
X2980000D01*
X2430000Y12740000D02*
X2500000Y12670000D01*
X2330000Y12740000D02*
X2430000D01*
X2220000Y12630000D02*
X2330000Y12740000D01*
X1985000Y12225000D02*
X1990000Y12220000D01*
X2498939Y10368939D02*
X2710000Y10580000D01*
X2370000Y12370000D02*
X2480000D01*
X2040000Y12660000D02*
X2260000Y12880000D01*
X1740851Y17090851D02*
X2392150D01*
X560000Y11430000D02*
X1270000D01*
X500000Y11490000D02*
X560000Y11430000D01*
X500000Y11620000D02*
Y11840000D01*
X560000Y11900000D01*
X260000Y12290000D02*
X262463Y12292463D01*
X2805686Y16125687D02*
X2930000Y16250000D01*
Y16789999D01*
X2860000Y16860001D02*
X2930000Y16789999D01*
X2717985Y16860001D02*
X2860000D01*
X2715005Y16862981D02*
X2717985Y16860001D01*
X2677668Y898211D02*
Y924376D01*
X4260000Y11790000D02*
X4850000D01*
X4260000Y11650000D02*
X4760000D01*
X4680000Y9830000D02*
X4680000D01*
X4890000Y9620000D01*
X4260000Y10400000D02*
Y10860000D01*
Y10400000D02*
X4800000Y9860000D01*
X4450000Y12860001D02*
X4580000Y12989999D01*
X4450000Y12750000D02*
Y12860001D01*
X4580000Y12989999D02*
Y13120000D01*
X4760000Y11650000D02*
X4800000Y11610000D01*
X4910000Y10610000D02*
Y11730000D01*
X4850000Y11790000D02*
X4910000Y11730000D01*
X520000Y10780000D02*
Y11081882D01*
X500000Y11101882D02*
X520000Y11081882D01*
X500000Y11101882D02*
Y11110000D01*
X426373Y9468316D02*
Y9489529D01*
X426363Y9489540D02*
X426373Y9489529D01*
Y9468316D02*
X432113Y9462576D01*
X426363Y9489540D02*
Y11891831D01*
X333830Y8104288D02*
X340000Y8098118D01*
Y8090000D02*
Y8098118D01*
X333830Y8104288D02*
Y11892418D01*
X4550000Y6570000D02*
Y7950000D01*
Y4170000D02*
Y6570000D01*
X4670000Y7300000D02*
Y8220000D01*
Y4680000D02*
Y7300000D01*
X4780000Y9160000D02*
Y9580000D01*
Y8500000D02*
Y9160000D01*
X4230000Y3320000D02*
Y7100000D01*
Y8060000D01*
X2402942Y1020000D02*
X2409156Y1026214D01*
X3520000Y820000D02*
Y3320000D01*
X3620000Y1090000D02*
Y3590000D01*
X3720000Y1350000D02*
Y3860000D01*
X3820000Y1670000D02*
Y4170373D01*
X3922421Y1942421D02*
Y4437674D01*
X3920000Y1940000D02*
X3922421Y1942421D01*
Y4437674D02*
X3924843Y4440096D01*
X4030000Y2220000D02*
Y4720000D01*
X4130000Y2520000D02*
Y5010000D01*
X4780000Y4720000D02*
Y8500000D01*
X4670000Y4440000D02*
Y4680000D01*
X4890000Y8660000D02*
Y9620000D01*
X4330000Y3590000D02*
Y7370000D01*
X4550000Y7950000D02*
Y9490000D01*
X4670000Y8220000D02*
Y9520000D01*
X3850000Y10190000D02*
X4550000Y9490000D01*
X3760000Y10130000D02*
X4440000Y9450000D01*
X4670000Y4680000D02*
X4670000Y4680000D01*
X2392114Y15702113D02*
Y16069173D01*
X2330000Y15639999D02*
X2392114Y15702113D01*
X2392150Y17090851D02*
X2409191Y17073811D01*
X2392114Y16069173D02*
X2409156Y16086214D01*
X2674052Y15604051D02*
Y15980760D01*
X2610000Y15539999D02*
X2674052Y15604051D01*
Y15980760D02*
X2677668Y15984377D01*
X3710789Y16429211D02*
X3760000Y16380000D01*
X3339741Y16429211D02*
X3710789D01*
X2973388Y16008348D02*
X3531652D01*
X3218990Y16162219D02*
X3617780D01*
X2962750Y16018987D02*
X2973388Y16008348D01*
X3199095Y16182114D02*
X3218990Y16162219D01*
X3332560Y16436392D02*
X3339741Y16429211D01*
X3332570Y16723567D02*
X3339749Y16730745D01*
X2962791Y17141000D02*
X2989112Y17167320D01*
X3087321D02*
X3180000Y17260001D01*
X2989112Y17167320D02*
X3087321D01*
D13*
X2197996Y8292088D02*
X2372195Y8132195D01*
X2510000Y3390000D02*
X2565715Y3538484D01*
X2510000Y2150000D02*
X2570000Y1990000D01*
X2806433Y13625400D02*
X2830000Y13400000D01*
X2810543Y14576334D02*
X2830000Y14751295D01*
X2805686Y16124496D02*
X2830000Y15889999D01*
X2496170Y4672044D02*
X2589415Y4450584D01*
X2798966Y1966874D02*
X2840000Y2212260D01*
X2500000Y17230000D02*
X2578198Y17024728D01*
X2240000Y4480000D02*
X2390000Y4330000D01*
D14*
X2218745Y16858868D02*
D03*
Y14358868D02*
D03*
Y10578869D02*
D03*
Y8078869D02*
D03*
Y4298869D02*
D03*
Y1798869D02*
D03*
D15*
X2409191Y17073811D02*
D03*
Y14573811D02*
D03*
Y10793811D02*
D03*
Y8293811D02*
D03*
Y4513811D02*
D03*
Y2013811D02*
D03*
D16*
X2677711Y17175629D02*
D03*
Y14675629D02*
D03*
Y10895629D02*
D03*
Y8395629D02*
D03*
Y4615629D02*
D03*
Y2115629D02*
D03*
D17*
X2962791Y17141000D02*
D03*
Y14640999D02*
D03*
Y10860999D02*
D03*
Y8360999D02*
D03*
Y4580999D02*
D03*
Y2080999D02*
D03*
D18*
X3199124Y16977853D02*
D03*
Y14477853D02*
D03*
Y10697854D02*
D03*
Y8197854D02*
D03*
Y4417854D02*
D03*
Y1917854D02*
D03*
D19*
X3332570Y16723567D02*
D03*
Y14223567D02*
D03*
Y10443567D02*
D03*
Y7943567D02*
D03*
Y4163567D02*
D03*
Y1663567D02*
D03*
D20*
X3332560Y16436392D02*
D03*
Y13936391D02*
D03*
Y10156391D02*
D03*
Y7656391D02*
D03*
Y3876392D02*
D03*
Y1376391D02*
D03*
D21*
X3199095Y16182114D02*
D03*
Y13682114D02*
D03*
Y9902114D02*
D03*
Y7402114D02*
D03*
Y3622114D02*
D03*
Y1122114D02*
D03*
D22*
X2962750Y16018987D02*
D03*
Y13518987D02*
D03*
Y9738986D02*
D03*
Y7238986D02*
D03*
Y3458986D02*
D03*
Y958986D02*
D03*
D23*
X2677668Y15984377D02*
D03*
Y13484377D02*
D03*
Y9704376D02*
D03*
Y7204376D02*
D03*
Y3424376D02*
D03*
Y924376D02*
D03*
D24*
X2409156Y16086214D02*
D03*
Y13586214D02*
D03*
Y9806214D02*
D03*
Y7306214D02*
D03*
Y3526214D02*
D03*
Y1026214D02*
D03*
D25*
X2218725Y16301170D02*
D03*
Y13801170D02*
D03*
Y10021169D02*
D03*
Y7521169D02*
D03*
Y3741170D02*
D03*
Y1241169D02*
D03*
D26*
X2150000Y16580000D02*
D03*
Y14080000D02*
D03*
Y10300000D02*
D03*
Y7800000D02*
D03*
Y4020000D02*
D03*
Y1520000D02*
D03*
X2750000Y12020000D02*
D03*
Y12360000D02*
D03*
Y5740000D02*
D03*
Y6080000D02*
D03*
D27*
X706500Y11680500D02*
D03*
Y11045500D02*
D03*
D28*
X1500000Y9050000D02*
D03*
X4000000D02*
D03*
X4800000Y17400000D02*
D03*
X700000D02*
D03*
X4800000Y700000D02*
D03*
X700000D02*
D03*
X4700001Y16500000D02*
D03*
Y14100000D02*
D03*
D29*
X4700000Y15330000D02*
D03*
D30*
X2754837Y9908384D02*
D03*
X1240864Y16382867D02*
D03*
X1244571Y13883842D02*
D03*
X699264Y13010001D02*
D03*
X708111Y13259706D02*
D03*
X1483826Y13119707D02*
D03*
X2750000Y16180000D02*
D03*
Y13680000D02*
D03*
Y1120000D02*
D03*
Y3630000D02*
D03*
Y7410000D02*
D03*
X1240000Y10100000D02*
D03*
X3220000Y6830000D02*
D03*
X3070000Y6680000D02*
D03*
X2910000Y6520000D02*
D03*
X2860000Y8630000D02*
D03*
X310000Y7390000D02*
D03*
X320000Y6620000D02*
D03*
X5090000Y12060000D02*
D03*
Y12200000D02*
D03*
X5050000Y10860000D02*
D03*
X1410000Y14750000D02*
D03*
X2090000Y14580000D02*
D03*
Y14680000D02*
D03*
X930000Y14430000D02*
D03*
X880000Y14750000D02*
D03*
X510000D02*
D03*
X3320000Y13180000D02*
D03*
X3190000D02*
D03*
X3400000Y6510000D02*
D03*
X2340000Y3280000D02*
D03*
X960087Y6061492D02*
D03*
Y5761492D02*
D03*
X660087Y6061492D02*
D03*
Y5761492D02*
D03*
X1220000Y4260001D02*
D03*
Y4560001D02*
D03*
Y5160000D02*
D03*
Y4860000D02*
D03*
Y6060000D02*
D03*
Y5760000D02*
D03*
Y5460000D02*
D03*
X960087Y4861493D02*
D03*
Y4561493D02*
D03*
Y4261493D02*
D03*
X950000Y3979999D02*
D03*
Y3679999D02*
D03*
Y3380000D02*
D03*
Y3080000D02*
D03*
Y2780000D02*
D03*
Y2480000D02*
D03*
X960087Y2161494D02*
D03*
Y1861494D02*
D03*
Y1561494D02*
D03*
Y1261494D02*
D03*
X4860086Y361494D02*
D03*
X660087D02*
D03*
X360087Y661494D02*
D03*
Y961494D02*
D03*
X960087D02*
D03*
Y361494D02*
D03*
X5160086Y661494D02*
D03*
Y961494D02*
D03*
X4560086D02*
D03*
Y361494D02*
D03*
Y1861494D02*
D03*
Y2161494D02*
D03*
X4260086Y2461493D02*
D03*
Y2161494D02*
D03*
Y1861494D02*
D03*
X3960086Y1561494D02*
D03*
Y1261494D02*
D03*
X3360000Y680000D02*
D03*
X2760000D02*
D03*
X3070000D02*
D03*
X2390000Y790000D02*
D03*
X2120000Y990000D02*
D03*
X2460000Y1260000D02*
D03*
X3110000Y1520000D02*
D03*
X1700000Y2690000D02*
D03*
X1540000Y2690000D02*
D03*
X2210000Y2120000D02*
D03*
Y2320000D02*
D03*
X2400000Y2680000D02*
D03*
X2100000D02*
D03*
X2400000Y2940000D02*
D03*
X2100000D02*
D03*
X3020000Y2370000D02*
D03*
X3320000D02*
D03*
X2720000Y2680000D02*
D03*
X3020000D02*
D03*
X3320000D02*
D03*
X1550000Y2940000D02*
D03*
X1710000Y2940000D02*
D03*
X1220000Y2720000D02*
D03*
Y3020000D02*
D03*
Y3320000D02*
D03*
X2110000Y5270000D02*
D03*
X2330000D02*
D03*
Y4990000D02*
D03*
X2120000Y3490000D02*
D03*
X2460000Y3760000D02*
D03*
X3110000Y4020000D02*
D03*
X3330000Y3190000D02*
D03*
X3030000D02*
D03*
X2730000D02*
D03*
X3420000Y3460000D02*
D03*
X3530000Y3740000D02*
D03*
X3620000Y4020000D02*
D03*
X3480000Y4310000D02*
D03*
X3780000D02*
D03*
X3480000Y4580000D02*
D03*
X3780000D02*
D03*
X3040000Y4870000D02*
D03*
X3340000D02*
D03*
X3640000D02*
D03*
X3940000D02*
D03*
X4070000Y5580000D02*
D03*
X3770000D02*
D03*
X3470000D02*
D03*
X3170000D02*
D03*
X3770000Y5280000D02*
D03*
X3470000D02*
D03*
X3170000D02*
D03*
X3770000Y5880000D02*
D03*
X4070000D02*
D03*
X2140000Y6040000D02*
D03*
Y5740000D02*
D03*
X2330000Y5740000D02*
D03*
Y6040000D02*
D03*
X360087Y6061492D02*
D03*
X960087Y5161493D02*
D03*
Y5461493D02*
D03*
X660087D02*
D03*
X1220000Y6680000D02*
D03*
X2460000Y9590000D02*
D03*
X2517055Y8664388D02*
D03*
X2110000Y7260000D02*
D03*
X2424052Y7034051D02*
D03*
X2170000Y6670000D02*
D03*
X2420000D02*
D03*
X2670000D02*
D03*
X2800000Y6830000D02*
D03*
X2930000Y6990000D02*
D03*
X3520000Y7240000D02*
D03*
X4020000D02*
D03*
X3770000D02*
D03*
X3880000Y7500000D02*
D03*
X3630000D02*
D03*
X3950000Y7790000D02*
D03*
X3700000D02*
D03*
X3360000Y8630000D02*
D03*
X3110000D02*
D03*
X3450000Y8370000D02*
D03*
X3700000D02*
D03*
X4290000Y8840000D02*
D03*
Y8370000D02*
D03*
X360087Y15961488D02*
D03*
X660087D02*
D03*
X960087D02*
D03*
Y16261488D02*
D03*
X1260087Y17161488D02*
D03*
X1560087Y17461488D02*
D03*
X2160087D02*
D03*
X2460087Y361494D02*
D03*
X4600000Y13710001D02*
D03*
X4900000D02*
D03*
X5100000Y13550000D02*
D03*
X4360000Y13550002D02*
D03*
X5100000Y13850000D02*
D03*
X4360000Y13850000D02*
D03*
X5100000Y14150000D02*
D03*
X4360000Y14150000D02*
D03*
Y14750000D02*
D03*
X5100000Y14750000D02*
D03*
X4360000Y14450000D02*
D03*
X5100000Y14450000D02*
D03*
X4900000Y14610001D02*
D03*
X4600000D02*
D03*
X4610000Y16070000D02*
D03*
X4910000D02*
D03*
X5110000Y15910001D02*
D03*
X4370000Y15910001D02*
D03*
X5110000Y16210001D02*
D03*
X4370000Y16210001D02*
D03*
X5110000Y16510001D02*
D03*
X4370000Y16510001D02*
D03*
X5110000Y16810001D02*
D03*
X4370000Y16810001D02*
D03*
X4260086Y17461488D02*
D03*
X4560086Y17761488D02*
D03*
X3660086D02*
D03*
X3960086D02*
D03*
X4260086D02*
D03*
X2760086D02*
D03*
X3060086D02*
D03*
X3360086D02*
D03*
X2460087D02*
D03*
X2160087D02*
D03*
X1860087D02*
D03*
X4260086Y1561494D02*
D03*
Y1261494D02*
D03*
Y961494D02*
D03*
Y661494D02*
D03*
Y361494D02*
D03*
X3960086Y961494D02*
D03*
Y661494D02*
D03*
Y361494D02*
D03*
X3660086D02*
D03*
X3360086D02*
D03*
X3060086D02*
D03*
X2760086D02*
D03*
X2160087D02*
D03*
X1860087D02*
D03*
X1560087Y17761488D02*
D03*
Y361494D02*
D03*
X1260087Y17761488D02*
D03*
Y17461488D02*
D03*
Y361494D02*
D03*
X960087Y16861488D02*
D03*
Y16561488D02*
D03*
X660087Y16861488D02*
D03*
Y16561488D02*
D03*
Y16261488D02*
D03*
Y5161493D02*
D03*
Y4861493D02*
D03*
Y4561493D02*
D03*
Y4261493D02*
D03*
X360087Y16861488D02*
D03*
Y16561488D02*
D03*
Y16261488D02*
D03*
Y15361488D02*
D03*
Y5761492D02*
D03*
Y5461493D02*
D03*
Y5161493D02*
D03*
Y4861493D02*
D03*
Y4561493D02*
D03*
Y4261493D02*
D03*
X2090000Y16080000D02*
D03*
Y15830000D02*
D03*
X3020000Y14910001D02*
D03*
X3280000D02*
D03*
X3400000Y14639999D02*
D03*
X3460000Y14370000D02*
D03*
Y14080000D02*
D03*
X3440000Y13770000D02*
D03*
X3400000Y13510001D02*
D03*
X3480000Y10300000D02*
D03*
X3430000Y9990000D02*
D03*
X3410000Y9730000D02*
D03*
X2860000Y9540000D02*
D03*
X600000Y10310000D02*
D03*
Y10470000D02*
D03*
Y10630000D02*
D03*
X2460000Y16320000D02*
D03*
X3110000Y16580000D02*
D03*
X2460000Y13820000D02*
D03*
X3120000Y14080000D02*
D03*
X2910000Y9950000D02*
D03*
X3120000Y10300000D02*
D03*
X2483839Y10994750D02*
D03*
X3420000Y10890000D02*
D03*
X3160000D02*
D03*
X3420000Y11130000D02*
D03*
X3160000D02*
D03*
X2900000D02*
D03*
X3160000Y11520000D02*
D03*
X3420000D02*
D03*
X360087Y15101489D02*
D03*
Y15621489D02*
D03*
X880087Y15361488D02*
D03*
X620087D02*
D03*
X820000Y13550000D02*
D03*
Y13810001D02*
D03*
Y14070000D02*
D03*
X300000Y12770000D02*
D03*
Y13030000D02*
D03*
Y13289999D02*
D03*
Y13550000D02*
D03*
Y14070000D02*
D03*
Y13810001D02*
D03*
X1780000Y8670000D02*
D03*
X1080000Y8010000D02*
D03*
X1230000Y7610000D02*
D03*
X710000Y13139999D02*
D03*
X970000Y13130000D02*
D03*
X1150000D02*
D03*
X1320000D02*
D03*
X1410000Y14980000D02*
D03*
Y15639999D02*
D03*
Y15380000D02*
D03*
X1880000Y13155000D02*
D03*
X1890000Y12950000D02*
D03*
X2243552Y13172504D02*
D03*
X2370754Y13059245D02*
D03*
X1629896Y13430104D02*
D03*
X2030000Y13370000D02*
D03*
X1200000Y11330000D02*
D03*
X3300000Y11630000D02*
D03*
X1410000Y3170000D02*
D03*
X1680000Y4865652D02*
D03*
X1950000Y860000D02*
D03*
X1922418Y4289090D02*
D03*
X1110000Y4970000D02*
D03*
X1410000Y610000D02*
D03*
X1320000Y740000D02*
D03*
X1235000Y1320000D02*
D03*
X1320000Y3270000D02*
D03*
X1230000Y3820000D02*
D03*
X1495000Y6260000D02*
D03*
X1410000Y6850000D02*
D03*
X1885000Y5450000D02*
D03*
X2910000Y13000000D02*
D03*
X2810000Y13080000D02*
D03*
X3469765Y11810260D02*
D03*
X2743787Y11515000D02*
D03*
X2240000Y11490000D02*
D03*
X2329038Y11490962D02*
D03*
X1420000Y11499810D02*
D03*
X1486771Y11564810D02*
D03*
X1490000Y11650000D02*
D03*
X1491290Y11728308D02*
D03*
X2370000Y11650000D02*
D03*
X1806224Y13546225D02*
D03*
X1660000Y15220000D02*
D03*
X1875000Y15535001D02*
D03*
X1770000Y15739999D02*
D03*
X1915000Y16852579D02*
D03*
Y8070000D02*
D03*
X2710000Y1800000D02*
D03*
X1920000Y490000D02*
D03*
X1915000Y10525000D02*
D03*
X1910000Y1780000D02*
D03*
X1700000Y7170000D02*
D03*
X1701227Y3390652D02*
D03*
X1470000Y9870000D02*
D03*
X3302700Y15652699D02*
D03*
Y15392700D02*
D03*
X3042700Y15652699D02*
D03*
Y15392700D02*
D03*
X2610000Y15130000D02*
D03*
X2350000D02*
D03*
Y15389999D02*
D03*
X2610000D02*
D03*
X3880000Y9660000D02*
D03*
X4140000Y9420000D02*
D03*
X3880000D02*
D03*
X3237055Y8914388D02*
D03*
X2997055D02*
D03*
X2757055D02*
D03*
X2517055D02*
D03*
X2519755Y9169091D02*
D03*
X2759755D02*
D03*
X2999755D02*
D03*
X3239755D02*
D03*
X4560000Y10820000D02*
D03*
X4558703Y10560966D02*
D03*
X4380000Y10560000D02*
D03*
X5000000Y11140000D02*
D03*
Y11250000D02*
D03*
X5135202Y12503340D02*
D03*
X4257300Y12502700D02*
D03*
Y12342700D02*
D03*
Y12182700D02*
D03*
X3568503Y16291492D02*
D03*
X3524793Y16576143D02*
D03*
X3694793D02*
D03*
X3710066Y16939838D02*
D03*
X3540067D02*
D03*
X2680000Y17410001D02*
D03*
X120000Y6530000D02*
D03*
X190000Y6440000D02*
D03*
X450000Y6350000D02*
D03*
X4490000Y2430000D02*
D03*
X5130000Y6350000D02*
D03*
X4560000Y3580000D02*
D03*
X5090000Y8090000D02*
D03*
Y8960000D02*
D03*
X5180000Y7950000D02*
D03*
X4440000Y6260000D02*
D03*
X982500Y7292500D02*
D03*
X880000Y8165044D02*
D03*
X780000Y8110000D02*
D03*
X879660Y8895000D02*
D03*
X520000Y9870000D02*
D03*
X450000Y9160000D02*
D03*
Y8420000D02*
D03*
Y7690000D02*
D03*
Y6970000D02*
D03*
X5300000Y5300000D02*
D03*
Y10690000D02*
D03*
X2197996Y8292088D02*
D03*
X1870000Y14800000D02*
D03*
X1060000Y15870000D02*
D03*
X986373Y12583341D02*
D03*
X1170000Y11860000D02*
D03*
X690000Y13439999D02*
D03*
X1610000Y9680000D02*
D03*
X1490000Y11810000D02*
D03*
X2370001Y12270000D02*
D03*
Y12570000D02*
D03*
Y12470000D02*
D03*
X2710000Y8080000D02*
D03*
X980869Y9575488D02*
D03*
X1880000Y12330000D02*
D03*
X1995000Y12510000D02*
D03*
X2060000Y12440000D02*
D03*
X1160000Y14300000D02*
D03*
X5300000Y8320000D02*
D03*
X3110000Y7960000D02*
D03*
X909946Y10690104D02*
D03*
X1555000Y12390000D02*
D03*
X854896Y10775104D02*
D03*
X1080000Y9490000D02*
D03*
X879658Y9609488D02*
D03*
X879660Y7430044D02*
D03*
X2495121Y4885649D02*
D03*
X2840000Y2820000D02*
D03*
X3120000Y10450000D02*
D03*
X4590000Y2950000D02*
D03*
X4890000Y8660000D02*
D03*
Y5010000D02*
D03*
X5099659Y9160516D02*
D03*
X5109659Y9894116D02*
D03*
X4590000Y12750000D02*
D03*
X4890000Y12660000D02*
D03*
X2140000Y4580000D02*
D03*
X1620000Y3060000D02*
D03*
X2710000Y4300000D02*
D03*
X2498939Y10018937D02*
D03*
X3340000Y13000000D02*
D03*
X4580000Y13260001D02*
D03*
X4290000Y13110001D02*
D03*
X4240000Y12760000D02*
D03*
X3450000Y13100000D02*
D03*
X4240000Y12660000D02*
D03*
X2890000Y14080000D02*
D03*
X550000Y12220000D02*
D03*
X4260000Y11380000D02*
D03*
X3950000Y10720000D02*
D03*
X3850000Y10450000D02*
D03*
X3950000Y14500000D02*
D03*
X3760000Y13920000D02*
D03*
X3580000Y9600000D02*
D03*
X3670000Y13650000D02*
D03*
Y9870000D02*
D03*
Y9430000D02*
D03*
X4140000Y15039999D02*
D03*
X2020000Y11710000D02*
D03*
X2090000Y11780000D02*
D03*
X2220000Y12000000D02*
D03*
X2160000Y11860000D02*
D03*
X2640000Y12750000D02*
D03*
X3450000Y9320000D02*
D03*
X2370000Y12670000D02*
D03*
X1990000Y12110000D02*
D03*
Y12220000D02*
D03*
X2710000Y10580000D02*
D03*
X3350000Y11970000D02*
D03*
X2040000Y12660000D02*
D03*
X1540000Y12490000D02*
D03*
X1350000Y11935000D02*
D03*
X1270000Y11430000D02*
D03*
X2715005Y16862981D02*
D03*
X2710000Y14360001D02*
D03*
X2370000Y12170000D02*
D03*
Y12370000D02*
D03*
X1110000Y2450000D02*
D03*
Y6890000D02*
D03*
X4260000Y11790000D02*
D03*
Y11650000D02*
D03*
Y11510000D02*
D03*
X4700000Y11250000D02*
D03*
X1230962Y12239038D02*
D03*
X4140000Y11080000D02*
D03*
X4260000Y10860000D02*
D03*
X5052500Y13110001D02*
D03*
X4580000Y13120000D02*
D03*
X4450000Y12750000D02*
D03*
X220000Y14739999D02*
D03*
X4800000Y9860000D02*
D03*
X192499Y12357500D02*
D03*
X520000Y10780000D02*
D03*
X426363Y11891831D02*
D03*
X333830Y11892418D02*
D03*
X432113Y9462576D02*
D03*
X340000Y8090000D02*
D03*
X500000Y11110000D02*
D03*
Y11490000D02*
D03*
Y11620000D02*
D03*
X4910000Y10610000D02*
D03*
X260000Y12290000D02*
D03*
X117375Y12424394D02*
D03*
X4550000Y6570000D02*
D03*
X4670000Y7300000D02*
D03*
X4780000Y9160000D02*
D03*
X4680000Y9830000D02*
D03*
X4089658Y6283087D02*
D03*
X3520000Y820000D02*
D03*
Y3320000D02*
D03*
X3620000Y3590000D02*
D03*
Y1090000D02*
D03*
X3720000Y3860000D02*
D03*
Y1350000D02*
D03*
X3820000Y1670000D02*
D03*
Y4170373D02*
D03*
X3920000Y1940000D02*
D03*
X3924843Y4440096D02*
D03*
X4030000Y2220000D02*
D03*
X4130000Y2520000D02*
D03*
X4030000Y4720000D02*
D03*
X4130000Y5010000D02*
D03*
X4330000Y3590000D02*
D03*
X4780000Y4720000D02*
D03*
X4670000Y4440000D02*
D03*
X4550000Y4170000D02*
D03*
X4440000Y3860000D02*
D03*
X4230000Y3320000D02*
D03*
Y7100000D02*
D03*
X4330000Y7370000D02*
D03*
X4440000Y7640000D02*
D03*
X4550000Y7950000D02*
D03*
X4670000Y8220000D02*
D03*
X4780000Y8500000D02*
D03*
X3760000Y10140000D02*
D03*
X4050000Y11000000D02*
D03*
Y14780000D02*
D03*
X3580000Y13380000D02*
D03*
X3850000Y14230000D02*
D03*
X2774831Y16793311D02*
D03*
X2774925Y14293507D02*
D03*
X2774542Y10513207D02*
D03*
X2773990Y4233519D02*
D03*
X2774718Y1733652D02*
D03*
X1520000Y13270000D02*
D03*
X5099658Y7301594D02*
D03*
X5099659Y6576177D02*
D03*
X879657Y6703904D02*
D03*
X3200000Y11990000D02*
D03*
X3200000Y5710000D02*
D03*
X2775674Y8010738D02*
D03*
%TF.MD5,6168b50871f26f4d837b9c73e5461168*%
M02*
