%TF.GenerationSoftware,Altium Limited,Altium Designer,25.1.2 (22)*%
G04 Layer_Color=65535*
%FSLAX45Y45*%
%MOMM*%
%TF.SameCoordinates,BF30D0C4-2389-474D-B6D4-4450DCB69705*%
%TF.FilePolarity,Positive*%
%TF.FileFunction,Legend,Top*%
%TF.Part,Single*%
G01*
G75*
%TA.AperFunction,NonConductor*%
%ADD48C,0.20000*%
%ADD49C,0.25400*%
D48*
X2916300Y12360000D02*
G03*
X2916300Y12360000I-10000J0D01*
G01*
Y6080000D02*
G03*
X2916300Y6080000I-10000J0D01*
G01*
X2810956Y7782086D02*
Y7812086D01*
X2690956Y7782086D02*
Y7812086D01*
X2809273Y4004867D02*
Y4034867D01*
X2689272Y4004867D02*
Y4034867D01*
X2809824Y10284555D02*
Y10314555D01*
X2689824Y10284555D02*
Y10314555D01*
X2810207Y14064857D02*
Y14094856D01*
X2690207Y14064857D02*
Y14094856D01*
X2810113Y16564658D02*
Y16594658D01*
X2690113Y16564658D02*
Y16594658D01*
X2810000Y1505000D02*
Y1535000D01*
X2690000Y1505000D02*
Y1535000D01*
D49*
X2674756Y7619286D02*
X2827156D01*
X2673073Y3842067D02*
X2825473D01*
X2673624Y10121755D02*
X2826024D01*
X2674007Y13902057D02*
X2826407D01*
X2673913Y16401859D02*
X2826313D01*
X2673800Y1342200D02*
X2826200D01*
X2873816Y16294130D02*
X3026183D01*
X2873816Y16326054D02*
X3026183D01*
X2873816D02*
X3026183Y16427634D01*
X2873816D02*
X3026183D01*
X2960883Y16469714D02*
Y16600316D01*
X2902838Y16645300D02*
X2895583Y16659811D01*
X2873816Y16681580D01*
X3026183D01*
X2873816Y16829591D02*
X2975394Y16757037D01*
Y16865871D01*
X2873816Y16829591D02*
X3026183D01*
X2873816Y13794130D02*
X3026183D01*
X2873816Y13826054D02*
X3026183D01*
X2873816D02*
X3026183Y13927634D01*
X2873816D02*
X3026183D01*
X2960883Y13969714D02*
Y14100316D01*
X2902838Y14145300D02*
X2895583Y14159811D01*
X2873816Y14181578D01*
X3026183D01*
X2873816Y14329591D02*
X2975394Y14257037D01*
Y14365871D01*
X2873816Y14329591D02*
X3026183D01*
X2873816Y10014130D02*
X3026183D01*
X2873816Y10046055D02*
X3026183D01*
X2873816D02*
X3026183Y10147633D01*
X2873816D02*
X3026183D01*
X2960883Y10189715D02*
Y10320316D01*
X2902838Y10365300D02*
X2895583Y10379812D01*
X2873816Y10401578D01*
X3026183D01*
X2873816Y10549592D02*
X2975394Y10477036D01*
Y10585870D01*
X2873816Y10549592D02*
X3026183D01*
X2873816Y7514130D02*
X3026183D01*
X2873816Y7546055D02*
X3026183D01*
X2873816D02*
X3026183Y7647633D01*
X2873816D02*
X3026183D01*
X2960883Y7689715D02*
Y7820316D01*
X2902838Y7865300D02*
X2895583Y7879812D01*
X2873816Y7901578D01*
X3026183D01*
X2873816Y8049592D02*
X2975394Y7977036D01*
Y8085870D01*
X2873816Y8049592D02*
X3026183D01*
X2873816Y3734130D02*
X3026183D01*
X2873816Y3766055D02*
X3026183D01*
X2873816D02*
X3026183Y3867633D01*
X2873816D02*
X3026183D01*
X2960883Y3909715D02*
Y4040316D01*
X2902838Y4085300D02*
X2895583Y4099812D01*
X2873816Y4121578D01*
X3026183D01*
X2873816Y4269592D02*
X2975394Y4197037D01*
Y4305870D01*
X2873816Y4269592D02*
X3026183D01*
X2873816Y1234130D02*
X3026183D01*
X2873816Y1266055D02*
X3026183D01*
X2873816D02*
X3026183Y1367633D01*
X2873816D02*
X3026183D01*
X2960883Y1409715D02*
Y1540316D01*
X2902838Y1585300D02*
X2895583Y1599812D01*
X2873816Y1621578D01*
X3026183D01*
X2873816Y1769592D02*
X2975394Y1697036D01*
Y1805870D01*
X2873816Y1769592D02*
X3026183D01*
X2963816Y11963626D02*
X3116183D01*
X2963816Y11995551D02*
X3116183D01*
X2963816D02*
X3116183Y12097129D01*
X2963816D02*
X3116183D01*
X3050883Y12139211D02*
Y12269812D01*
X2963816Y12329308D02*
Y12409119D01*
X3021861Y12365585D01*
Y12387352D01*
X3029116Y12401863D01*
X3036372Y12409119D01*
X3058139Y12416374D01*
X3072650D01*
X3094416Y12409119D01*
X3108928Y12394608D01*
X3116183Y12372841D01*
Y12351074D01*
X3108928Y12329308D01*
X3101672Y12322052D01*
X3087161Y12314796D01*
X2963816Y5683626D02*
X3116183D01*
X2963816Y5715551D02*
X3116183D01*
X2963816D02*
X3116183Y5817129D01*
X2963816D02*
X3116183D01*
X3050883Y5859211D02*
Y5989812D01*
X2963816Y6049308D02*
Y6129119D01*
X3021861Y6085585D01*
Y6107352D01*
X3029116Y6121864D01*
X3036372Y6129119D01*
X3058139Y6136375D01*
X3072650D01*
X3094416Y6129119D01*
X3108928Y6114608D01*
X3116183Y6092841D01*
Y6071074D01*
X3108928Y6049308D01*
X3101672Y6042052D01*
X3087161Y6034796D01*
X2433816Y12003532D02*
X2586183Y12061576D01*
X2433816Y12119621D02*
X2586183Y12061576D01*
X2470094Y12146467D02*
X2462838D01*
X2448327Y12153722D01*
X2441072Y12160978D01*
X2433816Y12175489D01*
Y12204512D01*
X2441072Y12219023D01*
X2448327Y12226278D01*
X2462838Y12233534D01*
X2477349D01*
X2491861Y12226278D01*
X2513627Y12211767D01*
X2586183Y12139211D01*
Y12240789D01*
X2433816Y12274891D02*
X2586183D01*
X2433816D02*
Y12340191D01*
X2441072Y12361958D01*
X2448327Y12369213D01*
X2462838Y12376469D01*
X2477349D01*
X2491861Y12369213D01*
X2499116Y12361958D01*
X2506372Y12340191D01*
Y12274891D02*
Y12340191D01*
X2513627Y12361958D01*
X2520883Y12369213D01*
X2535394Y12376469D01*
X2557161D01*
X2571672Y12369213D01*
X2578928Y12361958D01*
X2586183Y12340191D01*
Y12274891D01*
X2433816Y5716276D02*
X2586184Y5774321D01*
X2433816Y5832366D02*
X2586184Y5774321D01*
X2470094Y5859211D02*
X2462839D01*
X2448327Y5866467D01*
X2441072Y5873722D01*
X2433816Y5888234D01*
Y5917256D01*
X2441072Y5931767D01*
X2448327Y5939023D01*
X2462839Y5946278D01*
X2477350D01*
X2491861Y5939023D01*
X2513628Y5924511D01*
X2586184Y5851956D01*
Y5953534D01*
Y6103724D02*
X2433816Y6045680D01*
X2586184Y5987635D01*
X2535394Y6009402D02*
Y6081958D01*
X2473816Y16409131D02*
X2626183Y16467175D01*
X2473816Y16525221D02*
X2626183Y16467175D01*
X2502838Y16544810D02*
X2495583Y16559322D01*
X2473816Y16581088D01*
X2626183D01*
X2473816Y16656548D02*
X2626183D01*
X2473816D02*
Y16750870D01*
X2546372Y16656548D02*
Y16714590D01*
X2473816Y13909131D02*
X2626183Y13967175D01*
X2473816Y14025221D02*
X2626183Y13967175D01*
X2502838Y14044810D02*
X2495583Y14059322D01*
X2473816Y14081088D01*
X2626183D01*
X2473816Y14250870D02*
Y14156548D01*
X2626183D01*
Y14250870D01*
X2546372Y14156548D02*
Y14214590D01*
X2473816Y10125503D02*
X2626183Y10183548D01*
X2473816Y10241593D02*
X2626183Y10183548D01*
X2502839Y10261183D02*
X2495583Y10275694D01*
X2473816Y10297461D01*
X2626183D01*
X2473816Y10372919D02*
X2626183D01*
X2473816D02*
Y10423708D01*
X2481072Y10445475D01*
X2495583Y10459986D01*
X2510094Y10467241D01*
X2531861Y10474497D01*
X2568139D01*
X2589905Y10467241D01*
X2604417Y10459986D01*
X2618928Y10445475D01*
X2626183Y10423708D01*
Y10372919D01*
X2473816Y7621875D02*
X2626183Y7679920D01*
X2473816Y7737965D02*
X2626183Y7679920D01*
X2502839Y7757555D02*
X2495583Y7772066D01*
X2473816Y7793833D01*
X2626183D01*
X2510094Y7978125D02*
X2495583Y7970869D01*
X2481072Y7956358D01*
X2473816Y7941847D01*
Y7912824D01*
X2481072Y7898313D01*
X2495583Y7883802D01*
X2510094Y7876546D01*
X2531861Y7869291D01*
X2568139D01*
X2589905Y7876546D01*
X2604417Y7883802D01*
X2618928Y7898313D01*
X2626183Y7912824D01*
Y7941847D01*
X2618928Y7956358D01*
X2604417Y7970869D01*
X2589905Y7978125D01*
X2473816Y3845503D02*
X2626183Y3903548D01*
X2473816Y3961593D02*
X2626183Y3903548D01*
X2502839Y3981183D02*
X2495583Y3995694D01*
X2473816Y4017461D01*
X2626183D01*
X2473816Y4092919D02*
X2626183D01*
X2473816D02*
Y4158219D01*
X2481072Y4179986D01*
X2488327Y4187242D01*
X2502839Y4194497D01*
X2517350D01*
X2531861Y4187242D01*
X2539116Y4179986D01*
X2546372Y4158219D01*
Y4092919D02*
Y4158219D01*
X2553628Y4179986D01*
X2560883Y4187242D01*
X2575394Y4194497D01*
X2597161D01*
X2611672Y4187242D01*
X2618928Y4179986D01*
X2626183Y4158219D01*
Y4092919D01*
X2473816Y1338248D02*
X2626183Y1396292D01*
X2473816Y1454337D02*
X2626183Y1396292D01*
X2502839Y1473927D02*
X2495583Y1488438D01*
X2473816Y1510205D01*
X2626183D01*
Y1701753D02*
X2473816Y1643708D01*
X2626183Y1585663D01*
X2575394Y1607430D02*
Y1679986D01*
%TF.MD5,d417de87fd12d8874381895ef3f0f355*%
M02*
