%TF.GenerationSoftware,Altium Limited,Altium Designer,25.1.2 (22)*%
G04 Layer_Color=0*
%FSLAX45Y45*%
%MOMM*%
%TF.SameCoordinates,BF30D0C4-2389-474D-B6D4-4450DCB69705*%
%TF.FilePolarity,Positive*%
%TF.FileFunction,Plated,1,2,PTH,Drill*%
%TF.Part,Single*%
G01*
G75*
%TA.AperFunction,ComponentDrill*%
%ADD94C,1.40000*%
%ADD95C,1.40000*%
%ADD96C,1.40000*%
%ADD97C,1.40000*%
%ADD98C,1.40000*%
%ADD99C,1.40000*%
%ADD100C,1.40000*%
%ADD101C,1.40000*%
%ADD102C,1.40000*%
%ADD103C,1.40000*%
%ADD104C,1.40000*%
%ADD105C,1.40000*%
%ADD106C,1.40000*%
%TA.AperFunction,OtherDrill,Pad Free-8 (15mm,90.5mm)*%
%ADD107C,2.50000*%
%TA.AperFunction,OtherDrill,Pad Free-7 (40mm,90.5mm)*%
%ADD108C,2.50000*%
%TA.AperFunction,OtherDrill,Pad Free-3 (48mm,174mm)*%
%ADD109C,2.50000*%
%TA.AperFunction,OtherDrill,Pad Free-4 (7mm,174mm)*%
%ADD110C,2.50000*%
%TA.AperFunction,OtherDrill,Pad Free-2 (48mm,7mm)*%
%ADD111C,2.50000*%
%TA.AperFunction,OtherDrill,Pad Free-1 (7mm,7mm)*%
%ADD112C,2.50000*%
%TA.AperFunction,OtherDrill,Pad Free-5 (47mm,165mm)*%
%ADD113C,2.50000*%
%TA.AperFunction,OtherDrill,Pad Free-6 (47mm,141mm)*%
%ADD114C,2.50000*%
%TA.AperFunction,ViaDrill,NotFilled*%
%ADD115C,0.30000*%
D94*
X2218745Y16858868D02*
D03*
Y14358868D02*
D03*
Y10578869D02*
D03*
Y8078869D02*
D03*
Y4298869D02*
D03*
Y1798869D02*
D03*
D95*
X2409191Y17073811D02*
D03*
Y14573811D02*
D03*
Y10793811D02*
D03*
Y8293811D02*
D03*
Y4513811D02*
D03*
Y2013811D02*
D03*
D96*
X2677711Y17175629D02*
D03*
Y14675629D02*
D03*
Y10895629D02*
D03*
Y8395629D02*
D03*
Y4615629D02*
D03*
Y2115629D02*
D03*
D97*
X2962791Y17141000D02*
D03*
Y14640999D02*
D03*
Y10860999D02*
D03*
Y8360999D02*
D03*
Y4580999D02*
D03*
Y2080999D02*
D03*
D98*
X3199124Y16977853D02*
D03*
Y14477853D02*
D03*
Y10697854D02*
D03*
Y8197854D02*
D03*
Y4417854D02*
D03*
Y1917854D02*
D03*
D99*
X3332570Y16723567D02*
D03*
Y14223567D02*
D03*
Y10443567D02*
D03*
Y7943567D02*
D03*
Y4163567D02*
D03*
Y1663567D02*
D03*
D100*
X3332560Y16436392D02*
D03*
Y13936391D02*
D03*
Y10156391D02*
D03*
Y7656391D02*
D03*
Y3876392D02*
D03*
Y1376391D02*
D03*
D101*
X3199095Y16182114D02*
D03*
Y13682114D02*
D03*
Y9902114D02*
D03*
Y7402114D02*
D03*
Y3622114D02*
D03*
Y1122114D02*
D03*
D102*
X2962750Y16018987D02*
D03*
Y13518987D02*
D03*
Y9738986D02*
D03*
Y7238986D02*
D03*
Y3458986D02*
D03*
Y958986D02*
D03*
D103*
X2677668Y15984377D02*
D03*
Y13484377D02*
D03*
Y9704376D02*
D03*
Y7204376D02*
D03*
Y3424376D02*
D03*
Y924376D02*
D03*
D104*
X2409156Y16086214D02*
D03*
Y13586214D02*
D03*
Y9806214D02*
D03*
Y7306214D02*
D03*
Y3526214D02*
D03*
Y1026214D02*
D03*
D105*
X2218725Y16301170D02*
D03*
Y13801170D02*
D03*
Y10021169D02*
D03*
Y7521169D02*
D03*
Y3741170D02*
D03*
Y1241169D02*
D03*
D106*
X2150000Y16580000D02*
D03*
Y14080000D02*
D03*
Y10300000D02*
D03*
Y7800000D02*
D03*
Y4020000D02*
D03*
Y1520000D02*
D03*
X2750000Y12020000D02*
D03*
Y12360000D02*
D03*
Y5740000D02*
D03*
Y6080000D02*
D03*
D107*
X1500000Y9050000D02*
D03*
D108*
X4000000D02*
D03*
D109*
X4800000Y17400000D02*
D03*
D110*
X700000D02*
D03*
D111*
X4800000Y700000D02*
D03*
D112*
X700000D02*
D03*
D113*
X4700001Y16500000D02*
D03*
D114*
Y14100000D02*
D03*
D115*
X2754837Y9908384D02*
D03*
X1240864Y16382867D02*
D03*
X1244571Y13883842D02*
D03*
X699264Y13010001D02*
D03*
X708111Y13259706D02*
D03*
X1483826Y13119707D02*
D03*
X2750000Y16180000D02*
D03*
Y13680000D02*
D03*
Y1120000D02*
D03*
Y3630000D02*
D03*
Y7410000D02*
D03*
X1240000Y10100000D02*
D03*
X3220000Y6830000D02*
D03*
X3070000Y6680000D02*
D03*
X2910000Y6520000D02*
D03*
X2860000Y8630000D02*
D03*
X310000Y7390000D02*
D03*
X320000Y6620000D02*
D03*
X5090000Y12060000D02*
D03*
Y12200000D02*
D03*
X5050000Y10860000D02*
D03*
X1410000Y14750000D02*
D03*
X2090000Y14580000D02*
D03*
Y14680000D02*
D03*
X930000Y14430000D02*
D03*
X880000Y14750000D02*
D03*
X510000D02*
D03*
X3320000Y13180000D02*
D03*
X3190000D02*
D03*
X3400000Y6510000D02*
D03*
X2340000Y3280000D02*
D03*
X960087Y6061492D02*
D03*
Y5761492D02*
D03*
X660087Y6061492D02*
D03*
Y5761492D02*
D03*
X1220000Y4260001D02*
D03*
Y4560001D02*
D03*
Y5160000D02*
D03*
Y4860000D02*
D03*
Y6060000D02*
D03*
Y5760000D02*
D03*
Y5460000D02*
D03*
X960087Y4861493D02*
D03*
Y4561493D02*
D03*
Y4261493D02*
D03*
X950000Y3979999D02*
D03*
Y3679999D02*
D03*
Y3380000D02*
D03*
Y3080000D02*
D03*
Y2780000D02*
D03*
Y2480000D02*
D03*
X960087Y2161494D02*
D03*
Y1861494D02*
D03*
Y1561494D02*
D03*
Y1261494D02*
D03*
X4860086Y361494D02*
D03*
X660087D02*
D03*
X360087Y661494D02*
D03*
Y961494D02*
D03*
X960087D02*
D03*
Y361494D02*
D03*
X5160086Y661494D02*
D03*
Y961494D02*
D03*
X4560086D02*
D03*
Y361494D02*
D03*
Y1861494D02*
D03*
Y2161494D02*
D03*
X4260086Y2461493D02*
D03*
Y2161494D02*
D03*
Y1861494D02*
D03*
X3960086Y1561494D02*
D03*
Y1261494D02*
D03*
X3360000Y680000D02*
D03*
X2760000D02*
D03*
X3070000D02*
D03*
X2390000Y790000D02*
D03*
X2120000Y990000D02*
D03*
X2460000Y1260000D02*
D03*
X3110000Y1520000D02*
D03*
X1700000Y2690000D02*
D03*
X1540000Y2690000D02*
D03*
X2210000Y2120000D02*
D03*
Y2320000D02*
D03*
X2400000Y2680000D02*
D03*
X2100000D02*
D03*
X2400000Y2940000D02*
D03*
X2100000D02*
D03*
X3020000Y2370000D02*
D03*
X3320000D02*
D03*
X2720000Y2680000D02*
D03*
X3020000D02*
D03*
X3320000D02*
D03*
X1550000Y2940000D02*
D03*
X1710000Y2940000D02*
D03*
X1220000Y2720000D02*
D03*
Y3020000D02*
D03*
Y3320000D02*
D03*
X2110000Y5270000D02*
D03*
X2330000D02*
D03*
Y4990000D02*
D03*
X2120000Y3490000D02*
D03*
X2460000Y3760000D02*
D03*
X3110000Y4020000D02*
D03*
X3330000Y3190000D02*
D03*
X3030000D02*
D03*
X2730000D02*
D03*
X3420000Y3460000D02*
D03*
X3530000Y3740000D02*
D03*
X3620000Y4020000D02*
D03*
X3480000Y4310000D02*
D03*
X3780000D02*
D03*
X3480000Y4580000D02*
D03*
X3780000D02*
D03*
X3040000Y4870000D02*
D03*
X3340000D02*
D03*
X3640000D02*
D03*
X3940000D02*
D03*
X4070000Y5580000D02*
D03*
X3770000D02*
D03*
X3470000D02*
D03*
X3170000D02*
D03*
X3770000Y5280000D02*
D03*
X3470000D02*
D03*
X3170000D02*
D03*
X3770000Y5880000D02*
D03*
X4070000D02*
D03*
X2140000Y6040000D02*
D03*
Y5740000D02*
D03*
X2330000Y5740000D02*
D03*
Y6040000D02*
D03*
X360087Y6061492D02*
D03*
X960087Y5161493D02*
D03*
Y5461493D02*
D03*
X660087D02*
D03*
X1220000Y6680000D02*
D03*
X2460000Y9590000D02*
D03*
X2517055Y8664388D02*
D03*
X2110000Y7260000D02*
D03*
X2424052Y7034051D02*
D03*
X2170000Y6670000D02*
D03*
X2420000D02*
D03*
X2670000D02*
D03*
X2800000Y6830000D02*
D03*
X2930000Y6990000D02*
D03*
X3520000Y7240000D02*
D03*
X4020000D02*
D03*
X3770000D02*
D03*
X3880000Y7500000D02*
D03*
X3630000D02*
D03*
X3950000Y7790000D02*
D03*
X3700000D02*
D03*
X3360000Y8630000D02*
D03*
X3110000D02*
D03*
X3450000Y8370000D02*
D03*
X3700000D02*
D03*
X4290000Y8840000D02*
D03*
Y8370000D02*
D03*
X360087Y15961488D02*
D03*
X660087D02*
D03*
X960087D02*
D03*
Y16261488D02*
D03*
X1260087Y17161488D02*
D03*
X1560087Y17461488D02*
D03*
X2160087D02*
D03*
X2460087Y361494D02*
D03*
X4600000Y13710001D02*
D03*
X4900000D02*
D03*
X5100000Y13550000D02*
D03*
X4360000Y13550002D02*
D03*
X5100000Y13850000D02*
D03*
X4360000Y13850000D02*
D03*
X5100000Y14150000D02*
D03*
X4360000Y14150000D02*
D03*
Y14750000D02*
D03*
X5100000Y14750000D02*
D03*
X4360000Y14450000D02*
D03*
X5100000Y14450000D02*
D03*
X4900000Y14610001D02*
D03*
X4600000D02*
D03*
X4610000Y16070000D02*
D03*
X4910000D02*
D03*
X5110000Y15910001D02*
D03*
X4370000Y15910001D02*
D03*
X5110000Y16210001D02*
D03*
X4370000Y16210001D02*
D03*
X5110000Y16510001D02*
D03*
X4370000Y16510001D02*
D03*
X5110000Y16810001D02*
D03*
X4370000Y16810001D02*
D03*
X4260086Y17461488D02*
D03*
X4560086Y17761488D02*
D03*
X3660086D02*
D03*
X3960086D02*
D03*
X4260086D02*
D03*
X2760086D02*
D03*
X3060086D02*
D03*
X3360086D02*
D03*
X2460087D02*
D03*
X2160087D02*
D03*
X1860087D02*
D03*
X4260086Y1561494D02*
D03*
Y1261494D02*
D03*
Y961494D02*
D03*
Y661494D02*
D03*
Y361494D02*
D03*
X3960086Y961494D02*
D03*
Y661494D02*
D03*
Y361494D02*
D03*
X3660086D02*
D03*
X3360086D02*
D03*
X3060086D02*
D03*
X2760086D02*
D03*
X2160087D02*
D03*
X1860087D02*
D03*
X1560087Y17761488D02*
D03*
Y361494D02*
D03*
X1260087Y17761488D02*
D03*
Y17461488D02*
D03*
Y361494D02*
D03*
X960087Y16861488D02*
D03*
Y16561488D02*
D03*
X660087Y16861488D02*
D03*
Y16561488D02*
D03*
Y16261488D02*
D03*
Y5161493D02*
D03*
Y4861493D02*
D03*
Y4561493D02*
D03*
Y4261493D02*
D03*
X360087Y16861488D02*
D03*
Y16561488D02*
D03*
Y16261488D02*
D03*
Y15361488D02*
D03*
Y5761492D02*
D03*
Y5461493D02*
D03*
Y5161493D02*
D03*
Y4861493D02*
D03*
Y4561493D02*
D03*
Y4261493D02*
D03*
X2090000Y16080000D02*
D03*
Y15830000D02*
D03*
X3020000Y14910001D02*
D03*
X3280000D02*
D03*
X3400000Y14639999D02*
D03*
X3460000Y14370000D02*
D03*
Y14080000D02*
D03*
X3440000Y13770000D02*
D03*
X3400000Y13510001D02*
D03*
X3480000Y10300000D02*
D03*
X3430000Y9990000D02*
D03*
X3410000Y9730000D02*
D03*
X2860000Y9540000D02*
D03*
X600000Y10310000D02*
D03*
Y10470000D02*
D03*
Y10630000D02*
D03*
X2460000Y16320000D02*
D03*
X3110000Y16580000D02*
D03*
X2460000Y13820000D02*
D03*
X3120000Y14080000D02*
D03*
X2910000Y9950000D02*
D03*
X3120000Y10300000D02*
D03*
X2483839Y10994750D02*
D03*
X3420000Y10890000D02*
D03*
X3160000D02*
D03*
X3420000Y11130000D02*
D03*
X3160000D02*
D03*
X2900000D02*
D03*
X3160000Y11520000D02*
D03*
X3420000D02*
D03*
X360087Y15101489D02*
D03*
Y15621489D02*
D03*
X880087Y15361488D02*
D03*
X620087D02*
D03*
X820000Y13550000D02*
D03*
Y13810001D02*
D03*
Y14070000D02*
D03*
X300000Y12770000D02*
D03*
Y13030000D02*
D03*
Y13289999D02*
D03*
Y13550000D02*
D03*
Y14070000D02*
D03*
Y13810001D02*
D03*
X1780000Y8670000D02*
D03*
X1080000Y8010000D02*
D03*
X1230000Y7610000D02*
D03*
X710000Y13139999D02*
D03*
X970000Y13130000D02*
D03*
X1150000D02*
D03*
X1320000D02*
D03*
X1410000Y14980000D02*
D03*
Y15639999D02*
D03*
Y15380000D02*
D03*
X1880000Y13155000D02*
D03*
X1890000Y12950000D02*
D03*
X2243552Y13172504D02*
D03*
X2370754Y13059245D02*
D03*
X1629896Y13430104D02*
D03*
X2030000Y13370000D02*
D03*
X1200000Y11330000D02*
D03*
X3300000Y11630000D02*
D03*
X1410000Y3170000D02*
D03*
X1680000Y4865652D02*
D03*
X1950000Y860000D02*
D03*
X1922418Y4289090D02*
D03*
X1110000Y4970000D02*
D03*
X1410000Y610000D02*
D03*
X1320000Y740000D02*
D03*
X1235000Y1320000D02*
D03*
X1320000Y3270000D02*
D03*
X1230000Y3820000D02*
D03*
X1495000Y6260000D02*
D03*
X1410000Y6850000D02*
D03*
X1885000Y5450000D02*
D03*
X2910000Y13000000D02*
D03*
X2810000Y13080000D02*
D03*
X3469765Y11810260D02*
D03*
X2743787Y11515000D02*
D03*
X2240000Y11490000D02*
D03*
X2329038Y11490962D02*
D03*
X1420000Y11499810D02*
D03*
X1486771Y11564810D02*
D03*
X1490000Y11650000D02*
D03*
X1491290Y11728308D02*
D03*
X2370000Y11650000D02*
D03*
X1806224Y13546225D02*
D03*
X1660000Y15220000D02*
D03*
X1875000Y15535001D02*
D03*
X1770000Y15739999D02*
D03*
X1915000Y16852579D02*
D03*
Y8070000D02*
D03*
X2710000Y1800000D02*
D03*
X1920000Y490000D02*
D03*
X1915000Y10525000D02*
D03*
X1910000Y1780000D02*
D03*
X1700000Y7170000D02*
D03*
X1701227Y3390652D02*
D03*
X1470000Y9870000D02*
D03*
X3302700Y15652699D02*
D03*
Y15392700D02*
D03*
X3042700Y15652699D02*
D03*
Y15392700D02*
D03*
X2610000Y15130000D02*
D03*
X2350000D02*
D03*
Y15389999D02*
D03*
X2610000D02*
D03*
X3880000Y9660000D02*
D03*
X4140000Y9420000D02*
D03*
X3880000D02*
D03*
X3237055Y8914388D02*
D03*
X2997055D02*
D03*
X2757055D02*
D03*
X2517055D02*
D03*
X2519755Y9169091D02*
D03*
X2759755D02*
D03*
X2999755D02*
D03*
X3239755D02*
D03*
X4560000Y10820000D02*
D03*
X4558703Y10560966D02*
D03*
X4380000Y10560000D02*
D03*
X5000000Y11140000D02*
D03*
Y11250000D02*
D03*
X5135202Y12503340D02*
D03*
X4257300Y12502700D02*
D03*
Y12342700D02*
D03*
Y12182700D02*
D03*
X3568503Y16291492D02*
D03*
X3524793Y16576143D02*
D03*
X3694793D02*
D03*
X3710066Y16939838D02*
D03*
X3540067D02*
D03*
X2680000Y17410001D02*
D03*
X120000Y6530000D02*
D03*
X190000Y6440000D02*
D03*
X450000Y6350000D02*
D03*
X4490000Y2430000D02*
D03*
X5130000Y6350000D02*
D03*
X4560000Y3580000D02*
D03*
X5090000Y8090000D02*
D03*
Y8960000D02*
D03*
X5180000Y7950000D02*
D03*
X4440000Y6260000D02*
D03*
X982500Y7292500D02*
D03*
X880000Y8165044D02*
D03*
X780000Y8110000D02*
D03*
X879660Y8895000D02*
D03*
X520000Y9870000D02*
D03*
X450000Y9160000D02*
D03*
Y8420000D02*
D03*
Y7690000D02*
D03*
Y6970000D02*
D03*
X5300000Y5300000D02*
D03*
Y10690000D02*
D03*
X2197996Y8292088D02*
D03*
X1870000Y14800000D02*
D03*
X1060000Y15870000D02*
D03*
X986373Y12583341D02*
D03*
X1170000Y11860000D02*
D03*
X690000Y13439999D02*
D03*
X1610000Y9680000D02*
D03*
X1490000Y11810000D02*
D03*
X2370001Y12270000D02*
D03*
Y12570000D02*
D03*
Y12470000D02*
D03*
X2710000Y8080000D02*
D03*
X980869Y9575488D02*
D03*
X1880000Y12330000D02*
D03*
X1995000Y12510000D02*
D03*
X2060000Y12440000D02*
D03*
X1160000Y14300000D02*
D03*
X5300000Y8320000D02*
D03*
X3110000Y7960000D02*
D03*
X909946Y10690104D02*
D03*
X1555000Y12390000D02*
D03*
X854896Y10775104D02*
D03*
X1080000Y9490000D02*
D03*
X879658Y9609488D02*
D03*
X879660Y7430044D02*
D03*
X2495121Y4885649D02*
D03*
X2840000Y2820000D02*
D03*
X3120000Y10450000D02*
D03*
X4590000Y2950000D02*
D03*
X4890000Y8660000D02*
D03*
Y5010000D02*
D03*
X5099659Y9160516D02*
D03*
X5109659Y9894116D02*
D03*
X4590000Y12750000D02*
D03*
X4890000Y12660000D02*
D03*
X2140000Y4580000D02*
D03*
X1620000Y3060000D02*
D03*
X2710000Y4300000D02*
D03*
X2498939Y10018937D02*
D03*
X3340000Y13000000D02*
D03*
X4580000Y13260001D02*
D03*
X4290000Y13110001D02*
D03*
X4240000Y12760000D02*
D03*
X3450000Y13100000D02*
D03*
X4240000Y12660000D02*
D03*
X2890000Y14080000D02*
D03*
X550000Y12220000D02*
D03*
X4260000Y11380000D02*
D03*
X3950000Y10720000D02*
D03*
X3850000Y10450000D02*
D03*
X3950000Y14500000D02*
D03*
X3760000Y13920000D02*
D03*
X3580000Y9600000D02*
D03*
X3670000Y13650000D02*
D03*
Y9870000D02*
D03*
Y9430000D02*
D03*
X4140000Y15039999D02*
D03*
X2020000Y11710000D02*
D03*
X2090000Y11780000D02*
D03*
X2220000Y12000000D02*
D03*
X2160000Y11860000D02*
D03*
X2640000Y12750000D02*
D03*
X3450000Y9320000D02*
D03*
X2370000Y12670000D02*
D03*
X1990000Y12110000D02*
D03*
Y12220000D02*
D03*
X2710000Y10580000D02*
D03*
X3350000Y11970000D02*
D03*
X2040000Y12660000D02*
D03*
X1540000Y12490000D02*
D03*
X1350000Y11935000D02*
D03*
X1270000Y11430000D02*
D03*
X2715005Y16862981D02*
D03*
X2710000Y14360001D02*
D03*
X2370000Y12170000D02*
D03*
Y12370000D02*
D03*
X1110000Y2450000D02*
D03*
Y6890000D02*
D03*
X4260000Y11790000D02*
D03*
Y11650000D02*
D03*
Y11510000D02*
D03*
X4700000Y11250000D02*
D03*
X1230962Y12239038D02*
D03*
X4140000Y11080000D02*
D03*
X4260000Y10860000D02*
D03*
X5052500Y13110001D02*
D03*
X4580000Y13120000D02*
D03*
X4450000Y12750000D02*
D03*
X220000Y14739999D02*
D03*
X4800000Y9860000D02*
D03*
X192499Y12357500D02*
D03*
X520000Y10780000D02*
D03*
X426363Y11891831D02*
D03*
X333830Y11892418D02*
D03*
X432113Y9462576D02*
D03*
X340000Y8090000D02*
D03*
X500000Y11110000D02*
D03*
Y11490000D02*
D03*
Y11620000D02*
D03*
X4910000Y10610000D02*
D03*
X260000Y12290000D02*
D03*
X117375Y12424394D02*
D03*
X4550000Y6570000D02*
D03*
X4670000Y7300000D02*
D03*
X4780000Y9160000D02*
D03*
X4680000Y9830000D02*
D03*
X4089658Y6283087D02*
D03*
X3520000Y820000D02*
D03*
Y3320000D02*
D03*
X3620000Y3590000D02*
D03*
Y1090000D02*
D03*
X3720000Y3860000D02*
D03*
Y1350000D02*
D03*
X3820000Y1670000D02*
D03*
Y4170373D02*
D03*
X3920000Y1940000D02*
D03*
X3924843Y4440096D02*
D03*
X4030000Y2220000D02*
D03*
X4130000Y2520000D02*
D03*
X4030000Y4720000D02*
D03*
X4130000Y5010000D02*
D03*
X4330000Y3590000D02*
D03*
X4780000Y4720000D02*
D03*
X4670000Y4440000D02*
D03*
X4550000Y4170000D02*
D03*
X4440000Y3860000D02*
D03*
X4230000Y3320000D02*
D03*
Y7100000D02*
D03*
X4330000Y7370000D02*
D03*
X4440000Y7640000D02*
D03*
X4550000Y7950000D02*
D03*
X4670000Y8220000D02*
D03*
X4780000Y8500000D02*
D03*
X3760000Y10140000D02*
D03*
X4050000Y11000000D02*
D03*
Y14780000D02*
D03*
X3580000Y13380000D02*
D03*
X3850000Y14230000D02*
D03*
X2774831Y16793311D02*
D03*
X2774925Y14293507D02*
D03*
X2774542Y10513207D02*
D03*
X2773990Y4233519D02*
D03*
X2774718Y1733652D02*
D03*
X1520000Y13270000D02*
D03*
X5099658Y7301594D02*
D03*
X5099659Y6576177D02*
D03*
X879657Y6703904D02*
D03*
X3200000Y11990000D02*
D03*
X3200000Y5710000D02*
D03*
X2775674Y8010738D02*
D03*
%TF.MD5,46ee8948e65410c07ceeab5132dd0a38*%
M02*
