%TF.GenerationSoftware,Altium Limited,Altium Designer,25.8.1 (18)*%
G04 Layer_Physical_Order=1*
G04 Layer_Color=255*
%FSLAX45Y45*%
%MOMM*%
%TF.SameCoordinates,F59B8853-1409-4A49-8468-A8600513A40F*%
%TF.FilePolarity,Positive*%
%TF.FileFunction,Copper,L1,Top,Signal*%
%TF.Part,Single*%
G01*
G75*
%TA.AperFunction,Conductor*%
%ADD10C,0.30000*%
%TA.AperFunction,ComponentPad*%
%ADD11R,2.60000X2.80000*%
%ADD12C,1.50000*%
%ADD13C,1.80000*%
%TA.AperFunction,ViaPad*%
%ADD14C,4.00000*%
%TA.AperFunction,ComponentPad*%
%ADD15C,1.60000*%
%ADD16R,1.60000X1.60000*%
G36*
X1370607Y4135688D02*
X1411028Y4127648D01*
X1449102Y4111877D01*
X1483369Y4088981D01*
X1512511Y4059838D01*
X1535407Y4025572D01*
X1551179Y3987497D01*
X1559219Y3947076D01*
X1559219Y3926471D01*
X1559219Y40784D01*
X40784D01*
Y3926473D01*
X40783Y3947079D01*
X48823Y3987499D01*
X64594Y4025573D01*
X87490Y4059840D01*
X116632Y4088981D01*
X150897Y4111877D01*
X188973Y4127648D01*
X229392Y4135688D01*
X249998Y4135688D01*
X1350001Y4135688D01*
X1370607Y4135688D01*
D02*
G37*
%LPC*%
G36*
X913824Y3381471D02*
X886177D01*
X859472Y3374315D01*
X835529Y3360491D01*
X817681Y3342643D01*
X814365Y3340942D01*
X785636D01*
X782321Y3342643D01*
X764472Y3360491D01*
X740529Y3374315D01*
X713824Y3381471D01*
X686177D01*
X659472Y3374315D01*
X635529Y3360491D01*
X617681Y3342643D01*
X614365Y3340942D01*
X585636D01*
X582321Y3342643D01*
X564472Y3360491D01*
X540529Y3374315D01*
X513824Y3381471D01*
X486177D01*
X459472Y3374315D01*
X435529Y3360491D01*
X415980Y3340942D01*
X402156Y3316999D01*
X395001Y3290294D01*
Y3262647D01*
X402156Y3235942D01*
X415980Y3211999D01*
X421896Y3206083D01*
X454119Y3150296D01*
Y2860000D01*
X457611Y2842441D01*
X467557Y2827556D01*
X529129Y2765985D01*
Y2409641D01*
X87557Y1968069D01*
X77611Y1953184D01*
X74118Y1935626D01*
Y320000D01*
X77611Y302442D01*
X87557Y287557D01*
X277557Y97557D01*
X292442Y87611D01*
X310000Y84118D01*
X754202D01*
X771761Y87611D01*
X786646Y97557D01*
X832444Y143356D01*
X842390Y158240D01*
X845883Y175799D01*
Y215032D01*
X881561Y275467D01*
X888023Y281929D01*
X902505Y307012D01*
X910001Y334989D01*
Y363953D01*
X902505Y391929D01*
X888023Y417012D01*
X867543Y437492D01*
X842460Y451974D01*
X814483Y459471D01*
X785519D01*
X757543Y451974D01*
X732460Y437492D01*
X711980Y417012D01*
X697498Y391929D01*
X690001Y363953D01*
Y334989D01*
X697498Y307012D01*
X711980Y281929D01*
X718442Y275467D01*
X754120Y215032D01*
Y194804D01*
X735198Y175882D01*
X329005D01*
X165882Y339005D01*
Y1916621D01*
X607453Y2358193D01*
X617399Y2373078D01*
X620892Y2390636D01*
Y2784990D01*
X617399Y2802548D01*
X607453Y2817433D01*
X545882Y2879004D01*
Y3150296D01*
X578105Y3206083D01*
X582321Y3210299D01*
X585636Y3211999D01*
X614365D01*
X617681Y3210299D01*
X621896Y3206083D01*
X654119Y3150296D01*
Y2310571D01*
X230427Y1886879D01*
X220481Y1871994D01*
X216989Y1854436D01*
Y632601D01*
X220481Y615043D01*
X230427Y600158D01*
X418496Y412090D01*
X436001Y344127D01*
Y334989D01*
X443498Y307012D01*
X457980Y281929D01*
X478460Y261449D01*
X503543Y246967D01*
X531519Y239471D01*
X560483D01*
X588460Y246967D01*
X613543Y261449D01*
X634023Y281929D01*
X648505Y307012D01*
X656001Y334989D01*
Y363953D01*
X648505Y391929D01*
X634023Y417012D01*
X613543Y437492D01*
X588460Y451974D01*
X560483Y459471D01*
X556904Y463471D01*
X570319Y493471D01*
X656001D01*
Y713471D01*
X516003D01*
X485333Y729026D01*
X454317Y760041D01*
Y1665901D01*
X475760Y1687344D01*
X555155Y1706471D01*
X565799D01*
X596319Y1714649D01*
X623682Y1730447D01*
X646024Y1752789D01*
X658611Y1774590D01*
X675001Y1777673D01*
X691391Y1774590D01*
X703977Y1752789D01*
X726319Y1730447D01*
X753683Y1714649D01*
X784202Y1706471D01*
X785001D01*
Y1826471D01*
Y1946471D01*
X784202D01*
X753683Y1938293D01*
X726319Y1922495D01*
X703977Y1900152D01*
X691391Y1878352D01*
X675001Y1875268D01*
X658611Y1878352D01*
X646024Y1900152D01*
X623682Y1922495D01*
X596319Y1938293D01*
X565799Y1946471D01*
X534202D01*
X503683Y1938293D01*
X476319Y1922495D01*
X453977Y1900152D01*
X438179Y1872789D01*
X430001Y1842269D01*
Y1831625D01*
X410873Y1752230D01*
X375992Y1717349D01*
X366047Y1702464D01*
X362554Y1684906D01*
Y741036D01*
X366047Y723478D01*
X375992Y708593D01*
X420446Y664139D01*
X436001Y633469D01*
Y563554D01*
X408285Y552073D01*
X308752Y651606D01*
Y1835431D01*
X732444Y2259123D01*
X742390Y2274008D01*
X745882Y2291566D01*
Y3150296D01*
X778105Y3206083D01*
X782321Y3210299D01*
X785636Y3211999D01*
X814365D01*
X817681Y3210299D01*
X821897Y3206083D01*
X854119Y3150296D01*
Y2259999D01*
X857612Y2242441D01*
X867558Y2227556D01*
X1344118Y1750995D01*
Y958474D01*
X1116620Y730976D01*
X1048658Y713471D01*
X1039519D01*
X1011543Y705974D01*
X1007460Y703617D01*
X989040Y727623D01*
X1272443Y1011026D01*
X1282389Y1025912D01*
X1285882Y1043470D01*
Y1636471D01*
X1282389Y1654030D01*
X1272443Y1668915D01*
X1189128Y1752230D01*
X1170000Y1831625D01*
Y1842269D01*
X1161823Y1872789D01*
X1146024Y1900152D01*
X1123682Y1922495D01*
X1096319Y1938293D01*
X1065799Y1946471D01*
X1034202D01*
X1003683Y1938293D01*
X976319Y1922495D01*
X953977Y1900152D01*
X941391Y1878352D01*
X925001Y1875268D01*
X908611Y1878352D01*
X896024Y1900152D01*
X873682Y1922495D01*
X846319Y1938293D01*
X815799Y1946471D01*
X815001D01*
Y1826471D01*
Y1706471D01*
X815799D01*
X846319Y1714649D01*
X873682Y1730447D01*
X896024Y1752789D01*
X908611Y1774590D01*
X925001Y1777673D01*
X941391Y1774590D01*
X953977Y1752789D01*
X976319Y1730447D01*
X1003683Y1714649D01*
X1034202Y1706471D01*
X1044847D01*
X1124242Y1687344D01*
X1194119Y1617467D01*
Y1062474D01*
X862620Y730976D01*
X794658Y713471D01*
X785519D01*
X757543Y705974D01*
X732460Y691492D01*
X711980Y671012D01*
X697498Y645929D01*
X690001Y617953D01*
Y588989D01*
X697498Y561012D01*
X711980Y535929D01*
X732460Y515449D01*
X757543Y500967D01*
X785519Y493471D01*
X814483D01*
X842460Y500967D01*
X867543Y515449D01*
X888023Y535929D01*
X902505Y561012D01*
X910001Y588989D01*
X914001Y592568D01*
X924859Y591272D01*
X946127Y581055D01*
X951498Y561012D01*
X965980Y535929D01*
X986460Y515449D01*
X1011543Y500967D01*
X1039519Y493471D01*
X1068483D01*
X1096460Y500967D01*
X1121543Y515449D01*
X1142023Y535929D01*
X1156505Y561012D01*
X1164001Y588989D01*
Y598127D01*
X1181507Y666090D01*
X1422443Y907026D01*
X1432389Y921911D01*
X1435882Y939470D01*
Y1770000D01*
X1432389Y1787558D01*
X1422443Y1802443D01*
X945882Y2279004D01*
Y3150296D01*
X978105Y3206083D01*
X982321Y3210299D01*
X985636Y3211999D01*
X1014365D01*
X1017681Y3210299D01*
X1035530Y3192450D01*
X1059472Y3178627D01*
X1085002Y3171786D01*
Y3276472D01*
Y3381156D01*
X1059472Y3374315D01*
X1035530Y3360491D01*
X1017681Y3342643D01*
X1014365Y3340942D01*
X985636D01*
X982321Y3342643D01*
X964472Y3360491D01*
X940529Y3374315D01*
X913824Y3381471D01*
D02*
G37*
G36*
X1115002Y3381155D02*
Y3291472D01*
X1204685D01*
X1197845Y3316999D01*
X1184022Y3340942D01*
X1164472Y3360491D01*
X1140529Y3374315D01*
X1115002Y3381155D01*
D02*
G37*
G36*
X1204686Y3261472D02*
X1115002D01*
Y3171787D01*
X1140529Y3178627D01*
X1164472Y3192450D01*
X1184022Y3211999D01*
X1197845Y3235942D01*
X1204686Y3261472D01*
D02*
G37*
G36*
X1520001Y2746471D02*
X1375000D01*
Y2591471D01*
X1520001D01*
Y2746471D01*
D02*
G37*
G36*
X400001D02*
X255000D01*
Y2591471D01*
X400001D01*
Y2746471D01*
D02*
G37*
G36*
X1345000D02*
X1200001D01*
Y2591471D01*
X1345000D01*
Y2746471D01*
D02*
G37*
G36*
X225000D02*
X80001D01*
Y2591471D01*
X225000D01*
Y2746471D01*
D02*
G37*
G36*
X1520001Y2561471D02*
X1375000D01*
Y2406471D01*
X1520001D01*
Y2561471D01*
D02*
G37*
G36*
X1345000D02*
X1200001D01*
Y2406471D01*
X1345000D01*
Y2561471D01*
D02*
G37*
G36*
X400001D02*
X255000D01*
Y2406471D01*
X400001D01*
Y2561471D01*
D02*
G37*
G36*
X225000D02*
X80001D01*
Y2406471D01*
X225000D01*
Y2561471D01*
D02*
G37*
G36*
X1069001Y459332D02*
Y364471D01*
X1163862D01*
X1156505Y391929D01*
X1142023Y417012D01*
X1121543Y437492D01*
X1096460Y451974D01*
X1069001Y459332D01*
D02*
G37*
G36*
X1039001D02*
X1011543Y451974D01*
X986460Y437492D01*
X965980Y417012D01*
X951498Y391929D01*
X944140Y364471D01*
X1039001D01*
Y459332D01*
D02*
G37*
G36*
X1163862Y334471D02*
X1069001D01*
Y239610D01*
X1096460Y246967D01*
X1121543Y261449D01*
X1142023Y281929D01*
X1156505Y307012D01*
X1163862Y334471D01*
D02*
G37*
G36*
X1039001D02*
X944140D01*
X951498Y307012D01*
X965980Y281929D01*
X986460Y261449D01*
X1011543Y246967D01*
X1039001Y239610D01*
Y334471D01*
D02*
G37*
%LPD*%
G36*
X915001Y3157986D02*
X885001D01*
X847501Y3222910D01*
X952501D01*
X915001Y3157986D01*
D02*
G37*
G36*
X715001D02*
X685001D01*
X647501Y3222910D01*
X752501D01*
X715001Y3157986D01*
D02*
G37*
G36*
X515000D02*
X485001D01*
X447501Y3222910D01*
X552501D01*
X515000Y3157986D01*
D02*
G37*
G36*
X1161540Y1736144D02*
X1140327Y1714931D01*
X1050901Y1736475D01*
X1139996Y1825571D01*
X1161540Y1736144D01*
D02*
G37*
G36*
X549101Y1736475D02*
X459674Y1714931D01*
X438461Y1736144D01*
X460005Y1825571D01*
X549101Y1736475D01*
D02*
G37*
G36*
X508733Y682861D02*
X466611Y640739D01*
X445093Y683166D01*
X466306Y704379D01*
X508733Y682861D01*
D02*
G37*
G36*
X1154114Y682370D02*
X1133997Y604271D01*
X1054801Y683467D01*
X1132901Y703584D01*
X1154114Y682370D01*
D02*
G37*
G36*
X900114D02*
X879997Y604271D01*
X800801Y683467D01*
X878901Y703584D01*
X900114Y682370D01*
D02*
G37*
G36*
X545201Y429467D02*
X466005Y350271D01*
X445888Y428370D01*
X467101Y449584D01*
X545201Y429467D01*
D02*
G37*
G36*
X815001Y222890D02*
X785001D01*
X744001Y292339D01*
X856001D01*
X815001Y222890D01*
D02*
G37*
D10*
X262870Y1854436D02*
X700001Y2291566D01*
X262870Y632601D02*
X546001Y349471D01*
X262870Y632601D02*
Y1854436D01*
X120000Y320000D02*
Y1935626D01*
X575010Y2390636D02*
Y2784990D01*
X120000Y1935626D02*
X575010Y2390636D01*
X800001Y175799D02*
Y349471D01*
X310000Y130000D02*
X754202D01*
X800001Y175799D01*
X408436Y741036D02*
Y1684906D01*
Y741036D02*
X546001Y603471D01*
X408436Y1684906D02*
X550001Y1826471D01*
X900001Y2259999D02*
Y3276471D01*
Y2259999D02*
X1390000Y1770000D01*
Y939470D02*
Y1770000D01*
X1054001Y603471D02*
X1390000Y939470D01*
X500001Y2860000D02*
X575010Y2784990D01*
X500001Y2860000D02*
Y3276471D01*
X120000Y320000D02*
X310000Y130000D01*
X700001Y2291566D02*
Y3276471D01*
X1050001Y1826471D02*
X1240000Y1636471D01*
Y1043470D02*
Y1636471D01*
X800001Y603471D02*
X1240000Y1043470D01*
D11*
X1360001Y2576471D02*
D03*
X240001D02*
D03*
D12*
X1100001Y3276471D02*
D03*
X500001D02*
D03*
X900001D02*
D03*
X700001D02*
D03*
D13*
X1050001Y1826471D02*
D03*
X800001D02*
D03*
X550001D02*
D03*
D14*
X800001Y1346471D02*
D03*
Y3746471D02*
D03*
D15*
X1054001Y349471D02*
D03*
Y603471D02*
D03*
X800001Y349471D02*
D03*
Y603471D02*
D03*
X546001Y349471D02*
D03*
D16*
Y603471D02*
D03*
%TF.MD5,ff250225f5b894304be4a1193308f94f*%
M02*
