%TF.GenerationSoftware,Altium Limited,Altium Designer,25.8.1 (18)*%
G04 Layer_Color=16711935*
%FSLAX45Y45*%
%MOMM*%
%TF.SameCoordinates,5EAC24EF-25A4-4E69-A154-09B98AA7459F*%
%TF.FilePolarity,Negative*%
%TF.FileFunction,Soldermask,Bot*%
%TF.Part,Single*%
G01*
G75*
%TA.AperFunction,ComponentPad*%
G04:AMPARAMS|DCode=57|XSize=4.2mm|YSize=2mm|CornerRadius=0.55mm|HoleSize=0mm|Usage=FLASHONLY|Rotation=90.000|XOffset=0mm|YOffset=0mm|HoleType=Round|Shape=RoundedRectangle|*
%AMROUNDEDRECTD57*
21,1,4.20000,0.90000,0,0,90.0*
21,1,3.10000,2.00000,0,0,90.0*
1,1,1.10000,0.45000,1.55000*
1,1,1.10000,0.45000,-1.55000*
1,1,1.10000,-0.45000,-1.55000*
1,1,1.10000,-0.45000,1.55000*
%
%ADD57ROUNDEDRECTD57*%
G04:AMPARAMS|DCode=58|XSize=4.2mm|YSize=2mm|CornerRadius=0.55mm|HoleSize=0mm|Usage=FLASHONLY|Rotation=180.000|XOffset=0mm|YOffset=0mm|HoleType=Round|Shape=RoundedRectangle|*
%AMROUNDEDRECTD58*
21,1,4.20000,0.90000,0,0,180.0*
21,1,3.10000,2.00000,0,0,180.0*
1,1,1.10000,-1.55000,0.45000*
1,1,1.10000,1.55000,0.45000*
1,1,1.10000,1.55000,-0.45000*
1,1,1.10000,-1.55000,-0.45000*
%
%ADD58ROUNDEDRECTD58*%
%ADD59C,1.39000*%
%TA.AperFunction,WasherPad*%
%ADD60C,7.20000*%
%TA.AperFunction,SMDPad,CuDef*%
%ADD61R,3.40000X1.80000*%
%ADD62R,1.10000X1.80000*%
%ADD63R,1.15000X3.80000*%
%ADD64R,1.30000X0.85000*%
%ADD65R,1.15000X1.15000*%
%ADD66R,1.15000X1.00000*%
%ADD67R,0.90000X1.10000*%
%ADD68R,1.25000X1.60000*%
%ADD69R,0.96000X1.47000*%
%ADD70R,2.87000X2.74000*%
%ADD71R,2.90000X1.35000*%
%ADD72R,2.70000X2.65000*%
%ADD73R,2.40000X3.50000*%
%ADD74R,2.40000X1.20000*%
%ADD75R,1.00000X1.10000*%
%ADD76R,0.90000X1.10000*%
%ADD77R,1.60000X1.45000*%
%ADD78R,2.65000X2.35000*%
%ADD79R,1.35000X1.95000*%
%ADD80R,1.20000X1.60000*%
%ADD81R,1.35000X2.90000*%
%ADD82R,1.00000X1.15000*%
%ADD83R,2.35000X2.65000*%
%ADD84R,0.90000X1.15000*%
%ADD85R,0.80000X1.72000*%
%ADD86R,3.80000X1.15000*%
%ADD87R,3.10000X5.60000*%
%ADD88R,1.20000X2.80000*%
%ADD89R,5.70000X6.50000*%
%ADD90O,2.40000X0.80000*%
D57*
X4290000Y610000D02*
D03*
D58*
X3810000Y890000D02*
D03*
Y310000D02*
D03*
D59*
X1716401Y1175268D02*
D03*
X1462401Y1429268D02*
D03*
X1716401Y1683268D02*
D03*
D60*
X700000Y700000D02*
D03*
X4800000D02*
D03*
D61*
X5042240Y1196602D02*
D03*
D62*
X5272240Y1856602D02*
D03*
X5042240D02*
D03*
X4812240D02*
D03*
D63*
X712089Y3877333D02*
D03*
X247089D02*
D03*
X244966Y3452500D02*
D03*
X709966D02*
D03*
D64*
X4803620Y3499740D02*
D03*
Y3309740D02*
D03*
X5043620D02*
D03*
Y3404740D02*
D03*
Y3499740D02*
D03*
D65*
X5203542Y3249740D02*
D03*
Y3399739D02*
D03*
X4896304Y2242026D02*
D03*
Y2092026D02*
D03*
D66*
X4635424Y3587500D02*
D03*
Y3452500D02*
D03*
X2199454Y1967140D02*
D03*
Y2132140D02*
D03*
D67*
X2257500Y1258529D02*
D03*
X2397500D02*
D03*
X4408657Y2838306D02*
D03*
X4268657D02*
D03*
X5187554Y2089500D02*
D03*
X5047554D02*
D03*
D68*
X710000Y3135149D02*
D03*
X525000D02*
D03*
D69*
X4724500Y2540000D02*
D03*
D70*
X4489000D02*
D03*
D71*
X4499920Y1367748D02*
D03*
Y1847748D02*
D03*
X1126518Y1997000D02*
D03*
Y2272000D02*
D03*
D72*
X3100000Y2572000D02*
D03*
Y1967000D02*
D03*
X2570000Y2572000D02*
D03*
Y1967000D02*
D03*
D73*
X5056120Y4350000D02*
D03*
D74*
X4456120Y4580000D02*
D03*
Y4350000D02*
D03*
Y4120000D02*
D03*
D75*
X2257500Y1096528D02*
D03*
X2447500D02*
D03*
X2352500Y896528D02*
D03*
D76*
X5186120Y2241836D02*
D03*
X5056120D02*
D03*
X5121120Y2431836D02*
D03*
D77*
X4369800Y3001928D02*
D03*
Y3166928D02*
D03*
D78*
X1745908Y3857492D02*
D03*
X1430908D02*
D03*
D79*
X4756120Y2760806D02*
D03*
X5041120D02*
D03*
D80*
X1239461Y1160022D02*
D03*
X1049461D02*
D03*
X2869121Y532854D02*
D03*
X2679121D02*
D03*
D81*
X5036300Y3061150D02*
D03*
X4556300D02*
D03*
X2797018Y1559298D02*
D03*
X3072018D02*
D03*
X751961Y1426585D02*
D03*
X1231961D02*
D03*
D82*
X4885934Y3686130D02*
D03*
X5050934D02*
D03*
X4562635Y4808683D02*
D03*
X4397635D02*
D03*
X1085908Y1677500D02*
D03*
X1250908D02*
D03*
D83*
X4057635Y4198683D02*
D03*
Y4513683D02*
D03*
D84*
X4572635Y3898683D02*
D03*
X4397635D02*
D03*
D85*
X2656518Y1290040D02*
D03*
X2783518D02*
D03*
X2910518D02*
D03*
X3037518D02*
D03*
X2656518Y742040D02*
D03*
X2783518D02*
D03*
X2910518D02*
D03*
X3037518D02*
D03*
D86*
X1455908Y4682500D02*
D03*
Y4217500D02*
D03*
X579587Y4682500D02*
D03*
Y4217500D02*
D03*
X1018465Y4682500D02*
D03*
Y4217500D02*
D03*
X1870000Y4682500D02*
D03*
Y4217500D02*
D03*
D87*
X3146322Y3415590D02*
D03*
X2176322D02*
D03*
D88*
X1834908Y2562500D02*
D03*
X1376908D02*
D03*
D89*
X1605908Y3202500D02*
D03*
D90*
X1455908Y1880500D02*
D03*
Y2007500D02*
D03*
Y2134500D02*
D03*
Y2261500D02*
D03*
X1935908Y1880500D02*
D03*
Y2007500D02*
D03*
Y2134500D02*
D03*
Y2261500D02*
D03*
%TF.MD5,31643794f1a3c660e81fffb8bf079c8e*%
M02*
