%TF.GenerationSoftware,Altium Limited,Altium Designer,25.8.1 (18)*%
G04 Layer_Color=2752767*
%FSLAX45Y45*%
%MOMM*%
%TF.SameCoordinates,5EAC24EF-25A4-4E69-A154-09B98AA7459F*%
%TF.FilePolarity,Positive*%
%TF.FileFunction,Drawing*%
%TF.Part,Single*%
G01*
G75*
%TA.AperFunction,NonConductor*%
%ADD55C,0.25400*%
%ADD91C,0.38100*%
%ADD103C,0.08467*%
%ADD104C,0.40640*%
%ADD105C,0.35560*%
D55*
X340254Y6454179D02*
G03*
X340254Y6454179I-84667J0D01*
G01*
X255587Y7512512D02*
X340254Y7681845D01*
X170921D02*
X340254D01*
X170921D02*
X255587Y7512512D01*
X213254Y7173845D02*
X255587Y7131512D01*
X170921Y7173845D02*
X213254D01*
X170921D02*
X213254Y7216179D01*
X170921Y7258512D02*
X213254Y7216179D01*
X170921Y7258512D02*
X213254D01*
X255587Y7300845D01*
X297921Y7258512D01*
X340254D01*
X297921Y7216179D02*
X340254Y7258512D01*
X297921Y7216179D02*
X340254Y7173845D01*
X297921D02*
X340254D01*
X255587Y7131512D02*
X297921Y7173845D01*
X170921Y6750512D02*
X255587Y6792845D01*
X340254Y6750512D01*
X297921Y6835179D02*
X340254Y6750512D01*
X297921Y6835179D02*
X340254Y6919845D01*
X255587Y6877512D02*
X340254Y6919845D01*
X170921D02*
X255587Y6877512D01*
X170921Y6919845D02*
X213254Y6835179D01*
X170921Y6750512D02*
X213254Y6835179D01*
X17301535Y7614079D02*
X17225359D01*
X17199966Y7588687D01*
Y7537904D01*
X17225359Y7512512D01*
X17301535D01*
X17352318Y7664863D02*
X17453885D01*
Y7639471D01*
X17352318Y7537904D01*
Y7512512D01*
X17504669Y7639471D02*
X17530061Y7664863D01*
X17580844D01*
X17606236Y7639471D01*
Y7537904D01*
X17580844Y7512512D01*
X17530061D01*
X17504669Y7537904D01*
Y7639471D01*
X17657021D02*
X17682411Y7664863D01*
X17733195D01*
X17758588Y7639471D01*
Y7537904D01*
X17733195Y7512512D01*
X17682411D01*
X17657021Y7537904D01*
Y7639471D01*
X17809370Y7664863D02*
Y7512512D01*
Y7588687D01*
X17834763Y7614079D01*
X17885545D01*
X17910938Y7588687D01*
Y7512512D01*
X17961720D02*
Y7614079D01*
X18037897D01*
X18063287Y7588687D01*
Y7512512D01*
X18114072Y7664863D02*
X18215639D01*
Y7639471D01*
X18114072Y7537904D01*
Y7512512D01*
X18266422Y7639471D02*
X18291814Y7664863D01*
X18342598D01*
X18367990Y7639471D01*
Y7537904D01*
X18342598Y7512512D01*
X18291814D01*
X18266422Y7537904D01*
Y7639471D01*
X18418773D02*
X18444165Y7664863D01*
X18494949D01*
X18520340Y7639471D01*
Y7537904D01*
X18494949Y7512512D01*
X18444165D01*
X18418773Y7537904D01*
Y7639471D01*
X17301535Y7233079D02*
X17225359D01*
X17199966Y7207687D01*
Y7156904D01*
X17225359Y7131512D01*
X17301535D01*
X17352318D02*
X17403102D01*
X17377710D01*
Y7283863D01*
X17352318Y7258471D01*
X17479277Y7131512D02*
X17530060D01*
X17504669D01*
Y7283863D01*
X17479277Y7258471D01*
X17606236Y7156904D02*
X17631628Y7131512D01*
X17682411D01*
X17707803Y7156904D01*
Y7258471D01*
X17682411Y7283863D01*
X17631628D01*
X17606236Y7258471D01*
Y7233079D01*
X17631628Y7207687D01*
X17707803D01*
X17758588Y7283863D02*
Y7131512D01*
Y7207687D01*
X17783978Y7233079D01*
X17834763D01*
X17860155Y7207687D01*
Y7131512D01*
X18012505Y7283863D02*
X17961720Y7258471D01*
X17910938Y7207687D01*
Y7156904D01*
X17936330Y7131512D01*
X17987112D01*
X18012505Y7156904D01*
Y7182296D01*
X17987112Y7207687D01*
X17910938D01*
X18063287Y7156904D02*
X18088680Y7131512D01*
X18139462D01*
X18164854Y7156904D01*
Y7258471D01*
X18139462Y7283863D01*
X18088680D01*
X18063287Y7258471D01*
Y7233079D01*
X18088680Y7207687D01*
X18164854D01*
X17199966Y6852079D02*
Y6750512D01*
Y6801296D01*
X17225359Y6826687D01*
X17250751Y6852079D01*
X17276143D01*
X17428493Y6750512D02*
Y6902863D01*
X17352318Y6826687D01*
X17453885D01*
X17504669Y6877471D02*
X17530061Y6902863D01*
X17580844D01*
X17606236Y6877471D01*
Y6775904D01*
X17580844Y6750512D01*
X17530061D01*
X17504669Y6775904D01*
Y6877471D01*
X17657021D02*
X17682411Y6902863D01*
X17733195D01*
X17758588Y6877471D01*
Y6775904D01*
X17733195Y6750512D01*
X17682411D01*
X17657021Y6775904D01*
Y6877471D01*
X17809370Y6725120D02*
X17910938D01*
X17961720Y6750512D02*
X18012505D01*
X17987112D01*
Y6902863D01*
X17961720Y6877471D01*
X18088680D02*
X18114072Y6902863D01*
X18164854D01*
X18190247Y6877471D01*
Y6852079D01*
X18164854Y6826687D01*
X18190247Y6801296D01*
Y6775904D01*
X18164854Y6750512D01*
X18114072D01*
X18088680Y6775904D01*
Y6801296D01*
X18114072Y6826687D01*
X18088680Y6852079D01*
Y6877471D01*
X18114072Y6826687D02*
X18164854D01*
X18241031Y6877471D02*
X18266422Y6902863D01*
X18317206D01*
X18342598Y6877471D01*
Y6775904D01*
X18317206Y6750512D01*
X18266422D01*
X18241031Y6775904D01*
Y6877471D01*
X18393381Y6902863D02*
Y6750512D01*
Y6826687D01*
X18418773Y6852079D01*
X18469557D01*
X18494949Y6826687D01*
Y6750512D01*
X18545732Y6877471D02*
X18571124Y6902863D01*
X18621907D01*
X18647299Y6877471D01*
Y6852079D01*
X18621907Y6826687D01*
X18647299Y6801296D01*
Y6775904D01*
X18621907Y6750512D01*
X18571124D01*
X18545732Y6775904D01*
Y6801296D01*
X18571124Y6826687D01*
X18545732Y6852079D01*
Y6877471D01*
X18571124Y6826687D02*
X18621907D01*
X18698083Y6877471D02*
X18723476Y6902863D01*
X18774258D01*
X18799651Y6877471D01*
Y6775904D01*
X18774258Y6750512D01*
X18723476D01*
X18698083Y6775904D01*
Y6877471D01*
X18850433Y6725120D02*
X18952000D01*
X19002785Y6877471D02*
X19028175Y6902863D01*
X19078960D01*
X19104350Y6877471D01*
Y6852079D01*
X19078960Y6826687D01*
X19053568D01*
X19078960D01*
X19104350Y6801296D01*
Y6775904D01*
X19078960Y6750512D01*
X19028175D01*
X19002785Y6775904D01*
X19155135Y6877471D02*
X19180527Y6902863D01*
X19231310D01*
X19256702Y6877471D01*
Y6775904D01*
X19231310Y6750512D01*
X19180527D01*
X19155135Y6775904D01*
Y6877471D01*
X19307486D02*
X19332878Y6902863D01*
X19383661D01*
X19409053Y6877471D01*
Y6775904D01*
X19383661Y6750512D01*
X19332878D01*
X19307486Y6775904D01*
Y6877471D01*
X19459836Y6852079D02*
Y6750512D01*
Y6801296D01*
X19485228Y6826687D01*
X19510620Y6852079D01*
X19536012D01*
X19688362Y6750512D02*
Y6902863D01*
X19612187Y6826687D01*
X19713754D01*
X19866106Y6902863D02*
X19764539D01*
Y6826687D01*
X19815321Y6852079D01*
X19840714D01*
X19866106Y6826687D01*
Y6775904D01*
X19840714Y6750512D01*
X19789931D01*
X19764539Y6775904D01*
X17199966Y6471079D02*
X17250751Y6369512D01*
X17301535Y6471079D01*
X17453885Y6521863D02*
X17403102Y6496471D01*
X17352318Y6445687D01*
Y6394904D01*
X17377710Y6369512D01*
X17428493D01*
X17453885Y6394904D01*
Y6420296D01*
X17428493Y6445687D01*
X17352318D01*
X17504669Y6496471D02*
X17530061Y6521863D01*
X17580844D01*
X17606236Y6496471D01*
Y6394904D01*
X17580844Y6369512D01*
X17530061D01*
X17504669Y6394904D01*
Y6496471D01*
X17657021Y6521863D02*
Y6369512D01*
Y6445687D01*
X17682411Y6471079D01*
X17733195D01*
X17758588Y6445687D01*
Y6369512D01*
X17809370Y6496471D02*
X17834763Y6521863D01*
X17885545D01*
X17910938Y6496471D01*
Y6471079D01*
X17885545Y6445687D01*
X17860155D01*
X17885545D01*
X17910938Y6420296D01*
Y6394904D01*
X17885545Y6369512D01*
X17834763D01*
X17809370Y6394904D01*
X17961720Y6496471D02*
X17987112Y6521863D01*
X18037897D01*
X18063287Y6496471D01*
Y6394904D01*
X18037897Y6369512D01*
X17987112D01*
X17961720Y6394904D01*
Y6496471D01*
X14432172Y7512512D02*
Y7664863D01*
X14508348D01*
X14533740Y7639471D01*
Y7588687D01*
X14508348Y7563296D01*
X14432172D01*
X14482956D02*
X14533740Y7512512D01*
X14609915D02*
X14660698D01*
X14686090Y7537904D01*
Y7588687D01*
X14660698Y7614079D01*
X14609915D01*
X14584523Y7588687D01*
Y7537904D01*
X14609915Y7512512D01*
X14736874Y7614079D02*
Y7537904D01*
X14762267Y7512512D01*
X14838441D01*
Y7614079D01*
X14889224Y7512512D02*
Y7614079D01*
X14965401D01*
X14990791Y7588687D01*
Y7512512D01*
X15143143Y7664863D02*
Y7512512D01*
X15066966D01*
X15041576Y7537904D01*
Y7588687D01*
X15066966Y7614079D01*
X15143143D01*
X15270100Y7512512D02*
X15219318D01*
X15193925Y7537904D01*
Y7588687D01*
X15219318Y7614079D01*
X15270100D01*
X15295493Y7588687D01*
Y7563296D01*
X15193925D01*
X15447844Y7664863D02*
Y7512512D01*
X15371669D01*
X15346277Y7537904D01*
Y7588687D01*
X15371669Y7614079D01*
X15447844D01*
X14432172Y7131512D02*
Y7283863D01*
X14508348D01*
X14533740Y7258471D01*
Y7207687D01*
X14508348Y7182296D01*
X14432172D01*
X14482956D02*
X14533740Y7131512D01*
X14609915D02*
X14660698D01*
X14686090Y7156904D01*
Y7207687D01*
X14660698Y7233079D01*
X14609915D01*
X14584523Y7207687D01*
Y7156904D01*
X14609915Y7131512D01*
X14736874Y7233079D02*
Y7156904D01*
X14762267Y7131512D01*
X14838441D01*
Y7233079D01*
X14889224Y7131512D02*
Y7233079D01*
X14965401D01*
X14990791Y7207687D01*
Y7131512D01*
X15143143Y7283863D02*
Y7131512D01*
X15066966D01*
X15041576Y7156904D01*
Y7207687D01*
X15066966Y7233079D01*
X15143143D01*
X15270100Y7131512D02*
X15219318D01*
X15193925Y7156904D01*
Y7207687D01*
X15219318Y7233079D01*
X15270100D01*
X15295493Y7207687D01*
Y7182296D01*
X15193925D01*
X15447844Y7283863D02*
Y7131512D01*
X15371669D01*
X15346277Y7156904D01*
Y7207687D01*
X15371669Y7233079D01*
X15447844D01*
X14432172Y6750512D02*
Y6902863D01*
X14508348D01*
X14533740Y6877471D01*
Y6826687D01*
X14508348Y6801296D01*
X14432172D01*
X14482956D02*
X14533740Y6750512D01*
X14609915D02*
X14660698D01*
X14686090Y6775904D01*
Y6826687D01*
X14660698Y6852079D01*
X14609915D01*
X14584523Y6826687D01*
Y6775904D01*
X14609915Y6750512D01*
X14736874Y6852079D02*
Y6775904D01*
X14762267Y6750512D01*
X14838441D01*
Y6852079D01*
X14889224Y6750512D02*
Y6852079D01*
X14965401D01*
X14990791Y6826687D01*
Y6750512D01*
X15143143Y6902863D02*
Y6750512D01*
X15066966D01*
X15041576Y6775904D01*
Y6826687D01*
X15066966Y6852079D01*
X15143143D01*
X15270100Y6750512D02*
X15219318D01*
X15193925Y6775904D01*
Y6826687D01*
X15219318Y6852079D01*
X15270100D01*
X15295493Y6826687D01*
Y6801296D01*
X15193925D01*
X15447844Y6902863D02*
Y6750512D01*
X15371669D01*
X15346277Y6775904D01*
Y6826687D01*
X15371669Y6852079D01*
X15447844D01*
X15650978Y6750512D02*
Y6902863D01*
X15727153D01*
X15752545Y6877471D01*
Y6826687D01*
X15727153Y6801296D01*
X15650978D01*
X15701762D02*
X15752545Y6750512D01*
X15879504D02*
X15828722D01*
X15803329Y6775904D01*
Y6826687D01*
X15828722Y6852079D01*
X15879504D01*
X15904897Y6826687D01*
Y6801296D01*
X15803329D01*
X16057246Y6852079D02*
X15981071D01*
X15955679Y6826687D01*
Y6775904D01*
X15981071Y6750512D01*
X16057246D01*
X16133421Y6877471D02*
Y6852079D01*
X16108031D01*
X16158813D01*
X16133421D01*
Y6775904D01*
X16158813Y6750512D01*
X16260381Y6852079D02*
X16311163D01*
X16336555Y6826687D01*
Y6750512D01*
X16260381D01*
X16234988Y6775904D01*
X16260381Y6801296D01*
X16336555D01*
X16387340Y6750512D02*
Y6852079D01*
X16463515D01*
X16488907Y6826687D01*
Y6750512D01*
X16590474Y6699729D02*
X16615866D01*
X16641258Y6725120D01*
Y6852079D01*
X16565082D01*
X16539691Y6826687D01*
Y6775904D01*
X16565082Y6750512D01*
X16641258D01*
X16692041D02*
X16742825D01*
X16717433D01*
Y6902863D01*
X16692041D01*
X16895177Y6750512D02*
X16844392D01*
X16819000Y6775904D01*
Y6826687D01*
X16844392Y6852079D01*
X16895177D01*
X16920567Y6826687D01*
Y6801296D01*
X16819000D01*
X14432172Y6369512D02*
Y6521863D01*
X14508348D01*
X14533740Y6496471D01*
Y6445687D01*
X14508348Y6420296D01*
X14432172D01*
X14482956D02*
X14533740Y6369512D01*
X14609915D02*
X14660698D01*
X14686090Y6394904D01*
Y6445687D01*
X14660698Y6471079D01*
X14609915D01*
X14584523Y6445687D01*
Y6394904D01*
X14609915Y6369512D01*
X14736874Y6471079D02*
Y6394904D01*
X14762267Y6369512D01*
X14838441D01*
Y6471079D01*
X14889224Y6369512D02*
Y6471079D01*
X14965401D01*
X14990791Y6445687D01*
Y6369512D01*
X15143143Y6521863D02*
Y6369512D01*
X15066966D01*
X15041576Y6394904D01*
Y6445687D01*
X15066966Y6471079D01*
X15143143D01*
X15270100Y6369512D02*
X15219318D01*
X15193925Y6394904D01*
Y6445687D01*
X15219318Y6471079D01*
X15270100D01*
X15295493Y6445687D01*
Y6420296D01*
X15193925D01*
X15447844Y6521863D02*
Y6369512D01*
X15371669D01*
X15346277Y6394904D01*
Y6445687D01*
X15371669Y6471079D01*
X15447844D01*
X12933957Y7512512D02*
Y7664863D01*
X13010132D01*
X13035524Y7639471D01*
Y7588687D01*
X13010132Y7563296D01*
X12933957D01*
X13111699Y7614079D02*
X13162483D01*
X13187875Y7588687D01*
Y7512512D01*
X13111699D01*
X13086308Y7537904D01*
X13111699Y7563296D01*
X13187875D01*
X13340227Y7664863D02*
Y7512512D01*
X13264050D01*
X13238658Y7537904D01*
Y7588687D01*
X13264050Y7614079D01*
X13340227D01*
X12933957Y7131512D02*
Y7283863D01*
X13010132D01*
X13035524Y7258471D01*
Y7207687D01*
X13010132Y7182296D01*
X12933957D01*
X13111699Y7233079D02*
X13162483D01*
X13187875Y7207687D01*
Y7131512D01*
X13111699D01*
X13086308Y7156904D01*
X13111699Y7182296D01*
X13187875D01*
X13340227Y7283863D02*
Y7131512D01*
X13264050D01*
X13238658Y7156904D01*
Y7207687D01*
X13264050Y7233079D01*
X13340227D01*
X12933957Y6750512D02*
Y6902863D01*
X13010132D01*
X13035524Y6877471D01*
Y6826687D01*
X13010132Y6801296D01*
X12933957D01*
X13111699Y6852079D02*
X13162483D01*
X13187875Y6826687D01*
Y6750512D01*
X13111699D01*
X13086308Y6775904D01*
X13111699Y6801296D01*
X13187875D01*
X13340227Y6902863D02*
Y6750512D01*
X13264050D01*
X13238658Y6775904D01*
Y6826687D01*
X13264050Y6852079D01*
X13340227D01*
X12933957Y6521863D02*
Y6420296D01*
X12984740Y6369512D01*
X13035524Y6420296D01*
Y6521863D01*
X13086308Y6369512D02*
X13137091D01*
X13111699D01*
Y6471079D01*
X13086308D01*
X13238658D02*
X13289442D01*
X13314835Y6445687D01*
Y6369512D01*
X13238658D01*
X13213266Y6394904D01*
X13238658Y6420296D01*
X13314835D01*
X9125099Y7664863D02*
X9226666D01*
X9175882D01*
Y7512512D01*
X9302841D02*
X9353625D01*
X9379017Y7537904D01*
Y7588687D01*
X9353625Y7614079D01*
X9302841D01*
X9277449Y7588687D01*
Y7537904D01*
X9302841Y7512512D01*
X9429800Y7461729D02*
Y7614079D01*
X9505975D01*
X9531367Y7588687D01*
Y7537904D01*
X9505975Y7512512D01*
X9429800D01*
X9734501Y7664863D02*
Y7512512D01*
X9836069D01*
X9912244Y7614079D02*
X9963028D01*
X9988419Y7588687D01*
Y7512512D01*
X9912244D01*
X9886852Y7537904D01*
X9912244Y7563296D01*
X9988419D01*
X10039203Y7614079D02*
Y7537904D01*
X10064595Y7512512D01*
X10140770D01*
Y7487120D01*
X10115378Y7461729D01*
X10089986D01*
X10140770Y7512512D02*
Y7614079D01*
X10267729Y7512512D02*
X10216946D01*
X10191554Y7537904D01*
Y7588687D01*
X10216946Y7614079D01*
X10267729D01*
X10293121Y7588687D01*
Y7563296D01*
X10191554D01*
X10343904Y7614079D02*
Y7512512D01*
Y7563296D01*
X10369296Y7588687D01*
X10394688Y7614079D01*
X10420080D01*
X10648606Y7588687D02*
X10750173D01*
X10953307Y7664863D02*
Y7512512D01*
X11029483D01*
X11054875Y7537904D01*
Y7563296D01*
X11029483Y7588687D01*
X10953307D01*
X11029483D01*
X11054875Y7614079D01*
Y7639471D01*
X11029483Y7664863D01*
X10953307D01*
X11131050Y7512512D02*
X11181833D01*
X11207225Y7537904D01*
Y7588687D01*
X11181833Y7614079D01*
X11131050D01*
X11105658Y7588687D01*
Y7537904D01*
X11131050Y7512512D01*
X11283401Y7639471D02*
Y7614079D01*
X11258009D01*
X11308792D01*
X11283401D01*
Y7537904D01*
X11308792Y7512512D01*
X11410359Y7639471D02*
Y7614079D01*
X11384968D01*
X11435751D01*
X11410359D01*
Y7537904D01*
X11435751Y7512512D01*
X11537318D02*
X11588102D01*
X11613494Y7537904D01*
Y7588687D01*
X11588102Y7614079D01*
X11537318D01*
X11511926Y7588687D01*
Y7537904D01*
X11537318Y7512512D01*
X11664277D02*
Y7614079D01*
X11689669D01*
X11715061Y7588687D01*
Y7512512D01*
Y7588687D01*
X11740453Y7614079D01*
X11765844Y7588687D01*
Y7512512D01*
X11968979Y7664863D02*
Y7512512D01*
X12070546D01*
X12146721Y7614079D02*
X12197505D01*
X12222897Y7588687D01*
Y7512512D01*
X12146721D01*
X12121329Y7537904D01*
X12146721Y7563296D01*
X12222897D01*
X12273680Y7614079D02*
Y7537904D01*
X12299072Y7512512D01*
X12375247D01*
Y7487120D01*
X12349855Y7461729D01*
X12324464D01*
X12375247Y7512512D02*
Y7614079D01*
X12502206Y7512512D02*
X12451423D01*
X12426031Y7537904D01*
Y7588687D01*
X12451423Y7614079D01*
X12502206D01*
X12527598Y7588687D01*
Y7563296D01*
X12426031D01*
X12578381Y7614079D02*
Y7512512D01*
Y7563296D01*
X12603773Y7588687D01*
X12629165Y7614079D01*
X12654557D01*
X9125099Y7283863D02*
X9226666D01*
X9175882D01*
Y7131512D01*
X9302841D02*
X9353625D01*
X9379017Y7156904D01*
Y7207687D01*
X9353625Y7233079D01*
X9302841D01*
X9277449Y7207687D01*
Y7156904D01*
X9302841Y7131512D01*
X9429800Y7080729D02*
Y7233079D01*
X9505975D01*
X9531367Y7207687D01*
Y7156904D01*
X9505975Y7131512D01*
X9429800D01*
X9734501Y7283863D02*
Y7131512D01*
X9836069D01*
X9912244Y7233079D02*
X9963028D01*
X9988419Y7207687D01*
Y7131512D01*
X9912244D01*
X9886852Y7156904D01*
X9912244Y7182296D01*
X9988419D01*
X10039203Y7233079D02*
Y7156904D01*
X10064595Y7131512D01*
X10140770D01*
Y7106120D01*
X10115378Y7080729D01*
X10089986D01*
X10140770Y7131512D02*
Y7233079D01*
X10267729Y7131512D02*
X10216946D01*
X10191554Y7156904D01*
Y7207687D01*
X10216946Y7233079D01*
X10267729D01*
X10293121Y7207687D01*
Y7182296D01*
X10191554D01*
X10343904Y7233079D02*
Y7131512D01*
Y7182296D01*
X10369296Y7207687D01*
X10394688Y7233079D01*
X10420080D01*
X10648606Y7207687D02*
X10750173D01*
X10953307Y7283863D02*
Y7131512D01*
X11029483D01*
X11054875Y7156904D01*
Y7182296D01*
X11029483Y7207687D01*
X10953307D01*
X11029483D01*
X11054875Y7233079D01*
Y7258471D01*
X11029483Y7283863D01*
X10953307D01*
X11131050Y7131512D02*
X11181833D01*
X11207225Y7156904D01*
Y7207687D01*
X11181833Y7233079D01*
X11131050D01*
X11105658Y7207687D01*
Y7156904D01*
X11131050Y7131512D01*
X11283401Y7258471D02*
Y7233079D01*
X11258009D01*
X11308792D01*
X11283401D01*
Y7156904D01*
X11308792Y7131512D01*
X11410359Y7258471D02*
Y7233079D01*
X11384968D01*
X11435751D01*
X11410359D01*
Y7156904D01*
X11435751Y7131512D01*
X11537318D02*
X11588102D01*
X11613494Y7156904D01*
Y7207687D01*
X11588102Y7233079D01*
X11537318D01*
X11511926Y7207687D01*
Y7156904D01*
X11537318Y7131512D01*
X11664277D02*
Y7233079D01*
X11689669D01*
X11715061Y7207687D01*
Y7131512D01*
Y7207687D01*
X11740453Y7233079D01*
X11765844Y7207687D01*
Y7131512D01*
X11968979Y7283863D02*
Y7131512D01*
X12070546D01*
X12146721Y7233079D02*
X12197505D01*
X12222897Y7207687D01*
Y7131512D01*
X12146721D01*
X12121329Y7156904D01*
X12146721Y7182296D01*
X12222897D01*
X12273680Y7233079D02*
Y7156904D01*
X12299072Y7131512D01*
X12375247D01*
Y7106120D01*
X12349855Y7080729D01*
X12324464D01*
X12375247Y7131512D02*
Y7233079D01*
X12502206Y7131512D02*
X12451423D01*
X12426031Y7156904D01*
Y7207687D01*
X12451423Y7233079D01*
X12502206D01*
X12527598Y7207687D01*
Y7182296D01*
X12426031D01*
X12578381Y7233079D02*
Y7131512D01*
Y7182296D01*
X12603773Y7207687D01*
X12629165Y7233079D01*
X12654557D01*
X9125099Y6902863D02*
X9226666D01*
X9175882D01*
Y6750512D01*
X9302841D02*
X9353625D01*
X9379017Y6775904D01*
Y6826687D01*
X9353625Y6852079D01*
X9302841D01*
X9277449Y6826687D01*
Y6775904D01*
X9302841Y6750512D01*
X9429800Y6699729D02*
Y6852079D01*
X9505975D01*
X9531367Y6826687D01*
Y6775904D01*
X9505975Y6750512D01*
X9429800D01*
X9734501Y6902863D02*
Y6750512D01*
X9836069D01*
X9912244Y6852079D02*
X9963028D01*
X9988419Y6826687D01*
Y6750512D01*
X9912244D01*
X9886852Y6775904D01*
X9912244Y6801296D01*
X9988419D01*
X10039203Y6852079D02*
Y6775904D01*
X10064595Y6750512D01*
X10140770D01*
Y6725120D01*
X10115378Y6699729D01*
X10089986D01*
X10140770Y6750512D02*
Y6852079D01*
X10267729Y6750512D02*
X10216946D01*
X10191554Y6775904D01*
Y6826687D01*
X10216946Y6852079D01*
X10267729D01*
X10293121Y6826687D01*
Y6801296D01*
X10191554D01*
X10343904Y6852079D02*
Y6750512D01*
Y6801296D01*
X10369296Y6826687D01*
X10394688Y6852079D01*
X10420080D01*
X10648606Y6826687D02*
X10750173D01*
X10953307Y6902863D02*
Y6750512D01*
X11029483D01*
X11054875Y6775904D01*
Y6801296D01*
X11029483Y6826687D01*
X10953307D01*
X11029483D01*
X11054875Y6852079D01*
Y6877471D01*
X11029483Y6902863D01*
X10953307D01*
X11131050Y6750512D02*
X11181833D01*
X11207225Y6775904D01*
Y6826687D01*
X11181833Y6852079D01*
X11131050D01*
X11105658Y6826687D01*
Y6775904D01*
X11131050Y6750512D01*
X11283401Y6877471D02*
Y6852079D01*
X11258009D01*
X11308792D01*
X11283401D01*
Y6775904D01*
X11308792Y6750512D01*
X11410359Y6877471D02*
Y6852079D01*
X11384968D01*
X11435751D01*
X11410359D01*
Y6775904D01*
X11435751Y6750512D01*
X11537318D02*
X11588102D01*
X11613494Y6775904D01*
Y6826687D01*
X11588102Y6852079D01*
X11537318D01*
X11511926Y6826687D01*
Y6775904D01*
X11537318Y6750512D01*
X11664277D02*
Y6852079D01*
X11689669D01*
X11715061Y6826687D01*
Y6750512D01*
Y6826687D01*
X11740453Y6852079D01*
X11765844Y6826687D01*
Y6750512D01*
X11968979Y6902863D02*
Y6750512D01*
X12070546D01*
X12146721Y6852079D02*
X12197505D01*
X12222897Y6826687D01*
Y6750512D01*
X12146721D01*
X12121329Y6775904D01*
X12146721Y6801296D01*
X12222897D01*
X12273680Y6852079D02*
Y6775904D01*
X12299072Y6750512D01*
X12375247D01*
Y6725120D01*
X12349855Y6699729D01*
X12324464D01*
X12375247Y6750512D02*
Y6852079D01*
X12502206Y6750512D02*
X12451423D01*
X12426031Y6775904D01*
Y6826687D01*
X12451423Y6852079D01*
X12502206D01*
X12527598Y6826687D01*
Y6801296D01*
X12426031D01*
X12578381Y6852079D02*
Y6750512D01*
Y6801296D01*
X12603773Y6826687D01*
X12629165Y6852079D01*
X12654557D01*
X9125099Y6521863D02*
X9226666D01*
X9175882D01*
Y6369512D01*
X9302841D02*
X9353625D01*
X9379017Y6394904D01*
Y6445687D01*
X9353625Y6471079D01*
X9302841D01*
X9277449Y6445687D01*
Y6394904D01*
X9302841Y6369512D01*
X9429800Y6318729D02*
Y6471079D01*
X9505975D01*
X9531367Y6445687D01*
Y6394904D01*
X9505975Y6369512D01*
X9429800D01*
X9734501Y6521863D02*
Y6369512D01*
X9836069D01*
X9912244Y6471079D02*
X9963028D01*
X9988419Y6445687D01*
Y6369512D01*
X9912244D01*
X9886852Y6394904D01*
X9912244Y6420296D01*
X9988419D01*
X10039203Y6471079D02*
Y6394904D01*
X10064595Y6369512D01*
X10140770D01*
Y6344120D01*
X10115378Y6318729D01*
X10089986D01*
X10140770Y6369512D02*
Y6471079D01*
X10267729Y6369512D02*
X10216946D01*
X10191554Y6394904D01*
Y6445687D01*
X10216946Y6471079D01*
X10267729D01*
X10293121Y6445687D01*
Y6420296D01*
X10191554D01*
X10343904Y6471079D02*
Y6369512D01*
Y6420296D01*
X10369296Y6445687D01*
X10394688Y6471079D01*
X10420080D01*
X10648606Y6445687D02*
X10750173D01*
X10953307Y6521863D02*
Y6369512D01*
X11029483D01*
X11054875Y6394904D01*
Y6420296D01*
X11029483Y6445687D01*
X10953307D01*
X11029483D01*
X11054875Y6471079D01*
Y6496471D01*
X11029483Y6521863D01*
X10953307D01*
X11131050Y6369512D02*
X11181833D01*
X11207225Y6394904D01*
Y6445687D01*
X11181833Y6471079D01*
X11131050D01*
X11105658Y6445687D01*
Y6394904D01*
X11131050Y6369512D01*
X11283401Y6496471D02*
Y6471079D01*
X11258009D01*
X11308792D01*
X11283401D01*
Y6394904D01*
X11308792Y6369512D01*
X11410359Y6496471D02*
Y6471079D01*
X11384968D01*
X11435751D01*
X11410359D01*
Y6394904D01*
X11435751Y6369512D01*
X11537318D02*
X11588102D01*
X11613494Y6394904D01*
Y6445687D01*
X11588102Y6471079D01*
X11537318D01*
X11511926Y6445687D01*
Y6394904D01*
X11537318Y6369512D01*
X11664277D02*
Y6471079D01*
X11689669D01*
X11715061Y6445687D01*
Y6369512D01*
Y6445687D01*
X11740453Y6471079D01*
X11765844Y6445687D01*
Y6369512D01*
X11968979Y6521863D02*
Y6369512D01*
X12070546D01*
X12146721Y6471079D02*
X12197505D01*
X12222897Y6445687D01*
Y6369512D01*
X12146721D01*
X12121329Y6394904D01*
X12146721Y6420296D01*
X12222897D01*
X12273680Y6471079D02*
Y6394904D01*
X12299072Y6369512D01*
X12375247D01*
Y6344120D01*
X12349855Y6318729D01*
X12324464D01*
X12375247Y6369512D02*
Y6471079D01*
X12502206Y6369512D02*
X12451423D01*
X12426031Y6394904D01*
Y6445687D01*
X12451423Y6471079D01*
X12502206D01*
X12527598Y6445687D01*
Y6420296D01*
X12426031D01*
X12578381Y6471079D02*
Y6369512D01*
Y6420296D01*
X12603773Y6445687D01*
X12629165Y6471079D01*
X12654557D01*
X7261242Y7512512D02*
Y7664863D01*
X7337417D01*
X7362809Y7639471D01*
Y7588687D01*
X7337417Y7563296D01*
X7261242D01*
X7312025D02*
X7362809Y7512512D01*
X7438984D02*
X7489768D01*
X7515159Y7537904D01*
Y7588687D01*
X7489768Y7614079D01*
X7438984D01*
X7413592Y7588687D01*
Y7537904D01*
X7438984Y7512512D01*
X7565943Y7614079D02*
Y7537904D01*
X7591335Y7512512D01*
X7667510D01*
Y7614079D01*
X7718294Y7512512D02*
Y7614079D01*
X7794469D01*
X7819861Y7588687D01*
Y7512512D01*
X7972212Y7664863D02*
Y7512512D01*
X7896036D01*
X7870644Y7537904D01*
Y7588687D01*
X7896036Y7614079D01*
X7972212D01*
X7261242Y7131512D02*
Y7283863D01*
X7337417D01*
X7362809Y7258471D01*
Y7207687D01*
X7337417Y7182296D01*
X7261242D01*
X7312025D02*
X7362809Y7131512D01*
X7438984D02*
X7489768D01*
X7515159Y7156904D01*
Y7207687D01*
X7489768Y7233079D01*
X7438984D01*
X7413592Y7207687D01*
Y7156904D01*
X7438984Y7131512D01*
X7565943Y7233079D02*
Y7156904D01*
X7591335Y7131512D01*
X7667510D01*
Y7233079D01*
X7718294Y7131512D02*
Y7233079D01*
X7794469D01*
X7819861Y7207687D01*
Y7131512D01*
X7972212Y7283863D02*
Y7131512D01*
X7896036D01*
X7870644Y7156904D01*
Y7207687D01*
X7896036Y7233079D01*
X7972212D01*
X7261242Y6750512D02*
Y6902863D01*
X7337417D01*
X7362809Y6877471D01*
Y6826687D01*
X7337417Y6801296D01*
X7261242D01*
X7312025D02*
X7362809Y6750512D01*
X7489768D02*
X7438984D01*
X7413592Y6775904D01*
Y6826687D01*
X7438984Y6852079D01*
X7489768D01*
X7515159Y6826687D01*
Y6801296D01*
X7413592D01*
X7667510Y6852079D02*
X7591335D01*
X7565943Y6826687D01*
Y6775904D01*
X7591335Y6750512D01*
X7667510D01*
X7743686Y6877471D02*
Y6852079D01*
X7718294D01*
X7769077D01*
X7743686D01*
Y6775904D01*
X7769077Y6750512D01*
X7870644Y6852079D02*
X7921428D01*
X7946820Y6826687D01*
Y6750512D01*
X7870644D01*
X7845253Y6775904D01*
X7870644Y6801296D01*
X7946820D01*
X7997603Y6750512D02*
Y6852079D01*
X8073779D01*
X8099170Y6826687D01*
Y6750512D01*
X8200737Y6699729D02*
X8226129D01*
X8251521Y6725120D01*
Y6852079D01*
X8175346D01*
X8149954Y6826687D01*
Y6775904D01*
X8175346Y6750512D01*
X8251521D01*
X8302305D02*
X8353088D01*
X8327697D01*
Y6902863D01*
X8302305D01*
X8505439Y6750512D02*
X8454655D01*
X8429264Y6775904D01*
Y6826687D01*
X8454655Y6852079D01*
X8505439D01*
X8530831Y6826687D01*
Y6801296D01*
X8429264D01*
X7261242Y6369512D02*
Y6521863D01*
X7337417D01*
X7362809Y6496471D01*
Y6445687D01*
X7337417Y6420296D01*
X7261242D01*
X7312025D02*
X7362809Y6369512D01*
X7438984D02*
X7489768D01*
X7515159Y6394904D01*
Y6445687D01*
X7489768Y6471079D01*
X7438984D01*
X7413592Y6445687D01*
Y6394904D01*
X7438984Y6369512D01*
X7565943Y6471079D02*
Y6394904D01*
X7591335Y6369512D01*
X7667510D01*
Y6471079D01*
X7718294Y6369512D02*
Y6471079D01*
X7794469D01*
X7819861Y6445687D01*
Y6369512D01*
X7972212Y6521863D02*
Y6369512D01*
X7896036D01*
X7870644Y6394904D01*
Y6445687D01*
X7896036Y6471079D01*
X7972212D01*
X5976317Y7512512D02*
Y7664863D01*
X6077884Y7512512D01*
Y7664863D01*
X6128668Y7512512D02*
Y7664863D01*
X6204843D01*
X6230235Y7639471D01*
Y7588687D01*
X6204843Y7563296D01*
X6128668D01*
X6281018Y7664863D02*
X6382586D01*
X6331802D01*
Y7512512D01*
X6433369Y7664863D02*
Y7512512D01*
Y7588687D01*
X6534936D01*
Y7664863D01*
Y7512512D01*
X5976317Y7131512D02*
Y7283863D01*
X6052492D01*
X6077884Y7258471D01*
Y7207687D01*
X6052492Y7182296D01*
X5976317D01*
X6128668Y7283863D02*
X6230235D01*
X6179451D01*
Y7131512D01*
X6281018Y7283863D02*
Y7131512D01*
Y7207687D01*
X6382586D01*
Y7283863D01*
Y7131512D01*
X5976317Y6750512D02*
Y6902863D01*
X6052492D01*
X6077884Y6877471D01*
Y6826687D01*
X6052492Y6801296D01*
X5976317D01*
X6128668Y6902863D02*
X6230235D01*
X6179451D01*
Y6750512D01*
X6281018Y6902863D02*
Y6750512D01*
Y6826687D01*
X6382586D01*
Y6902863D01*
Y6750512D01*
X5976317Y6369512D02*
Y6521863D01*
X6052492D01*
X6077884Y6496471D01*
Y6445687D01*
X6052492Y6420296D01*
X5976317D01*
X6128668Y6521863D02*
X6230235D01*
X6179451D01*
Y6369512D01*
X6281018Y6521863D02*
Y6369512D01*
Y6445687D01*
X6382586D01*
Y6521863D01*
Y6369512D01*
X3030780Y7664863D02*
X3132347D01*
Y7639471D01*
X3030780Y7537904D01*
Y7512512D01*
X3183131D02*
Y7537904D01*
X3208522D01*
Y7512512D01*
X3183131D01*
X3310089Y7639471D02*
X3335481Y7664863D01*
X3386265D01*
X3411657Y7639471D01*
Y7537904D01*
X3386265Y7512512D01*
X3335481D01*
X3310089Y7537904D01*
Y7639471D01*
X3462440D02*
X3487832Y7664863D01*
X3538615D01*
X3564007Y7639471D01*
Y7537904D01*
X3538615Y7512512D01*
X3487832D01*
X3462440Y7537904D01*
Y7639471D01*
X3614791D02*
X3640183Y7664863D01*
X3690966D01*
X3716358Y7639471D01*
Y7537904D01*
X3690966Y7512512D01*
X3640183D01*
X3614791Y7537904D01*
Y7639471D01*
X3767142Y7512512D02*
Y7614079D01*
X3792533D01*
X3817925Y7588687D01*
Y7512512D01*
Y7588687D01*
X3843317Y7614079D01*
X3868709Y7588687D01*
Y7512512D01*
X3919492D02*
Y7614079D01*
X3944884D01*
X3970276Y7588687D01*
Y7512512D01*
Y7588687D01*
X3995668Y7614079D01*
X4021060Y7588687D01*
Y7512512D01*
X4274977D02*
X4224194Y7563296D01*
Y7614079D01*
X4274977Y7664863D01*
X4452720Y7512512D02*
X4351153D01*
X4452720Y7614079D01*
Y7639471D01*
X4427328Y7664863D01*
X4376544D01*
X4351153Y7639471D01*
X4503503Y7664863D02*
X4605071D01*
Y7639471D01*
X4503503Y7537904D01*
Y7512512D01*
X4757421Y7664863D02*
X4655854D01*
Y7588687D01*
X4706638Y7614079D01*
X4732029D01*
X4757421Y7588687D01*
Y7537904D01*
X4732029Y7512512D01*
X4681246D01*
X4655854Y7537904D01*
X4808205Y7512512D02*
Y7537904D01*
X4833597D01*
Y7512512D01*
X4808205D01*
X5036731Y7664863D02*
X4935164D01*
Y7588687D01*
X4985947Y7614079D01*
X5011339D01*
X5036731Y7588687D01*
Y7537904D01*
X5011339Y7512512D01*
X4960555D01*
X4935164Y7537904D01*
X5087514D02*
X5112906Y7512512D01*
X5163690D01*
X5189082Y7537904D01*
Y7639471D01*
X5163690Y7664863D01*
X5112906D01*
X5087514Y7639471D01*
Y7614079D01*
X5112906Y7588687D01*
X5189082D01*
X5239865Y7512512D02*
Y7614079D01*
X5265257D01*
X5290649Y7588687D01*
Y7512512D01*
Y7588687D01*
X5316040Y7614079D01*
X5341432Y7588687D01*
Y7512512D01*
X5392216D02*
X5442999D01*
X5417608D01*
Y7614079D01*
X5392216D01*
X5519175Y7512512D02*
X5569958D01*
X5544567D01*
Y7664863D01*
X5519175D01*
X5646133Y7512512D02*
X5696917Y7563296D01*
Y7614079D01*
X5646133Y7664863D01*
X3030780Y7258471D02*
X3056172Y7283863D01*
X3106955D01*
X3132347Y7258471D01*
Y7156904D01*
X3106955Y7131512D01*
X3056172D01*
X3030780Y7156904D01*
Y7258471D01*
X3183131Y7131512D02*
Y7156904D01*
X3208522D01*
Y7131512D01*
X3183131D01*
X3411657Y7283863D02*
X3360873Y7258471D01*
X3310089Y7207687D01*
Y7156904D01*
X3335481Y7131512D01*
X3386265D01*
X3411657Y7156904D01*
Y7182296D01*
X3386265Y7207687D01*
X3310089D01*
X3462440Y7156904D02*
X3487832Y7131512D01*
X3538615D01*
X3564007Y7156904D01*
Y7258471D01*
X3538615Y7283863D01*
X3487832D01*
X3462440Y7258471D01*
Y7233079D01*
X3487832Y7207687D01*
X3564007D01*
X3614791Y7258471D02*
X3640183Y7283863D01*
X3690966D01*
X3716358Y7258471D01*
Y7156904D01*
X3690966Y7131512D01*
X3640183D01*
X3614791Y7156904D01*
Y7258471D01*
X3767142Y7131512D02*
Y7233079D01*
X3792533D01*
X3817925Y7207687D01*
Y7131512D01*
Y7207687D01*
X3843317Y7233079D01*
X3868709Y7207687D01*
Y7131512D01*
X3919492D02*
Y7233079D01*
X3944884D01*
X3970276Y7207687D01*
Y7131512D01*
Y7207687D01*
X3995668Y7233079D01*
X4021060Y7207687D01*
Y7131512D01*
X4274977D02*
X4224194Y7182296D01*
Y7233079D01*
X4274977Y7283863D01*
X4452720Y7131512D02*
X4351153D01*
X4452720Y7233079D01*
Y7258471D01*
X4427328Y7283863D01*
X4376544D01*
X4351153Y7258471D01*
X4503503Y7283863D02*
X4605071D01*
Y7258471D01*
X4503503Y7156904D01*
Y7131512D01*
X4655854D02*
Y7156904D01*
X4681246D01*
Y7131512D01*
X4655854D01*
X4782813D02*
X4833596D01*
X4808205D01*
Y7283863D01*
X4782813Y7258471D01*
X4909772Y7283863D02*
X5011339D01*
Y7258471D01*
X4909772Y7156904D01*
Y7131512D01*
X5062122D02*
Y7233079D01*
X5087514D01*
X5112906Y7207687D01*
Y7131512D01*
Y7207687D01*
X5138298Y7233079D01*
X5163690Y7207687D01*
Y7131512D01*
X5214473D02*
X5265257D01*
X5239865D01*
Y7233079D01*
X5214473D01*
X5341432Y7131512D02*
X5392216D01*
X5366824D01*
Y7283863D01*
X5341432D01*
X5468391Y7131512D02*
X5519174Y7182296D01*
Y7233079D01*
X5468391Y7283863D01*
X3030780Y6877471D02*
X3056172Y6902863D01*
X3106955D01*
X3132347Y6877471D01*
Y6775904D01*
X3106955Y6750512D01*
X3056172D01*
X3030780Y6775904D01*
Y6877471D01*
X3183131Y6750512D02*
Y6775904D01*
X3208522D01*
Y6750512D01*
X3183131D01*
X3310089Y6877471D02*
X3335481Y6902863D01*
X3386265D01*
X3411657Y6877471D01*
Y6852079D01*
X3386265Y6826687D01*
X3411657Y6801296D01*
Y6775904D01*
X3386265Y6750512D01*
X3335481D01*
X3310089Y6775904D01*
Y6801296D01*
X3335481Y6826687D01*
X3310089Y6852079D01*
Y6877471D01*
X3335481Y6826687D02*
X3386265D01*
X3462440Y6877471D02*
X3487832Y6902863D01*
X3538615D01*
X3564007Y6877471D01*
Y6775904D01*
X3538615Y6750512D01*
X3487832D01*
X3462440Y6775904D01*
Y6877471D01*
X3614791D02*
X3640183Y6902863D01*
X3690966D01*
X3716358Y6877471D01*
Y6775904D01*
X3690966Y6750512D01*
X3640183D01*
X3614791Y6775904D01*
Y6877471D01*
X3767142Y6750512D02*
Y6852079D01*
X3792533D01*
X3817925Y6826687D01*
Y6750512D01*
Y6826687D01*
X3843317Y6852079D01*
X3868709Y6826687D01*
Y6750512D01*
X3919492D02*
Y6852079D01*
X3944884D01*
X3970276Y6826687D01*
Y6750512D01*
Y6826687D01*
X3995668Y6852079D01*
X4021060Y6826687D01*
Y6750512D01*
X4274977D02*
X4224194Y6801296D01*
Y6852079D01*
X4274977Y6902863D01*
X4351153Y6877471D02*
X4376544Y6902863D01*
X4427328D01*
X4452720Y6877471D01*
Y6852079D01*
X4427328Y6826687D01*
X4401936D01*
X4427328D01*
X4452720Y6801296D01*
Y6775904D01*
X4427328Y6750512D01*
X4376544D01*
X4351153Y6775904D01*
X4503503Y6750512D02*
X4554287D01*
X4528895D01*
Y6902863D01*
X4503503Y6877471D01*
X4630462Y6750512D02*
Y6775904D01*
X4655854D01*
Y6750512D01*
X4630462D01*
X4858988Y6902863D02*
X4757421D01*
Y6826687D01*
X4808205Y6852079D01*
X4833596D01*
X4858988Y6826687D01*
Y6775904D01*
X4833596Y6750512D01*
X4782813D01*
X4757421Y6775904D01*
X4909772Y6877471D02*
X4935164Y6902863D01*
X4985947D01*
X5011339Y6877471D01*
Y6775904D01*
X4985947Y6750512D01*
X4935164D01*
X4909772Y6775904D01*
Y6877471D01*
X5062122Y6750512D02*
Y6852079D01*
X5087514D01*
X5112906Y6826687D01*
Y6750512D01*
Y6826687D01*
X5138298Y6852079D01*
X5163690Y6826687D01*
Y6750512D01*
X5214473D02*
X5265257D01*
X5239865D01*
Y6852079D01*
X5214473D01*
X5341432Y6750512D02*
X5392216D01*
X5366824D01*
Y6902863D01*
X5341432D01*
X5468391Y6750512D02*
X5519174Y6801296D01*
Y6852079D01*
X5468391Y6902863D01*
X3030780Y6496471D02*
X3056172Y6521863D01*
X3106955D01*
X3132347Y6496471D01*
Y6394904D01*
X3106955Y6369512D01*
X3056172D01*
X3030780Y6394904D01*
Y6496471D01*
X3183131Y6369512D02*
Y6394904D01*
X3208522D01*
Y6369512D01*
X3183131D01*
X3310089Y6496471D02*
X3335481Y6521863D01*
X3386265D01*
X3411657Y6496471D01*
Y6471079D01*
X3386265Y6445687D01*
X3360873D01*
X3386265D01*
X3411657Y6420296D01*
Y6394904D01*
X3386265Y6369512D01*
X3335481D01*
X3310089Y6394904D01*
X3462440Y6496471D02*
X3487832Y6521863D01*
X3538615D01*
X3564007Y6496471D01*
Y6394904D01*
X3538615Y6369512D01*
X3487832D01*
X3462440Y6394904D01*
Y6496471D01*
X3614791D02*
X3640183Y6521863D01*
X3690966D01*
X3716358Y6496471D01*
Y6394904D01*
X3690966Y6369512D01*
X3640183D01*
X3614791Y6394904D01*
Y6496471D01*
X3767142Y6369512D02*
Y6471079D01*
X3792533D01*
X3817925Y6445687D01*
Y6369512D01*
Y6445687D01*
X3843317Y6471079D01*
X3868709Y6445687D01*
Y6369512D01*
X3919492D02*
Y6471079D01*
X3944884D01*
X3970276Y6445687D01*
Y6369512D01*
Y6445687D01*
X3995668Y6471079D01*
X4021060Y6445687D01*
Y6369512D01*
X4274977D02*
X4224194Y6420296D01*
Y6471079D01*
X4274977Y6521863D01*
X4351153Y6369512D02*
X4401936D01*
X4376544D01*
Y6521863D01*
X4351153Y6496471D01*
X4478111Y6369512D02*
X4528895D01*
X4503503D01*
Y6521863D01*
X4478111Y6496471D01*
X4605070Y6369512D02*
Y6394904D01*
X4630462D01*
Y6369512D01*
X4605070D01*
X4732029Y6496471D02*
X4757421Y6521863D01*
X4808205D01*
X4833596Y6496471D01*
Y6471079D01*
X4808205Y6445687D01*
X4833596Y6420296D01*
Y6394904D01*
X4808205Y6369512D01*
X4757421D01*
X4732029Y6394904D01*
Y6420296D01*
X4757421Y6445687D01*
X4732029Y6471079D01*
Y6496471D01*
X4757421Y6445687D02*
X4808205D01*
X4884380Y6369512D02*
X4935163D01*
X4909772D01*
Y6521863D01*
X4884380Y6496471D01*
X5011339Y6369512D02*
Y6471079D01*
X5036731D01*
X5062122Y6445687D01*
Y6369512D01*
Y6445687D01*
X5087514Y6471079D01*
X5112906Y6445687D01*
Y6369512D01*
X5163689D02*
X5214473D01*
X5189081D01*
Y6471079D01*
X5163689D01*
X5290648Y6369512D02*
X5341432D01*
X5316040D01*
Y6521863D01*
X5290648D01*
X5417607Y6369512D02*
X5468391Y6420296D01*
Y6471079D01*
X5417607Y6521863D01*
X1532574Y5988512D02*
X1583358D01*
X1557966D01*
Y6140863D01*
X1532574Y6115471D01*
X1659533D02*
X1684925Y6140863D01*
X1735708D01*
X1761100Y6115471D01*
Y6013904D01*
X1735708Y5988512D01*
X1684925D01*
X1659533Y6013904D01*
Y6115471D01*
X1811884D02*
X1837276Y6140863D01*
X1888059D01*
X1913451Y6115471D01*
Y6013904D01*
X1888059Y5988512D01*
X1837276D01*
X1811884Y6013904D01*
Y6115471D01*
X2116585Y6140863D02*
X2218153D01*
X2167369D01*
Y5988512D01*
X2294328D02*
X2345111D01*
X2370503Y6013904D01*
Y6064687D01*
X2345111Y6090079D01*
X2294328D01*
X2268936Y6064687D01*
Y6013904D01*
X2294328Y5988512D01*
X2446679Y6115471D02*
Y6090079D01*
X2421287D01*
X2472070D01*
X2446679D01*
Y6013904D01*
X2472070Y5988512D01*
X2573637Y6090079D02*
X2624421D01*
X2649813Y6064687D01*
Y5988512D01*
X2573637D01*
X2548246Y6013904D01*
X2573637Y6039296D01*
X2649813D01*
X2700596Y5988512D02*
X2751380D01*
X2725988D01*
Y6140863D01*
X2700596D01*
X1634142Y7512512D02*
X1532574D01*
X1634142Y7614079D01*
Y7639471D01*
X1608750Y7664863D01*
X1557966D01*
X1532574Y7639471D01*
Y7258471D02*
X1557966Y7283863D01*
X1608750D01*
X1634142Y7258471D01*
Y7233079D01*
X1608750Y7207687D01*
X1583358D01*
X1608750D01*
X1634142Y7182296D01*
Y7156904D01*
X1608750Y7131512D01*
X1557966D01*
X1532574Y7156904D01*
Y6877471D02*
X1557966Y6902863D01*
X1608750D01*
X1634142Y6877471D01*
Y6852079D01*
X1608750Y6826687D01*
X1583358D01*
X1608750D01*
X1634142Y6801296D01*
Y6775904D01*
X1608750Y6750512D01*
X1557966D01*
X1532574Y6775904D01*
Y6394904D02*
X1557966Y6369512D01*
X1608750D01*
X1634142Y6394904D01*
Y6496471D01*
X1608750Y6521863D01*
X1557966D01*
X1532574Y6496471D01*
Y6471079D01*
X1557966Y6445687D01*
X1634142D01*
X1786492Y6369512D02*
X1684925D01*
X1786492Y6471079D01*
Y6496471D01*
X1761100Y6521863D01*
X1710317D01*
X1684925Y6496471D01*
X4782743Y5417127D02*
X4884310D01*
X4782743Y5467911D02*
X4884310D01*
X5087444Y5366344D02*
Y5518694D01*
X5163619D01*
X5189011Y5493302D01*
Y5442519D01*
X5163619Y5417127D01*
X5087444D01*
X5138227D02*
X5189011Y5366344D01*
X5265187D02*
X5315970D01*
X5341362Y5391735D01*
Y5442519D01*
X5315970Y5467911D01*
X5265187D01*
X5239795Y5442519D01*
Y5391735D01*
X5265187Y5366344D01*
X5392145Y5467911D02*
Y5391735D01*
X5417537Y5366344D01*
X5493713D01*
Y5467911D01*
X5569888Y5493302D02*
Y5467911D01*
X5544496D01*
X5595280D01*
X5569888D01*
Y5391735D01*
X5595280Y5366344D01*
X5747630D02*
X5696847D01*
X5671455Y5391735D01*
Y5442519D01*
X5696847Y5467911D01*
X5747630D01*
X5773022Y5442519D01*
Y5417127D01*
X5671455D01*
X5925373Y5518694D02*
Y5366344D01*
X5849198D01*
X5823806Y5391735D01*
Y5442519D01*
X5849198Y5467911D01*
X5925373D01*
X6128507Y5366344D02*
Y5518694D01*
X6204683D01*
X6230074Y5493302D01*
Y5442519D01*
X6204683Y5417127D01*
X6128507D01*
X6306250Y5467911D02*
X6357033D01*
X6382425Y5442519D01*
Y5366344D01*
X6306250D01*
X6280858Y5391735D01*
X6306250Y5417127D01*
X6382425D01*
X6458600Y5493302D02*
Y5467911D01*
X6433209D01*
X6483992D01*
X6458600D01*
Y5391735D01*
X6483992Y5366344D01*
X6560167Y5518694D02*
Y5366344D01*
Y5442519D01*
X6585559Y5467911D01*
X6636343D01*
X6661735Y5442519D01*
Y5366344D01*
X6864869Y5518694D02*
Y5366344D01*
X6966436D01*
X7093395D02*
X7042612D01*
X7017220Y5391735D01*
Y5442519D01*
X7042612Y5467911D01*
X7093395D01*
X7118787Y5442519D01*
Y5417127D01*
X7017220D01*
X7169570Y5366344D02*
Y5467911D01*
X7245746D01*
X7271138Y5442519D01*
Y5366344D01*
X7372705Y5315560D02*
X7398096D01*
X7423488Y5340952D01*
Y5467911D01*
X7347313D01*
X7321921Y5442519D01*
Y5391735D01*
X7347313Y5366344D01*
X7423488D01*
X7499664Y5493302D02*
Y5467911D01*
X7474272D01*
X7525055D01*
X7499664D01*
Y5391735D01*
X7525055Y5366344D01*
X7601231Y5518694D02*
Y5366344D01*
Y5442519D01*
X7626623Y5467911D01*
X7677406D01*
X7702798Y5442519D01*
Y5366344D01*
X7905932Y5442519D02*
X8007499D01*
X7956716Y5493302D02*
Y5391735D01*
X8210634Y5518694D02*
X8312201D01*
X8261417D01*
Y5366344D01*
X8388376D02*
X8439160D01*
X8464552Y5391735D01*
Y5442519D01*
X8439160Y5467911D01*
X8388376D01*
X8362984Y5442519D01*
Y5391735D01*
X8388376Y5366344D01*
X8540727D02*
X8591510D01*
X8616902Y5391735D01*
Y5442519D01*
X8591510Y5467911D01*
X8540727D01*
X8515335Y5442519D01*
Y5391735D01*
X8540727Y5366344D01*
X8667686D02*
X8718469D01*
X8693078D01*
Y5518694D01*
X8667686D01*
X9048563Y5493302D02*
X9023171Y5518694D01*
X8972387D01*
X8946995Y5493302D01*
Y5467911D01*
X8972387Y5442519D01*
X9023171D01*
X9048563Y5417127D01*
Y5391735D01*
X9023171Y5366344D01*
X8972387D01*
X8946995Y5391735D01*
X9099346Y5366344D02*
X9150130D01*
X9124738D01*
Y5467911D01*
X9099346D01*
X9226305D02*
X9327872D01*
X9226305Y5366344D01*
X9327872D01*
X9454831D02*
X9404047D01*
X9378656Y5391735D01*
Y5442519D01*
X9404047Y5467911D01*
X9454831D01*
X9480223Y5442519D01*
Y5417127D01*
X9378656D01*
X9683357D02*
X9784924D01*
X9683357Y5467911D02*
X9784924D01*
X10089626Y5493302D02*
X10064234Y5518694D01*
X10013450D01*
X9988059Y5493302D01*
Y5467911D01*
X10013450Y5442519D01*
X10064234D01*
X10089626Y5417127D01*
Y5391735D01*
X10064234Y5366344D01*
X10013450D01*
X9988059Y5391735D01*
X10140409Y5366344D02*
X10191193D01*
X10165801D01*
Y5518694D01*
X10140409D01*
X10292760Y5366344D02*
X10343543D01*
X10368935Y5391735D01*
Y5442519D01*
X10343543Y5467911D01*
X10292760D01*
X10267368Y5442519D01*
Y5391735D01*
X10292760Y5366344D01*
X10445111Y5493302D02*
Y5467911D01*
X10419719D01*
X10470502D01*
X10445111D01*
Y5391735D01*
X10470502Y5366344D01*
X10699028D02*
X10749812D01*
X10724420D01*
Y5518694D01*
X10699028D01*
X10902163Y5366344D02*
X10851379D01*
X10825987Y5391735D01*
Y5442519D01*
X10851379Y5467911D01*
X10902163D01*
X10927554Y5442519D01*
Y5417127D01*
X10825987D01*
X10978338Y5366344D02*
Y5467911D01*
X11054513D01*
X11079905Y5442519D01*
Y5366344D01*
X11181472Y5315560D02*
X11206864D01*
X11232256Y5340952D01*
Y5467911D01*
X11156081D01*
X11130689Y5442519D01*
Y5391735D01*
X11156081Y5366344D01*
X11232256D01*
X11308431Y5493302D02*
Y5467911D01*
X11283039D01*
X11333823D01*
X11308431D01*
Y5391735D01*
X11333823Y5366344D01*
X11409998Y5518694D02*
Y5366344D01*
Y5442519D01*
X11435390Y5467911D01*
X11486174D01*
X11511565Y5442519D01*
Y5366344D01*
X11740092Y5467911D02*
X11790875D01*
X11816267Y5442519D01*
Y5366344D01*
X11740092D01*
X11714700Y5391735D01*
X11740092Y5417127D01*
X11816267D01*
X11867050Y5366344D02*
X11943226D01*
X11968618Y5391735D01*
X11943226Y5417127D01*
X11892442D01*
X11867050Y5442519D01*
X11892442Y5467911D01*
X11968618D01*
X12273319Y5518694D02*
Y5366344D01*
X12197144D01*
X12171752Y5391735D01*
Y5442519D01*
X12197144Y5467911D01*
X12273319D01*
X12400278Y5366344D02*
X12349494D01*
X12324103Y5391735D01*
Y5442519D01*
X12349494Y5467911D01*
X12400278D01*
X12425670Y5442519D01*
Y5417127D01*
X12324103D01*
X12501845Y5366344D02*
Y5493302D01*
Y5442519D01*
X12476453D01*
X12527237D01*
X12501845D01*
Y5493302D01*
X12527237Y5518694D01*
X12603412Y5366344D02*
X12654196D01*
X12628804D01*
Y5467911D01*
X12603412D01*
X12730371Y5366344D02*
Y5467911D01*
X12806546D01*
X12831938Y5442519D01*
Y5366344D01*
X12958897D02*
X12908115D01*
X12882722Y5391735D01*
Y5442519D01*
X12908115Y5467911D01*
X12958897D01*
X12984290Y5442519D01*
Y5417127D01*
X12882722D01*
X13136639Y5518694D02*
Y5366344D01*
X13060464D01*
X13035072Y5391735D01*
Y5442519D01*
X13060464Y5467911D01*
X13136639D01*
X13339774Y5366344D02*
X13390556D01*
X13365166D01*
Y5467911D01*
X13339774D01*
X13466733Y5366344D02*
Y5467911D01*
X13542908D01*
X13568300Y5442519D01*
Y5366344D01*
X13796826Y5493302D02*
Y5467911D01*
X13771434D01*
X13822218D01*
X13796826D01*
Y5391735D01*
X13822218Y5366344D01*
X13898393Y5518694D02*
Y5366344D01*
Y5442519D01*
X13923785Y5467911D01*
X13974568D01*
X13999960Y5442519D01*
Y5366344D01*
X14126920D02*
X14076135D01*
X14050745Y5391735D01*
Y5442519D01*
X14076135Y5467911D01*
X14126920D01*
X14152312Y5442519D01*
Y5417127D01*
X14050745D01*
X14355444Y5366344D02*
Y5518694D01*
X14431621D01*
X14457011Y5493302D01*
Y5442519D01*
X14431621Y5417127D01*
X14355444D01*
X14609363Y5493302D02*
X14583971Y5518694D01*
X14533188D01*
X14507796Y5493302D01*
Y5391735D01*
X14533188Y5366344D01*
X14583971D01*
X14609363Y5391735D01*
X14660147Y5518694D02*
Y5366344D01*
X14736322D01*
X14761714Y5391735D01*
Y5417127D01*
X14736322Y5442519D01*
X14660147D01*
X14736322D01*
X14761714Y5467911D01*
Y5493302D01*
X14736322Y5518694D01*
X14660147D01*
X14964848Y5366344D02*
X15015633D01*
X14990240D01*
Y5518694D01*
X14964848D01*
X15117200Y5467911D02*
X15167982D01*
X15193375Y5442519D01*
Y5366344D01*
X15117200D01*
X15091808Y5391735D01*
X15117200Y5417127D01*
X15193375D01*
X15244157Y5467911D02*
Y5391735D01*
X15269550Y5366344D01*
X15345724D01*
Y5340952D01*
X15320332Y5315560D01*
X15294942D01*
X15345724Y5366344D02*
Y5467911D01*
X15421899Y5366344D02*
X15472684D01*
X15498076Y5391735D01*
Y5442519D01*
X15472684Y5467911D01*
X15421899D01*
X15396507Y5442519D01*
Y5391735D01*
X15421899Y5366344D01*
X15548859Y5467911D02*
Y5391735D01*
X15574251Y5366344D01*
X15650426D01*
Y5467911D01*
X15726602Y5493302D02*
Y5467911D01*
X15701210D01*
X15751993D01*
X15726602D01*
Y5391735D01*
X15751993Y5366344D01*
X5671455Y5671061D02*
X5773022D01*
X5671455Y5721845D02*
X5773022D01*
X6077724Y5747237D02*
X6052332Y5772629D01*
X6001548D01*
X5976156Y5747237D01*
Y5645670D01*
X6001548Y5620278D01*
X6052332D01*
X6077724Y5645670D01*
X6153899Y5721845D02*
X6204683D01*
X6230074Y5696453D01*
Y5620278D01*
X6153899D01*
X6128507Y5645670D01*
X6153899Y5671061D01*
X6230074D01*
X6280858Y5620278D02*
X6331641D01*
X6306250D01*
Y5772629D01*
X6280858D01*
X6509384Y5721845D02*
X6433209D01*
X6407817Y5696453D01*
Y5645670D01*
X6433209Y5620278D01*
X6509384D01*
X6560167Y5721845D02*
Y5645670D01*
X6585559Y5620278D01*
X6661735D01*
Y5721845D01*
X6712518Y5620278D02*
X6763302D01*
X6737910D01*
Y5772629D01*
X6712518D01*
X6864869Y5721845D02*
X6915652D01*
X6941044Y5696453D01*
Y5620278D01*
X6864869D01*
X6839477Y5645670D01*
X6864869Y5671061D01*
X6941044D01*
X7017220Y5747237D02*
Y5721845D01*
X6991828D01*
X7042611D01*
X7017220D01*
Y5645670D01*
X7042611Y5620278D01*
X7194962D02*
X7144178D01*
X7118787Y5645670D01*
Y5696453D01*
X7144178Y5721845D01*
X7194962D01*
X7220354Y5696453D01*
Y5671061D01*
X7118787D01*
X7372705Y5772629D02*
Y5620278D01*
X7296529D01*
X7271137Y5645670D01*
Y5696453D01*
X7296529Y5721845D01*
X7372705D01*
X7601231Y5620278D02*
Y5747237D01*
Y5696453D01*
X7575839D01*
X7626622D01*
X7601231D01*
Y5747237D01*
X7626622Y5772629D01*
X7702798Y5721845D02*
Y5620278D01*
Y5671061D01*
X7728190Y5696453D01*
X7753581Y5721845D01*
X7778973D01*
X7880540Y5620278D02*
X7931324D01*
X7956716Y5645670D01*
Y5696453D01*
X7931324Y5721845D01*
X7880540D01*
X7855148Y5696453D01*
Y5645670D01*
X7880540Y5620278D01*
X8007499D02*
Y5721845D01*
X8032891D01*
X8058283Y5696453D01*
Y5620278D01*
Y5696453D01*
X8083674Y5721845D01*
X8109066Y5696453D01*
Y5620278D01*
X8337592Y5747237D02*
Y5721845D01*
X8312201D01*
X8362984D01*
X8337592D01*
Y5645670D01*
X8362984Y5620278D01*
X8464551D02*
X8515335D01*
X8540727Y5645670D01*
Y5696453D01*
X8515335Y5721845D01*
X8464551D01*
X8439159Y5696453D01*
Y5645670D01*
X8464551Y5620278D01*
X8616902D02*
X8667685D01*
X8693077Y5645670D01*
Y5696453D01*
X8667685Y5721845D01*
X8616902D01*
X8591510Y5696453D01*
Y5645670D01*
X8616902Y5620278D01*
X8743861D02*
X8794644D01*
X8769253D01*
Y5772629D01*
X8743861D01*
X9023170Y5620278D02*
X9099346D01*
X9124738Y5645670D01*
X9099346Y5671061D01*
X9048562D01*
X9023170Y5696453D01*
X9048562Y5721845D01*
X9124738D01*
X9200913Y5747237D02*
Y5721845D01*
X9175521D01*
X9226305D01*
X9200913D01*
Y5645670D01*
X9226305Y5620278D01*
X9327872Y5721845D02*
X9378655D01*
X9404047Y5696453D01*
Y5620278D01*
X9327872D01*
X9302480Y5645670D01*
X9327872Y5671061D01*
X9404047D01*
X9454831Y5721845D02*
Y5620278D01*
Y5671061D01*
X9480223Y5696453D01*
X9505614Y5721845D01*
X9531006D01*
X9632573Y5747237D02*
Y5721845D01*
X9607181D01*
X9657965D01*
X9632573D01*
Y5645670D01*
X9657965Y5620278D01*
X9988058Y5721845D02*
X9911883D01*
X9886491Y5696453D01*
Y5645670D01*
X9911883Y5620278D01*
X9988058D01*
X10115017D02*
X10064234D01*
X10038842Y5645670D01*
Y5696453D01*
X10064234Y5721845D01*
X10115017D01*
X10140409Y5696453D01*
Y5671061D01*
X10038842D01*
X10191192Y5620278D02*
Y5721845D01*
X10267368D01*
X10292760Y5696453D01*
Y5620278D01*
X10368935Y5747237D02*
Y5721845D01*
X10343543D01*
X10394327D01*
X10368935D01*
Y5645670D01*
X10394327Y5620278D01*
X10470502Y5721845D02*
Y5620278D01*
Y5671061D01*
X10495894Y5696453D01*
X10521286Y5721845D01*
X10546677D01*
X10699028Y5620278D02*
X10648245D01*
X10622853Y5645670D01*
Y5696453D01*
X10648245Y5721845D01*
X10699028D01*
X10724420Y5696453D01*
Y5671061D01*
X10622853D01*
X10927554Y5569494D02*
Y5721845D01*
X11003730D01*
X11029121Y5696453D01*
Y5645670D01*
X11003730Y5620278D01*
X10927554D01*
X11105297D02*
X11156080D01*
X11181472Y5645670D01*
Y5696453D01*
X11156080Y5721845D01*
X11105297D01*
X11079905Y5696453D01*
Y5645670D01*
X11105297Y5620278D01*
X11232256D02*
X11308431D01*
X11333823Y5645670D01*
X11308431Y5671061D01*
X11257648D01*
X11232256Y5696453D01*
X11257648Y5721845D01*
X11333823D01*
X11384606Y5620278D02*
X11435390D01*
X11409998D01*
Y5721845D01*
X11384606D01*
X11536957Y5747237D02*
Y5721845D01*
X11511565D01*
X11562349D01*
X11536957D01*
Y5645670D01*
X11562349Y5620278D01*
X11638524D02*
X11689308D01*
X11663916D01*
Y5721845D01*
X11638524D01*
X11790875Y5620278D02*
X11841658D01*
X11867050Y5645670D01*
Y5696453D01*
X11841658Y5721845D01*
X11790875D01*
X11765483Y5696453D01*
Y5645670D01*
X11790875Y5620278D01*
X11917834D02*
Y5721845D01*
X11994009D01*
X12019401Y5696453D01*
Y5620278D01*
X12247927Y5747237D02*
Y5721845D01*
X12222535D01*
X12273319D01*
X12247927D01*
Y5645670D01*
X12273319Y5620278D01*
X12374886D02*
X12425669D01*
X12451061Y5645670D01*
Y5696453D01*
X12425669Y5721845D01*
X12374886D01*
X12349494Y5696453D01*
Y5645670D01*
X12374886Y5620278D01*
X12679587Y5747237D02*
Y5721845D01*
X12654195D01*
X12704979D01*
X12679587D01*
Y5645670D01*
X12704979Y5620278D01*
X12806546D02*
X12857330D01*
X12882722Y5645670D01*
Y5696453D01*
X12857330Y5721845D01*
X12806546D01*
X12781154Y5696453D01*
Y5645670D01*
X12806546Y5620278D01*
X12958897D02*
X13009680D01*
X13035072Y5645670D01*
Y5696453D01*
X13009680Y5721845D01*
X12958897D01*
X12933505Y5696453D01*
Y5645670D01*
X12958897Y5620278D01*
X13085857D02*
X13136639D01*
X13111247D01*
Y5772629D01*
X13085857D01*
X13441341Y5620278D02*
X13390556D01*
X13365166Y5645670D01*
Y5696453D01*
X13390556Y5721845D01*
X13441341D01*
X13466733Y5696453D01*
Y5671061D01*
X13365166D01*
X13517516Y5620278D02*
Y5721845D01*
X13593690D01*
X13619083Y5696453D01*
Y5620278D01*
X13771434Y5772629D02*
Y5620278D01*
X13695259D01*
X13669867Y5645670D01*
Y5696453D01*
X13695259Y5721845D01*
X13771434D01*
X14076135D02*
X13999960D01*
X13974568Y5696453D01*
Y5645670D01*
X13999960Y5620278D01*
X14076135D01*
X14203094D02*
X14152312D01*
X14126920Y5645670D01*
Y5696453D01*
X14152312Y5721845D01*
X14203094D01*
X14228487Y5696453D01*
Y5671061D01*
X14126920D01*
X14279269Y5620278D02*
Y5721845D01*
X14355444D01*
X14380836Y5696453D01*
Y5620278D01*
X14457011Y5747237D02*
Y5721845D01*
X14431619D01*
X14482404D01*
X14457011D01*
Y5645670D01*
X14482404Y5620278D01*
X14558578Y5721845D02*
Y5620278D01*
Y5671061D01*
X14583971Y5696453D01*
X14609363Y5721845D01*
X14634755D01*
X14787105Y5620278D02*
X14736322D01*
X14710930Y5645670D01*
Y5696453D01*
X14736322Y5721845D01*
X14787105D01*
X14812497Y5696453D01*
Y5671061D01*
X14710930D01*
X15015631Y5569494D02*
Y5721845D01*
X15091808D01*
X15117200Y5696453D01*
Y5645670D01*
X15091808Y5620278D01*
X15015631D01*
X15193375D02*
X15244157D01*
X15269550Y5645670D01*
Y5696453D01*
X15244157Y5721845D01*
X15193375D01*
X15167982Y5696453D01*
Y5645670D01*
X15193375Y5620278D01*
X15320332D02*
X15396507D01*
X15421899Y5645670D01*
X15396507Y5671061D01*
X15345724D01*
X15320332Y5696453D01*
X15345724Y5721845D01*
X15421899D01*
X15472684Y5620278D02*
X15523466D01*
X15498074D01*
Y5721845D01*
X15472684D01*
X15625034Y5747237D02*
Y5721845D01*
X15599641D01*
X15650426D01*
X15625034D01*
Y5645670D01*
X15650426Y5620278D01*
X15726601D02*
X15777385D01*
X15751993D01*
Y5721845D01*
X15726601D01*
X15878952Y5620278D02*
X15929735D01*
X15955127Y5645670D01*
Y5696453D01*
X15929735Y5721845D01*
X15878952D01*
X15853560Y5696453D01*
Y5645670D01*
X15878952Y5620278D01*
X16005911D02*
Y5721845D01*
X16082086D01*
X16107478Y5696453D01*
Y5620278D01*
X16158263D02*
Y5645670D01*
X16183653D01*
Y5620278D01*
X16158263D01*
D91*
X19050Y7779212D02*
X20145505D01*
X19050Y6255212D02*
X20145505D01*
X19050Y5874212D02*
X20145505D01*
Y8160212D01*
X19050D02*
X20145505D01*
X19050Y5874212D02*
Y8160212D01*
X17085667Y5874212D02*
Y8160212D01*
X14317873Y5874212D02*
Y8160212D01*
X12819656Y5874212D02*
Y8160212D01*
X9010799Y5874212D02*
Y8160212D01*
X7146942Y5874212D02*
Y8160212D01*
X5862017Y5874212D02*
Y8160212D01*
X2916480Y5874212D02*
Y8160212D01*
X1418274Y5874212D02*
Y8160212D01*
D103*
X4926220Y3815533D02*
G03*
X4926220Y3815533I-42333J0D01*
G01*
X1016794Y1677500D02*
G03*
X1016794Y1677500I-42333J0D01*
G01*
X2499833Y1434298D02*
G03*
X2499833Y1434298I-42333J0D01*
G01*
X984294Y1160022D02*
G03*
X984294Y1160022I-42333J0D01*
G01*
X2839351Y1765633D02*
G03*
X2839351Y1765633I-42333J0D01*
G01*
X1303851Y2134500D02*
G03*
X1303851Y2134500I-42333J0D01*
G01*
X1219009D02*
G03*
X1219009Y2134500I-42333J0D01*
G01*
X1134166D02*
G03*
X1134166Y2134500I-42333J0D01*
G01*
X1049324Y2134310D02*
G03*
X1049324Y2134310I-42333J0D01*
G01*
X4604968Y4929882D02*
G03*
X4604968Y4929882I-42333J0D01*
G01*
X4736167Y3898683D02*
G03*
X4736167Y3898683I-42333J0D01*
G01*
X2818668Y2079838D02*
G03*
X2818668Y2079838I-42333J0D01*
G01*
Y1978825D02*
G03*
X2818668Y1978825I-42333J0D01*
G01*
Y1877812D02*
G03*
X2818668Y1877812I-42333J0D01*
G01*
X2725357Y1765900D02*
G03*
X2725357Y1765900I-42333J0D01*
G01*
X2619546D02*
G03*
X2619546Y1765900I-42333J0D01*
G01*
X2513736D02*
G03*
X2513736Y1765900I-42333J0D01*
G01*
X2818668Y2184700D02*
G03*
X2818668Y2184700I-42333J0D01*
G01*
X2502047D02*
G03*
X2502047Y2184700I-42333J0D01*
G01*
X2607857D02*
G03*
X2607857Y2184700I-42333J0D01*
G01*
X2713668D02*
G03*
X2713668Y2184700I-42333J0D01*
G01*
X2402946Y1974209D02*
G03*
X2402946Y1974209I-42333J0D01*
G01*
Y1868399D02*
G03*
X2402946Y1868399I-42333J0D01*
G01*
X2402047Y1765900D02*
G03*
X2402047Y1765900I-42333J0D01*
G01*
X2402946Y2079209D02*
G03*
X2402946Y2079209I-42333J0D01*
G01*
X2402899Y2184700D02*
G03*
X2402899Y2184700I-42333J0D01*
G01*
X1978241Y1773700D02*
G03*
X1978241Y1773700I-42333J0D01*
G01*
X2939351Y2184700D02*
G03*
X2939351Y2184700I-42333J0D01*
G01*
Y1877812D02*
G03*
X2939351Y1877812I-42333J0D01*
G01*
Y1978825D02*
G03*
X2939351Y1978825I-42333J0D01*
G01*
Y2079838D02*
G03*
X2939351Y2079838I-42333J0D01*
G01*
Y1773700D02*
G03*
X2939351Y1773700I-42333J0D01*
G01*
X3051040D02*
G03*
X3051040Y1773700I-42333J0D01*
G01*
X3156851D02*
G03*
X3156851Y1773700I-42333J0D01*
G01*
X1496565Y4809263D02*
G03*
X1496565Y4809263I-42333J0D01*
G01*
X1807333D02*
G03*
X1807333Y4809263I-42333J0D01*
G01*
X1701523D02*
G03*
X1701523Y4809263I-42333J0D01*
G01*
X1595712D02*
G03*
X1595712Y4809263I-42333J0D01*
G01*
X1912333D02*
G03*
X1912333Y4809263I-42333J0D01*
G01*
X1179944D02*
G03*
X1179944Y4809263I-42333J0D01*
G01*
X1285754D02*
G03*
X1285754Y4809263I-42333J0D01*
G01*
X1391565D02*
G03*
X1391565Y4809263I-42333J0D01*
G01*
X1080797D02*
G03*
X1080797Y4809263I-42333J0D01*
G01*
X764176D02*
G03*
X764176Y4809263I-42333J0D01*
G01*
X869986D02*
G03*
X869986Y4809263I-42333J0D01*
G01*
X975797D02*
G03*
X975797Y4809263I-42333J0D01*
G01*
X665028D02*
G03*
X665028Y4809263I-42333J0D01*
G01*
X348407D02*
G03*
X348407Y4809263I-42333J0D01*
G01*
X454218D02*
G03*
X454218Y4809263I-42333J0D01*
G01*
X560028D02*
G03*
X560028Y4809263I-42333J0D01*
G01*
X159688Y3983186D02*
G03*
X159688Y3983186I-42333J0D01*
G01*
Y3877375D02*
G03*
X159688Y3877375I-42333J0D01*
G01*
Y3771565D02*
G03*
X159688Y3771565I-42333J0D01*
G01*
Y4082333D02*
G03*
X159688Y4082333I-42333J0D01*
G01*
Y3454944D02*
G03*
X159688Y3454944I-42333J0D01*
G01*
Y3560754D02*
G03*
X159688Y3560754I-42333J0D01*
G01*
Y3666565D02*
G03*
X159688Y3666565I-42333J0D01*
G01*
Y3355796D02*
G03*
X159688Y3355796I-42333J0D01*
G01*
X5424978Y3579500D02*
G03*
X5424978Y3579500I-42333J0D01*
G01*
X4412133Y3290320D02*
G03*
X4412133Y3290320I-42333J0D01*
G01*
X4542254Y1494298D02*
G03*
X4542254Y1494298I-42333J0D01*
G01*
X4290849Y2400133D02*
G03*
X4290849Y2400133I-42333J0D01*
G01*
X4992333Y2563500D02*
G03*
X4992333Y2563500I-42333J0D01*
G01*
X5109573Y1672607D02*
G03*
X5109573Y1672607I-42333J0D01*
G01*
X2599632Y1096528D02*
G03*
X2599632Y1096528I-42333J0D01*
G01*
X592333Y3004500D02*
G03*
X592333Y3004500I-42333J0D01*
G01*
X4211686Y2838306D02*
G03*
X4211686Y2838306I-42333J0D01*
G01*
X3262661Y1773700D02*
G03*
X3262661Y1773700I-42333J0D01*
G01*
X3045162Y2184700D02*
G03*
X3045162Y2184700I-42333J0D01*
G01*
X3150972D02*
G03*
X3150972Y2184700I-42333J0D01*
G01*
X3256783D02*
G03*
X3256783Y2184700I-42333J0D01*
G01*
X1203537Y1859500D02*
G03*
X1203537Y1859500I-42333J0D01*
G01*
X1118694D02*
G03*
X1118694Y1859500I-42333J0D01*
G01*
X5436913Y3249618D02*
G03*
X5436913Y3249618I-42333J0D01*
G01*
X4542254Y1982026D02*
G03*
X4542254Y1982026I-42333J0D01*
G01*
X5289887Y4350000D02*
G03*
X5289887Y4350000I-42333J0D01*
G01*
X5098453Y4110000D02*
G03*
X5098453Y4110000I-42333J0D01*
G01*
Y4590000D02*
G03*
X5098453Y4590000I-42333J0D01*
G01*
X4099968Y4710000D02*
G03*
X4099968Y4710000I-42333J0D01*
G01*
X4311824Y4348895D02*
G03*
X4311824Y4348895I-42333J0D01*
G01*
X4682873D02*
G03*
X4682873Y4348895I-42333J0D01*
G01*
X4552333Y3587240D02*
G03*
X4552333Y3587240I-42333J0D01*
G01*
X2239833Y1847748D02*
G03*
X2239833Y1847748I-42333J0D01*
G01*
X2711455Y1439298D02*
G03*
X2711455Y1439298I-42333J0D01*
G01*
X2017333Y4809263D02*
G03*
X2017333Y4809263I-42333J0D01*
G01*
X159688Y4187333D02*
G03*
X159688Y4187333I-42333J0D01*
G01*
Y4292333D02*
G03*
X159688Y4292333I-42333J0D01*
G01*
Y4397333D02*
G03*
X159688Y4397333I-42333J0D01*
G01*
Y4502333D02*
G03*
X159688Y4502333I-42333J0D01*
G01*
Y4607333D02*
G03*
X159688Y4607333I-42333J0D01*
G01*
X4542254Y2202026D02*
G03*
X4542254Y2202026I-42333J0D01*
G01*
X4099968Y2291761D02*
G03*
X4099968Y2291761I-42333J0D01*
G01*
X4800000Y657667D02*
X4842333Y742333D01*
X4757667D02*
X4842333D01*
X4757667D02*
X4800000Y657667D01*
X700000D02*
X742333Y742333D01*
X657667D02*
X742333D01*
X657667D02*
X700000Y657667D01*
X1695234Y1662101D02*
X1716401Y1640935D01*
X1674068Y1662101D02*
X1695234D01*
X1674068D02*
X1695234Y1683268D01*
X1674068Y1704434D02*
X1695234Y1683268D01*
X1674068Y1704434D02*
X1695234D01*
X1716401Y1725601D01*
X1737567Y1704434D01*
X1758734D01*
X1737567Y1683268D02*
X1758734Y1704434D01*
X1737567Y1683268D02*
X1758734Y1662101D01*
X1737567D02*
X1758734D01*
X1716401Y1640935D02*
X1737567Y1662101D01*
X1441234Y1408101D02*
X1462401Y1386935D01*
X1420068Y1408101D02*
X1441234D01*
X1420068D02*
X1441234Y1429268D01*
X1420068Y1450434D02*
X1441234Y1429268D01*
X1420068Y1450434D02*
X1441234D01*
X1462401Y1471601D01*
X1483567Y1450434D01*
X1504734D01*
X1483567Y1429268D02*
X1504734Y1450434D01*
X1483567Y1429268D02*
X1504734Y1408101D01*
X1483567D02*
X1504734D01*
X1462401Y1386935D02*
X1483567Y1408101D01*
X1695234Y1154101D02*
X1716401Y1132935D01*
X1674068Y1154101D02*
X1695234D01*
X1674068D02*
X1695234Y1175268D01*
X1674068Y1196434D02*
X1695234Y1175268D01*
X1674068Y1196434D02*
X1695234D01*
X1716401Y1217601D01*
X1737567Y1196434D01*
X1758734D01*
X1737567Y1175268D02*
X1758734Y1196434D01*
X1737567Y1175268D02*
X1758734Y1154101D01*
X1737567D02*
X1758734D01*
X1716401Y1132935D02*
X1737567Y1154101D01*
X3767667Y267667D02*
X3810000Y288833D01*
X3852333Y267667D01*
X3831167Y310000D02*
X3852333Y267667D01*
X3831167Y310000D02*
X3852333Y352333D01*
X3810000Y331166D02*
X3852333Y352333D01*
X3767667D02*
X3810000Y331166D01*
X3767667Y352333D02*
X3788833Y310000D01*
X3767667Y267667D02*
X3788833Y310000D01*
X3767667Y847667D02*
X3810000Y868833D01*
X3852333Y847667D01*
X3831167Y890000D02*
X3852333Y847667D01*
X3831167Y890000D02*
X3852333Y932333D01*
X3810000Y911167D02*
X3852333Y932333D01*
X3767667D02*
X3810000Y911167D01*
X3767667Y932333D02*
X3788833Y890000D01*
X3767667Y847667D02*
X3788833Y890000D01*
X4247667Y567667D02*
X4290000Y588833D01*
X4332333Y567667D01*
X4311167Y610000D02*
X4332333Y567667D01*
X4311167Y610000D02*
X4332333Y652333D01*
X4290000Y631167D02*
X4332333Y652333D01*
X4247667D02*
X4290000Y631167D01*
X4247667Y652333D02*
X4268833Y610000D01*
X4247667Y567667D02*
X4268833Y610000D01*
D104*
X17199966Y8076333D02*
X17321848D01*
X17260909D01*
Y7893512D01*
X17474199D02*
X17413258D01*
X17382788Y7923982D01*
Y7984923D01*
X17413258Y8015393D01*
X17474199D01*
X17504669Y7984923D01*
Y7954452D01*
X17382788D01*
X17565610Y7893512D02*
Y8015393D01*
X17596078D01*
X17626549Y7984923D01*
Y7893512D01*
Y7984923D01*
X17657021Y8015393D01*
X17687489Y7984923D01*
Y7893512D01*
X17748430Y7832572D02*
Y8015393D01*
X17839841D01*
X17870309Y7984923D01*
Y7923982D01*
X17839841Y7893512D01*
X17748430D01*
X17931252D02*
X17992191D01*
X17961720D01*
Y8076333D01*
X17931252D01*
X18114072Y8015393D02*
X18175012D01*
X18205482Y7984923D01*
Y7893512D01*
X18114072D01*
X18083601Y7923982D01*
X18114072Y7954452D01*
X18205482D01*
X18296892Y8045863D02*
Y8015393D01*
X18266422D01*
X18327362D01*
X18296892D01*
Y7923982D01*
X18327362Y7893512D01*
X18510184D02*
X18449243D01*
X18418773Y7923982D01*
Y7984923D01*
X18449243Y8015393D01*
X18510184D01*
X18540654Y7984923D01*
Y7954452D01*
X18418773D01*
X14432172Y7893512D02*
Y8076333D01*
X14523582D01*
X14554053Y8045863D01*
Y7984923D01*
X14523582Y7954452D01*
X14432172D01*
X14645464Y8015393D02*
X14706404D01*
X14736874Y7984923D01*
Y7893512D01*
X14645464D01*
X14614993Y7923982D01*
X14645464Y7954452D01*
X14736874D01*
X14919695Y8076333D02*
Y7893512D01*
X14828284D01*
X14797813Y7923982D01*
Y7984923D01*
X14828284Y8015393D01*
X14919695D01*
X15285336Y8045863D02*
X15254866Y8076333D01*
X15193925D01*
X15163457Y8045863D01*
Y8015393D01*
X15193925Y7984923D01*
X15254866D01*
X15285336Y7954452D01*
Y7923982D01*
X15254866Y7893512D01*
X15193925D01*
X15163457Y7923982D01*
X15346275Y8076333D02*
Y7893512D01*
Y7984923D01*
X15376746Y8015393D01*
X15437688D01*
X15468156Y7984923D01*
Y7893512D01*
X15559567Y8015393D02*
X15620508D01*
X15650978Y7984923D01*
Y7893512D01*
X15559567D01*
X15529097Y7923982D01*
X15559567Y7954452D01*
X15650978D01*
X15711919Y7832572D02*
Y8015393D01*
X15803329D01*
X15833800Y7984923D01*
Y7923982D01*
X15803329Y7893512D01*
X15711919D01*
X15986150D02*
X15925209D01*
X15894739Y7923982D01*
Y7984923D01*
X15925209Y8015393D01*
X15986150D01*
X16016618Y7984923D01*
Y7954452D01*
X15894739D01*
X12933957Y8076333D02*
Y7954452D01*
X12994897Y7893512D01*
X13055836Y7954452D01*
Y8076333D01*
X13116779Y7893512D02*
X13177718D01*
X13147247D01*
Y8015393D01*
X13116779D01*
X13299599D02*
X13360539D01*
X13391010Y7984923D01*
Y7893512D01*
X13299599D01*
X13269128Y7923982D01*
X13299599Y7954452D01*
X13391010D01*
X13451949Y7893512D02*
X13573830Y8015393D01*
X13634770Y7893512D02*
Y8076333D01*
X13726181D01*
X13756651Y8045863D01*
Y7984923D01*
X13726181Y7954452D01*
X13634770D01*
X13848061Y8015393D02*
X13909001D01*
X13939471Y7984923D01*
Y7893512D01*
X13848061D01*
X13817590Y7923982D01*
X13848061Y7954452D01*
X13939471D01*
X14122292Y8076333D02*
Y7893512D01*
X14030882D01*
X14000412Y7923982D01*
Y7984923D01*
X14030882Y8015393D01*
X14122292D01*
X9125099Y8076333D02*
Y7893512D01*
X9216509D01*
X9246979Y7923982D01*
Y8045863D01*
X9216509Y8076333D01*
X9125099D01*
X9307919Y8015393D02*
Y7893512D01*
Y7954452D01*
X9338390Y7984923D01*
X9368860Y8015393D01*
X9399330D01*
X9490740Y7893512D02*
X9551680D01*
X9521210D01*
Y8015393D01*
X9490740D01*
X9643091Y7893512D02*
X9704031D01*
X9673561D01*
Y8076333D01*
X9643091D01*
X9795442Y7893512D02*
X9856382D01*
X9825912D01*
Y8076333D01*
X9795442D01*
X10130613D02*
Y7893512D01*
X10252494D01*
X10343904Y8015393D02*
X10404845D01*
X10435315Y7984923D01*
Y7893512D01*
X10343904D01*
X10313434Y7923982D01*
X10343904Y7954452D01*
X10435315D01*
X10496255Y8015393D02*
Y7923982D01*
X10526725Y7893512D01*
X10618135D01*
Y7863042D01*
X10587665Y7832572D01*
X10557195D01*
X10618135Y7893512D02*
Y8015393D01*
X10770486Y7893512D02*
X10709546D01*
X10679076Y7923982D01*
Y7984923D01*
X10709546Y8015393D01*
X10770486D01*
X10800956Y7984923D01*
Y7954452D01*
X10679076D01*
X10861896Y8015393D02*
Y7893512D01*
Y7954452D01*
X10892367Y7984923D01*
X10922837Y8015393D01*
X10953307D01*
X11227538Y7893512D02*
Y8076333D01*
X11318949D01*
X11349419Y8045863D01*
Y7984923D01*
X11318949Y7954452D01*
X11227538D01*
X11440829Y8015393D02*
X11501769D01*
X11532240Y7984923D01*
Y7893512D01*
X11440829D01*
X11410359Y7923982D01*
X11440829Y7954452D01*
X11532240D01*
X11593180Y7893512D02*
X11654120D01*
X11623650D01*
Y8015393D01*
X11593180D01*
X11745530D02*
Y7893512D01*
Y7954452D01*
X11776001Y7984923D01*
X11806471Y8015393D01*
X11836941D01*
X7261242Y8076333D02*
Y7893512D01*
Y7984923D01*
X7383122D01*
Y8076333D01*
Y7893512D01*
X7474532D02*
X7535473D01*
X7565943Y7923982D01*
Y7984923D01*
X7535473Y8015393D01*
X7474532D01*
X7444062Y7984923D01*
Y7923982D01*
X7474532Y7893512D01*
X7626883D02*
X7687823D01*
X7657353D01*
Y8076333D01*
X7626883D01*
X7870644Y7893512D02*
X7809704D01*
X7779234Y7923982D01*
Y7984923D01*
X7809704Y8015393D01*
X7870644D01*
X7901114Y7984923D01*
Y7954452D01*
X7779234D01*
X8144876Y8076333D02*
X8266756D01*
X8205816D01*
Y7893512D01*
X8327696Y8015393D02*
Y7923982D01*
X8358166Y7893512D01*
X8449577D01*
Y7863042D01*
X8419107Y7832572D01*
X8388637D01*
X8449577Y7893512D02*
Y8015393D01*
X8510517Y7832572D02*
Y8015393D01*
X8601928D01*
X8632398Y7984923D01*
Y7923982D01*
X8601928Y7893512D01*
X8510517D01*
X8784748D02*
X8723808D01*
X8693338Y7923982D01*
Y7984923D01*
X8723808Y8015393D01*
X8784748D01*
X8815219Y7984923D01*
Y7954452D01*
X8693338D01*
X5976317Y7893512D02*
Y8076333D01*
X6067728D01*
X6098198Y8045863D01*
Y7984923D01*
X6067728Y7954452D01*
X5976317D01*
X6159138Y7893512D02*
X6220078D01*
X6189608D01*
Y8076333D01*
X6159138D01*
X6341959Y8015393D02*
X6402899D01*
X6433369Y7984923D01*
Y7893512D01*
X6341959D01*
X6311489Y7923982D01*
X6341959Y7954452D01*
X6433369D01*
X6524779Y8045863D02*
Y8015393D01*
X6494309D01*
X6555250D01*
X6524779D01*
Y7923982D01*
X6555250Y7893512D01*
X6738071D02*
X6677130D01*
X6646660Y7923982D01*
Y7984923D01*
X6677130Y8015393D01*
X6738071D01*
X6768541Y7984923D01*
Y7954452D01*
X6646660D01*
X6951362Y8076333D02*
Y7893512D01*
X6859951D01*
X6829481Y7923982D01*
Y7984923D01*
X6859951Y8015393D01*
X6951362D01*
X3030780Y8076333D02*
Y7893512D01*
Y7984923D01*
X3152660D01*
Y8076333D01*
Y7893512D01*
X3244071D02*
X3305011D01*
X3335481Y7923982D01*
Y7984923D01*
X3305011Y8015393D01*
X3244071D01*
X3213601Y7984923D01*
Y7923982D01*
X3244071Y7893512D01*
X3396421D02*
X3457362D01*
X3426892D01*
Y8076333D01*
X3396421D01*
X3640183Y7893512D02*
X3579242D01*
X3548772Y7923982D01*
Y7984923D01*
X3579242Y8015393D01*
X3640183D01*
X3670653Y7984923D01*
Y7954452D01*
X3548772D01*
X4036294Y8045863D02*
X4005824Y8076333D01*
X3944884D01*
X3914414Y8045863D01*
Y8015393D01*
X3944884Y7984923D01*
X4005824D01*
X4036294Y7954452D01*
Y7923982D01*
X4005824Y7893512D01*
X3944884D01*
X3914414Y7923982D01*
X4097235Y7893512D02*
X4158175D01*
X4127705D01*
Y8015393D01*
X4097235D01*
X4249585D02*
X4371466D01*
X4249585Y7893512D01*
X4371466D01*
X4523817D02*
X4462876D01*
X4432406Y7923982D01*
Y7984923D01*
X4462876Y8015393D01*
X4523817D01*
X4554287Y7984923D01*
Y7954452D01*
X4432406D01*
X1654455Y8045863D02*
X1623985Y8076333D01*
X1563044D01*
X1532574Y8045863D01*
Y7923982D01*
X1563044Y7893512D01*
X1623985D01*
X1654455Y7923982D01*
X1745865Y7893512D02*
X1806806D01*
X1837276Y7923982D01*
Y7984923D01*
X1806806Y8015393D01*
X1745865D01*
X1715395Y7984923D01*
Y7923982D01*
X1745865Y7893512D01*
X1898216Y8015393D02*
Y7923982D01*
X1928686Y7893512D01*
X2020097D01*
Y8015393D01*
X2081037Y7893512D02*
Y8015393D01*
X2172447D01*
X2202917Y7984923D01*
Y7893512D01*
X2294328Y8045863D02*
Y8015393D01*
X2263858D01*
X2324798D01*
X2294328D01*
Y7923982D01*
X2324798Y7893512D01*
X369531Y8045863D02*
X339061Y8076333D01*
X278120D01*
X247650Y8045863D01*
Y8015393D01*
X278120Y7984923D01*
X339061D01*
X369531Y7954452D01*
Y7923982D01*
X339061Y7893512D01*
X278120D01*
X247650Y7923982D01*
X430471Y8015393D02*
Y7923982D01*
X460941Y7893512D01*
X552351D01*
Y7863042D01*
X521881Y7832572D01*
X491411D01*
X552351Y7893512D02*
Y8015393D01*
X613292Y7893512D02*
Y8015393D01*
X643762D01*
X674232Y7984923D01*
Y7893512D01*
Y7984923D01*
X704702Y8015393D01*
X735172Y7984923D01*
Y7893512D01*
X796112Y8076333D02*
Y7893512D01*
X887523D01*
X917993Y7923982D01*
Y7954452D01*
Y7984923D01*
X887523Y8015393D01*
X796112D01*
X1009403Y7893512D02*
X1070344D01*
X1100814Y7923982D01*
Y7984923D01*
X1070344Y8015393D01*
X1009403D01*
X978933Y7984923D01*
Y7923982D01*
X1009403Y7893512D01*
X1161754D02*
X1222694D01*
X1192224D01*
Y8076333D01*
X1161754D01*
D105*
X2870681Y5518694D02*
Y5366344D01*
Y5442519D01*
X2972248D01*
Y5518694D01*
Y5366344D01*
X3048424D02*
X3099207D01*
X3124599Y5391735D01*
Y5442519D01*
X3099207Y5467911D01*
X3048424D01*
X3023032Y5442519D01*
Y5391735D01*
X3048424Y5366344D01*
X3175383D02*
X3226166D01*
X3200774D01*
Y5518694D01*
X3175383D01*
X3378517Y5366344D02*
X3327733D01*
X3302341Y5391735D01*
Y5442519D01*
X3327733Y5467911D01*
X3378517D01*
X3403909Y5442519D01*
Y5417127D01*
X3302341D01*
X3607043Y5518694D02*
Y5366344D01*
X3708610D01*
X3835569D02*
X3784785D01*
X3759394Y5391735D01*
Y5442519D01*
X3784785Y5467911D01*
X3835569D01*
X3860961Y5442519D01*
Y5417127D01*
X3759394D01*
X3911744Y5366344D02*
Y5467911D01*
X3987920D01*
X4013312Y5442519D01*
Y5366344D01*
X4114878Y5315560D02*
X4140270D01*
X4165662Y5340952D01*
Y5467911D01*
X4089487D01*
X4064095Y5442519D01*
Y5391735D01*
X4089487Y5366344D01*
X4165662D01*
X4241838Y5493302D02*
Y5467911D01*
X4216446D01*
X4267229D01*
X4241838D01*
Y5391735D01*
X4267229Y5366344D01*
X4343405Y5518694D02*
Y5366344D01*
Y5442519D01*
X4368796Y5467911D01*
X4419580D01*
X4444972Y5442519D01*
Y5366344D01*
X2870681Y5620278D02*
Y5772629D01*
X2946856D01*
X2972248Y5747237D01*
Y5696453D01*
X2946856Y5671061D01*
X2870681D01*
X2921465D02*
X2972248Y5620278D01*
X3048424D02*
X3099207D01*
X3124599Y5645670D01*
Y5696453D01*
X3099207Y5721845D01*
X3048424D01*
X3023032Y5696453D01*
Y5645670D01*
X3048424Y5620278D01*
X3175383Y5721845D02*
Y5645670D01*
X3200774Y5620278D01*
X3276950D01*
Y5721845D01*
X3353125Y5747237D02*
Y5721845D01*
X3327733D01*
X3378517D01*
X3353125D01*
Y5645670D01*
X3378517Y5620278D01*
X3530867D02*
X3480084D01*
X3454692Y5645670D01*
Y5696453D01*
X3480084Y5721845D01*
X3530867D01*
X3556259Y5696453D01*
Y5671061D01*
X3454692D01*
X3708610Y5772629D02*
Y5620278D01*
X3632435D01*
X3607043Y5645670D01*
Y5696453D01*
X3632435Y5721845D01*
X3708610D01*
X3911744Y5620278D02*
Y5772629D01*
X3987920D01*
X4013312Y5747237D01*
Y5696453D01*
X3987920Y5671061D01*
X3911744D01*
X4089487Y5721845D02*
X4140270D01*
X4165662Y5696453D01*
Y5620278D01*
X4089487D01*
X4064095Y5645670D01*
X4089487Y5671061D01*
X4165662D01*
X4241838Y5747237D02*
Y5721845D01*
X4216446D01*
X4267229D01*
X4241838D01*
Y5645670D01*
X4267229Y5620278D01*
X4343405Y5772629D02*
Y5620278D01*
Y5696453D01*
X4368796Y5721845D01*
X4419580D01*
X4444972Y5696453D01*
Y5620278D01*
X4648106Y5772629D02*
Y5620278D01*
X4749673D01*
X4876632D02*
X4825849D01*
X4800457Y5645670D01*
Y5696453D01*
X4825849Y5721845D01*
X4876632D01*
X4902024Y5696453D01*
Y5671061D01*
X4800457D01*
X4952807Y5620278D02*
Y5721845D01*
X5028983D01*
X5054375Y5696453D01*
Y5620278D01*
X5155942Y5569494D02*
X5181334D01*
X5206725Y5594886D01*
Y5721845D01*
X5130550D01*
X5105158Y5696453D01*
Y5645670D01*
X5130550Y5620278D01*
X5206725D01*
X5282901Y5747237D02*
Y5721845D01*
X5257509D01*
X5308292D01*
X5282901D01*
Y5645670D01*
X5308292Y5620278D01*
X5384468Y5772629D02*
Y5620278D01*
Y5696453D01*
X5409860Y5721845D01*
X5460643D01*
X5486035Y5696453D01*
Y5620278D01*
X349217Y5747237D02*
X323825Y5772629D01*
X273042D01*
X247650Y5747237D01*
Y5721845D01*
X273042Y5696453D01*
X323825D01*
X349217Y5671061D01*
Y5645670D01*
X323825Y5620278D01*
X273042D01*
X247650Y5645670D01*
X400001Y5620278D02*
X450784D01*
X425393D01*
Y5772629D01*
X400001D01*
X552351Y5620278D02*
X603135D01*
X628527Y5645670D01*
Y5696453D01*
X603135Y5721845D01*
X552351D01*
X526960Y5696453D01*
Y5645670D01*
X552351Y5620278D01*
X704702Y5747237D02*
Y5721845D01*
X679310D01*
X730094D01*
X704702D01*
Y5645670D01*
X730094Y5620278D01*
X1060187Y5772629D02*
Y5620278D01*
X984012D01*
X958620Y5645670D01*
Y5696453D01*
X984012Y5721845D01*
X1060187D01*
X1187146Y5620278D02*
X1136362D01*
X1110971Y5645670D01*
Y5696453D01*
X1136362Y5721845D01*
X1187146D01*
X1212538Y5696453D01*
Y5671061D01*
X1110971D01*
X1288713Y5620278D02*
Y5747237D01*
Y5696453D01*
X1263321D01*
X1314105D01*
X1288713D01*
Y5747237D01*
X1314105Y5772629D01*
X1390280Y5620278D02*
X1441064D01*
X1415672D01*
Y5721845D01*
X1390280D01*
X1517239Y5620278D02*
Y5721845D01*
X1593414D01*
X1618806Y5696453D01*
Y5620278D01*
X1669590D02*
X1720373D01*
X1694982D01*
Y5721845D01*
X1669590D01*
X1821940Y5747237D02*
Y5721845D01*
X1796549D01*
X1847332D01*
X1821940D01*
Y5645670D01*
X1847332Y5620278D01*
X1923507D02*
X1974291D01*
X1948899D01*
Y5721845D01*
X1923507D01*
X2075858Y5620278D02*
X2126642D01*
X2152034Y5645670D01*
Y5696453D01*
X2126642Y5721845D01*
X2075858D01*
X2050466Y5696453D01*
Y5645670D01*
X2075858Y5620278D01*
X2202817D02*
Y5721845D01*
X2278992D01*
X2304384Y5696453D01*
Y5620278D01*
X2355168D02*
X2431343D01*
X2456735Y5645670D01*
X2431343Y5671061D01*
X2380560D01*
X2355168Y5696453D01*
X2380560Y5721845D01*
X2456735D01*
X2659869D02*
X2685261D01*
Y5696453D01*
X2659869D01*
Y5721845D01*
Y5645670D02*
X2685261D01*
Y5620278D01*
X2659869D01*
Y5645670D01*
%TF.MD5,0bdf452facbc33266663ae1a665fca3b*%
M02*
